G04 #@! TF.GenerationSoftware,KiCad,Pcbnew,(6.0.7)*
G04 #@! TF.CreationDate,2022-12-20T18:53:36-08:00*
G04 #@! TF.ProjectId,procon_gcc_main_pcb,70726f63-6f6e-45f6-9763-635f6d61696e,rev?*
G04 #@! TF.SameCoordinates,Original*
G04 #@! TF.FileFunction,AssemblyDrawing,Bot*
%FSLAX46Y46*%
G04 Gerber Fmt 4.6, Leading zero omitted, Abs format (unit mm)*
G04 Created by KiCad (PCBNEW (6.0.7)) date 2022-12-20 18:53:36*
%MOMM*%
%LPD*%
G01*
G04 APERTURE LIST*
%ADD10C,0.150000*%
G04 APERTURE END LIST*
D10*
X117074761Y-111195714D02*
X117122380Y-111338571D01*
X117122380Y-111576666D01*
X117074761Y-111671904D01*
X117027142Y-111719523D01*
X116931904Y-111767142D01*
X116836666Y-111767142D01*
X116741428Y-111719523D01*
X116693809Y-111671904D01*
X116646190Y-111576666D01*
X116598571Y-111386190D01*
X116550952Y-111290952D01*
X116503333Y-111243333D01*
X116408095Y-111195714D01*
X116312857Y-111195714D01*
X116217619Y-111243333D01*
X116170000Y-111290952D01*
X116122380Y-111386190D01*
X116122380Y-111624285D01*
X116170000Y-111767142D01*
X116122380Y-112100476D02*
X117122380Y-112338571D01*
X116408095Y-112529047D01*
X117122380Y-112719523D01*
X116122380Y-112957619D01*
X117217619Y-113100476D02*
X117217619Y-113862380D01*
X117122380Y-114100476D02*
X116122380Y-114100476D01*
X116122380Y-114338571D01*
X116170000Y-114481428D01*
X116265238Y-114576666D01*
X116360476Y-114624285D01*
X116550952Y-114671904D01*
X116693809Y-114671904D01*
X116884285Y-114624285D01*
X116979523Y-114576666D01*
X117074761Y-114481428D01*
X117122380Y-114338571D01*
X117122380Y-114100476D01*
X117122380Y-115100476D02*
X116122380Y-115100476D01*
X117122380Y-115576666D02*
X116122380Y-115576666D01*
X116122380Y-115957619D01*
X116170000Y-116052857D01*
X116217619Y-116100476D01*
X116312857Y-116148095D01*
X116455714Y-116148095D01*
X116550952Y-116100476D01*
X116598571Y-116052857D01*
X116646190Y-115957619D01*
X116646190Y-115576666D01*
X117217619Y-116338571D02*
X117217619Y-117100476D01*
X117122380Y-117243333D02*
X116455714Y-117767142D01*
X116455714Y-117243333D02*
X117122380Y-117767142D01*
X116122380Y-118338571D02*
X116122380Y-118433809D01*
X116170000Y-118529047D01*
X116217619Y-118576666D01*
X116312857Y-118624285D01*
X116503333Y-118671904D01*
X116741428Y-118671904D01*
X116931904Y-118624285D01*
X117027142Y-118576666D01*
X117074761Y-118529047D01*
X117122380Y-118433809D01*
X117122380Y-118338571D01*
X117074761Y-118243333D01*
X117027142Y-118195714D01*
X116931904Y-118148095D01*
X116741428Y-118100476D01*
X116503333Y-118100476D01*
X116312857Y-118148095D01*
X116217619Y-118195714D01*
X116170000Y-118243333D01*
X116122380Y-118338571D01*
X117122380Y-119624285D02*
X117122380Y-119052857D01*
X117122380Y-119338571D02*
X116122380Y-119338571D01*
X116265238Y-119243333D01*
X116360476Y-119148095D01*
X116408095Y-119052857D01*
X118574761Y-114076666D02*
X118622380Y-114219523D01*
X118622380Y-114457619D01*
X118574761Y-114552857D01*
X118527142Y-114600476D01*
X118431904Y-114648095D01*
X118336666Y-114648095D01*
X118241428Y-114600476D01*
X118193809Y-114552857D01*
X118146190Y-114457619D01*
X118098571Y-114267142D01*
X118050952Y-114171904D01*
X118003333Y-114124285D01*
X117908095Y-114076666D01*
X117812857Y-114076666D01*
X117717619Y-114124285D01*
X117670000Y-114171904D01*
X117622380Y-114267142D01*
X117622380Y-114505238D01*
X117670000Y-114648095D01*
X117622380Y-114981428D02*
X118622380Y-115219523D01*
X117908095Y-115410000D01*
X118622380Y-115600476D01*
X117622380Y-115838571D01*
X117622380Y-116124285D02*
X117622380Y-116743333D01*
X118003333Y-116410000D01*
X118003333Y-116552857D01*
X118050952Y-116648095D01*
X118098571Y-116695714D01*
X118193809Y-116743333D01*
X118431904Y-116743333D01*
X118527142Y-116695714D01*
X118574761Y-116648095D01*
X118622380Y-116552857D01*
X118622380Y-116267142D01*
X118574761Y-116171904D01*
X118527142Y-116124285D01*
M02*
