G04 #@! TF.GenerationSoftware,KiCad,Pcbnew,(6.0.7)*
G04 #@! TF.CreationDate,2022-12-20T18:53:35-08:00*
G04 #@! TF.ProjectId,procon_gcc_main_pcb,70726f63-6f6e-45f6-9763-635f6d61696e,rev?*
G04 #@! TF.SameCoordinates,Original*
G04 #@! TF.FileFunction,Legend,Top*
G04 #@! TF.FilePolarity,Positive*
%FSLAX46Y46*%
G04 Gerber Fmt 4.6, Leading zero omitted, Abs format (unit mm)*
G04 Created by KiCad (PCBNEW (6.0.7)) date 2022-12-20 18:53:35*
%MOMM*%
%LPD*%
G01*
G04 APERTURE LIST*
%ADD10C,0.300000*%
%ADD11C,0.250000*%
%ADD12C,0.150000*%
%ADD13C,0.080000*%
%ADD14C,0.100000*%
%ADD15C,0.120000*%
%ADD16C,0.200000*%
%ADD17C,0.127000*%
G04 APERTURE END LIST*
D10*
X87840000Y-108828571D02*
X88697142Y-108828571D01*
X88268571Y-110328571D02*
X88268571Y-108828571D01*
X89197142Y-110328571D02*
X89197142Y-108828571D01*
X89840000Y-110328571D02*
X89840000Y-109542857D01*
X89768571Y-109400000D01*
X89625714Y-109328571D01*
X89411428Y-109328571D01*
X89268571Y-109400000D01*
X89197142Y-109471428D01*
X90554285Y-110328571D02*
X90554285Y-109328571D01*
X90554285Y-108828571D02*
X90482857Y-108900000D01*
X90554285Y-108971428D01*
X90625714Y-108900000D01*
X90554285Y-108828571D01*
X90554285Y-108971428D01*
X91268571Y-109328571D02*
X91268571Y-110328571D01*
X91268571Y-109471428D02*
X91340000Y-109400000D01*
X91482857Y-109328571D01*
X91697142Y-109328571D01*
X91840000Y-109400000D01*
X91911428Y-109542857D01*
X91911428Y-110328571D01*
X93268571Y-109328571D02*
X93268571Y-110542857D01*
X93197142Y-110685714D01*
X93125714Y-110757142D01*
X92982857Y-110828571D01*
X92768571Y-110828571D01*
X92625714Y-110757142D01*
X93268571Y-110257142D02*
X93125714Y-110328571D01*
X92840000Y-110328571D01*
X92697142Y-110257142D01*
X92625714Y-110185714D01*
X92554285Y-110042857D01*
X92554285Y-109614285D01*
X92625714Y-109471428D01*
X92697142Y-109400000D01*
X92840000Y-109328571D01*
X93125714Y-109328571D01*
X93268571Y-109400000D01*
X94625714Y-110328571D02*
X94625714Y-109542857D01*
X94554285Y-109400000D01*
X94411428Y-109328571D01*
X94125714Y-109328571D01*
X93982857Y-109400000D01*
X94625714Y-110257142D02*
X94482857Y-110328571D01*
X94125714Y-110328571D01*
X93982857Y-110257142D01*
X93911428Y-110114285D01*
X93911428Y-109971428D01*
X93982857Y-109828571D01*
X94125714Y-109757142D01*
X94482857Y-109757142D01*
X94625714Y-109685714D01*
X95340000Y-110328571D02*
X95340000Y-109328571D01*
X95340000Y-109471428D02*
X95411428Y-109400000D01*
X95554285Y-109328571D01*
X95768571Y-109328571D01*
X95911428Y-109400000D01*
X95982857Y-109542857D01*
X95982857Y-110328571D01*
X95982857Y-109542857D02*
X96054285Y-109400000D01*
X96197142Y-109328571D01*
X96411428Y-109328571D01*
X96554285Y-109400000D01*
X96625714Y-109542857D01*
X96625714Y-110328571D01*
X97982857Y-110328571D02*
X97982857Y-109542857D01*
X97911428Y-109400000D01*
X97768571Y-109328571D01*
X97482857Y-109328571D01*
X97340000Y-109400000D01*
X97982857Y-110257142D02*
X97840000Y-110328571D01*
X97482857Y-110328571D01*
X97340000Y-110257142D01*
X97268571Y-110114285D01*
X97268571Y-109971428D01*
X97340000Y-109828571D01*
X97482857Y-109757142D01*
X97840000Y-109757142D01*
X97982857Y-109685714D01*
X99839999Y-110328571D02*
X99839999Y-108828571D01*
X100411428Y-108828571D01*
X100554285Y-108900000D01*
X100625714Y-108971428D01*
X100697142Y-109114285D01*
X100697142Y-109328571D01*
X100625714Y-109471428D01*
X100554285Y-109542857D01*
X100411428Y-109614285D01*
X99839999Y-109614285D01*
X101339999Y-110328571D02*
X101339999Y-109328571D01*
X101339999Y-109614285D02*
X101411428Y-109471428D01*
X101482857Y-109400000D01*
X101625714Y-109328571D01*
X101768571Y-109328571D01*
X102482857Y-110328571D02*
X102340000Y-110257142D01*
X102268571Y-110185714D01*
X102197142Y-110042857D01*
X102197142Y-109614285D01*
X102268571Y-109471428D01*
X102340000Y-109400000D01*
X102482857Y-109328571D01*
X102697142Y-109328571D01*
X102840000Y-109400000D01*
X102911428Y-109471428D01*
X102982857Y-109614285D01*
X102982857Y-110042857D01*
X102911428Y-110185714D01*
X102840000Y-110257142D01*
X102697142Y-110328571D01*
X102482857Y-110328571D01*
X104697142Y-108971428D02*
X104768571Y-108900000D01*
X104911428Y-108828571D01*
X105268571Y-108828571D01*
X105411428Y-108900000D01*
X105482857Y-108971428D01*
X105554285Y-109114285D01*
X105554285Y-109257142D01*
X105482857Y-109471428D01*
X104625714Y-110328571D01*
X105554285Y-110328571D01*
X106197142Y-110185714D02*
X106268571Y-110257142D01*
X106197142Y-110328571D01*
X106125714Y-110257142D01*
X106197142Y-110185714D01*
X106197142Y-110328571D01*
X107197142Y-108828571D02*
X107340000Y-108828571D01*
X107482857Y-108900000D01*
X107554285Y-108971428D01*
X107625714Y-109114285D01*
X107697142Y-109400000D01*
X107697142Y-109757142D01*
X107625714Y-110042857D01*
X107554285Y-110185714D01*
X107482857Y-110257142D01*
X107340000Y-110328571D01*
X107197142Y-110328571D01*
X107054285Y-110257142D01*
X106982857Y-110185714D01*
X106911428Y-110042857D01*
X106840000Y-109757142D01*
X106840000Y-109400000D01*
X106911428Y-109114285D01*
X106982857Y-108971428D01*
X107054285Y-108900000D01*
X107197142Y-108828571D01*
D11*
X157081428Y-107792380D02*
X157700476Y-107792380D01*
X157367142Y-108173333D01*
X157510000Y-108173333D01*
X157605238Y-108220952D01*
X157652857Y-108268571D01*
X157700476Y-108363809D01*
X157700476Y-108601904D01*
X157652857Y-108697142D01*
X157605238Y-108744761D01*
X157510000Y-108792380D01*
X157224285Y-108792380D01*
X157129047Y-108744761D01*
X157081428Y-108697142D01*
X158129047Y-108697142D02*
X158176666Y-108744761D01*
X158129047Y-108792380D01*
X158081428Y-108744761D01*
X158129047Y-108697142D01*
X158129047Y-108792380D01*
X158510000Y-107792380D02*
X159129047Y-107792380D01*
X158795714Y-108173333D01*
X158938571Y-108173333D01*
X159033809Y-108220952D01*
X159081428Y-108268571D01*
X159129047Y-108363809D01*
X159129047Y-108601904D01*
X159081428Y-108697142D01*
X159033809Y-108744761D01*
X158938571Y-108792380D01*
X158652857Y-108792380D01*
X158557619Y-108744761D01*
X158510000Y-108697142D01*
X159462380Y-108125714D02*
X159700476Y-108792380D01*
X159938571Y-108125714D01*
X158677142Y-109882380D02*
X158200952Y-109882380D01*
X158153333Y-110358571D01*
X158200952Y-110310952D01*
X158296190Y-110263333D01*
X158534285Y-110263333D01*
X158629523Y-110310952D01*
X158677142Y-110358571D01*
X158724761Y-110453809D01*
X158724761Y-110691904D01*
X158677142Y-110787142D01*
X158629523Y-110834761D01*
X158534285Y-110882380D01*
X158296190Y-110882380D01*
X158200952Y-110834761D01*
X158153333Y-110787142D01*
X159058095Y-110215714D02*
X159296190Y-110882380D01*
X159534285Y-110215714D01*
X157839523Y-106075714D02*
X157839523Y-106885238D01*
X157791904Y-106980476D01*
X157744285Y-107028095D01*
X157649047Y-107075714D01*
X157506190Y-107075714D01*
X157410952Y-107028095D01*
X157839523Y-106694761D02*
X157744285Y-106742380D01*
X157553809Y-106742380D01*
X157458571Y-106694761D01*
X157410952Y-106647142D01*
X157363333Y-106551904D01*
X157363333Y-106266190D01*
X157410952Y-106170952D01*
X157458571Y-106123333D01*
X157553809Y-106075714D01*
X157744285Y-106075714D01*
X157839523Y-106123333D01*
X158315714Y-106075714D02*
X158315714Y-106742380D01*
X158315714Y-106170952D02*
X158363333Y-106123333D01*
X158458571Y-106075714D01*
X158601428Y-106075714D01*
X158696666Y-106123333D01*
X158744285Y-106218571D01*
X158744285Y-106742380D01*
X159649047Y-106742380D02*
X159649047Y-105742380D01*
X159649047Y-106694761D02*
X159553809Y-106742380D01*
X159363333Y-106742380D01*
X159268095Y-106694761D01*
X159220476Y-106647142D01*
X159172857Y-106551904D01*
X159172857Y-106266190D01*
X159220476Y-106170952D01*
X159268095Y-106123333D01*
X159363333Y-106075714D01*
X159553809Y-106075714D01*
X159649047Y-106123333D01*
D12*
X113990380Y-112386666D02*
X113514190Y-112720000D01*
X113990380Y-112958095D02*
X112990380Y-112958095D01*
X112990380Y-112577142D01*
X113038000Y-112481904D01*
X113085619Y-112434285D01*
X113180857Y-112386666D01*
X113323714Y-112386666D01*
X113418952Y-112434285D01*
X113466571Y-112481904D01*
X113514190Y-112577142D01*
X113514190Y-112958095D01*
X113085619Y-112005714D02*
X113038000Y-111958095D01*
X112990380Y-111862857D01*
X112990380Y-111624761D01*
X113038000Y-111529523D01*
X113085619Y-111481904D01*
X113180857Y-111434285D01*
X113276095Y-111434285D01*
X113418952Y-111481904D01*
X113990380Y-112053333D01*
X113990380Y-111434285D01*
X144007142Y-117072380D02*
X143673809Y-116596190D01*
X143435714Y-117072380D02*
X143435714Y-116072380D01*
X143816666Y-116072380D01*
X143911904Y-116120000D01*
X143959523Y-116167619D01*
X144007142Y-116262857D01*
X144007142Y-116405714D01*
X143959523Y-116500952D01*
X143911904Y-116548571D01*
X143816666Y-116596190D01*
X143435714Y-116596190D01*
X144388095Y-116167619D02*
X144435714Y-116120000D01*
X144530952Y-116072380D01*
X144769047Y-116072380D01*
X144864285Y-116120000D01*
X144911904Y-116167619D01*
X144959523Y-116262857D01*
X144959523Y-116358095D01*
X144911904Y-116500952D01*
X144340476Y-117072380D01*
X144959523Y-117072380D01*
X145435714Y-117072380D02*
X145626190Y-117072380D01*
X145721428Y-117024761D01*
X145769047Y-116977142D01*
X145864285Y-116834285D01*
X145911904Y-116643809D01*
X145911904Y-116262857D01*
X145864285Y-116167619D01*
X145816666Y-116120000D01*
X145721428Y-116072380D01*
X145530952Y-116072380D01*
X145435714Y-116120000D01*
X145388095Y-116167619D01*
X145340476Y-116262857D01*
X145340476Y-116500952D01*
X145388095Y-116596190D01*
X145435714Y-116643809D01*
X145530952Y-116691428D01*
X145721428Y-116691428D01*
X145816666Y-116643809D01*
X145864285Y-116596190D01*
X145911904Y-116500952D01*
X115665904Y-108900380D02*
X115665904Y-107900380D01*
X115904000Y-107900380D01*
X116046857Y-107948000D01*
X116142095Y-108043238D01*
X116189714Y-108138476D01*
X116237333Y-108328952D01*
X116237333Y-108471809D01*
X116189714Y-108662285D01*
X116142095Y-108757523D01*
X116046857Y-108852761D01*
X115904000Y-108900380D01*
X115665904Y-108900380D01*
X117189714Y-108900380D02*
X116618285Y-108900380D01*
X116904000Y-108900380D02*
X116904000Y-107900380D01*
X116808761Y-108043238D01*
X116713523Y-108138476D01*
X116618285Y-108186095D01*
X162377380Y-118191666D02*
X161901190Y-118525000D01*
X162377380Y-118763095D02*
X161377380Y-118763095D01*
X161377380Y-118382142D01*
X161425000Y-118286904D01*
X161472619Y-118239285D01*
X161567857Y-118191666D01*
X161710714Y-118191666D01*
X161805952Y-118239285D01*
X161853571Y-118286904D01*
X161901190Y-118382142D01*
X161901190Y-118763095D01*
X161710714Y-117334523D02*
X162377380Y-117334523D01*
X161329761Y-117572619D02*
X162044047Y-117810714D01*
X162044047Y-117191666D01*
X169636380Y-138176857D02*
X169160190Y-138510190D01*
X169636380Y-138748285D02*
X168636380Y-138748285D01*
X168636380Y-138367333D01*
X168684000Y-138272095D01*
X168731619Y-138224476D01*
X168826857Y-138176857D01*
X168969714Y-138176857D01*
X169064952Y-138224476D01*
X169112571Y-138272095D01*
X169160190Y-138367333D01*
X169160190Y-138748285D01*
X169636380Y-137224476D02*
X169636380Y-137795904D01*
X169636380Y-137510190D02*
X168636380Y-137510190D01*
X168779238Y-137605428D01*
X168874476Y-137700666D01*
X168922095Y-137795904D01*
X169064952Y-136653047D02*
X169017333Y-136748285D01*
X168969714Y-136795904D01*
X168874476Y-136843523D01*
X168826857Y-136843523D01*
X168731619Y-136795904D01*
X168684000Y-136748285D01*
X168636380Y-136653047D01*
X168636380Y-136462571D01*
X168684000Y-136367333D01*
X168731619Y-136319714D01*
X168826857Y-136272095D01*
X168874476Y-136272095D01*
X168969714Y-136319714D01*
X169017333Y-136367333D01*
X169064952Y-136462571D01*
X169064952Y-136653047D01*
X169112571Y-136748285D01*
X169160190Y-136795904D01*
X169255428Y-136843523D01*
X169445904Y-136843523D01*
X169541142Y-136795904D01*
X169588761Y-136748285D01*
X169636380Y-136653047D01*
X169636380Y-136462571D01*
X169588761Y-136367333D01*
X169541142Y-136319714D01*
X169445904Y-136272095D01*
X169255428Y-136272095D01*
X169160190Y-136319714D01*
X169112571Y-136367333D01*
X169064952Y-136462571D01*
X132127142Y-117757142D02*
X132079523Y-117804761D01*
X131936666Y-117852380D01*
X131841428Y-117852380D01*
X131698571Y-117804761D01*
X131603333Y-117709523D01*
X131555714Y-117614285D01*
X131508095Y-117423809D01*
X131508095Y-117280952D01*
X131555714Y-117090476D01*
X131603333Y-116995238D01*
X131698571Y-116900000D01*
X131841428Y-116852380D01*
X131936666Y-116852380D01*
X132079523Y-116900000D01*
X132127142Y-116947619D01*
X133079523Y-117852380D02*
X132508095Y-117852380D01*
X132793809Y-117852380D02*
X132793809Y-116852380D01*
X132698571Y-116995238D01*
X132603333Y-117090476D01*
X132508095Y-117138095D01*
X133698571Y-116852380D02*
X133793809Y-116852380D01*
X133889047Y-116900000D01*
X133936666Y-116947619D01*
X133984285Y-117042857D01*
X134031904Y-117233333D01*
X134031904Y-117471428D01*
X133984285Y-117661904D01*
X133936666Y-117757142D01*
X133889047Y-117804761D01*
X133793809Y-117852380D01*
X133698571Y-117852380D01*
X133603333Y-117804761D01*
X133555714Y-117757142D01*
X133508095Y-117661904D01*
X133460476Y-117471428D01*
X133460476Y-117233333D01*
X133508095Y-117042857D01*
X133555714Y-116947619D01*
X133603333Y-116900000D01*
X133698571Y-116852380D01*
X121522380Y-101363333D02*
X122236666Y-101363333D01*
X122379523Y-101410952D01*
X122474761Y-101506190D01*
X122522380Y-101649047D01*
X122522380Y-101744285D01*
X121855714Y-100458571D02*
X122522380Y-100458571D01*
X121474761Y-100696666D02*
X122189047Y-100934761D01*
X122189047Y-100315714D01*
X102748095Y-120462380D02*
X102748095Y-121271904D01*
X102795714Y-121367142D01*
X102843333Y-121414761D01*
X102938571Y-121462380D01*
X103129047Y-121462380D01*
X103224285Y-121414761D01*
X103271904Y-121367142D01*
X103319523Y-121271904D01*
X103319523Y-120462380D01*
X103700476Y-120462380D02*
X104367142Y-120462380D01*
X103938571Y-121462380D01*
X105481142Y-123831142D02*
X105433523Y-123878761D01*
X105290666Y-123926380D01*
X105195428Y-123926380D01*
X105052571Y-123878761D01*
X104957333Y-123783523D01*
X104909714Y-123688285D01*
X104862095Y-123497809D01*
X104862095Y-123354952D01*
X104909714Y-123164476D01*
X104957333Y-123069238D01*
X105052571Y-122974000D01*
X105195428Y-122926380D01*
X105290666Y-122926380D01*
X105433523Y-122974000D01*
X105481142Y-123021619D01*
X105814476Y-122926380D02*
X106433523Y-122926380D01*
X106100190Y-123307333D01*
X106243047Y-123307333D01*
X106338285Y-123354952D01*
X106385904Y-123402571D01*
X106433523Y-123497809D01*
X106433523Y-123735904D01*
X106385904Y-123831142D01*
X106338285Y-123878761D01*
X106243047Y-123926380D01*
X105957333Y-123926380D01*
X105862095Y-123878761D01*
X105814476Y-123831142D01*
X107385904Y-123926380D02*
X106814476Y-123926380D01*
X107100190Y-123926380D02*
X107100190Y-122926380D01*
X107004952Y-123069238D01*
X106909714Y-123164476D01*
X106814476Y-123212095D01*
X161822619Y-122920238D02*
X161775000Y-123015476D01*
X161679761Y-123110714D01*
X161536904Y-123253571D01*
X161489285Y-123348809D01*
X161489285Y-123444047D01*
X161727380Y-123396428D02*
X161679761Y-123491666D01*
X161584523Y-123586904D01*
X161394047Y-123634523D01*
X161060714Y-123634523D01*
X160870238Y-123586904D01*
X160775000Y-123491666D01*
X160727380Y-123396428D01*
X160727380Y-123205952D01*
X160775000Y-123110714D01*
X160870238Y-123015476D01*
X161060714Y-122967857D01*
X161394047Y-122967857D01*
X161584523Y-123015476D01*
X161679761Y-123110714D01*
X161727380Y-123205952D01*
X161727380Y-123396428D01*
X160727380Y-122634523D02*
X160727380Y-122015476D01*
X161108333Y-122348809D01*
X161108333Y-122205952D01*
X161155952Y-122110714D01*
X161203571Y-122063095D01*
X161298809Y-122015476D01*
X161536904Y-122015476D01*
X161632142Y-122063095D01*
X161679761Y-122110714D01*
X161727380Y-122205952D01*
X161727380Y-122491666D01*
X161679761Y-122586904D01*
X161632142Y-122634523D01*
X154083333Y-105222142D02*
X154035714Y-105269761D01*
X153892857Y-105317380D01*
X153797619Y-105317380D01*
X153654761Y-105269761D01*
X153559523Y-105174523D01*
X153511904Y-105079285D01*
X153464285Y-104888809D01*
X153464285Y-104745952D01*
X153511904Y-104555476D01*
X153559523Y-104460238D01*
X153654761Y-104365000D01*
X153797619Y-104317380D01*
X153892857Y-104317380D01*
X154035714Y-104365000D01*
X154083333Y-104412619D01*
X155035714Y-105317380D02*
X154464285Y-105317380D01*
X154750000Y-105317380D02*
X154750000Y-104317380D01*
X154654761Y-104460238D01*
X154559523Y-104555476D01*
X154464285Y-104603095D01*
X137261904Y-107152380D02*
X137261904Y-107961904D01*
X137309523Y-108057142D01*
X137357142Y-108104761D01*
X137452380Y-108152380D01*
X137642857Y-108152380D01*
X137738095Y-108104761D01*
X137785714Y-108057142D01*
X137833333Y-107961904D01*
X137833333Y-107152380D01*
X138833333Y-108152380D02*
X138261904Y-108152380D01*
X138547619Y-108152380D02*
X138547619Y-107152380D01*
X138452380Y-107295238D01*
X138357142Y-107390476D01*
X138261904Y-107438095D01*
X139690476Y-107485714D02*
X139690476Y-108152380D01*
X139452380Y-107104761D02*
X139214285Y-107819047D01*
X139833333Y-107819047D01*
X144754380Y-107462095D02*
X143754380Y-107462095D01*
X143754380Y-107224000D01*
X143802000Y-107081142D01*
X143897238Y-106985904D01*
X143992476Y-106938285D01*
X144182952Y-106890666D01*
X144325809Y-106890666D01*
X144516285Y-106938285D01*
X144611523Y-106985904D01*
X144706761Y-107081142D01*
X144754380Y-107224000D01*
X144754380Y-107462095D01*
X144182952Y-106319238D02*
X144135333Y-106414476D01*
X144087714Y-106462095D01*
X143992476Y-106509714D01*
X143944857Y-106509714D01*
X143849619Y-106462095D01*
X143802000Y-106414476D01*
X143754380Y-106319238D01*
X143754380Y-106128761D01*
X143802000Y-106033523D01*
X143849619Y-105985904D01*
X143944857Y-105938285D01*
X143992476Y-105938285D01*
X144087714Y-105985904D01*
X144135333Y-106033523D01*
X144182952Y-106128761D01*
X144182952Y-106319238D01*
X144230571Y-106414476D01*
X144278190Y-106462095D01*
X144373428Y-106509714D01*
X144563904Y-106509714D01*
X144659142Y-106462095D01*
X144706761Y-106414476D01*
X144754380Y-106319238D01*
X144754380Y-106128761D01*
X144706761Y-106033523D01*
X144659142Y-105985904D01*
X144563904Y-105938285D01*
X144373428Y-105938285D01*
X144278190Y-105985904D01*
X144230571Y-106033523D01*
X144182952Y-106128761D01*
X123513095Y-111252380D02*
X123513095Y-112061904D01*
X123560714Y-112157142D01*
X123608333Y-112204761D01*
X123703571Y-112252380D01*
X123894047Y-112252380D01*
X123989285Y-112204761D01*
X124036904Y-112157142D01*
X124084523Y-112061904D01*
X124084523Y-111252380D01*
X124989285Y-111252380D02*
X124798809Y-111252380D01*
X124703571Y-111300000D01*
X124655952Y-111347619D01*
X124560714Y-111490476D01*
X124513095Y-111680952D01*
X124513095Y-112061904D01*
X124560714Y-112157142D01*
X124608333Y-112204761D01*
X124703571Y-112252380D01*
X124894047Y-112252380D01*
X124989285Y-112204761D01*
X125036904Y-112157142D01*
X125084523Y-112061904D01*
X125084523Y-111823809D01*
X125036904Y-111728571D01*
X124989285Y-111680952D01*
X124894047Y-111633333D01*
X124703571Y-111633333D01*
X124608333Y-111680952D01*
X124560714Y-111728571D01*
X124513095Y-111823809D01*
X139452380Y-134198095D02*
X138452380Y-134198095D01*
X138452380Y-133960000D01*
X138500000Y-133817142D01*
X138595238Y-133721904D01*
X138690476Y-133674285D01*
X138880952Y-133626666D01*
X139023809Y-133626666D01*
X139214285Y-133674285D01*
X139309523Y-133721904D01*
X139404761Y-133817142D01*
X139452380Y-133960000D01*
X139452380Y-134198095D01*
X138452380Y-132721904D02*
X138452380Y-133198095D01*
X138928571Y-133245714D01*
X138880952Y-133198095D01*
X138833333Y-133102857D01*
X138833333Y-132864761D01*
X138880952Y-132769523D01*
X138928571Y-132721904D01*
X139023809Y-132674285D01*
X139261904Y-132674285D01*
X139357142Y-132721904D01*
X139404761Y-132769523D01*
X139452380Y-132864761D01*
X139452380Y-133102857D01*
X139404761Y-133198095D01*
X139357142Y-133245714D01*
X131037142Y-127132380D02*
X130703809Y-126656190D01*
X130465714Y-127132380D02*
X130465714Y-126132380D01*
X130846666Y-126132380D01*
X130941904Y-126180000D01*
X130989523Y-126227619D01*
X131037142Y-126322857D01*
X131037142Y-126465714D01*
X130989523Y-126560952D01*
X130941904Y-126608571D01*
X130846666Y-126656190D01*
X130465714Y-126656190D01*
X131989523Y-127132380D02*
X131418095Y-127132380D01*
X131703809Y-127132380D02*
X131703809Y-126132380D01*
X131608571Y-126275238D01*
X131513333Y-126370476D01*
X131418095Y-126418095D01*
X132370476Y-126227619D02*
X132418095Y-126180000D01*
X132513333Y-126132380D01*
X132751428Y-126132380D01*
X132846666Y-126180000D01*
X132894285Y-126227619D01*
X132941904Y-126322857D01*
X132941904Y-126418095D01*
X132894285Y-126560952D01*
X132322857Y-127132380D01*
X132941904Y-127132380D01*
X112957142Y-121192857D02*
X113004761Y-121240476D01*
X113052380Y-121383333D01*
X113052380Y-121478571D01*
X113004761Y-121621428D01*
X112909523Y-121716666D01*
X112814285Y-121764285D01*
X112623809Y-121811904D01*
X112480952Y-121811904D01*
X112290476Y-121764285D01*
X112195238Y-121716666D01*
X112100000Y-121621428D01*
X112052380Y-121478571D01*
X112052380Y-121383333D01*
X112100000Y-121240476D01*
X112147619Y-121192857D01*
X113052380Y-120240476D02*
X113052380Y-120811904D01*
X113052380Y-120526190D02*
X112052380Y-120526190D01*
X112195238Y-120621428D01*
X112290476Y-120716666D01*
X112338095Y-120811904D01*
X112052380Y-119383333D02*
X112052380Y-119573809D01*
X112100000Y-119669047D01*
X112147619Y-119716666D01*
X112290476Y-119811904D01*
X112480952Y-119859523D01*
X112861904Y-119859523D01*
X112957142Y-119811904D01*
X113004761Y-119764285D01*
X113052380Y-119669047D01*
X113052380Y-119478571D01*
X113004761Y-119383333D01*
X112957142Y-119335714D01*
X112861904Y-119288095D01*
X112623809Y-119288095D01*
X112528571Y-119335714D01*
X112480952Y-119383333D01*
X112433333Y-119478571D01*
X112433333Y-119669047D01*
X112480952Y-119764285D01*
X112528571Y-119811904D01*
X112623809Y-119859523D01*
X135413333Y-127142380D02*
X135080000Y-126666190D01*
X134841904Y-127142380D02*
X134841904Y-126142380D01*
X135222857Y-126142380D01*
X135318095Y-126190000D01*
X135365714Y-126237619D01*
X135413333Y-126332857D01*
X135413333Y-126475714D01*
X135365714Y-126570952D01*
X135318095Y-126618571D01*
X135222857Y-126666190D01*
X134841904Y-126666190D01*
X136270476Y-126142380D02*
X136080000Y-126142380D01*
X135984761Y-126190000D01*
X135937142Y-126237619D01*
X135841904Y-126380476D01*
X135794285Y-126570952D01*
X135794285Y-126951904D01*
X135841904Y-127047142D01*
X135889523Y-127094761D01*
X135984761Y-127142380D01*
X136175238Y-127142380D01*
X136270476Y-127094761D01*
X136318095Y-127047142D01*
X136365714Y-126951904D01*
X136365714Y-126713809D01*
X136318095Y-126618571D01*
X136270476Y-126570952D01*
X136175238Y-126523333D01*
X135984761Y-126523333D01*
X135889523Y-126570952D01*
X135841904Y-126618571D01*
X135794285Y-126713809D01*
X167801142Y-144441142D02*
X167753523Y-144488761D01*
X167610666Y-144536380D01*
X167515428Y-144536380D01*
X167372571Y-144488761D01*
X167277333Y-144393523D01*
X167229714Y-144298285D01*
X167182095Y-144107809D01*
X167182095Y-143964952D01*
X167229714Y-143774476D01*
X167277333Y-143679238D01*
X167372571Y-143584000D01*
X167515428Y-143536380D01*
X167610666Y-143536380D01*
X167753523Y-143584000D01*
X167801142Y-143631619D01*
X168182095Y-143631619D02*
X168229714Y-143584000D01*
X168324952Y-143536380D01*
X168563047Y-143536380D01*
X168658285Y-143584000D01*
X168705904Y-143631619D01*
X168753523Y-143726857D01*
X168753523Y-143822095D01*
X168705904Y-143964952D01*
X168134476Y-144536380D01*
X168753523Y-144536380D01*
X169705904Y-144536380D02*
X169134476Y-144536380D01*
X169420190Y-144536380D02*
X169420190Y-143536380D01*
X169324952Y-143679238D01*
X169229714Y-143774476D01*
X169134476Y-143822095D01*
D13*
X168936857Y-135277190D02*
X169199714Y-134576238D01*
X169462571Y-135277190D01*
X169550190Y-134138142D02*
X168630190Y-134138142D01*
X169550190Y-133612428D01*
X168630190Y-133612428D01*
X169287333Y-133218142D02*
X169287333Y-132780047D01*
X169550190Y-133305761D02*
X168630190Y-132999095D01*
X169550190Y-132692428D01*
X169550190Y-132385761D02*
X168630190Y-132385761D01*
X169287333Y-132079095D01*
X168630190Y-131772428D01*
X169550190Y-131772428D01*
X169068285Y-131334333D02*
X169068285Y-131027666D01*
X169550190Y-130896238D02*
X169550190Y-131334333D01*
X168630190Y-131334333D01*
X168630190Y-130896238D01*
D12*
X147547142Y-149582857D02*
X147594761Y-149630476D01*
X147642380Y-149773333D01*
X147642380Y-149868571D01*
X147594761Y-150011428D01*
X147499523Y-150106666D01*
X147404285Y-150154285D01*
X147213809Y-150201904D01*
X147070952Y-150201904D01*
X146880476Y-150154285D01*
X146785238Y-150106666D01*
X146690000Y-150011428D01*
X146642380Y-149868571D01*
X146642380Y-149773333D01*
X146690000Y-149630476D01*
X146737619Y-149582857D01*
X147642380Y-148630476D02*
X147642380Y-149201904D01*
X147642380Y-148916190D02*
X146642380Y-148916190D01*
X146785238Y-149011428D01*
X146880476Y-149106666D01*
X146928095Y-149201904D01*
X146642380Y-148297142D02*
X146642380Y-147630476D01*
X147642380Y-148059047D01*
X164502380Y-118166666D02*
X164026190Y-118500000D01*
X164502380Y-118738095D02*
X163502380Y-118738095D01*
X163502380Y-118357142D01*
X163550000Y-118261904D01*
X163597619Y-118214285D01*
X163692857Y-118166666D01*
X163835714Y-118166666D01*
X163930952Y-118214285D01*
X163978571Y-118261904D01*
X164026190Y-118357142D01*
X164026190Y-118738095D01*
X163502380Y-117261904D02*
X163502380Y-117738095D01*
X163978571Y-117785714D01*
X163930952Y-117738095D01*
X163883333Y-117642857D01*
X163883333Y-117404761D01*
X163930952Y-117309523D01*
X163978571Y-117261904D01*
X164073809Y-117214285D01*
X164311904Y-117214285D01*
X164407142Y-117261904D01*
X164454761Y-117309523D01*
X164502380Y-117404761D01*
X164502380Y-117642857D01*
X164454761Y-117738095D01*
X164407142Y-117785714D01*
X161916666Y-125573571D02*
X161583333Y-125573571D01*
X161583333Y-126097380D02*
X161583333Y-125097380D01*
X162059523Y-125097380D01*
X162964285Y-126097380D02*
X162392857Y-126097380D01*
X162678571Y-126097380D02*
X162678571Y-125097380D01*
X162583333Y-125240238D01*
X162488095Y-125335476D01*
X162392857Y-125383095D01*
X109972619Y-109195238D02*
X109925000Y-109290476D01*
X109829761Y-109385714D01*
X109686904Y-109528571D01*
X109639285Y-109623809D01*
X109639285Y-109719047D01*
X109877380Y-109671428D02*
X109829761Y-109766666D01*
X109734523Y-109861904D01*
X109544047Y-109909523D01*
X109210714Y-109909523D01*
X109020238Y-109861904D01*
X108925000Y-109766666D01*
X108877380Y-109671428D01*
X108877380Y-109480952D01*
X108925000Y-109385714D01*
X109020238Y-109290476D01*
X109210714Y-109242857D01*
X109544047Y-109242857D01*
X109734523Y-109290476D01*
X109829761Y-109385714D01*
X109877380Y-109480952D01*
X109877380Y-109671428D01*
X108972619Y-108861904D02*
X108925000Y-108814285D01*
X108877380Y-108719047D01*
X108877380Y-108480952D01*
X108925000Y-108385714D01*
X108972619Y-108338095D01*
X109067857Y-108290476D01*
X109163095Y-108290476D01*
X109305952Y-108338095D01*
X109877380Y-108909523D01*
X109877380Y-108290476D01*
X144022142Y-117997380D02*
X143688809Y-117521190D01*
X143450714Y-117997380D02*
X143450714Y-116997380D01*
X143831666Y-116997380D01*
X143926904Y-117045000D01*
X143974523Y-117092619D01*
X144022142Y-117187857D01*
X144022142Y-117330714D01*
X143974523Y-117425952D01*
X143926904Y-117473571D01*
X143831666Y-117521190D01*
X143450714Y-117521190D01*
X144355476Y-116997380D02*
X144974523Y-116997380D01*
X144641190Y-117378333D01*
X144784047Y-117378333D01*
X144879285Y-117425952D01*
X144926904Y-117473571D01*
X144974523Y-117568809D01*
X144974523Y-117806904D01*
X144926904Y-117902142D01*
X144879285Y-117949761D01*
X144784047Y-117997380D01*
X144498333Y-117997380D01*
X144403095Y-117949761D01*
X144355476Y-117902142D01*
X145593571Y-116997380D02*
X145688809Y-116997380D01*
X145784047Y-117045000D01*
X145831666Y-117092619D01*
X145879285Y-117187857D01*
X145926904Y-117378333D01*
X145926904Y-117616428D01*
X145879285Y-117806904D01*
X145831666Y-117902142D01*
X145784047Y-117949761D01*
X145688809Y-117997380D01*
X145593571Y-117997380D01*
X145498333Y-117949761D01*
X145450714Y-117902142D01*
X145403095Y-117806904D01*
X145355476Y-117616428D01*
X145355476Y-117378333D01*
X145403095Y-117187857D01*
X145450714Y-117092619D01*
X145498333Y-117045000D01*
X145593571Y-116997380D01*
X143387142Y-107532857D02*
X143434761Y-107580476D01*
X143482380Y-107723333D01*
X143482380Y-107818571D01*
X143434761Y-107961428D01*
X143339523Y-108056666D01*
X143244285Y-108104285D01*
X143053809Y-108151904D01*
X142910952Y-108151904D01*
X142720476Y-108104285D01*
X142625238Y-108056666D01*
X142530000Y-107961428D01*
X142482380Y-107818571D01*
X142482380Y-107723333D01*
X142530000Y-107580476D01*
X142577619Y-107532857D01*
X142577619Y-107151904D02*
X142530000Y-107104285D01*
X142482380Y-107009047D01*
X142482380Y-106770952D01*
X142530000Y-106675714D01*
X142577619Y-106628095D01*
X142672857Y-106580476D01*
X142768095Y-106580476D01*
X142910952Y-106628095D01*
X143482380Y-107199523D01*
X143482380Y-106580476D01*
X142482380Y-106247142D02*
X142482380Y-105628095D01*
X142863333Y-105961428D01*
X142863333Y-105818571D01*
X142910952Y-105723333D01*
X142958571Y-105675714D01*
X143053809Y-105628095D01*
X143291904Y-105628095D01*
X143387142Y-105675714D01*
X143434761Y-105723333D01*
X143482380Y-105818571D01*
X143482380Y-106104285D01*
X143434761Y-106199523D01*
X143387142Y-106247142D01*
X129187142Y-127122380D02*
X128853809Y-126646190D01*
X128615714Y-127122380D02*
X128615714Y-126122380D01*
X128996666Y-126122380D01*
X129091904Y-126170000D01*
X129139523Y-126217619D01*
X129187142Y-126312857D01*
X129187142Y-126455714D01*
X129139523Y-126550952D01*
X129091904Y-126598571D01*
X128996666Y-126646190D01*
X128615714Y-126646190D01*
X130139523Y-127122380D02*
X129568095Y-127122380D01*
X129853809Y-127122380D02*
X129853809Y-126122380D01*
X129758571Y-126265238D01*
X129663333Y-126360476D01*
X129568095Y-126408095D01*
X130472857Y-126122380D02*
X131091904Y-126122380D01*
X130758571Y-126503333D01*
X130901428Y-126503333D01*
X130996666Y-126550952D01*
X131044285Y-126598571D01*
X131091904Y-126693809D01*
X131091904Y-126931904D01*
X131044285Y-127027142D01*
X130996666Y-127074761D01*
X130901428Y-127122380D01*
X130615714Y-127122380D01*
X130520476Y-127074761D01*
X130472857Y-127027142D01*
X140537142Y-118377142D02*
X140489523Y-118424761D01*
X140346666Y-118472380D01*
X140251428Y-118472380D01*
X140108571Y-118424761D01*
X140013333Y-118329523D01*
X139965714Y-118234285D01*
X139918095Y-118043809D01*
X139918095Y-117900952D01*
X139965714Y-117710476D01*
X140013333Y-117615238D01*
X140108571Y-117520000D01*
X140251428Y-117472380D01*
X140346666Y-117472380D01*
X140489523Y-117520000D01*
X140537142Y-117567619D01*
X141489523Y-118472380D02*
X140918095Y-118472380D01*
X141203809Y-118472380D02*
X141203809Y-117472380D01*
X141108571Y-117615238D01*
X141013333Y-117710476D01*
X140918095Y-117758095D01*
X142441904Y-118472380D02*
X141870476Y-118472380D01*
X142156190Y-118472380D02*
X142156190Y-117472380D01*
X142060952Y-117615238D01*
X141965714Y-117710476D01*
X141870476Y-117758095D01*
X129647142Y-126087142D02*
X129599523Y-126134761D01*
X129456666Y-126182380D01*
X129361428Y-126182380D01*
X129218571Y-126134761D01*
X129123333Y-126039523D01*
X129075714Y-125944285D01*
X129028095Y-125753809D01*
X129028095Y-125610952D01*
X129075714Y-125420476D01*
X129123333Y-125325238D01*
X129218571Y-125230000D01*
X129361428Y-125182380D01*
X129456666Y-125182380D01*
X129599523Y-125230000D01*
X129647142Y-125277619D01*
X130028095Y-125277619D02*
X130075714Y-125230000D01*
X130170952Y-125182380D01*
X130409047Y-125182380D01*
X130504285Y-125230000D01*
X130551904Y-125277619D01*
X130599523Y-125372857D01*
X130599523Y-125468095D01*
X130551904Y-125610952D01*
X129980476Y-126182380D01*
X130599523Y-126182380D01*
X131218571Y-125182380D02*
X131313809Y-125182380D01*
X131409047Y-125230000D01*
X131456666Y-125277619D01*
X131504285Y-125372857D01*
X131551904Y-125563333D01*
X131551904Y-125801428D01*
X131504285Y-125991904D01*
X131456666Y-126087142D01*
X131409047Y-126134761D01*
X131313809Y-126182380D01*
X131218571Y-126182380D01*
X131123333Y-126134761D01*
X131075714Y-126087142D01*
X131028095Y-125991904D01*
X130980476Y-125801428D01*
X130980476Y-125563333D01*
X131028095Y-125372857D01*
X131075714Y-125277619D01*
X131123333Y-125230000D01*
X131218571Y-125182380D01*
X146557142Y-105342380D02*
X146223809Y-104866190D01*
X145985714Y-105342380D02*
X145985714Y-104342380D01*
X146366666Y-104342380D01*
X146461904Y-104390000D01*
X146509523Y-104437619D01*
X146557142Y-104532857D01*
X146557142Y-104675714D01*
X146509523Y-104770952D01*
X146461904Y-104818571D01*
X146366666Y-104866190D01*
X145985714Y-104866190D01*
X147509523Y-105342380D02*
X146938095Y-105342380D01*
X147223809Y-105342380D02*
X147223809Y-104342380D01*
X147128571Y-104485238D01*
X147033333Y-104580476D01*
X146938095Y-104628095D01*
X148366666Y-104675714D02*
X148366666Y-105342380D01*
X148128571Y-104294761D02*
X147890476Y-105009047D01*
X148509523Y-105009047D01*
X141967380Y-115921674D02*
X142776904Y-115921674D01*
X142872142Y-115874055D01*
X142919761Y-115826436D01*
X142967380Y-115731198D01*
X142967380Y-115540721D01*
X142919761Y-115445483D01*
X142872142Y-115397864D01*
X142776904Y-115350245D01*
X141967380Y-115350245D01*
X142967380Y-114350245D02*
X142967380Y-114921674D01*
X142967380Y-114635959D02*
X141967380Y-114635959D01*
X142110238Y-114731198D01*
X142205476Y-114826436D01*
X142253095Y-114921674D01*
X141967380Y-113445483D02*
X141967380Y-113921674D01*
X142443571Y-113969293D01*
X142395952Y-113921674D01*
X142348333Y-113826436D01*
X142348333Y-113588340D01*
X142395952Y-113493102D01*
X142443571Y-113445483D01*
X142538809Y-113397864D01*
X142776904Y-113397864D01*
X142872142Y-113445483D01*
X142919761Y-113493102D01*
X142967380Y-113588340D01*
X142967380Y-113826436D01*
X142919761Y-113921674D01*
X142872142Y-113969293D01*
X132476190Y-115751190D02*
X132952380Y-115751190D01*
X131952380Y-116084523D02*
X132476190Y-115751190D01*
X131952380Y-115417857D01*
X132952380Y-114560714D02*
X132952380Y-115132142D01*
X132952380Y-114846428D02*
X131952380Y-114846428D01*
X132095238Y-114941666D01*
X132190476Y-115036904D01*
X132238095Y-115132142D01*
X133537142Y-126077142D02*
X133489523Y-126124761D01*
X133346666Y-126172380D01*
X133251428Y-126172380D01*
X133108571Y-126124761D01*
X133013333Y-126029523D01*
X132965714Y-125934285D01*
X132918095Y-125743809D01*
X132918095Y-125600952D01*
X132965714Y-125410476D01*
X133013333Y-125315238D01*
X133108571Y-125220000D01*
X133251428Y-125172380D01*
X133346666Y-125172380D01*
X133489523Y-125220000D01*
X133537142Y-125267619D01*
X134489523Y-126172380D02*
X133918095Y-126172380D01*
X134203809Y-126172380D02*
X134203809Y-125172380D01*
X134108571Y-125315238D01*
X134013333Y-125410476D01*
X133918095Y-125458095D01*
X134965714Y-126172380D02*
X135156190Y-126172380D01*
X135251428Y-126124761D01*
X135299047Y-126077142D01*
X135394285Y-125934285D01*
X135441904Y-125743809D01*
X135441904Y-125362857D01*
X135394285Y-125267619D01*
X135346666Y-125220000D01*
X135251428Y-125172380D01*
X135060952Y-125172380D01*
X134965714Y-125220000D01*
X134918095Y-125267619D01*
X134870476Y-125362857D01*
X134870476Y-125600952D01*
X134918095Y-125696190D01*
X134965714Y-125743809D01*
X135060952Y-125791428D01*
X135251428Y-125791428D01*
X135346666Y-125743809D01*
X135394285Y-125696190D01*
X135441904Y-125600952D01*
X140447142Y-110756666D02*
X140494761Y-110804285D01*
X140542380Y-110947142D01*
X140542380Y-111042380D01*
X140494761Y-111185238D01*
X140399523Y-111280476D01*
X140304285Y-111328095D01*
X140113809Y-111375714D01*
X139970952Y-111375714D01*
X139780476Y-111328095D01*
X139685238Y-111280476D01*
X139590000Y-111185238D01*
X139542380Y-111042380D01*
X139542380Y-110947142D01*
X139590000Y-110804285D01*
X139637619Y-110756666D01*
X140542380Y-110280476D02*
X140542380Y-110090000D01*
X140494761Y-109994761D01*
X140447142Y-109947142D01*
X140304285Y-109851904D01*
X140113809Y-109804285D01*
X139732857Y-109804285D01*
X139637619Y-109851904D01*
X139590000Y-109899523D01*
X139542380Y-109994761D01*
X139542380Y-110185238D01*
X139590000Y-110280476D01*
X139637619Y-110328095D01*
X139732857Y-110375714D01*
X139970952Y-110375714D01*
X140066190Y-110328095D01*
X140113809Y-110280476D01*
X140161428Y-110185238D01*
X140161428Y-109994761D01*
X140113809Y-109899523D01*
X140066190Y-109851904D01*
X139970952Y-109804285D01*
D13*
X106686857Y-114527190D02*
X106949714Y-113826238D01*
X107212571Y-114527190D01*
X107300190Y-113388142D02*
X106380190Y-113388142D01*
X107300190Y-112862428D01*
X106380190Y-112862428D01*
X107037333Y-112468142D02*
X107037333Y-112030047D01*
X107300190Y-112555761D02*
X106380190Y-112249095D01*
X107300190Y-111942428D01*
X107300190Y-111635761D02*
X106380190Y-111635761D01*
X107037333Y-111329095D01*
X106380190Y-111022428D01*
X107300190Y-111022428D01*
X106818285Y-110584333D02*
X106818285Y-110277666D01*
X107300190Y-110146238D02*
X107300190Y-110584333D01*
X106380190Y-110584333D01*
X106380190Y-110146238D01*
D12*
X150951142Y-148316380D02*
X150617809Y-147840190D01*
X150379714Y-148316380D02*
X150379714Y-147316380D01*
X150760666Y-147316380D01*
X150855904Y-147364000D01*
X150903523Y-147411619D01*
X150951142Y-147506857D01*
X150951142Y-147649714D01*
X150903523Y-147744952D01*
X150855904Y-147792571D01*
X150760666Y-147840190D01*
X150379714Y-147840190D01*
X151903523Y-148316380D02*
X151332095Y-148316380D01*
X151617809Y-148316380D02*
X151617809Y-147316380D01*
X151522571Y-147459238D01*
X151427333Y-147554476D01*
X151332095Y-147602095D01*
X152236857Y-147316380D02*
X152903523Y-147316380D01*
X152474952Y-148316380D01*
X154651142Y-149966857D02*
X154698761Y-150014476D01*
X154746380Y-150157333D01*
X154746380Y-150252571D01*
X154698761Y-150395428D01*
X154603523Y-150490666D01*
X154508285Y-150538285D01*
X154317809Y-150585904D01*
X154174952Y-150585904D01*
X153984476Y-150538285D01*
X153889238Y-150490666D01*
X153794000Y-150395428D01*
X153746380Y-150252571D01*
X153746380Y-150157333D01*
X153794000Y-150014476D01*
X153841619Y-149966857D01*
X153746380Y-149633523D02*
X153746380Y-149014476D01*
X154127333Y-149347809D01*
X154127333Y-149204952D01*
X154174952Y-149109714D01*
X154222571Y-149062095D01*
X154317809Y-149014476D01*
X154555904Y-149014476D01*
X154651142Y-149062095D01*
X154698761Y-149109714D01*
X154746380Y-149204952D01*
X154746380Y-149490666D01*
X154698761Y-149585904D01*
X154651142Y-149633523D01*
X153841619Y-148633523D02*
X153794000Y-148585904D01*
X153746380Y-148490666D01*
X153746380Y-148252571D01*
X153794000Y-148157333D01*
X153841619Y-148109714D01*
X153936857Y-148062095D01*
X154032095Y-148062095D01*
X154174952Y-148109714D01*
X154746380Y-148681142D01*
X154746380Y-148062095D01*
X161505595Y-119359761D02*
X161648452Y-119407380D01*
X161886547Y-119407380D01*
X161981785Y-119359761D01*
X162029404Y-119312142D01*
X162077023Y-119216904D01*
X162077023Y-119121666D01*
X162029404Y-119026428D01*
X161981785Y-118978809D01*
X161886547Y-118931190D01*
X161696071Y-118883571D01*
X161600833Y-118835952D01*
X161553214Y-118788333D01*
X161505595Y-118693095D01*
X161505595Y-118597857D01*
X161553214Y-118502619D01*
X161600833Y-118455000D01*
X161696071Y-118407380D01*
X161934166Y-118407380D01*
X162077023Y-118455000D01*
X163029404Y-119407380D02*
X162457976Y-119407380D01*
X162743690Y-119407380D02*
X162743690Y-118407380D01*
X162648452Y-118550238D01*
X162553214Y-118645476D01*
X162457976Y-118693095D01*
X141882380Y-132668095D02*
X140882380Y-132668095D01*
X140882380Y-132430000D01*
X140930000Y-132287142D01*
X141025238Y-132191904D01*
X141120476Y-132144285D01*
X141310952Y-132096666D01*
X141453809Y-132096666D01*
X141644285Y-132144285D01*
X141739523Y-132191904D01*
X141834761Y-132287142D01*
X141882380Y-132430000D01*
X141882380Y-132668095D01*
X140882380Y-131239523D02*
X140882380Y-131430000D01*
X140930000Y-131525238D01*
X140977619Y-131572857D01*
X141120476Y-131668095D01*
X141310952Y-131715714D01*
X141691904Y-131715714D01*
X141787142Y-131668095D01*
X141834761Y-131620476D01*
X141882380Y-131525238D01*
X141882380Y-131334761D01*
X141834761Y-131239523D01*
X141787142Y-131191904D01*
X141691904Y-131144285D01*
X141453809Y-131144285D01*
X141358571Y-131191904D01*
X141310952Y-131239523D01*
X141263333Y-131334761D01*
X141263333Y-131525238D01*
X141310952Y-131620476D01*
X141358571Y-131668095D01*
X141453809Y-131715714D01*
X149301904Y-120742380D02*
X149301904Y-121551904D01*
X149349523Y-121647142D01*
X149397142Y-121694761D01*
X149492380Y-121742380D01*
X149682857Y-121742380D01*
X149778095Y-121694761D01*
X149825714Y-121647142D01*
X149873333Y-121551904D01*
X149873333Y-120742380D01*
X150873333Y-121742380D02*
X150301904Y-121742380D01*
X150587619Y-121742380D02*
X150587619Y-120742380D01*
X150492380Y-120885238D01*
X150397142Y-120980476D01*
X150301904Y-121028095D01*
X151254285Y-120837619D02*
X151301904Y-120790000D01*
X151397142Y-120742380D01*
X151635238Y-120742380D01*
X151730476Y-120790000D01*
X151778095Y-120837619D01*
X151825714Y-120932857D01*
X151825714Y-121028095D01*
X151778095Y-121170952D01*
X151206666Y-121742380D01*
X151825714Y-121742380D01*
X91981142Y-129314357D02*
X92028761Y-129361976D01*
X92076380Y-129504833D01*
X92076380Y-129600071D01*
X92028761Y-129742928D01*
X91933523Y-129838166D01*
X91838285Y-129885785D01*
X91647809Y-129933404D01*
X91504952Y-129933404D01*
X91314476Y-129885785D01*
X91219238Y-129838166D01*
X91124000Y-129742928D01*
X91076380Y-129600071D01*
X91076380Y-129504833D01*
X91124000Y-129361976D01*
X91171619Y-129314357D01*
X91076380Y-128981023D02*
X91076380Y-128361976D01*
X91457333Y-128695309D01*
X91457333Y-128552452D01*
X91504952Y-128457214D01*
X91552571Y-128409595D01*
X91647809Y-128361976D01*
X91885904Y-128361976D01*
X91981142Y-128409595D01*
X92028761Y-128457214D01*
X92076380Y-128552452D01*
X92076380Y-128838166D01*
X92028761Y-128933404D01*
X91981142Y-128981023D01*
X91076380Y-128028642D02*
X91076380Y-127409595D01*
X91457333Y-127742928D01*
X91457333Y-127600071D01*
X91504952Y-127504833D01*
X91552571Y-127457214D01*
X91647809Y-127409595D01*
X91885904Y-127409595D01*
X91981142Y-127457214D01*
X92028761Y-127504833D01*
X92076380Y-127600071D01*
X92076380Y-127885785D01*
X92028761Y-127981023D01*
X91981142Y-128028642D01*
X110256380Y-116349357D02*
X109780190Y-116682690D01*
X110256380Y-116920785D02*
X109256380Y-116920785D01*
X109256380Y-116539833D01*
X109304000Y-116444595D01*
X109351619Y-116396976D01*
X109446857Y-116349357D01*
X109589714Y-116349357D01*
X109684952Y-116396976D01*
X109732571Y-116444595D01*
X109780190Y-116539833D01*
X109780190Y-116920785D01*
X110256380Y-115396976D02*
X110256380Y-115968404D01*
X110256380Y-115682690D02*
X109256380Y-115682690D01*
X109399238Y-115777928D01*
X109494476Y-115873166D01*
X109542095Y-115968404D01*
X109256380Y-114539833D02*
X109256380Y-114730309D01*
X109304000Y-114825547D01*
X109351619Y-114873166D01*
X109494476Y-114968404D01*
X109684952Y-115016023D01*
X110065904Y-115016023D01*
X110161142Y-114968404D01*
X110208761Y-114920785D01*
X110256380Y-114825547D01*
X110256380Y-114635071D01*
X110208761Y-114539833D01*
X110161142Y-114492214D01*
X110065904Y-114444595D01*
X109827809Y-114444595D01*
X109732571Y-114492214D01*
X109684952Y-114539833D01*
X109637333Y-114635071D01*
X109637333Y-114825547D01*
X109684952Y-114920785D01*
X109732571Y-114968404D01*
X109827809Y-115016023D01*
X103032142Y-130917857D02*
X103079761Y-130965476D01*
X103127380Y-131108333D01*
X103127380Y-131203571D01*
X103079761Y-131346428D01*
X102984523Y-131441666D01*
X102889285Y-131489285D01*
X102698809Y-131536904D01*
X102555952Y-131536904D01*
X102365476Y-131489285D01*
X102270238Y-131441666D01*
X102175000Y-131346428D01*
X102127380Y-131203571D01*
X102127380Y-131108333D01*
X102175000Y-130965476D01*
X102222619Y-130917857D01*
X103127380Y-129965476D02*
X103127380Y-130536904D01*
X103127380Y-130251190D02*
X102127380Y-130251190D01*
X102270238Y-130346428D01*
X102365476Y-130441666D01*
X102413095Y-130536904D01*
X102127380Y-129060714D02*
X102127380Y-129536904D01*
X102603571Y-129584523D01*
X102555952Y-129536904D01*
X102508333Y-129441666D01*
X102508333Y-129203571D01*
X102555952Y-129108333D01*
X102603571Y-129060714D01*
X102698809Y-129013095D01*
X102936904Y-129013095D01*
X103032142Y-129060714D01*
X103079761Y-129108333D01*
X103127380Y-129203571D01*
X103127380Y-129441666D01*
X103079761Y-129536904D01*
X103032142Y-129584523D01*
X144458333Y-116042142D02*
X144410714Y-116089761D01*
X144267857Y-116137380D01*
X144172619Y-116137380D01*
X144029761Y-116089761D01*
X143934523Y-115994523D01*
X143886904Y-115899285D01*
X143839285Y-115708809D01*
X143839285Y-115565952D01*
X143886904Y-115375476D01*
X143934523Y-115280238D01*
X144029761Y-115185000D01*
X144172619Y-115137380D01*
X144267857Y-115137380D01*
X144410714Y-115185000D01*
X144458333Y-115232619D01*
X144839285Y-115232619D02*
X144886904Y-115185000D01*
X144982142Y-115137380D01*
X145220238Y-115137380D01*
X145315476Y-115185000D01*
X145363095Y-115232619D01*
X145410714Y-115327857D01*
X145410714Y-115423095D01*
X145363095Y-115565952D01*
X144791666Y-116137380D01*
X145410714Y-116137380D01*
X115747142Y-115367142D02*
X115699523Y-115414761D01*
X115556666Y-115462380D01*
X115461428Y-115462380D01*
X115318571Y-115414761D01*
X115223333Y-115319523D01*
X115175714Y-115224285D01*
X115128095Y-115033809D01*
X115128095Y-114890952D01*
X115175714Y-114700476D01*
X115223333Y-114605238D01*
X115318571Y-114510000D01*
X115461428Y-114462380D01*
X115556666Y-114462380D01*
X115699523Y-114510000D01*
X115747142Y-114557619D01*
X116128095Y-114557619D02*
X116175714Y-114510000D01*
X116270952Y-114462380D01*
X116509047Y-114462380D01*
X116604285Y-114510000D01*
X116651904Y-114557619D01*
X116699523Y-114652857D01*
X116699523Y-114748095D01*
X116651904Y-114890952D01*
X116080476Y-115462380D01*
X116699523Y-115462380D01*
X117080476Y-114557619D02*
X117128095Y-114510000D01*
X117223333Y-114462380D01*
X117461428Y-114462380D01*
X117556666Y-114510000D01*
X117604285Y-114557619D01*
X117651904Y-114652857D01*
X117651904Y-114748095D01*
X117604285Y-114890952D01*
X117032857Y-115462380D01*
X117651904Y-115462380D01*
X93632380Y-127088095D02*
X94441904Y-127088095D01*
X94537142Y-127040476D01*
X94584761Y-126992857D01*
X94632380Y-126897619D01*
X94632380Y-126707142D01*
X94584761Y-126611904D01*
X94537142Y-126564285D01*
X94441904Y-126516666D01*
X93632380Y-126516666D01*
X94632380Y-125516666D02*
X94632380Y-126088095D01*
X94632380Y-125802380D02*
X93632380Y-125802380D01*
X93775238Y-125897619D01*
X93870476Y-125992857D01*
X93918095Y-126088095D01*
X93632380Y-124897619D02*
X93632380Y-124802380D01*
X93680000Y-124707142D01*
X93727619Y-124659523D01*
X93822857Y-124611904D01*
X94013333Y-124564285D01*
X94251428Y-124564285D01*
X94441904Y-124611904D01*
X94537142Y-124659523D01*
X94584761Y-124707142D01*
X94632380Y-124802380D01*
X94632380Y-124897619D01*
X94584761Y-124992857D01*
X94537142Y-125040476D01*
X94441904Y-125088095D01*
X94251428Y-125135714D01*
X94013333Y-125135714D01*
X93822857Y-125088095D01*
X93727619Y-125040476D01*
X93680000Y-124992857D01*
X93632380Y-124897619D01*
X129804761Y-130808333D02*
X129852380Y-130665476D01*
X129852380Y-130427380D01*
X129804761Y-130332142D01*
X129757142Y-130284523D01*
X129661904Y-130236904D01*
X129566666Y-130236904D01*
X129471428Y-130284523D01*
X129423809Y-130332142D01*
X129376190Y-130427380D01*
X129328571Y-130617857D01*
X129280952Y-130713095D01*
X129233333Y-130760714D01*
X129138095Y-130808333D01*
X129042857Y-130808333D01*
X128947619Y-130760714D01*
X128900000Y-130713095D01*
X128852380Y-130617857D01*
X128852380Y-130379761D01*
X128900000Y-130236904D01*
X128852380Y-129903571D02*
X129852380Y-129665476D01*
X129138095Y-129475000D01*
X129852380Y-129284523D01*
X128852380Y-129046428D01*
X129852380Y-128141666D02*
X129852380Y-128713095D01*
X129852380Y-128427380D02*
X128852380Y-128427380D01*
X128995238Y-128522619D01*
X129090476Y-128617857D01*
X129138095Y-128713095D01*
X143757142Y-118152857D02*
X143804761Y-118200476D01*
X143852380Y-118343333D01*
X143852380Y-118438571D01*
X143804761Y-118581428D01*
X143709523Y-118676666D01*
X143614285Y-118724285D01*
X143423809Y-118771904D01*
X143280952Y-118771904D01*
X143090476Y-118724285D01*
X142995238Y-118676666D01*
X142900000Y-118581428D01*
X142852380Y-118438571D01*
X142852380Y-118343333D01*
X142900000Y-118200476D01*
X142947619Y-118152857D01*
X143852380Y-117200476D02*
X143852380Y-117771904D01*
X143852380Y-117486190D02*
X142852380Y-117486190D01*
X142995238Y-117581428D01*
X143090476Y-117676666D01*
X143138095Y-117771904D01*
X142852380Y-116867142D02*
X142852380Y-116248095D01*
X143233333Y-116581428D01*
X143233333Y-116438571D01*
X143280952Y-116343333D01*
X143328571Y-116295714D01*
X143423809Y-116248095D01*
X143661904Y-116248095D01*
X143757142Y-116295714D01*
X143804761Y-116343333D01*
X143852380Y-116438571D01*
X143852380Y-116724285D01*
X143804761Y-116819523D01*
X143757142Y-116867142D01*
X103136666Y-150177380D02*
X103136666Y-150891666D01*
X103089047Y-151034523D01*
X102993809Y-151129761D01*
X102850952Y-151177380D01*
X102755714Y-151177380D01*
X103517619Y-150177380D02*
X104136666Y-150177380D01*
X103803333Y-150558333D01*
X103946190Y-150558333D01*
X104041428Y-150605952D01*
X104089047Y-150653571D01*
X104136666Y-150748809D01*
X104136666Y-150986904D01*
X104089047Y-151082142D01*
X104041428Y-151129761D01*
X103946190Y-151177380D01*
X103660476Y-151177380D01*
X103565238Y-151129761D01*
X103517619Y-151082142D01*
X133513333Y-127132380D02*
X133180000Y-126656190D01*
X132941904Y-127132380D02*
X132941904Y-126132380D01*
X133322857Y-126132380D01*
X133418095Y-126180000D01*
X133465714Y-126227619D01*
X133513333Y-126322857D01*
X133513333Y-126465714D01*
X133465714Y-126560952D01*
X133418095Y-126608571D01*
X133322857Y-126656190D01*
X132941904Y-126656190D01*
X133846666Y-126132380D02*
X134513333Y-126132380D01*
X134084761Y-127132380D01*
X114329761Y-109947619D02*
X114234523Y-109900000D01*
X114139285Y-109804761D01*
X113996428Y-109661904D01*
X113901190Y-109614285D01*
X113805952Y-109614285D01*
X113853571Y-109852380D02*
X113758333Y-109804761D01*
X113663095Y-109709523D01*
X113615476Y-109519047D01*
X113615476Y-109185714D01*
X113663095Y-108995238D01*
X113758333Y-108900000D01*
X113853571Y-108852380D01*
X114044047Y-108852380D01*
X114139285Y-108900000D01*
X114234523Y-108995238D01*
X114282142Y-109185714D01*
X114282142Y-109519047D01*
X114234523Y-109709523D01*
X114139285Y-109804761D01*
X114044047Y-109852380D01*
X113853571Y-109852380D01*
X115234523Y-109852380D02*
X114663095Y-109852380D01*
X114948809Y-109852380D02*
X114948809Y-108852380D01*
X114853571Y-108995238D01*
X114758333Y-109090476D01*
X114663095Y-109138095D01*
X149513095Y-105317380D02*
X149513095Y-106126904D01*
X149560714Y-106222142D01*
X149608333Y-106269761D01*
X149703571Y-106317380D01*
X149894047Y-106317380D01*
X149989285Y-106269761D01*
X150036904Y-106222142D01*
X150084523Y-106126904D01*
X150084523Y-105317380D01*
X150608333Y-106317380D02*
X150798809Y-106317380D01*
X150894047Y-106269761D01*
X150941666Y-106222142D01*
X151036904Y-106079285D01*
X151084523Y-105888809D01*
X151084523Y-105507857D01*
X151036904Y-105412619D01*
X150989285Y-105365000D01*
X150894047Y-105317380D01*
X150703571Y-105317380D01*
X150608333Y-105365000D01*
X150560714Y-105412619D01*
X150513095Y-105507857D01*
X150513095Y-105745952D01*
X150560714Y-105841190D01*
X150608333Y-105888809D01*
X150703571Y-105936428D01*
X150894047Y-105936428D01*
X150989285Y-105888809D01*
X151036904Y-105841190D01*
X151084523Y-105745952D01*
X131932142Y-114057380D02*
X131598809Y-113581190D01*
X131360714Y-114057380D02*
X131360714Y-113057380D01*
X131741666Y-113057380D01*
X131836904Y-113105000D01*
X131884523Y-113152619D01*
X131932142Y-113247857D01*
X131932142Y-113390714D01*
X131884523Y-113485952D01*
X131836904Y-113533571D01*
X131741666Y-113581190D01*
X131360714Y-113581190D01*
X132884523Y-114057380D02*
X132313095Y-114057380D01*
X132598809Y-114057380D02*
X132598809Y-113057380D01*
X132503571Y-113200238D01*
X132408333Y-113295476D01*
X132313095Y-113343095D01*
X133360714Y-114057380D02*
X133551190Y-114057380D01*
X133646428Y-114009761D01*
X133694047Y-113962142D01*
X133789285Y-113819285D01*
X133836904Y-113628809D01*
X133836904Y-113247857D01*
X133789285Y-113152619D01*
X133741666Y-113105000D01*
X133646428Y-113057380D01*
X133455952Y-113057380D01*
X133360714Y-113105000D01*
X133313095Y-113152619D01*
X133265476Y-113247857D01*
X133265476Y-113485952D01*
X133313095Y-113581190D01*
X133360714Y-113628809D01*
X133455952Y-113676428D01*
X133646428Y-113676428D01*
X133741666Y-113628809D01*
X133789285Y-113581190D01*
X133836904Y-113485952D01*
X94861142Y-132276380D02*
X94527809Y-131800190D01*
X94289714Y-132276380D02*
X94289714Y-131276380D01*
X94670666Y-131276380D01*
X94765904Y-131324000D01*
X94813523Y-131371619D01*
X94861142Y-131466857D01*
X94861142Y-131609714D01*
X94813523Y-131704952D01*
X94765904Y-131752571D01*
X94670666Y-131800190D01*
X94289714Y-131800190D01*
X95813523Y-132276380D02*
X95242095Y-132276380D01*
X95527809Y-132276380D02*
X95527809Y-131276380D01*
X95432571Y-131419238D01*
X95337333Y-131514476D01*
X95242095Y-131562095D01*
X96718285Y-131276380D02*
X96242095Y-131276380D01*
X96194476Y-131752571D01*
X96242095Y-131704952D01*
X96337333Y-131657333D01*
X96575428Y-131657333D01*
X96670666Y-131704952D01*
X96718285Y-131752571D01*
X96765904Y-131847809D01*
X96765904Y-132085904D01*
X96718285Y-132181142D01*
X96670666Y-132228761D01*
X96575428Y-132276380D01*
X96337333Y-132276380D01*
X96242095Y-132228761D01*
X96194476Y-132181142D01*
X137072380Y-136088095D02*
X136072380Y-136088095D01*
X136072380Y-135850000D01*
X136120000Y-135707142D01*
X136215238Y-135611904D01*
X136310476Y-135564285D01*
X136500952Y-135516666D01*
X136643809Y-135516666D01*
X136834285Y-135564285D01*
X136929523Y-135611904D01*
X137024761Y-135707142D01*
X137072380Y-135850000D01*
X137072380Y-136088095D01*
X136405714Y-134659523D02*
X137072380Y-134659523D01*
X136024761Y-134897619D02*
X136739047Y-135135714D01*
X136739047Y-134516666D01*
X119502380Y-104491666D02*
X119026190Y-104825000D01*
X119502380Y-105063095D02*
X118502380Y-105063095D01*
X118502380Y-104682142D01*
X118550000Y-104586904D01*
X118597619Y-104539285D01*
X118692857Y-104491666D01*
X118835714Y-104491666D01*
X118930952Y-104539285D01*
X118978571Y-104586904D01*
X119026190Y-104682142D01*
X119026190Y-105063095D01*
X119502380Y-103539285D02*
X119502380Y-104110714D01*
X119502380Y-103825000D02*
X118502380Y-103825000D01*
X118645238Y-103920238D01*
X118740476Y-104015476D01*
X118788095Y-104110714D01*
X129325819Y-100693335D02*
X128992486Y-100217145D01*
X128754390Y-100693335D02*
X128754390Y-99693335D01*
X129135343Y-99693335D01*
X129230581Y-99740955D01*
X129278200Y-99788574D01*
X129325819Y-99883812D01*
X129325819Y-100026669D01*
X129278200Y-100121907D01*
X129230581Y-100169526D01*
X129135343Y-100217145D01*
X128754390Y-100217145D01*
X129802009Y-100693335D02*
X129992486Y-100693335D01*
X130087724Y-100645716D01*
X130135343Y-100598097D01*
X130230581Y-100455240D01*
X130278200Y-100264764D01*
X130278200Y-99883812D01*
X130230581Y-99788574D01*
X130182962Y-99740955D01*
X130087724Y-99693335D01*
X129897247Y-99693335D01*
X129802009Y-99740955D01*
X129754390Y-99788574D01*
X129706771Y-99883812D01*
X129706771Y-100121907D01*
X129754390Y-100217145D01*
X129802009Y-100264764D01*
X129897247Y-100312383D01*
X130087724Y-100312383D01*
X130182962Y-100264764D01*
X130230581Y-100217145D01*
X130278200Y-100121907D01*
X155842380Y-148088095D02*
X156651904Y-148088095D01*
X156747142Y-148040476D01*
X156794761Y-147992857D01*
X156842380Y-147897619D01*
X156842380Y-147707142D01*
X156794761Y-147611904D01*
X156747142Y-147564285D01*
X156651904Y-147516666D01*
X155842380Y-147516666D01*
X156842380Y-146516666D02*
X156842380Y-147088095D01*
X156842380Y-146802380D02*
X155842380Y-146802380D01*
X155985238Y-146897619D01*
X156080476Y-146992857D01*
X156128095Y-147088095D01*
X156842380Y-145564285D02*
X156842380Y-146135714D01*
X156842380Y-145850000D02*
X155842380Y-145850000D01*
X155985238Y-145945238D01*
X156080476Y-146040476D01*
X156128095Y-146135714D01*
X120327380Y-108416666D02*
X119851190Y-108750000D01*
X120327380Y-108988095D02*
X119327380Y-108988095D01*
X119327380Y-108607142D01*
X119375000Y-108511904D01*
X119422619Y-108464285D01*
X119517857Y-108416666D01*
X119660714Y-108416666D01*
X119755952Y-108464285D01*
X119803571Y-108511904D01*
X119851190Y-108607142D01*
X119851190Y-108988095D01*
X119327380Y-108083333D02*
X119327380Y-107464285D01*
X119708333Y-107797619D01*
X119708333Y-107654761D01*
X119755952Y-107559523D01*
X119803571Y-107511904D01*
X119898809Y-107464285D01*
X120136904Y-107464285D01*
X120232142Y-107511904D01*
X120279761Y-107559523D01*
X120327380Y-107654761D01*
X120327380Y-107940476D01*
X120279761Y-108035714D01*
X120232142Y-108083333D01*
X144082380Y-131408095D02*
X143082380Y-131408095D01*
X143082380Y-131170000D01*
X143130000Y-131027142D01*
X143225238Y-130931904D01*
X143320476Y-130884285D01*
X143510952Y-130836666D01*
X143653809Y-130836666D01*
X143844285Y-130884285D01*
X143939523Y-130931904D01*
X144034761Y-131027142D01*
X144082380Y-131170000D01*
X144082380Y-131408095D01*
X143082380Y-130503333D02*
X143082380Y-129836666D01*
X144082380Y-130265238D01*
X155313142Y-128801142D02*
X155265523Y-128848761D01*
X155122666Y-128896380D01*
X155027428Y-128896380D01*
X154884571Y-128848761D01*
X154789333Y-128753523D01*
X154741714Y-128658285D01*
X154694095Y-128467809D01*
X154694095Y-128324952D01*
X154741714Y-128134476D01*
X154789333Y-128039238D01*
X154884571Y-127944000D01*
X155027428Y-127896380D01*
X155122666Y-127896380D01*
X155265523Y-127944000D01*
X155313142Y-127991619D01*
X156265523Y-128896380D02*
X155694095Y-128896380D01*
X155979809Y-128896380D02*
X155979809Y-127896380D01*
X155884571Y-128039238D01*
X155789333Y-128134476D01*
X155694095Y-128182095D01*
X156836952Y-128324952D02*
X156741714Y-128277333D01*
X156694095Y-128229714D01*
X156646476Y-128134476D01*
X156646476Y-128086857D01*
X156694095Y-127991619D01*
X156741714Y-127944000D01*
X156836952Y-127896380D01*
X157027428Y-127896380D01*
X157122666Y-127944000D01*
X157170285Y-127991619D01*
X157217904Y-128086857D01*
X157217904Y-128134476D01*
X157170285Y-128229714D01*
X157122666Y-128277333D01*
X157027428Y-128324952D01*
X156836952Y-128324952D01*
X156741714Y-128372571D01*
X156694095Y-128420190D01*
X156646476Y-128515428D01*
X156646476Y-128705904D01*
X156694095Y-128801142D01*
X156741714Y-128848761D01*
X156836952Y-128896380D01*
X157027428Y-128896380D01*
X157122666Y-128848761D01*
X157170285Y-128801142D01*
X157217904Y-128705904D01*
X157217904Y-128515428D01*
X157170285Y-128420190D01*
X157122666Y-128372571D01*
X157027428Y-128324952D01*
X145781425Y-101309152D02*
X145305235Y-101642486D01*
X145781425Y-101880581D02*
X144781425Y-101880581D01*
X144781425Y-101499628D01*
X144829045Y-101404390D01*
X144876664Y-101356771D01*
X144971902Y-101309152D01*
X145114759Y-101309152D01*
X145209997Y-101356771D01*
X145257616Y-101404390D01*
X145305235Y-101499628D01*
X145305235Y-101880581D01*
X145209997Y-100737724D02*
X145162378Y-100832962D01*
X145114759Y-100880581D01*
X145019521Y-100928200D01*
X144971902Y-100928200D01*
X144876664Y-100880581D01*
X144829045Y-100832962D01*
X144781425Y-100737724D01*
X144781425Y-100547247D01*
X144829045Y-100452009D01*
X144876664Y-100404390D01*
X144971902Y-100356771D01*
X145019521Y-100356771D01*
X145114759Y-100404390D01*
X145162378Y-100452009D01*
X145209997Y-100547247D01*
X145209997Y-100737724D01*
X145257616Y-100832962D01*
X145305235Y-100880581D01*
X145400473Y-100928200D01*
X145590949Y-100928200D01*
X145686187Y-100880581D01*
X145733806Y-100832962D01*
X145781425Y-100737724D01*
X145781425Y-100547247D01*
X145733806Y-100452009D01*
X145686187Y-100404390D01*
X145590949Y-100356771D01*
X145400473Y-100356771D01*
X145305235Y-100404390D01*
X145257616Y-100452009D01*
X145209997Y-100547247D01*
X165038095Y-141252380D02*
X165038095Y-142061904D01*
X165085714Y-142157142D01*
X165133333Y-142204761D01*
X165228571Y-142252380D01*
X165419047Y-142252380D01*
X165514285Y-142204761D01*
X165561904Y-142157142D01*
X165609523Y-142061904D01*
X165609523Y-141252380D01*
X166228571Y-141680952D02*
X166133333Y-141633333D01*
X166085714Y-141585714D01*
X166038095Y-141490476D01*
X166038095Y-141442857D01*
X166085714Y-141347619D01*
X166133333Y-141300000D01*
X166228571Y-141252380D01*
X166419047Y-141252380D01*
X166514285Y-141300000D01*
X166561904Y-141347619D01*
X166609523Y-141442857D01*
X166609523Y-141490476D01*
X166561904Y-141585714D01*
X166514285Y-141633333D01*
X166419047Y-141680952D01*
X166228571Y-141680952D01*
X166133333Y-141728571D01*
X166085714Y-141776190D01*
X166038095Y-141871428D01*
X166038095Y-142061904D01*
X166085714Y-142157142D01*
X166133333Y-142204761D01*
X166228571Y-142252380D01*
X166419047Y-142252380D01*
X166514285Y-142204761D01*
X166561904Y-142157142D01*
X166609523Y-142061904D01*
X166609523Y-141871428D01*
X166561904Y-141776190D01*
X166514285Y-141728571D01*
X166419047Y-141680952D01*
D14*
X89419000Y-123074000D02*
X89419000Y-114564000D01*
X102359000Y-125794000D02*
X90119000Y-125794000D01*
X103419000Y-122994000D02*
X103419000Y-114514000D01*
X102859000Y-111794000D02*
X90489000Y-111794000D01*
D15*
X113015500Y-108965276D02*
X113015500Y-109474724D01*
X114060500Y-108965276D02*
X114060500Y-109474724D01*
X144803641Y-115070000D02*
X144496359Y-115070000D01*
X144803641Y-115830000D02*
X144496359Y-115830000D01*
X118650000Y-111250000D02*
X118650000Y-109250000D01*
X118650000Y-111250000D02*
X114750000Y-111250000D01*
X118650000Y-109250000D02*
X114750000Y-109250000D01*
X162447500Y-121279724D02*
X162447500Y-120770276D01*
X161402500Y-121279724D02*
X161402500Y-120770276D01*
X169706500Y-134279276D02*
X169706500Y-134788724D01*
X168661500Y-134279276D02*
X168661500Y-134788724D01*
X132877836Y-116600000D02*
X132662164Y-116600000D01*
X132877836Y-115880000D02*
X132662164Y-115880000D01*
X120910000Y-103990000D02*
X120910000Y-102930000D01*
X122970000Y-103990000D02*
X133030000Y-103990000D01*
X122970000Y-103990000D02*
X122970000Y-101870000D01*
X133030000Y-103990000D02*
X133030000Y-101870000D01*
X122970000Y-101870000D02*
X133030000Y-101870000D01*
X121970000Y-103990000D02*
X120910000Y-103990000D01*
X105090000Y-117210000D02*
X105740000Y-117210000D01*
X105090000Y-120330000D02*
X106765000Y-120330000D01*
X105090000Y-120330000D02*
X104440000Y-120330000D01*
X105090000Y-117210000D02*
X104440000Y-117210000D01*
X106270267Y-122554000D02*
X105977733Y-122554000D01*
X106270267Y-121534000D02*
X105977733Y-121534000D01*
X157565000Y-121025000D02*
X157565000Y-121675000D01*
X160685000Y-121025000D02*
X160685000Y-121675000D01*
X160685000Y-121025000D02*
X160685000Y-119350000D01*
X157565000Y-121025000D02*
X157565000Y-120375000D01*
X154142164Y-106385000D02*
X154357836Y-106385000D01*
X154142164Y-105665000D02*
X154357836Y-105665000D01*
X138500000Y-103740000D02*
X139150000Y-103740000D01*
X138500000Y-103740000D02*
X137850000Y-103740000D01*
X138500000Y-106860000D02*
X137850000Y-106860000D01*
X138500000Y-106860000D02*
X140175000Y-106860000D01*
X143500000Y-108970000D02*
X143500000Y-105070000D01*
X141500000Y-108970000D02*
X141500000Y-105070000D01*
X141500000Y-108970000D02*
X143500000Y-108970000D01*
X124275000Y-112640000D02*
X120825000Y-112640000D01*
X124275000Y-112640000D02*
X126225000Y-112640000D01*
X124275000Y-117760000D02*
X126225000Y-117760000D01*
X124275000Y-117760000D02*
X122325000Y-117760000D01*
X138000000Y-131210000D02*
X138000000Y-135110000D01*
X136000000Y-131210000D02*
X136000000Y-135110000D01*
X138000000Y-131210000D02*
X136000000Y-131210000D01*
X131833641Y-125130000D02*
X131526359Y-125130000D01*
X131833641Y-125890000D02*
X131526359Y-125890000D01*
X110650000Y-120900000D02*
X110650000Y-120200000D01*
X111850000Y-120200000D02*
X111850000Y-120900000D01*
X135733641Y-125900000D02*
X135426359Y-125900000D01*
X135733641Y-125140000D02*
X135426359Y-125140000D01*
X168590267Y-143164000D02*
X168297733Y-143164000D01*
X168590267Y-142144000D02*
X168297733Y-142144000D01*
X147940000Y-149290000D02*
X147940000Y-148590000D01*
X149140000Y-148590000D02*
X149140000Y-149290000D01*
X164572500Y-121254724D02*
X164572500Y-120745276D01*
X163527500Y-121254724D02*
X163527500Y-120745276D01*
D14*
X165044000Y-132569000D02*
X152754000Y-132569000D01*
X151644000Y-143859000D02*
X151644000Y-135309000D01*
X164424000Y-146549000D02*
X152184000Y-146549000D01*
X165644000Y-143799000D02*
X165644000Y-135289000D01*
D16*
X183319000Y-145731000D02*
X182419000Y-145731000D01*
X179411000Y-145731000D02*
X178511000Y-145731000D01*
X178969000Y-146181000D02*
X178969000Y-145281000D01*
D15*
X162852064Y-124735000D02*
X161647936Y-124735000D01*
X162852064Y-122915000D02*
X161647936Y-122915000D01*
X110015000Y-110900000D02*
X110015000Y-110250000D01*
X113135000Y-110900000D02*
X113135000Y-111550000D01*
X110015000Y-110900000D02*
X110015000Y-112575000D01*
X113135000Y-110900000D02*
X113135000Y-110250000D01*
X144818641Y-115995000D02*
X144511359Y-115995000D01*
X144818641Y-116755000D02*
X144511359Y-116755000D01*
X143950000Y-107030580D02*
X143950000Y-106749420D01*
X144970000Y-107030580D02*
X144970000Y-106749420D01*
X129983641Y-125880000D02*
X129676359Y-125880000D01*
X129983641Y-125120000D02*
X129676359Y-125120000D01*
X141072164Y-118820000D02*
X141287836Y-118820000D01*
X141072164Y-119540000D02*
X141287836Y-119540000D01*
X130397836Y-124210000D02*
X130182164Y-124210000D01*
X130397836Y-124930000D02*
X130182164Y-124930000D01*
X147092164Y-105690000D02*
X147307836Y-105690000D01*
X147092164Y-106410000D02*
X147307836Y-106410000D01*
X134085000Y-118293579D02*
X134735000Y-118293579D01*
X134085000Y-117643579D02*
X134085000Y-118293579D01*
X141305000Y-111723579D02*
X141305000Y-111073579D01*
X134085000Y-111073579D02*
X134735000Y-111073579D01*
X134085000Y-111723579D02*
X134085000Y-111073579D01*
X141305000Y-117643579D02*
X141305000Y-118293579D01*
X141305000Y-118293579D02*
X140655000Y-118293579D01*
X129700000Y-113475000D02*
X131700000Y-113475000D01*
X131700000Y-117075000D02*
X129700000Y-117075000D01*
X129700000Y-117075000D02*
X129300000Y-117075000D01*
X129700000Y-113475000D02*
X129300000Y-113475000D01*
X131700000Y-113275000D02*
X129700000Y-113275000D01*
X131700000Y-113475000D02*
X131700000Y-114475000D01*
X131700000Y-116275000D02*
X131700000Y-117075000D01*
X129300000Y-117075000D02*
X129300000Y-116275000D01*
X129700000Y-113275000D02*
X129300000Y-113275000D01*
X129300000Y-114475000D02*
X129300000Y-113475000D01*
X129300000Y-114475000D02*
X128900000Y-114475000D01*
X134287836Y-124920000D02*
X134072164Y-124920000D01*
X134287836Y-124200000D02*
X134072164Y-124200000D01*
X140890000Y-110697836D02*
X140890000Y-110482164D01*
X141610000Y-110697836D02*
X141610000Y-110482164D01*
X151199276Y-149756500D02*
X151708724Y-149756500D01*
X151199276Y-148711500D02*
X151708724Y-148711500D01*
X156234000Y-149470267D02*
X156234000Y-149177733D01*
X155214000Y-149470267D02*
X155214000Y-149177733D01*
D17*
X158892500Y-114140000D02*
X158892500Y-116500000D01*
X163992500Y-116500000D02*
X163992500Y-114140000D01*
X159192500Y-112770000D02*
X163692500Y-112770000D01*
X159192500Y-117870000D02*
X163692500Y-117870000D01*
D16*
X165792500Y-117195000D02*
G75*
G03*
X165792500Y-117195000I-100000J0D01*
G01*
D15*
X138430000Y-129680000D02*
X138430000Y-133580000D01*
X140430000Y-129680000D02*
X140430000Y-133580000D01*
X140430000Y-129680000D02*
X138430000Y-129680000D01*
X150540000Y-120450000D02*
X148590000Y-120450000D01*
X150540000Y-120450000D02*
X153990000Y-120450000D01*
X150540000Y-115330000D02*
X152490000Y-115330000D01*
X150540000Y-115330000D02*
X148590000Y-115330000D01*
X92544000Y-128817767D02*
X92544000Y-128525233D01*
X93564000Y-128817767D02*
X93564000Y-128525233D01*
X109281500Y-118961224D02*
X109281500Y-118451776D01*
X110326500Y-118961224D02*
X110326500Y-118451776D01*
X162430000Y-107520000D02*
X162430000Y-107580000D01*
X159770000Y-107520000D02*
X162430000Y-107520000D01*
X159770000Y-107580000D02*
X162430000Y-107580000D01*
X159770000Y-107520000D02*
X159770000Y-107580000D01*
X159770000Y-106250000D02*
X159770000Y-104920000D01*
X159770000Y-104920000D02*
X161100000Y-104920000D01*
X100725000Y-130625000D02*
X100725000Y-129925000D01*
X101925000Y-129925000D02*
X101925000Y-130625000D01*
X144732836Y-114165000D02*
X144517164Y-114165000D01*
X144732836Y-114885000D02*
X144517164Y-114885000D01*
X116530580Y-114090000D02*
X116249420Y-114090000D01*
X116530580Y-113070000D02*
X116249420Y-113070000D01*
X97980000Y-127430000D02*
X97980000Y-126780000D01*
X94860000Y-127430000D02*
X94860000Y-129105000D01*
X97980000Y-127430000D02*
X97980000Y-128080000D01*
X94860000Y-127430000D02*
X94860000Y-126780000D01*
D16*
X94008000Y-135728000D02*
X94908000Y-135728000D01*
X94450000Y-135278000D02*
X94450000Y-136178000D01*
X90100000Y-135728000D02*
X91000000Y-135728000D01*
D15*
X141880000Y-117402164D02*
X141880000Y-117617836D01*
X142600000Y-117402164D02*
X142600000Y-117617836D01*
X133833641Y-125130000D02*
X133526359Y-125130000D01*
X133833641Y-125890000D02*
X133526359Y-125890000D01*
X116225000Y-105690000D02*
X116875000Y-105690000D01*
X116225000Y-108810000D02*
X115575000Y-108810000D01*
X116225000Y-108810000D02*
X117900000Y-108810000D01*
X116225000Y-105690000D02*
X115575000Y-105690000D01*
X147550000Y-106960000D02*
X145875000Y-106960000D01*
X147550000Y-106700000D02*
X147550000Y-106960000D01*
X150275000Y-106700000D02*
X153000000Y-106700000D01*
X150275000Y-106700000D02*
X147550000Y-106700000D01*
X153000000Y-106700000D02*
X153000000Y-106960000D01*
X150275000Y-112150000D02*
X147550000Y-112150000D01*
X150275000Y-112150000D02*
X153000000Y-112150000D01*
X153000000Y-112150000D02*
X153000000Y-111890000D01*
X147550000Y-112150000D02*
X147550000Y-111890000D01*
X132421359Y-115155000D02*
X132728641Y-115155000D01*
X132421359Y-114395000D02*
X132728641Y-114395000D01*
X98758724Y-132346500D02*
X98249276Y-132346500D01*
X98758724Y-131301500D02*
X98249276Y-131301500D01*
X133620000Y-133100000D02*
X133620000Y-137000000D01*
X135620000Y-133100000D02*
X133620000Y-133100000D01*
X135620000Y-133100000D02*
X135620000Y-137000000D01*
X119572500Y-107579724D02*
X119572500Y-107070276D01*
X118527500Y-107579724D02*
X118527500Y-107070276D01*
X131845276Y-100762500D02*
X132354724Y-100762500D01*
X131845276Y-99717500D02*
X132354724Y-99717500D01*
X160190000Y-148430000D02*
X160190000Y-147780000D01*
X157070000Y-148430000D02*
X157070000Y-147780000D01*
X157070000Y-148430000D02*
X157070000Y-150105000D01*
X160190000Y-148430000D02*
X160190000Y-149080000D01*
X119352500Y-111504724D02*
X119352500Y-110995276D01*
X120397500Y-111504724D02*
X120397500Y-110995276D01*
X142630000Y-128420000D02*
X140630000Y-128420000D01*
X140630000Y-128420000D02*
X140630000Y-132320000D01*
X142630000Y-128420000D02*
X142630000Y-132320000D01*
X155606000Y-129194000D02*
X156306000Y-129194000D01*
X156306000Y-130394000D02*
X155606000Y-130394000D01*
X145852500Y-103495276D02*
X145852500Y-104004724D01*
X144807500Y-103495276D02*
X144807500Y-104004724D01*
X167380000Y-141120000D02*
X166730000Y-141120000D01*
X167380000Y-138000000D02*
X166730000Y-138000000D01*
X167380000Y-141120000D02*
X169055000Y-141120000D01*
X167380000Y-138000000D02*
X168030000Y-138000000D01*
M02*
