G04 #@! TF.GenerationSoftware,KiCad,Pcbnew,(6.0.7)*
G04 #@! TF.CreationDate,2023-02-24T15:51:34-08:00*
G04 #@! TF.ProjectId,procon_gcc_main_pcb,70726f63-6f6e-45f6-9763-635f6d61696e,rev?*
G04 #@! TF.SameCoordinates,Original*
G04 #@! TF.FileFunction,Other,User*
%FSLAX46Y46*%
G04 Gerber Fmt 4.6, Leading zero omitted, Abs format (unit mm)*
G04 Created by KiCad (PCBNEW (6.0.7)) date 2023-02-24 15:51:34*
%MOMM*%
%LPD*%
G01*
G04 APERTURE LIST*
%ADD10C,0.050000*%
G04 APERTURE END LIST*
D10*
X114268000Y-107570000D02*
X114268000Y-110870000D01*
X112808000Y-110870000D02*
X112808000Y-107570000D01*
X114268000Y-110870000D02*
X112808000Y-110870000D01*
X112808000Y-107570000D02*
X114268000Y-107570000D01*
X145380000Y-114580000D02*
X145380000Y-115520000D01*
X143520000Y-115520000D02*
X143520000Y-114580000D01*
X143520000Y-114580000D02*
X145380000Y-114580000D01*
X145380000Y-115520000D02*
X143520000Y-115520000D01*
X125510000Y-108390000D02*
X125510000Y-110290000D01*
X122310000Y-108390000D02*
X125510000Y-108390000D01*
X122310000Y-108390000D02*
X122310000Y-110290000D01*
X122310000Y-110290000D02*
X125510000Y-110290000D01*
X114050000Y-109100000D02*
X118750000Y-109100000D01*
X118750000Y-111400000D02*
X114050000Y-111400000D01*
X114050000Y-111400000D02*
X114050000Y-109100000D01*
X118750000Y-111400000D02*
X118750000Y-109100000D01*
X161195000Y-118742500D02*
X162655000Y-118742500D01*
X162655000Y-122042500D02*
X161195000Y-122042500D01*
X162655000Y-118742500D02*
X162655000Y-122042500D01*
X161195000Y-122042500D02*
X161195000Y-118742500D01*
X169914000Y-136184000D02*
X168454000Y-136184000D01*
X168454000Y-132884000D02*
X169914000Y-132884000D01*
X169914000Y-132884000D02*
X169914000Y-136184000D01*
X168454000Y-136184000D02*
X168454000Y-132884000D01*
X131860000Y-115780000D02*
X133680000Y-115780000D01*
X133680000Y-115780000D02*
X133680000Y-116700000D01*
X133680000Y-116700000D02*
X131860000Y-116700000D01*
X131860000Y-116700000D02*
X131860000Y-115780000D01*
X120470000Y-101430000D02*
X120470000Y-104430000D01*
X133470000Y-104430000D02*
X133470000Y-101430000D01*
X133470000Y-101430000D02*
X120470000Y-101430000D01*
X120470000Y-104430000D02*
X133470000Y-104430000D01*
X103170000Y-120470000D02*
X107010000Y-120470000D01*
X107010000Y-120470000D02*
X107010000Y-117070000D01*
X103170000Y-117070000D02*
X103170000Y-120470000D01*
X107010000Y-117070000D02*
X103170000Y-117070000D01*
X104474000Y-122774000D02*
X104474000Y-121314000D01*
X104474000Y-121314000D02*
X107774000Y-121314000D01*
X107774000Y-121314000D02*
X107774000Y-122774000D01*
X107774000Y-122774000D02*
X104474000Y-122774000D01*
X160825000Y-122312500D02*
X160825000Y-118472500D01*
X160825000Y-118472500D02*
X157425000Y-118472500D01*
X157425000Y-118472500D02*
X157425000Y-122312500D01*
X157425000Y-122312500D02*
X160825000Y-122312500D01*
X155160000Y-105565000D02*
X155160000Y-106485000D01*
X153340000Y-106485000D02*
X153340000Y-105565000D01*
X155160000Y-106485000D02*
X153340000Y-106485000D01*
X153340000Y-105565000D02*
X155160000Y-105565000D01*
X140420000Y-103600000D02*
X136580000Y-103600000D01*
X136580000Y-107000000D02*
X140420000Y-107000000D01*
X136580000Y-103600000D02*
X136580000Y-107000000D01*
X140420000Y-107000000D02*
X140420000Y-103600000D01*
X141550000Y-105120000D02*
X143450000Y-105120000D01*
X141550000Y-108320000D02*
X141550000Y-105120000D01*
X143450000Y-108320000D02*
X143450000Y-105120000D01*
X141550000Y-108320000D02*
X143450000Y-108320000D01*
X120575000Y-117900000D02*
X127975000Y-117900000D01*
X127975000Y-117900000D02*
X127975000Y-112500000D01*
X120575000Y-112500000D02*
X120575000Y-117900000D01*
X127975000Y-112500000D02*
X120575000Y-112500000D01*
X136050000Y-131860000D02*
X136050000Y-135060000D01*
X137950000Y-131860000D02*
X136050000Y-131860000D01*
X137950000Y-131860000D02*
X137950000Y-135060000D01*
X137950000Y-135060000D02*
X136050000Y-135060000D01*
X130750000Y-125040000D02*
X132610000Y-125040000D01*
X132610000Y-125040000D02*
X132610000Y-125980000D01*
X130750000Y-125980000D02*
X130750000Y-125040000D01*
X132610000Y-125980000D02*
X130750000Y-125980000D01*
X114450000Y-117680000D02*
X114450000Y-121280000D01*
X113150000Y-121280000D02*
X114450000Y-121280000D01*
X113150000Y-121280000D02*
X113150000Y-117680000D01*
X114450000Y-117680000D02*
X113150000Y-117680000D01*
X120850000Y-121599999D02*
X124150000Y-121599999D01*
X124150000Y-124099999D02*
X124150000Y-121599999D01*
X120850000Y-121599999D02*
X120850000Y-124099999D01*
X124150000Y-124099999D02*
X120850000Y-124099999D01*
X134650000Y-125050000D02*
X136510000Y-125050000D01*
X136510000Y-125990000D02*
X134650000Y-125990000D01*
X136510000Y-125050000D02*
X136510000Y-125990000D01*
X134650000Y-125990000D02*
X134650000Y-125050000D01*
X166794000Y-141924000D02*
X170094000Y-141924000D01*
X166794000Y-143384000D02*
X166794000Y-141924000D01*
X170094000Y-141924000D02*
X170094000Y-143384000D01*
X170094000Y-143384000D02*
X166794000Y-143384000D01*
X149190000Y-147140000D02*
X147890000Y-147140000D01*
X147890000Y-150740000D02*
X147890000Y-147140000D01*
X147890000Y-150740000D02*
X149190000Y-150740000D01*
X149190000Y-147140000D02*
X149190000Y-150740000D01*
X164780000Y-118717500D02*
X164780000Y-122017500D01*
X164780000Y-122017500D02*
X163320000Y-122017500D01*
X163320000Y-118717500D02*
X164780000Y-118717500D01*
X163320000Y-122017500D02*
X163320000Y-118717500D01*
X164530000Y-122072500D02*
X164530000Y-124312500D01*
X159970000Y-124312500D02*
X159970000Y-122072500D01*
X164530000Y-124312500D02*
X159970000Y-124312500D01*
X159970000Y-122072500D02*
X164530000Y-122072500D01*
X109875000Y-112820000D02*
X113275000Y-112820000D01*
X113275000Y-108980000D02*
X109875000Y-108980000D01*
X109875000Y-108980000D02*
X109875000Y-112820000D01*
X113275000Y-112820000D02*
X113275000Y-108980000D01*
X143495000Y-116695000D02*
X143495000Y-115755000D01*
X145355000Y-115755000D02*
X145355000Y-116695000D01*
X143495000Y-115755000D02*
X145355000Y-115755000D01*
X145355000Y-116695000D02*
X143495000Y-116695000D01*
X145190000Y-108370000D02*
X143730000Y-108370000D01*
X145190000Y-105410000D02*
X145190000Y-108370000D01*
X143730000Y-105410000D02*
X145190000Y-105410000D01*
X143730000Y-108370000D02*
X143730000Y-105410000D01*
X128900000Y-125970000D02*
X128900000Y-125030000D01*
X128900000Y-125030000D02*
X130760000Y-125030000D01*
X130760000Y-125030000D02*
X130760000Y-125970000D01*
X130760000Y-125970000D02*
X128900000Y-125970000D01*
X142090000Y-118720000D02*
X142090000Y-119640000D01*
X140270000Y-118720000D02*
X142090000Y-118720000D01*
X142090000Y-119640000D02*
X140270000Y-119640000D01*
X140270000Y-119640000D02*
X140270000Y-118720000D01*
X131805000Y-123320000D02*
X131805000Y-124780000D01*
X131805000Y-124780000D02*
X128845000Y-124780000D01*
X128845000Y-123320000D02*
X131805000Y-123320000D01*
X128845000Y-124780000D02*
X128845000Y-123320000D01*
X148110000Y-105590000D02*
X148110000Y-106510000D01*
X146290000Y-105590000D02*
X148110000Y-105590000D01*
X148110000Y-106510000D02*
X146290000Y-106510000D01*
X146290000Y-106510000D02*
X146290000Y-105590000D01*
X133575000Y-110563579D02*
X133575000Y-118803579D01*
X133575000Y-118803579D02*
X141815000Y-118803579D01*
X141815000Y-118803579D02*
X141815000Y-110563579D01*
X141815000Y-110563579D02*
X133575000Y-110563579D01*
X129300000Y-113525000D02*
X131700000Y-113525000D01*
X131700000Y-117025000D02*
X129300000Y-117025000D01*
X131700000Y-113525000D02*
X131700000Y-117025000D01*
X129300000Y-117025000D02*
X129300000Y-113525000D01*
X135780000Y-124755000D02*
X132820000Y-124755000D01*
X135780000Y-123295000D02*
X135780000Y-124755000D01*
X132820000Y-124755000D02*
X132820000Y-123295000D01*
X132820000Y-123295000D02*
X135780000Y-123295000D01*
X141710000Y-110760000D02*
X140790000Y-110760000D01*
X141710000Y-108940000D02*
X141710000Y-110760000D01*
X140790000Y-108940000D02*
X141710000Y-108940000D01*
X140790000Y-110760000D02*
X140790000Y-108940000D01*
X149804000Y-149964000D02*
X149804000Y-148504000D01*
X153104000Y-148504000D02*
X153104000Y-149964000D01*
X149804000Y-148504000D02*
X153104000Y-148504000D01*
X153104000Y-149964000D02*
X149804000Y-149964000D01*
X156454000Y-147674000D02*
X156454000Y-150974000D01*
X154994000Y-150974000D02*
X154994000Y-147674000D01*
X156454000Y-150974000D02*
X154994000Y-150974000D01*
X154994000Y-147674000D02*
X156454000Y-147674000D01*
X165192500Y-117820000D02*
X164242500Y-117820000D01*
X158642500Y-116570000D02*
X158642500Y-114070000D01*
X165192500Y-116570000D02*
X164242500Y-116570000D01*
X164242500Y-118120000D02*
X164242500Y-117820000D01*
X165192500Y-114070000D02*
X164242500Y-114070000D01*
X165192500Y-112820000D02*
X165192500Y-114070000D01*
X157692500Y-117820000D02*
X157692500Y-116570000D01*
X165192500Y-117820000D02*
X165192500Y-116570000D01*
X157692500Y-112820000D02*
X158642500Y-112820000D01*
X164242500Y-116570000D02*
X164242500Y-114070000D01*
X165192500Y-112820000D02*
X164242500Y-112820000D01*
X157692500Y-117820000D02*
X158642500Y-117820000D01*
X157692500Y-116570000D02*
X158642500Y-116570000D01*
X158642500Y-112520000D02*
X158642500Y-112820000D01*
X158642500Y-118120000D02*
X164242500Y-118120000D01*
X164242500Y-112520000D02*
X158642500Y-112520000D01*
X164242500Y-112520000D02*
X164242500Y-112820000D01*
X157692500Y-114070000D02*
X158642500Y-114070000D01*
X157692500Y-112820000D02*
X157692500Y-114070000D01*
X158642500Y-118120000D02*
X158642500Y-117820000D01*
X140380000Y-133530000D02*
X138480000Y-133530000D01*
X138480000Y-130330000D02*
X138480000Y-133530000D01*
X140380000Y-130330000D02*
X138480000Y-130330000D01*
X140380000Y-130330000D02*
X140380000Y-133530000D01*
X146840000Y-120590000D02*
X154240000Y-120590000D01*
X154240000Y-115190000D02*
X146840000Y-115190000D01*
X154240000Y-120590000D02*
X154240000Y-115190000D01*
X146840000Y-115190000D02*
X146840000Y-120590000D01*
X92324000Y-127021500D02*
X93784000Y-127021500D01*
X93784000Y-130321500D02*
X92324000Y-130321500D01*
X93784000Y-127021500D02*
X93784000Y-130321500D01*
X92324000Y-130321500D02*
X92324000Y-127021500D01*
X109930000Y-120356500D02*
X108470000Y-120356500D01*
X108470000Y-120356500D02*
X108470000Y-117056500D01*
X109930000Y-117056500D02*
X109930000Y-120356500D01*
X108470000Y-117056500D02*
X109930000Y-117056500D01*
X162900000Y-104450000D02*
X159300000Y-104450000D01*
X159300000Y-104450000D02*
X159300000Y-108050000D01*
X162900000Y-108050000D02*
X162900000Y-104450000D01*
X159300000Y-108050000D02*
X162900000Y-108050000D01*
X100675000Y-132075000D02*
X100675000Y-128475000D01*
X101975000Y-128475000D02*
X101975000Y-132075000D01*
X100675000Y-132075000D02*
X101975000Y-132075000D01*
X101975000Y-128475000D02*
X100675000Y-128475000D01*
X145260000Y-113515000D02*
X145260000Y-114435000D01*
X143440000Y-113515000D02*
X145260000Y-113515000D01*
X143440000Y-114435000D02*
X143440000Y-113515000D01*
X145260000Y-114435000D02*
X143440000Y-114435000D01*
X114910000Y-112850000D02*
X117870000Y-112850000D01*
X117870000Y-112850000D02*
X117870000Y-114310000D01*
X117870000Y-114310000D02*
X114910000Y-114310000D01*
X114910000Y-114310000D02*
X114910000Y-112850000D01*
X94720000Y-125510000D02*
X94720000Y-129350000D01*
X98120000Y-129350000D02*
X98120000Y-125510000D01*
X98120000Y-125510000D02*
X94720000Y-125510000D01*
X94720000Y-129350000D02*
X98120000Y-129350000D01*
X141780000Y-118420000D02*
X141780000Y-116600000D01*
X142700000Y-118420000D02*
X141780000Y-118420000D01*
X142700000Y-116600000D02*
X142700000Y-118420000D01*
X141780000Y-116600000D02*
X142700000Y-116600000D01*
X132750000Y-125040000D02*
X134610000Y-125040000D01*
X134610000Y-125040000D02*
X134610000Y-125980000D01*
X134610000Y-125980000D02*
X132750000Y-125980000D01*
X132750000Y-125980000D02*
X132750000Y-125040000D01*
X114305000Y-108950000D02*
X118145000Y-108950000D01*
X118145000Y-105550000D02*
X114305000Y-105550000D01*
X118145000Y-108950000D02*
X118145000Y-105550000D01*
X114305000Y-105550000D02*
X114305000Y-108950000D01*
X145625000Y-112285000D02*
X154925000Y-112285000D01*
X145625000Y-106565000D02*
X145625000Y-112285000D01*
X154925000Y-106565000D02*
X145625000Y-106565000D01*
X154925000Y-112285000D02*
X154925000Y-106565000D01*
X128047500Y-108320000D02*
X123447500Y-108320000D01*
X128047500Y-106220000D02*
X128047500Y-108320000D01*
X123447500Y-108320000D02*
X123447500Y-106220000D01*
X123447500Y-106220000D02*
X128047500Y-106220000D01*
X133505000Y-114305000D02*
X133505000Y-115245000D01*
X131645000Y-114305000D02*
X133505000Y-114305000D01*
X133505000Y-115245000D02*
X131645000Y-115245000D01*
X131645000Y-115245000D02*
X131645000Y-114305000D01*
X96854000Y-132554000D02*
X96854000Y-131094000D01*
X100154000Y-132554000D02*
X96854000Y-132554000D01*
X96854000Y-131094000D02*
X100154000Y-131094000D01*
X100154000Y-131094000D02*
X100154000Y-132554000D01*
X133670000Y-133750000D02*
X133670000Y-136950000D01*
X135570000Y-133750000D02*
X135570000Y-136950000D01*
X135570000Y-136950000D02*
X133670000Y-136950000D01*
X135570000Y-133750000D02*
X133670000Y-133750000D01*
X192600000Y-144080000D02*
X185700000Y-144080000D01*
X185700000Y-149580000D02*
X192600000Y-149580000D01*
X119780000Y-105675000D02*
X119780000Y-108975000D01*
X119780000Y-108975000D02*
X118320000Y-108975000D01*
X118320000Y-105675000D02*
X119780000Y-105675000D01*
X118320000Y-108975000D02*
X118320000Y-105675000D01*
X130450000Y-100970000D02*
X130450000Y-99510000D01*
X133750000Y-100970000D02*
X130450000Y-100970000D01*
X130450000Y-99510000D02*
X133750000Y-99510000D01*
X133750000Y-99510000D02*
X133750000Y-100970000D01*
X160330000Y-146510000D02*
X156930000Y-146510000D01*
X160330000Y-150350000D02*
X160330000Y-146510000D01*
X156930000Y-146510000D02*
X156930000Y-150350000D01*
X156930000Y-150350000D02*
X160330000Y-150350000D01*
X120605000Y-112900000D02*
X119145000Y-112900000D01*
X119145000Y-109600000D02*
X120605000Y-109600000D01*
X119145000Y-112900000D02*
X119145000Y-109600000D01*
X120605000Y-109600000D02*
X120605000Y-112900000D01*
X142580000Y-129070000D02*
X142580000Y-132270000D01*
X142580000Y-129070000D02*
X140680000Y-129070000D01*
X140680000Y-129070000D02*
X140680000Y-132270000D01*
X142580000Y-132270000D02*
X140680000Y-132270000D01*
X157756000Y-130444000D02*
X157756000Y-129144000D01*
X157756000Y-130444000D02*
X154156000Y-130444000D01*
X154156000Y-129144000D02*
X157756000Y-129144000D01*
X154156000Y-129144000D02*
X154156000Y-130444000D01*
X146060000Y-105400000D02*
X144600000Y-105400000D01*
X144600000Y-105400000D02*
X144600000Y-102100000D01*
X146060000Y-102100000D02*
X146060000Y-105400000D01*
X144600000Y-102100000D02*
X146060000Y-102100000D01*
X169300000Y-141260000D02*
X169300000Y-137860000D01*
X165460000Y-137860000D02*
X165460000Y-141260000D01*
X169300000Y-137860000D02*
X165460000Y-137860000D01*
X165460000Y-141260000D02*
X169300000Y-141260000D01*
M02*
