G04 #@! TF.GenerationSoftware,KiCad,Pcbnew,(6.0.7)*
G04 #@! TF.CreationDate,2023-02-24T15:51:33-08:00*
G04 #@! TF.ProjectId,procon_gcc_main_pcb,70726f63-6f6e-45f6-9763-635f6d61696e,rev?*
G04 #@! TF.SameCoordinates,Original*
G04 #@! TF.FileFunction,Paste,Top*
G04 #@! TF.FilePolarity,Positive*
%FSLAX46Y46*%
G04 Gerber Fmt 4.6, Leading zero omitted, Abs format (unit mm)*
G04 Created by KiCad (PCBNEW (6.0.7)) date 2023-02-24 15:51:33*
%MOMM*%
%LPD*%
G01*
G04 APERTURE LIST*
G04 Aperture macros list*
%AMRoundRect*
0 Rectangle with rounded corners*
0 $1 Rounding radius*
0 $2 $3 $4 $5 $6 $7 $8 $9 X,Y pos of 4 corners*
0 Add a 4 corners polygon primitive as box body*
4,1,4,$2,$3,$4,$5,$6,$7,$8,$9,$2,$3,0*
0 Add four circle primitives for the rounded corners*
1,1,$1+$1,$2,$3*
1,1,$1+$1,$4,$5*
1,1,$1+$1,$6,$7*
1,1,$1+$1,$8,$9*
0 Add four rect primitives between the rounded corners*
20,1,$1+$1,$2,$3,$4,$5,0*
20,1,$1+$1,$4,$5,$6,$7,0*
20,1,$1+$1,$6,$7,$8,$9,0*
20,1,$1+$1,$8,$9,$2,$3,0*%
G04 Aperture macros list end*
%ADD10RoundRect,0.237500X-0.237500X0.250000X-0.237500X-0.250000X0.237500X-0.250000X0.237500X0.250000X0*%
%ADD11RoundRect,0.135000X0.135000X0.185000X-0.135000X0.185000X-0.135000X-0.185000X0.135000X-0.185000X0*%
%ADD12R,0.600000X0.450000*%
%ADD13R,0.900000X1.200000*%
%ADD14RoundRect,0.237500X0.237500X-0.250000X0.237500X0.250000X-0.237500X0.250000X-0.237500X-0.250000X0*%
%ADD15RoundRect,0.140000X0.140000X0.170000X-0.140000X0.170000X-0.140000X-0.170000X0.140000X-0.170000X0*%
%ADD16RoundRect,0.150000X0.587500X0.150000X-0.587500X0.150000X-0.587500X-0.150000X0.587500X-0.150000X0*%
%ADD17RoundRect,0.237500X0.300000X0.237500X-0.300000X0.237500X-0.300000X-0.237500X0.300000X-0.237500X0*%
%ADD18RoundRect,0.150000X-0.150000X0.587500X-0.150000X-0.587500X0.150000X-0.587500X0.150000X0.587500X0*%
%ADD19RoundRect,0.140000X-0.140000X-0.170000X0.140000X-0.170000X0.140000X0.170000X-0.140000X0.170000X0*%
%ADD20R,0.450000X0.600000*%
%ADD21RoundRect,0.150000X-0.825000X-0.150000X0.825000X-0.150000X0.825000X0.150000X-0.825000X0.150000X0*%
%ADD22R,0.750000X1.200000*%
%ADD23O,2.250000X3.250000*%
%ADD24RoundRect,0.250000X0.375000X0.625000X-0.375000X0.625000X-0.375000X-0.625000X0.375000X-0.625000X0*%
%ADD25RoundRect,0.150000X0.150000X-0.587500X0.150000X0.587500X-0.150000X0.587500X-0.150000X-0.587500X0*%
%ADD26RoundRect,0.225000X0.250000X-0.225000X0.250000X0.225000X-0.250000X0.225000X-0.250000X-0.225000X0*%
%ADD27RoundRect,0.225000X0.225000X0.250000X-0.225000X0.250000X-0.225000X-0.250000X0.225000X-0.250000X0*%
%ADD28RoundRect,0.250000X-0.292217X0.292217X-0.292217X-0.292217X0.292217X-0.292217X0.292217X0.292217X0*%
%ADD29RoundRect,0.050000X-0.050000X0.387500X-0.050000X-0.387500X0.050000X-0.387500X0.050000X0.387500X0*%
%ADD30RoundRect,0.050000X-0.387500X0.050000X-0.387500X-0.050000X0.387500X-0.050000X0.387500X0.050000X0*%
%ADD31R,1.900000X0.400000*%
%ADD32RoundRect,0.140000X0.170000X-0.140000X0.170000X0.140000X-0.170000X0.140000X-0.170000X-0.140000X0*%
%ADD33RoundRect,0.237500X-0.250000X-0.237500X0.250000X-0.237500X0.250000X0.237500X-0.250000X0.237500X0*%
%ADD34RoundRect,0.237500X0.237500X-0.300000X0.237500X0.300000X-0.237500X0.300000X-0.237500X-0.300000X0*%
%ADD35R,1.000000X0.750000*%
%ADD36RoundRect,0.150000X0.825000X0.150000X-0.825000X0.150000X-0.825000X-0.150000X0.825000X-0.150000X0*%
%ADD37R,2.100000X1.600000*%
%ADD38RoundRect,0.140000X-0.170000X0.140000X-0.170000X-0.140000X0.170000X-0.140000X0.170000X0.140000X0*%
%ADD39R,2.000000X1.300000*%
%ADD40R,0.300000X1.000000*%
%ADD41R,0.300000X0.900000*%
%ADD42RoundRect,0.150000X-0.650000X-0.150000X0.650000X-0.150000X0.650000X0.150000X-0.650000X0.150000X0*%
%ADD43RoundRect,0.250000X-0.450000X-0.425000X0.450000X-0.425000X0.450000X0.425000X-0.450000X0.425000X0*%
%ADD44RoundRect,0.135000X-0.135000X-0.185000X0.135000X-0.185000X0.135000X0.185000X-0.135000X0.185000X0*%
%ADD45RoundRect,0.237500X0.250000X0.237500X-0.250000X0.237500X-0.250000X-0.237500X0.250000X-0.237500X0*%
%ADD46R,1.200000X0.750000*%
G04 APERTURE END LIST*
D10*
X113538000Y-108307500D03*
X113538000Y-110132500D03*
D11*
X144960000Y-115050000D03*
X143940000Y-115050000D03*
D12*
X122860000Y-109340000D03*
X124960000Y-109340000D03*
D13*
X118050000Y-110250000D03*
X114750000Y-110250000D03*
D14*
X161925000Y-121305000D03*
X161925000Y-119480000D03*
D10*
X169184000Y-133621500D03*
X169184000Y-135446500D03*
D15*
X133250000Y-116240000D03*
X132290000Y-116240000D03*
D16*
X106027500Y-119720000D03*
X106027500Y-117820000D03*
X104152500Y-118770000D03*
D17*
X106986500Y-122044000D03*
X105261500Y-122044000D03*
D18*
X160075000Y-119455000D03*
X158175000Y-119455000D03*
X159125000Y-121330000D03*
D19*
X153770000Y-106025000D03*
X154730000Y-106025000D03*
D16*
X139437500Y-106250000D03*
X139437500Y-104350000D03*
X137562500Y-105300000D03*
D20*
X142500000Y-107770000D03*
X142500000Y-105670000D03*
D21*
X121800000Y-113295000D03*
X121800000Y-114565000D03*
X121800000Y-115835000D03*
X121800000Y-117105000D03*
X126750000Y-117105000D03*
X126750000Y-115835000D03*
X126750000Y-114565000D03*
X126750000Y-113295000D03*
D20*
X137000000Y-132410000D03*
X137000000Y-134510000D03*
D11*
X132190000Y-125510000D03*
X131170000Y-125510000D03*
D22*
X113800000Y-120430000D03*
X113800000Y-118530000D03*
D11*
X136090000Y-125520000D03*
X135070000Y-125520000D03*
D17*
X169306500Y-142654000D03*
X167581500Y-142654000D03*
D22*
X148540000Y-147990000D03*
X148540000Y-149890000D03*
D14*
X164050000Y-121280000D03*
X164050000Y-119455000D03*
D23*
X178969000Y-142769000D03*
X182869000Y-142769000D03*
D24*
X163650000Y-123192500D03*
X160850000Y-123192500D03*
D25*
X110625000Y-111837500D03*
X112525000Y-111837500D03*
X111575000Y-109962500D03*
D11*
X144935000Y-116225000D03*
X143915000Y-116225000D03*
D26*
X144460000Y-107665000D03*
X144460000Y-106115000D03*
D11*
X130340000Y-125500000D03*
X129320000Y-125500000D03*
D19*
X140700000Y-119180000D03*
X141660000Y-119180000D03*
D27*
X131100000Y-124050000D03*
X129550000Y-124050000D03*
D19*
X146720000Y-106050000D03*
X147680000Y-106050000D03*
D28*
X138332500Y-114046079D03*
X137057500Y-114046079D03*
X137057500Y-115321079D03*
X138332500Y-115321079D03*
D29*
X140295000Y-111246079D03*
X139895000Y-111246079D03*
X139495000Y-111246079D03*
X139095000Y-111246079D03*
X138695000Y-111246079D03*
X138295000Y-111246079D03*
X137895000Y-111246079D03*
X137495000Y-111246079D03*
X137095000Y-111246079D03*
X136695000Y-111246079D03*
X136295000Y-111246079D03*
X135895000Y-111246079D03*
X135495000Y-111246079D03*
X135095000Y-111246079D03*
D30*
X134257500Y-112083579D03*
X134257500Y-112483579D03*
X134257500Y-112883579D03*
X134257500Y-113283579D03*
X134257500Y-113683579D03*
X134257500Y-114083579D03*
X134257500Y-114483579D03*
X134257500Y-114883579D03*
X134257500Y-115283579D03*
X134257500Y-115683579D03*
X134257500Y-116083579D03*
X134257500Y-116483579D03*
X134257500Y-116883579D03*
X134257500Y-117283579D03*
D29*
X135095000Y-118121079D03*
X135495000Y-118121079D03*
X135895000Y-118121079D03*
X136295000Y-118121079D03*
X136695000Y-118121079D03*
X137095000Y-118121079D03*
X137495000Y-118121079D03*
X137895000Y-118121079D03*
X138295000Y-118121079D03*
X138695000Y-118121079D03*
X139095000Y-118121079D03*
X139495000Y-118121079D03*
X139895000Y-118121079D03*
X140295000Y-118121079D03*
D30*
X141132500Y-117283579D03*
X141132500Y-116883579D03*
X141132500Y-116483579D03*
X141132500Y-116083579D03*
X141132500Y-115683579D03*
X141132500Y-115283579D03*
X141132500Y-114883579D03*
X141132500Y-114483579D03*
X141132500Y-114083579D03*
X141132500Y-113683579D03*
X141132500Y-113283579D03*
X141132500Y-112883579D03*
X141132500Y-112483579D03*
X141132500Y-112083579D03*
D31*
X130500000Y-114075000D03*
X130500000Y-116475000D03*
X130500000Y-115275000D03*
D27*
X135075000Y-124025000D03*
X133525000Y-124025000D03*
D32*
X141250000Y-110330000D03*
X141250000Y-109370000D03*
D33*
X150541500Y-149234000D03*
X152366500Y-149234000D03*
D34*
X155724000Y-150186500D03*
X155724000Y-148461500D03*
D35*
X164442500Y-117195000D03*
X158442500Y-117195000D03*
X164442500Y-113445000D03*
X158442500Y-113445000D03*
D20*
X139430000Y-130880000D03*
X139430000Y-132980000D03*
D36*
X153015000Y-119795000D03*
X153015000Y-118525000D03*
X153015000Y-117255000D03*
X153015000Y-115985000D03*
X148065000Y-115985000D03*
X148065000Y-117255000D03*
X148065000Y-118525000D03*
X148065000Y-119795000D03*
D34*
X93054000Y-129534000D03*
X93054000Y-127809000D03*
D14*
X109200000Y-119619000D03*
X109200000Y-117794000D03*
D22*
X101325000Y-131225000D03*
X101325000Y-129325000D03*
D15*
X144830000Y-113975000D03*
X143870000Y-113975000D03*
D27*
X117165000Y-113580000D03*
X115615000Y-113580000D03*
D25*
X95470000Y-128367500D03*
X97370000Y-128367500D03*
X96420000Y-126492500D03*
D37*
X118800000Y-125575000D03*
X118800000Y-128125000D03*
X118800000Y-130665000D03*
X118800000Y-133175000D03*
X127300000Y-125575000D03*
X127300000Y-128125000D03*
X127300000Y-130665000D03*
X127300000Y-133175000D03*
D23*
X94450000Y-138690000D03*
X90550000Y-138690000D03*
D38*
X142240000Y-117030000D03*
X142240000Y-117990000D03*
D39*
X105550000Y-144625000D03*
X94450000Y-144625000D03*
D40*
X96750000Y-141925000D03*
X97250000Y-141925000D03*
X97750000Y-141925000D03*
X98250000Y-141925000D03*
X98750000Y-141925000D03*
X99250000Y-141925000D03*
X99750000Y-141925000D03*
X100250000Y-141925000D03*
X100750000Y-141925000D03*
X101250000Y-141925000D03*
X101750000Y-141925000D03*
X102250000Y-141925000D03*
X102750000Y-141925000D03*
X103250000Y-141925000D03*
D11*
X134190000Y-125510000D03*
X133170000Y-125510000D03*
D16*
X117162500Y-108200000D03*
X117162500Y-106300000D03*
X115287500Y-107250000D03*
D41*
X141210000Y-99035000D03*
X140710000Y-99035000D03*
X140210000Y-99035000D03*
X139710000Y-99035000D03*
X139210000Y-99035000D03*
X138710000Y-99035000D03*
X138210000Y-99035000D03*
X137710000Y-99035000D03*
X137210000Y-99035000D03*
X136710000Y-99035000D03*
X136210000Y-99035000D03*
X135710000Y-99035000D03*
D42*
X146675000Y-107520000D03*
X146675000Y-108790000D03*
X146675000Y-110060000D03*
X146675000Y-111330000D03*
X153875000Y-111330000D03*
X153875000Y-110060000D03*
X153875000Y-108790000D03*
X153875000Y-107520000D03*
D43*
X124397500Y-107270000D03*
X127097500Y-107270000D03*
D44*
X132065000Y-114775000D03*
X133085000Y-114775000D03*
D45*
X99416500Y-131824000D03*
X97591500Y-131824000D03*
D20*
X134620000Y-134300000D03*
X134620000Y-136400000D03*
D14*
X119050000Y-108237500D03*
X119050000Y-106412500D03*
D45*
X133012500Y-100240000D03*
X131187500Y-100240000D03*
D25*
X157680000Y-149367500D03*
X159580000Y-149367500D03*
X158630000Y-147492500D03*
D14*
X119875000Y-112162500D03*
X119875000Y-110337500D03*
D20*
X141630000Y-129620000D03*
X141630000Y-131720000D03*
D46*
X156906000Y-129794000D03*
X155006000Y-129794000D03*
D10*
X145330000Y-102837500D03*
X145330000Y-104662500D03*
D16*
X168317500Y-140510000D03*
X168317500Y-138610000D03*
X166442500Y-139560000D03*
M02*
