M48
; DRILL file {KiCad (6.0.7)} date Tue Dec 20 18:53:40 2022
; FORMAT={-:-/ absolute / inch / decimal}
; #@! TF.CreationDate,2022-12-20T18:53:40-08:00
; #@! TF.GenerationSoftware,Kicad,Pcbnew,(6.0.7)
; #@! TF.FileFunction,Plated,1,2,PTH
FMAT,2
INCH
; #@! TA.AperFunction,Plated,PTH,ComponentDrill
T1C0.0138
; #@! TA.AperFunction,Plated,PTH,ViaDrill
T2C0.0157
; #@! TA.AperFunction,Plated,PTH,ComponentDrill
T3C0.0157
; #@! TA.AperFunction,Plated,PTH,ComponentDrill
T4C0.0197
; #@! TA.AperFunction,Plated,PTH,ComponentDrill
T5C0.0236
; #@! TA.AperFunction,Plated,PTH,ComponentDrill
T6C0.0394
; #@! TA.AperFunction,Plated,PTH,ComponentDrill
T7C0.0472
; #@! TA.AperFunction,Plated,PTH,ComponentDrill
T8C0.0591
%
G90
G05
T1
X5.3709Y-4.4649
X5.3709Y-4.5151
X5.3709Y-4.5653
X5.4211Y-4.4649
X5.4211Y-4.5151
X5.4211Y-4.5653
X5.4713Y-4.4649
X5.4713Y-4.5151
X5.4713Y-4.5653
T2
X3.7972Y-5.7378
X3.8597Y-5.6565
X3.8984Y-5.5299
X3.922Y-5.6587
X3.99Y-5.0915
X3.9951Y-5.5433
X3.9975Y-5.6303
X4.0126Y-5.508
X4.0127Y-5.7051
X4.0541Y-5.5433
X4.0965Y-5.5837
X4.14Y-4.8
X4.4321Y-4.4045
X4.4984Y-4.5417
X4.5157Y-4.3435
X4.5389Y-4.2224
X4.6476Y-4.3406
X4.6575Y-4.4465
X4.661Y-4.5083
X4.6772Y-5.2431
X4.687Y-4.1895
X4.715Y-4.4909
X4.7575Y-3.9425
X4.802Y-4.3364
X4.8567Y-4.6221
X4.8937Y-4.5878
X4.8956Y-4.3855
X4.9157Y-4.7852
X4.9282Y-4.6075
X4.9492Y-4.2205
X4.9835Y-5.3898
X5.0118Y-4.9439
X5.0118Y-5.0443
X5.0118Y-5.1443
X5.0118Y-5.2431
X5.0659Y-4.5935
X5.0797Y-4.3978
X5.0965Y-4.8343
X5.124Y-4.3925
X5.1535Y-4.6221
X5.1587Y-4.4508
X5.1595Y-4.365
X5.1883Y-4.675
X5.1949Y-5.2248
X5.2057Y-4.4639
X5.2185Y-4.8902
X5.2205Y-4.5461
X5.244Y-4.4482
X5.2492Y-4.0406
X5.2945Y-3.9571
X5.2969Y-5.263
X5.3015Y-5.5243
X5.3094Y-4.1377
X5.3164Y-4.786
X5.3238Y-4.2514
X5.3343Y-3.9799
X5.3494Y-4.0591
X5.3527Y-4.7346
X5.3536Y-4.2256
X5.3887Y-4.0609
X5.389Y-4.9413
X5.3899Y-4.2105
X5.3935Y-4.3121
X5.3937Y-5.3197
X5.3937Y-5.3197
X5.4012Y-5.1858
X5.4125Y-4.7527
X5.4158Y-4.1457
X5.422Y-4.2429
X5.4452Y-4.7981
X5.4506Y-3.9532
X5.4577Y-4.0512
X5.4877Y-5.2574
X5.4894Y-5.1291
X5.5075Y-4.9031
X5.511Y-4.2803
X5.5205Y-4.3362
X5.5219Y-4.5324
X5.5221Y-4.4198
X5.5234Y-4.6127
X5.5318Y-4.8252
X5.542Y-4.2528
X5.5466Y-3.9393
X5.5756Y-5.074
X5.576Y-5.2094
X5.6008Y-4.6776
X5.6096Y-4.7201
X5.6214Y-3.9977
X5.626Y-4.0817
X5.6476Y-3.9144
X5.6688Y-4.0847
X5.6806Y-4.6391
X5.728Y-4.6311
X5.7406Y-4.4764
X5.7709Y-4.6264
X5.7854Y-4.6654
X5.8031Y-4.5669
X5.8041Y-4.0492
X5.8657Y-4.2945
X5.9016Y-5.2457
X5.9194Y-4.8555
X5.961Y-4.6693
X5.9791Y-4.9413
X5.9987Y-5.8754
X6.1258Y-4.4472
X6.1309Y-5.8449
X6.155Y-4.4764
X6.18Y-5.11
X6.1924Y-4.9188
X6.2234Y-4.7303
X6.378Y-5.0187
X6.4429Y-4.875
T3
X5.3409Y-3.8514
X5.3567Y-3.8238
X5.3882Y-3.8238
X5.4039Y-3.8514
X5.4197Y-3.8238
X5.4354Y-3.8514
X5.4669Y-3.8514
X5.4827Y-3.8238
X5.4984Y-3.8514
X5.5142Y-3.8238
X5.5457Y-3.8238
X5.5614Y-3.8514
T5
X3.746Y-5.0943
X3.796Y-5.0943
X3.846Y-5.0943
X4.2133Y-4.6269
X4.2133Y-4.6769
X4.2133Y-4.7269
X6.1958Y-5.9122
X6.2458Y-5.9122
X6.2958Y-5.9122
X6.6631Y-5.4448
X6.6631Y-5.4948
X6.6631Y-5.5448
T6
X4.802Y-4.0524
X4.8807Y-4.0524
X4.9594Y-4.0524
X5.0382Y-4.0524
X5.1169Y-4.0524
X5.1957Y-4.0524
X6.3425Y-4.1831
X6.3425Y-4.2648
X6.3425Y-4.3474
T7
X3.3915Y-4.55
X3.3915Y-4.8059
X3.5687Y-4.55
X3.5687Y-4.8059
X5.8423Y-5.3669
X5.8423Y-5.6228
X6.0194Y-5.3669
X6.0194Y-5.6228
T8
X3.5982Y-4.4289
X3.5982Y-4.9269
X3.9919Y-4.4289
X3.9919Y-4.9269
X6.049Y-5.2458
X6.049Y-5.7439
X6.4427Y-5.2458
X6.4427Y-5.7439
T4
G00X5.2744Y-3.6667
M15
G01X5.2744Y-3.6431
M16
G05
G00X5.2886Y-3.8396
M15
G01X5.2886Y-3.8159
M16
G05
G00X5.6138Y-3.8396
M15
G01X5.6138Y-3.8159
M16
G05
G00X5.628Y-3.6667
M15
G01X5.628Y-3.6431
M16
G05
T0
M30
