G04 #@! TF.GenerationSoftware,KiCad,Pcbnew,(6.0.7)*
G04 #@! TF.CreationDate,2022-12-20T18:53:36-08:00*
G04 #@! TF.ProjectId,procon_gcc_main_pcb,70726f63-6f6e-45f6-9763-635f6d61696e,rev?*
G04 #@! TF.SameCoordinates,Original*
G04 #@! TF.FileFunction,Other,User*
%FSLAX46Y46*%
G04 Gerber Fmt 4.6, Leading zero omitted, Abs format (unit mm)*
G04 Created by KiCad (PCBNEW (6.0.7)) date 2022-12-20 18:53:36*
%MOMM*%
%LPD*%
G01*
G04 APERTURE LIST*
%ADD10C,0.050000*%
G04 APERTURE END LIST*
D10*
X114268000Y-107570000D02*
X114268000Y-110870000D01*
X112808000Y-110870000D02*
X112808000Y-107570000D01*
X114268000Y-110870000D02*
X112808000Y-110870000D01*
X112808000Y-107570000D02*
X114268000Y-107570000D01*
X145580000Y-114980000D02*
X145580000Y-115920000D01*
X143720000Y-115920000D02*
X143720000Y-114980000D01*
X143720000Y-114980000D02*
X145580000Y-114980000D01*
X145580000Y-115920000D02*
X143720000Y-115920000D01*
X114050000Y-109100000D02*
X118750000Y-109100000D01*
X118750000Y-111400000D02*
X114050000Y-111400000D01*
X114050000Y-111400000D02*
X114050000Y-109100000D01*
X118750000Y-111400000D02*
X118750000Y-109100000D01*
X161195000Y-119375000D02*
X162655000Y-119375000D01*
X162655000Y-122675000D02*
X161195000Y-122675000D01*
X162655000Y-119375000D02*
X162655000Y-122675000D01*
X161195000Y-122675000D02*
X161195000Y-119375000D01*
X169914000Y-136184000D02*
X168454000Y-136184000D01*
X168454000Y-132884000D02*
X169914000Y-132884000D01*
X169914000Y-132884000D02*
X169914000Y-136184000D01*
X168454000Y-136184000D02*
X168454000Y-132884000D01*
X131860000Y-115780000D02*
X133680000Y-115780000D01*
X133680000Y-115780000D02*
X133680000Y-116700000D01*
X133680000Y-116700000D02*
X131860000Y-116700000D01*
X131860000Y-116700000D02*
X131860000Y-115780000D01*
X120470000Y-101430000D02*
X120470000Y-104430000D01*
X133470000Y-104430000D02*
X133470000Y-101430000D01*
X133470000Y-101430000D02*
X120470000Y-101430000D01*
X120470000Y-104430000D02*
X133470000Y-104430000D01*
X103170000Y-120470000D02*
X107010000Y-120470000D01*
X107010000Y-120470000D02*
X107010000Y-117070000D01*
X103170000Y-117070000D02*
X103170000Y-120470000D01*
X107010000Y-117070000D02*
X103170000Y-117070000D01*
X104474000Y-122774000D02*
X104474000Y-121314000D01*
X104474000Y-121314000D02*
X107774000Y-121314000D01*
X107774000Y-121314000D02*
X107774000Y-122774000D01*
X107774000Y-122774000D02*
X104474000Y-122774000D01*
X160825000Y-122945000D02*
X160825000Y-119105000D01*
X160825000Y-119105000D02*
X157425000Y-119105000D01*
X157425000Y-119105000D02*
X157425000Y-122945000D01*
X157425000Y-122945000D02*
X160825000Y-122945000D01*
X155160000Y-105565000D02*
X155160000Y-106485000D01*
X153340000Y-106485000D02*
X153340000Y-105565000D01*
X155160000Y-106485000D02*
X153340000Y-106485000D01*
X153340000Y-105565000D02*
X155160000Y-105565000D01*
X140420000Y-103600000D02*
X136580000Y-103600000D01*
X136580000Y-107000000D02*
X140420000Y-107000000D01*
X136580000Y-103600000D02*
X136580000Y-107000000D01*
X140420000Y-107000000D02*
X140420000Y-103600000D01*
X141350000Y-109070000D02*
X141350000Y-104370000D01*
X141350000Y-109070000D02*
X143650000Y-109070000D01*
X143650000Y-104370000D02*
X143650000Y-109070000D01*
X141350000Y-104370000D02*
X143650000Y-104370000D01*
X120575000Y-117900000D02*
X127975000Y-117900000D01*
X127975000Y-117900000D02*
X127975000Y-112500000D01*
X120575000Y-112500000D02*
X120575000Y-117900000D01*
X127975000Y-112500000D02*
X120575000Y-112500000D01*
X135850000Y-135810000D02*
X135850000Y-131110000D01*
X138150000Y-131110000D02*
X135850000Y-131110000D01*
X138150000Y-135810000D02*
X135850000Y-135810000D01*
X138150000Y-131110000D02*
X138150000Y-135810000D01*
X130750000Y-125040000D02*
X132610000Y-125040000D01*
X132610000Y-125040000D02*
X132610000Y-125980000D01*
X130750000Y-125980000D02*
X130750000Y-125040000D01*
X132610000Y-125980000D02*
X130750000Y-125980000D01*
X111900000Y-118750000D02*
X111900000Y-122350000D01*
X110600000Y-122350000D02*
X111900000Y-122350000D01*
X110600000Y-122350000D02*
X110600000Y-118750000D01*
X111900000Y-118750000D02*
X110600000Y-118750000D01*
X134650000Y-125050000D02*
X136510000Y-125050000D01*
X136510000Y-125990000D02*
X134650000Y-125990000D01*
X136510000Y-125050000D02*
X136510000Y-125990000D01*
X134650000Y-125990000D02*
X134650000Y-125050000D01*
X166794000Y-141924000D02*
X170094000Y-141924000D01*
X166794000Y-143384000D02*
X166794000Y-141924000D01*
X170094000Y-141924000D02*
X170094000Y-143384000D01*
X170094000Y-143384000D02*
X166794000Y-143384000D01*
X149190000Y-147140000D02*
X147890000Y-147140000D01*
X147890000Y-150740000D02*
X147890000Y-147140000D01*
X147890000Y-150740000D02*
X149190000Y-150740000D01*
X149190000Y-147140000D02*
X149190000Y-150740000D01*
X164780000Y-119350000D02*
X164780000Y-122650000D01*
X164780000Y-122650000D02*
X163320000Y-122650000D01*
X163320000Y-119350000D02*
X164780000Y-119350000D01*
X163320000Y-122650000D02*
X163320000Y-119350000D01*
X164530000Y-122705000D02*
X164530000Y-124945000D01*
X159970000Y-124945000D02*
X159970000Y-122705000D01*
X164530000Y-124945000D02*
X159970000Y-124945000D01*
X159970000Y-122705000D02*
X164530000Y-122705000D01*
X109875000Y-112820000D02*
X113275000Y-112820000D01*
X113275000Y-108980000D02*
X109875000Y-108980000D01*
X109875000Y-108980000D02*
X109875000Y-112820000D01*
X113275000Y-112820000D02*
X113275000Y-108980000D01*
X143735000Y-116845000D02*
X143735000Y-115905000D01*
X145595000Y-115905000D02*
X145595000Y-116845000D01*
X143735000Y-115905000D02*
X145595000Y-115905000D01*
X145595000Y-116845000D02*
X143735000Y-116845000D01*
X145190000Y-108370000D02*
X143730000Y-108370000D01*
X145190000Y-105410000D02*
X145190000Y-108370000D01*
X143730000Y-105410000D02*
X145190000Y-105410000D01*
X143730000Y-108370000D02*
X143730000Y-105410000D01*
X128900000Y-125970000D02*
X128900000Y-125030000D01*
X128900000Y-125030000D02*
X130760000Y-125030000D01*
X130760000Y-125030000D02*
X130760000Y-125970000D01*
X130760000Y-125970000D02*
X128900000Y-125970000D01*
X142090000Y-118720000D02*
X142090000Y-119640000D01*
X140270000Y-118720000D02*
X142090000Y-118720000D01*
X142090000Y-119640000D02*
X140270000Y-119640000D01*
X140270000Y-119640000D02*
X140270000Y-118720000D01*
X129380000Y-124110000D02*
X131200000Y-124110000D01*
X131200000Y-125030000D02*
X129380000Y-125030000D01*
X131200000Y-124110000D02*
X131200000Y-125030000D01*
X129380000Y-125030000D02*
X129380000Y-124110000D01*
X148110000Y-105590000D02*
X148110000Y-106510000D01*
X146290000Y-105590000D02*
X148110000Y-105590000D01*
X148110000Y-106510000D02*
X146290000Y-106510000D01*
X146290000Y-106510000D02*
X146290000Y-105590000D01*
X133575000Y-110563579D02*
X133575000Y-118803579D01*
X133575000Y-118803579D02*
X141815000Y-118803579D01*
X141815000Y-118803579D02*
X141815000Y-110563579D01*
X141815000Y-110563579D02*
X133575000Y-110563579D01*
X129300000Y-113525000D02*
X131700000Y-113525000D01*
X131700000Y-117025000D02*
X129300000Y-117025000D01*
X131700000Y-113525000D02*
X131700000Y-117025000D01*
X129300000Y-117025000D02*
X129300000Y-113525000D01*
X133270000Y-125020000D02*
X133270000Y-124100000D01*
X135090000Y-125020000D02*
X133270000Y-125020000D01*
X133270000Y-124100000D02*
X135090000Y-124100000D01*
X135090000Y-124100000D02*
X135090000Y-125020000D01*
X141710000Y-111500000D02*
X140790000Y-111500000D01*
X141710000Y-109680000D02*
X141710000Y-111500000D01*
X140790000Y-109680000D02*
X141710000Y-109680000D01*
X140790000Y-111500000D02*
X140790000Y-109680000D01*
X149804000Y-149964000D02*
X149804000Y-148504000D01*
X153104000Y-148504000D02*
X153104000Y-149964000D01*
X149804000Y-148504000D02*
X153104000Y-148504000D01*
X153104000Y-149964000D02*
X149804000Y-149964000D01*
X156454000Y-147674000D02*
X156454000Y-150974000D01*
X154994000Y-150974000D02*
X154994000Y-147674000D01*
X156454000Y-150974000D02*
X154994000Y-150974000D01*
X154994000Y-147674000D02*
X156454000Y-147674000D01*
X165192500Y-117820000D02*
X164242500Y-117820000D01*
X158642500Y-116570000D02*
X158642500Y-114070000D01*
X165192500Y-116570000D02*
X164242500Y-116570000D01*
X164242500Y-118120000D02*
X164242500Y-117820000D01*
X165192500Y-114070000D02*
X164242500Y-114070000D01*
X165192500Y-112820000D02*
X165192500Y-114070000D01*
X157692500Y-117820000D02*
X157692500Y-116570000D01*
X165192500Y-117820000D02*
X165192500Y-116570000D01*
X157692500Y-112820000D02*
X158642500Y-112820000D01*
X164242500Y-116570000D02*
X164242500Y-114070000D01*
X165192500Y-112820000D02*
X164242500Y-112820000D01*
X157692500Y-117820000D02*
X158642500Y-117820000D01*
X157692500Y-116570000D02*
X158642500Y-116570000D01*
X158642500Y-112520000D02*
X158642500Y-112820000D01*
X158642500Y-118120000D02*
X164242500Y-118120000D01*
X164242500Y-112520000D02*
X158642500Y-112520000D01*
X164242500Y-112520000D02*
X164242500Y-112820000D01*
X157692500Y-114070000D02*
X158642500Y-114070000D01*
X157692500Y-112820000D02*
X157692500Y-114070000D01*
X158642500Y-118120000D02*
X158642500Y-117820000D01*
X138280000Y-134280000D02*
X138280000Y-129580000D01*
X140580000Y-134280000D02*
X138280000Y-134280000D01*
X140580000Y-129580000D02*
X138280000Y-129580000D01*
X140580000Y-129580000D02*
X140580000Y-134280000D01*
X146840000Y-120590000D02*
X154240000Y-120590000D01*
X154240000Y-115190000D02*
X146840000Y-115190000D01*
X154240000Y-120590000D02*
X154240000Y-115190000D01*
X146840000Y-115190000D02*
X146840000Y-120590000D01*
X92324000Y-127021500D02*
X93784000Y-127021500D01*
X93784000Y-130321500D02*
X92324000Y-130321500D01*
X93784000Y-127021500D02*
X93784000Y-130321500D01*
X92324000Y-130321500D02*
X92324000Y-127021500D01*
X110534000Y-120356500D02*
X109074000Y-120356500D01*
X109074000Y-120356500D02*
X109074000Y-117056500D01*
X110534000Y-117056500D02*
X110534000Y-120356500D01*
X109074000Y-117056500D02*
X110534000Y-117056500D01*
X162900000Y-104450000D02*
X159300000Y-104450000D01*
X159300000Y-104450000D02*
X159300000Y-108050000D01*
X162900000Y-108050000D02*
X162900000Y-104450000D01*
X159300000Y-108050000D02*
X162900000Y-108050000D01*
X100675000Y-132075000D02*
X100675000Y-128475000D01*
X101975000Y-128475000D02*
X101975000Y-132075000D01*
X100675000Y-132075000D02*
X101975000Y-132075000D01*
X101975000Y-128475000D02*
X100675000Y-128475000D01*
X145535000Y-114065000D02*
X145535000Y-114985000D01*
X143715000Y-114065000D02*
X145535000Y-114065000D01*
X143715000Y-114985000D02*
X143715000Y-114065000D01*
X145535000Y-114985000D02*
X143715000Y-114985000D01*
X114910000Y-112850000D02*
X117870000Y-112850000D01*
X117870000Y-112850000D02*
X117870000Y-114310000D01*
X117870000Y-114310000D02*
X114910000Y-114310000D01*
X114910000Y-114310000D02*
X114910000Y-112850000D01*
X94720000Y-125510000D02*
X94720000Y-129350000D01*
X98120000Y-129350000D02*
X98120000Y-125510000D01*
X98120000Y-125510000D02*
X94720000Y-125510000D01*
X94720000Y-129350000D02*
X98120000Y-129350000D01*
X141780000Y-118420000D02*
X141780000Y-116600000D01*
X142700000Y-118420000D02*
X141780000Y-118420000D01*
X142700000Y-116600000D02*
X142700000Y-118420000D01*
X141780000Y-116600000D02*
X142700000Y-116600000D01*
X132750000Y-125040000D02*
X134610000Y-125040000D01*
X134610000Y-125040000D02*
X134610000Y-125980000D01*
X134610000Y-125980000D02*
X132750000Y-125980000D01*
X132750000Y-125980000D02*
X132750000Y-125040000D01*
X114305000Y-108950000D02*
X118145000Y-108950000D01*
X118145000Y-105550000D02*
X114305000Y-105550000D01*
X118145000Y-108950000D02*
X118145000Y-105550000D01*
X114305000Y-105550000D02*
X114305000Y-108950000D01*
X145625000Y-112285000D02*
X154925000Y-112285000D01*
X145625000Y-106565000D02*
X145625000Y-112285000D01*
X154925000Y-106565000D02*
X145625000Y-106565000D01*
X154925000Y-112285000D02*
X154925000Y-106565000D01*
X133505000Y-114305000D02*
X133505000Y-115245000D01*
X131645000Y-114305000D02*
X133505000Y-114305000D01*
X133505000Y-115245000D02*
X131645000Y-115245000D01*
X131645000Y-115245000D02*
X131645000Y-114305000D01*
X96854000Y-132554000D02*
X96854000Y-131094000D01*
X100154000Y-132554000D02*
X96854000Y-132554000D01*
X96854000Y-131094000D02*
X100154000Y-131094000D01*
X100154000Y-131094000D02*
X100154000Y-132554000D01*
X135770000Y-133000000D02*
X133470000Y-133000000D01*
X135770000Y-137700000D02*
X133470000Y-137700000D01*
X135770000Y-133000000D02*
X135770000Y-137700000D01*
X133470000Y-137700000D02*
X133470000Y-133000000D01*
X119780000Y-105675000D02*
X119780000Y-108975000D01*
X119780000Y-108975000D02*
X118320000Y-108975000D01*
X118320000Y-105675000D02*
X119780000Y-105675000D01*
X118320000Y-108975000D02*
X118320000Y-105675000D01*
X133750000Y-99510000D02*
X133750000Y-100970000D01*
X130450000Y-99510000D02*
X133750000Y-99510000D01*
X133750000Y-100970000D02*
X130450000Y-100970000D01*
X130450000Y-100970000D02*
X130450000Y-99510000D01*
X160330000Y-146510000D02*
X156930000Y-146510000D01*
X160330000Y-150350000D02*
X160330000Y-146510000D01*
X156930000Y-146510000D02*
X156930000Y-150350000D01*
X156930000Y-150350000D02*
X160330000Y-150350000D01*
X120605000Y-112900000D02*
X119145000Y-112900000D01*
X119145000Y-109600000D02*
X120605000Y-109600000D01*
X119145000Y-112900000D02*
X119145000Y-109600000D01*
X120605000Y-109600000D02*
X120605000Y-112900000D01*
X142780000Y-128320000D02*
X142780000Y-133020000D01*
X142780000Y-133020000D02*
X140480000Y-133020000D01*
X140480000Y-133020000D02*
X140480000Y-128320000D01*
X142780000Y-128320000D02*
X140480000Y-128320000D01*
X157756000Y-130444000D02*
X157756000Y-129144000D01*
X157756000Y-130444000D02*
X154156000Y-130444000D01*
X154156000Y-129144000D02*
X157756000Y-129144000D01*
X154156000Y-129144000D02*
X154156000Y-130444000D01*
X146060000Y-105400000D02*
X144600000Y-105400000D01*
X144600000Y-105400000D02*
X144600000Y-102100000D01*
X146060000Y-102100000D02*
X146060000Y-105400000D01*
X144600000Y-102100000D02*
X146060000Y-102100000D01*
X169300000Y-141260000D02*
X169300000Y-137860000D01*
X165460000Y-137860000D02*
X165460000Y-141260000D01*
X169300000Y-137860000D02*
X165460000Y-137860000D01*
X165460000Y-141260000D02*
X169300000Y-141260000D01*
M02*
