G04 #@! TF.GenerationSoftware,KiCad,Pcbnew,(6.0.7)*
G04 #@! TF.CreationDate,2023-02-04T20:53:32-08:00*
G04 #@! TF.ProjectId,procon_gcc_button_board,70726f63-6f6e-45f6-9763-635f62757474,rev?*
G04 #@! TF.SameCoordinates,Original*
G04 #@! TF.FileFunction,Soldermask,Bot*
G04 #@! TF.FilePolarity,Negative*
%FSLAX46Y46*%
G04 Gerber Fmt 4.6, Leading zero omitted, Abs format (unit mm)*
G04 Created by KiCad (PCBNEW (6.0.7)) date 2023-02-04 20:53:32*
%MOMM*%
%LPD*%
G01*
G04 APERTURE LIST*
G04 Aperture macros list*
%AMRoundRect*
0 Rectangle with rounded corners*
0 $1 Rounding radius*
0 $2 $3 $4 $5 $6 $7 $8 $9 X,Y pos of 4 corners*
0 Add a 4 corners polygon primitive as box body*
4,1,4,$2,$3,$4,$5,$6,$7,$8,$9,$2,$3,0*
0 Add four circle primitives for the rounded corners*
1,1,$1+$1,$2,$3*
1,1,$1+$1,$4,$5*
1,1,$1+$1,$6,$7*
1,1,$1+$1,$8,$9*
0 Add four rect primitives between the rounded corners*
20,1,$1+$1,$2,$3,$4,$5,0*
20,1,$1+$1,$4,$5,$6,$7,0*
20,1,$1+$1,$6,$7,$8,$9,0*
20,1,$1+$1,$8,$9,$2,$3,0*%
G04 Aperture macros list end*
%ADD10C,1.602000*%
%ADD11RoundRect,0.051000X-0.750000X-0.750000X0.750000X-0.750000X0.750000X0.750000X-0.750000X0.750000X0*%
%ADD12RoundRect,0.051000X-1.050000X0.650000X-1.050000X-0.650000X1.050000X-0.650000X1.050000X0.650000X0*%
%ADD13RoundRect,0.051000X-0.150000X0.500000X-0.150000X-0.500000X0.150000X-0.500000X0.150000X0.500000X0*%
%ADD14RoundRect,0.051000X-1.000000X0.650000X-1.000000X-0.650000X1.000000X-0.650000X1.000000X0.650000X0*%
%ADD15RoundRect,0.051000X0.400000X-0.450000X0.400000X0.450000X-0.400000X0.450000X-0.400000X-0.450000X0*%
G04 APERTURE END LIST*
D10*
X162009320Y-44665900D03*
D11*
X123153000Y-74910000D03*
X117428000Y-74985000D03*
X120253000Y-74960000D03*
X125978000Y-74935000D03*
X128803000Y-74910000D03*
D10*
X166009320Y-40665900D03*
X170009320Y-44665900D03*
X98405180Y-65211960D03*
X106405180Y-65211960D03*
X102405180Y-61211960D03*
X166009320Y-48665900D03*
D12*
X128218900Y-48100000D03*
X123418900Y-48100000D03*
D13*
X124818900Y-50800000D03*
X125318900Y-50800000D03*
X125818900Y-50800000D03*
X126318900Y-50800000D03*
X126818900Y-50800000D03*
D14*
X83000000Y-75350000D03*
X94100000Y-75350000D03*
D13*
X85300000Y-78050000D03*
X85800000Y-78050000D03*
X86300000Y-78050000D03*
X86800000Y-78050000D03*
X87300000Y-78050000D03*
X87800000Y-78050000D03*
X88300000Y-78050000D03*
X88800000Y-78050000D03*
X89300000Y-78050000D03*
X89800000Y-78050000D03*
X90300000Y-78050000D03*
X90800000Y-78050000D03*
X91300000Y-78050000D03*
X91800000Y-78050000D03*
D10*
X144526000Y-32766000D03*
X102405180Y-69211960D03*
X136824000Y-43584000D03*
X116084000Y-43734000D03*
D15*
X117894000Y-72654000D03*
X115994000Y-72654000D03*
X116944000Y-70654000D03*
X113834000Y-72704000D03*
X111934000Y-72704000D03*
X112884000Y-70704000D03*
D10*
X106504000Y-32734000D03*
G36*
X86114633Y-77513517D02*
G01*
X86115197Y-77515436D01*
X86114916Y-77516075D01*
X86104767Y-77531263D01*
X86101000Y-77550199D01*
X86101000Y-78549801D01*
X86104767Y-78568738D01*
X86114814Y-78583773D01*
X86114945Y-78585768D01*
X86113282Y-78586880D01*
X86112553Y-78586793D01*
X86052212Y-78567898D01*
X85987310Y-78586955D01*
X85985367Y-78586483D01*
X85984803Y-78584564D01*
X85985084Y-78583925D01*
X85995233Y-78568737D01*
X85999000Y-78549801D01*
X85999000Y-77550199D01*
X85995233Y-77531262D01*
X85985186Y-77516227D01*
X85985055Y-77514232D01*
X85986718Y-77513120D01*
X85987447Y-77513207D01*
X86047788Y-77532102D01*
X86112690Y-77513045D01*
X86114633Y-77513517D01*
G37*
G36*
X86614633Y-77513517D02*
G01*
X86615197Y-77515436D01*
X86614916Y-77516075D01*
X86604767Y-77531263D01*
X86601000Y-77550199D01*
X86601000Y-78549801D01*
X86604767Y-78568738D01*
X86614814Y-78583773D01*
X86614945Y-78585768D01*
X86613282Y-78586880D01*
X86612553Y-78586793D01*
X86552212Y-78567898D01*
X86487310Y-78586955D01*
X86485367Y-78586483D01*
X86484803Y-78584564D01*
X86485084Y-78583925D01*
X86495233Y-78568737D01*
X86499000Y-78549801D01*
X86499000Y-77550199D01*
X86495233Y-77531262D01*
X86485186Y-77516227D01*
X86485055Y-77514232D01*
X86486718Y-77513120D01*
X86487447Y-77513207D01*
X86547788Y-77532102D01*
X86612690Y-77513045D01*
X86614633Y-77513517D01*
G37*
G36*
X89114633Y-77513517D02*
G01*
X89115197Y-77515436D01*
X89114916Y-77516075D01*
X89104767Y-77531263D01*
X89101000Y-77550199D01*
X89101000Y-78549801D01*
X89104767Y-78568738D01*
X89114814Y-78583773D01*
X89114945Y-78585768D01*
X89113282Y-78586880D01*
X89112553Y-78586793D01*
X89052212Y-78567898D01*
X88987310Y-78586955D01*
X88985367Y-78586483D01*
X88984803Y-78584564D01*
X88985084Y-78583925D01*
X88995233Y-78568737D01*
X88999000Y-78549801D01*
X88999000Y-77550199D01*
X88995233Y-77531262D01*
X88985186Y-77516227D01*
X88985055Y-77514232D01*
X88986718Y-77513120D01*
X88987447Y-77513207D01*
X89047788Y-77532102D01*
X89112690Y-77513045D01*
X89114633Y-77513517D01*
G37*
G36*
X89614633Y-77513517D02*
G01*
X89615197Y-77515436D01*
X89614916Y-77516075D01*
X89604767Y-77531263D01*
X89601000Y-77550199D01*
X89601000Y-78549801D01*
X89604767Y-78568738D01*
X89614814Y-78583773D01*
X89614945Y-78585768D01*
X89613282Y-78586880D01*
X89612553Y-78586793D01*
X89552212Y-78567898D01*
X89487310Y-78586955D01*
X89485367Y-78586483D01*
X89484803Y-78584564D01*
X89485084Y-78583925D01*
X89495233Y-78568737D01*
X89499000Y-78549801D01*
X89499000Y-77550199D01*
X89495233Y-77531262D01*
X89485186Y-77516227D01*
X89485055Y-77514232D01*
X89486718Y-77513120D01*
X89487447Y-77513207D01*
X89547788Y-77532102D01*
X89612690Y-77513045D01*
X89614633Y-77513517D01*
G37*
G36*
X85614633Y-77513517D02*
G01*
X85615197Y-77515436D01*
X85614916Y-77516075D01*
X85604767Y-77531263D01*
X85601000Y-77550199D01*
X85601000Y-78549801D01*
X85604767Y-78568738D01*
X85614814Y-78583773D01*
X85614945Y-78585768D01*
X85613282Y-78586880D01*
X85612553Y-78586793D01*
X85552212Y-78567898D01*
X85487310Y-78586955D01*
X85485367Y-78586483D01*
X85484803Y-78584564D01*
X85485084Y-78583925D01*
X85495233Y-78568737D01*
X85499000Y-78549801D01*
X85499000Y-77550199D01*
X85495233Y-77531262D01*
X85485186Y-77516227D01*
X85485055Y-77514232D01*
X85486718Y-77513120D01*
X85487447Y-77513207D01*
X85547788Y-77532102D01*
X85612690Y-77513045D01*
X85614633Y-77513517D01*
G37*
G36*
X88114633Y-77513517D02*
G01*
X88115197Y-77515436D01*
X88114916Y-77516075D01*
X88104767Y-77531263D01*
X88101000Y-77550199D01*
X88101000Y-78549801D01*
X88104767Y-78568738D01*
X88114814Y-78583773D01*
X88114945Y-78585768D01*
X88113282Y-78586880D01*
X88112553Y-78586793D01*
X88052212Y-78567898D01*
X87987310Y-78586955D01*
X87985367Y-78586483D01*
X87984803Y-78584564D01*
X87985084Y-78583925D01*
X87995233Y-78568737D01*
X87999000Y-78549801D01*
X87999000Y-77550199D01*
X87995233Y-77531262D01*
X87985186Y-77516227D01*
X87985055Y-77514232D01*
X87986718Y-77513120D01*
X87987447Y-77513207D01*
X88047788Y-77532102D01*
X88112690Y-77513045D01*
X88114633Y-77513517D01*
G37*
G36*
X87114633Y-77513517D02*
G01*
X87115197Y-77515436D01*
X87114916Y-77516075D01*
X87104767Y-77531263D01*
X87101000Y-77550199D01*
X87101000Y-78549801D01*
X87104767Y-78568738D01*
X87114814Y-78583773D01*
X87114945Y-78585768D01*
X87113282Y-78586880D01*
X87112553Y-78586793D01*
X87052212Y-78567898D01*
X86987310Y-78586955D01*
X86985367Y-78586483D01*
X86984803Y-78584564D01*
X86985084Y-78583925D01*
X86995233Y-78568737D01*
X86999000Y-78549801D01*
X86999000Y-77550199D01*
X86995233Y-77531262D01*
X86985186Y-77516227D01*
X86985055Y-77514232D01*
X86986718Y-77513120D01*
X86987447Y-77513207D01*
X87047788Y-77532102D01*
X87112690Y-77513045D01*
X87114633Y-77513517D01*
G37*
G36*
X87614633Y-77513517D02*
G01*
X87615197Y-77515436D01*
X87614916Y-77516075D01*
X87604767Y-77531263D01*
X87601000Y-77550199D01*
X87601000Y-78549801D01*
X87604767Y-78568738D01*
X87614814Y-78583773D01*
X87614945Y-78585768D01*
X87613282Y-78586880D01*
X87612553Y-78586793D01*
X87552212Y-78567898D01*
X87487310Y-78586955D01*
X87485367Y-78586483D01*
X87484803Y-78584564D01*
X87485084Y-78583925D01*
X87495233Y-78568737D01*
X87499000Y-78549801D01*
X87499000Y-77550199D01*
X87495233Y-77531262D01*
X87485186Y-77516227D01*
X87485055Y-77514232D01*
X87486718Y-77513120D01*
X87487447Y-77513207D01*
X87547788Y-77532102D01*
X87612690Y-77513045D01*
X87614633Y-77513517D01*
G37*
G36*
X91114633Y-77513517D02*
G01*
X91115197Y-77515436D01*
X91114916Y-77516075D01*
X91104767Y-77531263D01*
X91101000Y-77550199D01*
X91101000Y-78549801D01*
X91104767Y-78568738D01*
X91114814Y-78583773D01*
X91114945Y-78585768D01*
X91113282Y-78586880D01*
X91112553Y-78586793D01*
X91052212Y-78567898D01*
X90987310Y-78586955D01*
X90985367Y-78586483D01*
X90984803Y-78584564D01*
X90985084Y-78583925D01*
X90995233Y-78568737D01*
X90999000Y-78549801D01*
X90999000Y-77550199D01*
X90995233Y-77531262D01*
X90985186Y-77516227D01*
X90985055Y-77514232D01*
X90986718Y-77513120D01*
X90987447Y-77513207D01*
X91047788Y-77532102D01*
X91112690Y-77513045D01*
X91114633Y-77513517D01*
G37*
G36*
X90614633Y-77513517D02*
G01*
X90615197Y-77515436D01*
X90614916Y-77516075D01*
X90604767Y-77531263D01*
X90601000Y-77550199D01*
X90601000Y-78549801D01*
X90604767Y-78568738D01*
X90614814Y-78583773D01*
X90614945Y-78585768D01*
X90613282Y-78586880D01*
X90612553Y-78586793D01*
X90552212Y-78567898D01*
X90487310Y-78586955D01*
X90485367Y-78586483D01*
X90484803Y-78584564D01*
X90485084Y-78583925D01*
X90495233Y-78568737D01*
X90499000Y-78549801D01*
X90499000Y-77550199D01*
X90495233Y-77531262D01*
X90485186Y-77516227D01*
X90485055Y-77514232D01*
X90486718Y-77513120D01*
X90487447Y-77513207D01*
X90547788Y-77532102D01*
X90612690Y-77513045D01*
X90614633Y-77513517D01*
G37*
G36*
X88614633Y-77513517D02*
G01*
X88615197Y-77515436D01*
X88614916Y-77516075D01*
X88604767Y-77531263D01*
X88601000Y-77550199D01*
X88601000Y-78549801D01*
X88604767Y-78568738D01*
X88614814Y-78583773D01*
X88614945Y-78585768D01*
X88613282Y-78586880D01*
X88612553Y-78586793D01*
X88552212Y-78567898D01*
X88487310Y-78586955D01*
X88485367Y-78586483D01*
X88484803Y-78584564D01*
X88485084Y-78583925D01*
X88495233Y-78568737D01*
X88499000Y-78549801D01*
X88499000Y-77550199D01*
X88495233Y-77531262D01*
X88485186Y-77516227D01*
X88485055Y-77514232D01*
X88486718Y-77513120D01*
X88487447Y-77513207D01*
X88547788Y-77532102D01*
X88612690Y-77513045D01*
X88614633Y-77513517D01*
G37*
G36*
X91614633Y-77513517D02*
G01*
X91615197Y-77515436D01*
X91614916Y-77516075D01*
X91604767Y-77531263D01*
X91601000Y-77550199D01*
X91601000Y-78549801D01*
X91604767Y-78568738D01*
X91614814Y-78583773D01*
X91614945Y-78585768D01*
X91613282Y-78586880D01*
X91612553Y-78586793D01*
X91552212Y-78567898D01*
X91487310Y-78586955D01*
X91485367Y-78586483D01*
X91484803Y-78584564D01*
X91485084Y-78583925D01*
X91495233Y-78568737D01*
X91499000Y-78549801D01*
X91499000Y-77550199D01*
X91495233Y-77531262D01*
X91485186Y-77516227D01*
X91485055Y-77514232D01*
X91486718Y-77513120D01*
X91487447Y-77513207D01*
X91547788Y-77532102D01*
X91612690Y-77513045D01*
X91614633Y-77513517D01*
G37*
G36*
X90114633Y-77513517D02*
G01*
X90115197Y-77515436D01*
X90114916Y-77516075D01*
X90104767Y-77531263D01*
X90101000Y-77550199D01*
X90101000Y-78549801D01*
X90104767Y-78568738D01*
X90114814Y-78583773D01*
X90114945Y-78585768D01*
X90113282Y-78586880D01*
X90112553Y-78586793D01*
X90052212Y-78567898D01*
X89987310Y-78586955D01*
X89985367Y-78586483D01*
X89984803Y-78584564D01*
X89985084Y-78583925D01*
X89995233Y-78568737D01*
X89999000Y-78549801D01*
X89999000Y-77550199D01*
X89995233Y-77531262D01*
X89985186Y-77516227D01*
X89985055Y-77514232D01*
X89986718Y-77513120D01*
X89987447Y-77513207D01*
X90047788Y-77532102D01*
X90112690Y-77513045D01*
X90114633Y-77513517D01*
G37*
G36*
X126633533Y-50263517D02*
G01*
X126634097Y-50265436D01*
X126633816Y-50266075D01*
X126623667Y-50281263D01*
X126619900Y-50300199D01*
X126619900Y-51299801D01*
X126623667Y-51318738D01*
X126633714Y-51333773D01*
X126633845Y-51335768D01*
X126632182Y-51336880D01*
X126631453Y-51336793D01*
X126571112Y-51317898D01*
X126506210Y-51336955D01*
X126504267Y-51336483D01*
X126503703Y-51334564D01*
X126503984Y-51333925D01*
X126514133Y-51318737D01*
X126517900Y-51299801D01*
X126517900Y-50300199D01*
X126514133Y-50281262D01*
X126504086Y-50266227D01*
X126503955Y-50264232D01*
X126505618Y-50263120D01*
X126506347Y-50263207D01*
X126566688Y-50282102D01*
X126631590Y-50263045D01*
X126633533Y-50263517D01*
G37*
G36*
X125633533Y-50263517D02*
G01*
X125634097Y-50265436D01*
X125633816Y-50266075D01*
X125623667Y-50281263D01*
X125619900Y-50300199D01*
X125619900Y-51299801D01*
X125623667Y-51318738D01*
X125633714Y-51333773D01*
X125633845Y-51335768D01*
X125632182Y-51336880D01*
X125631453Y-51336793D01*
X125571112Y-51317898D01*
X125506210Y-51336955D01*
X125504267Y-51336483D01*
X125503703Y-51334564D01*
X125503984Y-51333925D01*
X125514133Y-51318737D01*
X125517900Y-51299801D01*
X125517900Y-50300199D01*
X125514133Y-50281262D01*
X125504086Y-50266227D01*
X125503955Y-50264232D01*
X125505618Y-50263120D01*
X125506347Y-50263207D01*
X125566688Y-50282102D01*
X125631590Y-50263045D01*
X125633533Y-50263517D01*
G37*
G36*
X125133533Y-50263517D02*
G01*
X125134097Y-50265436D01*
X125133816Y-50266075D01*
X125123667Y-50281263D01*
X125119900Y-50300199D01*
X125119900Y-51299801D01*
X125123667Y-51318738D01*
X125133714Y-51333773D01*
X125133845Y-51335768D01*
X125132182Y-51336880D01*
X125131453Y-51336793D01*
X125071112Y-51317898D01*
X125006210Y-51336955D01*
X125004267Y-51336483D01*
X125003703Y-51334564D01*
X125003984Y-51333925D01*
X125014133Y-51318737D01*
X125017900Y-51299801D01*
X125017900Y-50300199D01*
X125014133Y-50281262D01*
X125004086Y-50266227D01*
X125003955Y-50264232D01*
X125005618Y-50263120D01*
X125006347Y-50263207D01*
X125066688Y-50282102D01*
X125131590Y-50263045D01*
X125133533Y-50263517D01*
G37*
G36*
X126133533Y-50263517D02*
G01*
X126134097Y-50265436D01*
X126133816Y-50266075D01*
X126123667Y-50281263D01*
X126119900Y-50300199D01*
X126119900Y-51299801D01*
X126123667Y-51318738D01*
X126133714Y-51333773D01*
X126133845Y-51335768D01*
X126132182Y-51336880D01*
X126131453Y-51336793D01*
X126071112Y-51317898D01*
X126006210Y-51336955D01*
X126004267Y-51336483D01*
X126003703Y-51334564D01*
X126003984Y-51333925D01*
X126014133Y-51318737D01*
X126017900Y-51299801D01*
X126017900Y-50300199D01*
X126014133Y-50281262D01*
X126004086Y-50266227D01*
X126003955Y-50264232D01*
X126005618Y-50263120D01*
X126006347Y-50263207D01*
X126066688Y-50282102D01*
X126131590Y-50263045D01*
X126133533Y-50263517D01*
G37*
M02*
