M48
; DRILL file {KiCad (6.0.7)} date Sat Feb  4 20:53:34 2023
; FORMAT={-:-/ absolute / inch / decimal}
; #@! TF.CreationDate,2023-02-04T20:53:34-08:00
; #@! TF.GenerationSoftware,Kicad,Pcbnew,(6.0.7)
; #@! TF.FileFunction,Plated,1,2,PTH
FMAT,2
INCH
; #@! TA.AperFunction,Plated,PTH,ViaDrill
T1C0.0157
%
G90
G05
T1
X3.7946Y-2.4915
X3.8742Y-2.5674
X4.0119Y-2.7851
X4.0317Y-2.4099
X4.0317Y-2.7249
X4.0549Y-1.947
X4.0852Y-2.3096
X4.1836Y-2.0095
X4.1892Y-2.5674
X4.1931Y-1.2887
X4.2631Y-2.558
X4.2683Y-3.0131
X4.3793Y-1.2269
X4.5706Y-1.723
X4.6021Y-2.7836
X4.6116Y-3.0569
X4.6231Y-2.9522
X4.6592Y-1.5887
X4.6994Y-2.8356
X4.7084Y-3.1139
X4.7344Y-2.9512
X4.8485Y-2.9492
X4.945Y-3.0852
X4.9535Y-1.883
X4.9598Y-2.9502
X5.071Y-2.9492
X5.3868Y-1.7159
X5.5301Y-1.6667
X5.69Y-1.29
X5.7204Y-1.8571
X5.8773Y-1.7943
X6.2675Y-2.1868
X6.3783Y-1.7585
X6.5358Y-1.916
X6.5372Y-1.5982
X6.6933Y-1.7585
T0
M30
