G04 #@! TF.GenerationSoftware,KiCad,Pcbnew,(6.0.7)*
G04 #@! TF.CreationDate,2023-02-04T20:53:32-08:00*
G04 #@! TF.ProjectId,procon_gcc_button_board,70726f63-6f6e-45f6-9763-635f62757474,rev?*
G04 #@! TF.SameCoordinates,Original*
G04 #@! TF.FileFunction,AssemblyDrawing,Bot*
%FSLAX46Y46*%
G04 Gerber Fmt 4.6, Leading zero omitted, Abs format (unit mm)*
G04 Created by KiCad (PCBNEW (6.0.7)) date 2023-02-04 20:53:32*
%MOMM*%
%LPD*%
G01*
G04 APERTURE LIST*
%ADD10C,0.150000*%
%ADD11C,0.075000*%
%ADD12C,0.100000*%
G04 APERTURE END LIST*
D10*
X159711700Y-41332566D02*
X159711700Y-41903995D01*
X160711700Y-41618280D02*
X159711700Y-41618280D01*
X160664081Y-42618280D02*
X160711700Y-42523042D01*
X160711700Y-42332566D01*
X160664081Y-42237328D01*
X160568843Y-42189709D01*
X160187891Y-42189709D01*
X160092653Y-42237328D01*
X160045034Y-42332566D01*
X160045034Y-42523042D01*
X160092653Y-42618280D01*
X160187891Y-42665900D01*
X160283129Y-42665900D01*
X160378367Y-42189709D01*
X160664081Y-43046852D02*
X160711700Y-43142090D01*
X160711700Y-43332566D01*
X160664081Y-43427804D01*
X160568843Y-43475423D01*
X160521224Y-43475423D01*
X160425986Y-43427804D01*
X160378367Y-43332566D01*
X160378367Y-43189709D01*
X160330748Y-43094471D01*
X160235510Y-43046852D01*
X160187891Y-43046852D01*
X160092653Y-43094471D01*
X160045034Y-43189709D01*
X160045034Y-43332566D01*
X160092653Y-43427804D01*
X160045034Y-43761138D02*
X160045034Y-44142090D01*
X159711700Y-43903995D02*
X160568843Y-43903995D01*
X160664081Y-43951614D01*
X160711700Y-44046852D01*
X160711700Y-44142090D01*
X160711700Y-44475423D02*
X159711700Y-44475423D01*
X159711700Y-44856376D01*
X159759320Y-44951614D01*
X159806939Y-44999233D01*
X159902177Y-45046852D01*
X160045034Y-45046852D01*
X160140272Y-44999233D01*
X160187891Y-44951614D01*
X160235510Y-44856376D01*
X160235510Y-44475423D01*
X160711700Y-45618280D02*
X160664081Y-45523042D01*
X160616462Y-45475423D01*
X160521224Y-45427804D01*
X160235510Y-45427804D01*
X160140272Y-45475423D01*
X160092653Y-45523042D01*
X160045034Y-45618280D01*
X160045034Y-45761138D01*
X160092653Y-45856376D01*
X160140272Y-45903995D01*
X160235510Y-45951614D01*
X160521224Y-45951614D01*
X160616462Y-45903995D01*
X160664081Y-45856376D01*
X160711700Y-45761138D01*
X160711700Y-45618280D01*
X160711700Y-46380185D02*
X160045034Y-46380185D01*
X159711700Y-46380185D02*
X159759320Y-46332566D01*
X159806939Y-46380185D01*
X159759320Y-46427804D01*
X159711700Y-46380185D01*
X159806939Y-46380185D01*
X160045034Y-46856376D02*
X160711700Y-46856376D01*
X160140272Y-46856376D02*
X160092653Y-46903995D01*
X160045034Y-46999233D01*
X160045034Y-47142090D01*
X160092653Y-47237328D01*
X160187891Y-47284947D01*
X160711700Y-47284947D01*
X160045034Y-47618280D02*
X160045034Y-47999233D01*
X159711700Y-47761138D02*
X160568843Y-47761138D01*
X160664081Y-47808757D01*
X160711700Y-47903995D01*
X160711700Y-47999233D01*
X163111700Y-43403995D02*
X163111700Y-43975423D01*
X164111700Y-43689709D02*
X163111700Y-43689709D01*
X164111700Y-44308757D02*
X163111700Y-44308757D01*
X163111700Y-44689709D01*
X163159320Y-44784947D01*
X163206939Y-44832566D01*
X163302177Y-44880185D01*
X163445034Y-44880185D01*
X163540272Y-44832566D01*
X163587891Y-44784947D01*
X163635510Y-44689709D01*
X163635510Y-44308757D01*
X163445034Y-45737328D02*
X164111700Y-45737328D01*
X163064081Y-45499233D02*
X163778367Y-45261138D01*
X163778367Y-45880185D01*
X126486333Y-72612380D02*
X125914904Y-72612380D01*
X126200619Y-73612380D02*
X126200619Y-72612380D01*
X125200619Y-73564761D02*
X125295857Y-73612380D01*
X125486333Y-73612380D01*
X125581571Y-73564761D01*
X125629190Y-73469523D01*
X125629190Y-73088571D01*
X125581571Y-72993333D01*
X125486333Y-72945714D01*
X125295857Y-72945714D01*
X125200619Y-72993333D01*
X125153000Y-73088571D01*
X125153000Y-73183809D01*
X125629190Y-73279047D01*
X124772047Y-73564761D02*
X124676809Y-73612380D01*
X124486333Y-73612380D01*
X124391095Y-73564761D01*
X124343476Y-73469523D01*
X124343476Y-73421904D01*
X124391095Y-73326666D01*
X124486333Y-73279047D01*
X124629190Y-73279047D01*
X124724428Y-73231428D01*
X124772047Y-73136190D01*
X124772047Y-73088571D01*
X124724428Y-72993333D01*
X124629190Y-72945714D01*
X124486333Y-72945714D01*
X124391095Y-72993333D01*
X124057761Y-72945714D02*
X123676809Y-72945714D01*
X123914904Y-72612380D02*
X123914904Y-73469523D01*
X123867285Y-73564761D01*
X123772047Y-73612380D01*
X123676809Y-73612380D01*
X123343476Y-73612380D02*
X123343476Y-72612380D01*
X122962523Y-72612380D01*
X122867285Y-72660000D01*
X122819666Y-72707619D01*
X122772047Y-72802857D01*
X122772047Y-72945714D01*
X122819666Y-73040952D01*
X122867285Y-73088571D01*
X122962523Y-73136190D01*
X123343476Y-73136190D01*
X122200619Y-73612380D02*
X122295857Y-73564761D01*
X122343476Y-73517142D01*
X122391095Y-73421904D01*
X122391095Y-73136190D01*
X122343476Y-73040952D01*
X122295857Y-72993333D01*
X122200619Y-72945714D01*
X122057761Y-72945714D01*
X121962523Y-72993333D01*
X121914904Y-73040952D01*
X121867285Y-73136190D01*
X121867285Y-73421904D01*
X121914904Y-73517142D01*
X121962523Y-73564761D01*
X122057761Y-73612380D01*
X122200619Y-73612380D01*
X121438714Y-73612380D02*
X121438714Y-72945714D01*
X121438714Y-72612380D02*
X121486333Y-72660000D01*
X121438714Y-72707619D01*
X121391095Y-72660000D01*
X121438714Y-72612380D01*
X121438714Y-72707619D01*
X120962523Y-72945714D02*
X120962523Y-73612380D01*
X120962523Y-73040952D02*
X120914904Y-72993333D01*
X120819666Y-72945714D01*
X120676809Y-72945714D01*
X120581571Y-72993333D01*
X120533952Y-73088571D01*
X120533952Y-73612380D01*
X120200619Y-72945714D02*
X119819666Y-72945714D01*
X120057761Y-72612380D02*
X120057761Y-73469523D01*
X120010142Y-73564761D01*
X119914904Y-73612380D01*
X119819666Y-73612380D01*
X120761333Y-72687380D02*
X120189904Y-72687380D01*
X120475619Y-73687380D02*
X120475619Y-72687380D01*
X119475619Y-73639761D02*
X119570857Y-73687380D01*
X119761333Y-73687380D01*
X119856571Y-73639761D01*
X119904190Y-73544523D01*
X119904190Y-73163571D01*
X119856571Y-73068333D01*
X119761333Y-73020714D01*
X119570857Y-73020714D01*
X119475619Y-73068333D01*
X119428000Y-73163571D01*
X119428000Y-73258809D01*
X119904190Y-73354047D01*
X119047047Y-73639761D02*
X118951809Y-73687380D01*
X118761333Y-73687380D01*
X118666095Y-73639761D01*
X118618476Y-73544523D01*
X118618476Y-73496904D01*
X118666095Y-73401666D01*
X118761333Y-73354047D01*
X118904190Y-73354047D01*
X118999428Y-73306428D01*
X119047047Y-73211190D01*
X119047047Y-73163571D01*
X118999428Y-73068333D01*
X118904190Y-73020714D01*
X118761333Y-73020714D01*
X118666095Y-73068333D01*
X118332761Y-73020714D02*
X117951809Y-73020714D01*
X118189904Y-72687380D02*
X118189904Y-73544523D01*
X118142285Y-73639761D01*
X118047047Y-73687380D01*
X117951809Y-73687380D01*
X117618476Y-73687380D02*
X117618476Y-72687380D01*
X117237523Y-72687380D01*
X117142285Y-72735000D01*
X117094666Y-72782619D01*
X117047047Y-72877857D01*
X117047047Y-73020714D01*
X117094666Y-73115952D01*
X117142285Y-73163571D01*
X117237523Y-73211190D01*
X117618476Y-73211190D01*
X116475619Y-73687380D02*
X116570857Y-73639761D01*
X116618476Y-73592142D01*
X116666095Y-73496904D01*
X116666095Y-73211190D01*
X116618476Y-73115952D01*
X116570857Y-73068333D01*
X116475619Y-73020714D01*
X116332761Y-73020714D01*
X116237523Y-73068333D01*
X116189904Y-73115952D01*
X116142285Y-73211190D01*
X116142285Y-73496904D01*
X116189904Y-73592142D01*
X116237523Y-73639761D01*
X116332761Y-73687380D01*
X116475619Y-73687380D01*
X115713714Y-73687380D02*
X115713714Y-73020714D01*
X115713714Y-72687380D02*
X115761333Y-72735000D01*
X115713714Y-72782619D01*
X115666095Y-72735000D01*
X115713714Y-72687380D01*
X115713714Y-72782619D01*
X115237523Y-73020714D02*
X115237523Y-73687380D01*
X115237523Y-73115952D02*
X115189904Y-73068333D01*
X115094666Y-73020714D01*
X114951809Y-73020714D01*
X114856571Y-73068333D01*
X114808952Y-73163571D01*
X114808952Y-73687380D01*
X114475619Y-73020714D02*
X114094666Y-73020714D01*
X114332761Y-72687380D02*
X114332761Y-73544523D01*
X114285142Y-73639761D01*
X114189904Y-73687380D01*
X114094666Y-73687380D01*
X123586333Y-72662380D02*
X123014904Y-72662380D01*
X123300619Y-73662380D02*
X123300619Y-72662380D01*
X122300619Y-73614761D02*
X122395857Y-73662380D01*
X122586333Y-73662380D01*
X122681571Y-73614761D01*
X122729190Y-73519523D01*
X122729190Y-73138571D01*
X122681571Y-73043333D01*
X122586333Y-72995714D01*
X122395857Y-72995714D01*
X122300619Y-73043333D01*
X122253000Y-73138571D01*
X122253000Y-73233809D01*
X122729190Y-73329047D01*
X121872047Y-73614761D02*
X121776809Y-73662380D01*
X121586333Y-73662380D01*
X121491095Y-73614761D01*
X121443476Y-73519523D01*
X121443476Y-73471904D01*
X121491095Y-73376666D01*
X121586333Y-73329047D01*
X121729190Y-73329047D01*
X121824428Y-73281428D01*
X121872047Y-73186190D01*
X121872047Y-73138571D01*
X121824428Y-73043333D01*
X121729190Y-72995714D01*
X121586333Y-72995714D01*
X121491095Y-73043333D01*
X121157761Y-72995714D02*
X120776809Y-72995714D01*
X121014904Y-72662380D02*
X121014904Y-73519523D01*
X120967285Y-73614761D01*
X120872047Y-73662380D01*
X120776809Y-73662380D01*
X120443476Y-73662380D02*
X120443476Y-72662380D01*
X120062523Y-72662380D01*
X119967285Y-72710000D01*
X119919666Y-72757619D01*
X119872047Y-72852857D01*
X119872047Y-72995714D01*
X119919666Y-73090952D01*
X119967285Y-73138571D01*
X120062523Y-73186190D01*
X120443476Y-73186190D01*
X119300619Y-73662380D02*
X119395857Y-73614761D01*
X119443476Y-73567142D01*
X119491095Y-73471904D01*
X119491095Y-73186190D01*
X119443476Y-73090952D01*
X119395857Y-73043333D01*
X119300619Y-72995714D01*
X119157761Y-72995714D01*
X119062523Y-73043333D01*
X119014904Y-73090952D01*
X118967285Y-73186190D01*
X118967285Y-73471904D01*
X119014904Y-73567142D01*
X119062523Y-73614761D01*
X119157761Y-73662380D01*
X119300619Y-73662380D01*
X118538714Y-73662380D02*
X118538714Y-72995714D01*
X118538714Y-72662380D02*
X118586333Y-72710000D01*
X118538714Y-72757619D01*
X118491095Y-72710000D01*
X118538714Y-72662380D01*
X118538714Y-72757619D01*
X118062523Y-72995714D02*
X118062523Y-73662380D01*
X118062523Y-73090952D02*
X118014904Y-73043333D01*
X117919666Y-72995714D01*
X117776809Y-72995714D01*
X117681571Y-73043333D01*
X117633952Y-73138571D01*
X117633952Y-73662380D01*
X117300619Y-72995714D02*
X116919666Y-72995714D01*
X117157761Y-72662380D02*
X117157761Y-73519523D01*
X117110142Y-73614761D01*
X117014904Y-73662380D01*
X116919666Y-73662380D01*
X129311333Y-72637380D02*
X128739904Y-72637380D01*
X129025619Y-73637380D02*
X129025619Y-72637380D01*
X128025619Y-73589761D02*
X128120857Y-73637380D01*
X128311333Y-73637380D01*
X128406571Y-73589761D01*
X128454190Y-73494523D01*
X128454190Y-73113571D01*
X128406571Y-73018333D01*
X128311333Y-72970714D01*
X128120857Y-72970714D01*
X128025619Y-73018333D01*
X127978000Y-73113571D01*
X127978000Y-73208809D01*
X128454190Y-73304047D01*
X127597047Y-73589761D02*
X127501809Y-73637380D01*
X127311333Y-73637380D01*
X127216095Y-73589761D01*
X127168476Y-73494523D01*
X127168476Y-73446904D01*
X127216095Y-73351666D01*
X127311333Y-73304047D01*
X127454190Y-73304047D01*
X127549428Y-73256428D01*
X127597047Y-73161190D01*
X127597047Y-73113571D01*
X127549428Y-73018333D01*
X127454190Y-72970714D01*
X127311333Y-72970714D01*
X127216095Y-73018333D01*
X126882761Y-72970714D02*
X126501809Y-72970714D01*
X126739904Y-72637380D02*
X126739904Y-73494523D01*
X126692285Y-73589761D01*
X126597047Y-73637380D01*
X126501809Y-73637380D01*
X126168476Y-73637380D02*
X126168476Y-72637380D01*
X125787523Y-72637380D01*
X125692285Y-72685000D01*
X125644666Y-72732619D01*
X125597047Y-72827857D01*
X125597047Y-72970714D01*
X125644666Y-73065952D01*
X125692285Y-73113571D01*
X125787523Y-73161190D01*
X126168476Y-73161190D01*
X125025619Y-73637380D02*
X125120857Y-73589761D01*
X125168476Y-73542142D01*
X125216095Y-73446904D01*
X125216095Y-73161190D01*
X125168476Y-73065952D01*
X125120857Y-73018333D01*
X125025619Y-72970714D01*
X124882761Y-72970714D01*
X124787523Y-73018333D01*
X124739904Y-73065952D01*
X124692285Y-73161190D01*
X124692285Y-73446904D01*
X124739904Y-73542142D01*
X124787523Y-73589761D01*
X124882761Y-73637380D01*
X125025619Y-73637380D01*
X124263714Y-73637380D02*
X124263714Y-72970714D01*
X124263714Y-72637380D02*
X124311333Y-72685000D01*
X124263714Y-72732619D01*
X124216095Y-72685000D01*
X124263714Y-72637380D01*
X124263714Y-72732619D01*
X123787523Y-72970714D02*
X123787523Y-73637380D01*
X123787523Y-73065952D02*
X123739904Y-73018333D01*
X123644666Y-72970714D01*
X123501809Y-72970714D01*
X123406571Y-73018333D01*
X123358952Y-73113571D01*
X123358952Y-73637380D01*
X123025619Y-72970714D02*
X122644666Y-72970714D01*
X122882761Y-72637380D02*
X122882761Y-73494523D01*
X122835142Y-73589761D01*
X122739904Y-73637380D01*
X122644666Y-73637380D01*
X132136333Y-72612380D02*
X131564904Y-72612380D01*
X131850619Y-73612380D02*
X131850619Y-72612380D01*
X130850619Y-73564761D02*
X130945857Y-73612380D01*
X131136333Y-73612380D01*
X131231571Y-73564761D01*
X131279190Y-73469523D01*
X131279190Y-73088571D01*
X131231571Y-72993333D01*
X131136333Y-72945714D01*
X130945857Y-72945714D01*
X130850619Y-72993333D01*
X130803000Y-73088571D01*
X130803000Y-73183809D01*
X131279190Y-73279047D01*
X130422047Y-73564761D02*
X130326809Y-73612380D01*
X130136333Y-73612380D01*
X130041095Y-73564761D01*
X129993476Y-73469523D01*
X129993476Y-73421904D01*
X130041095Y-73326666D01*
X130136333Y-73279047D01*
X130279190Y-73279047D01*
X130374428Y-73231428D01*
X130422047Y-73136190D01*
X130422047Y-73088571D01*
X130374428Y-72993333D01*
X130279190Y-72945714D01*
X130136333Y-72945714D01*
X130041095Y-72993333D01*
X129707761Y-72945714D02*
X129326809Y-72945714D01*
X129564904Y-72612380D02*
X129564904Y-73469523D01*
X129517285Y-73564761D01*
X129422047Y-73612380D01*
X129326809Y-73612380D01*
X128993476Y-73612380D02*
X128993476Y-72612380D01*
X128612523Y-72612380D01*
X128517285Y-72660000D01*
X128469666Y-72707619D01*
X128422047Y-72802857D01*
X128422047Y-72945714D01*
X128469666Y-73040952D01*
X128517285Y-73088571D01*
X128612523Y-73136190D01*
X128993476Y-73136190D01*
X127850619Y-73612380D02*
X127945857Y-73564761D01*
X127993476Y-73517142D01*
X128041095Y-73421904D01*
X128041095Y-73136190D01*
X127993476Y-73040952D01*
X127945857Y-72993333D01*
X127850619Y-72945714D01*
X127707761Y-72945714D01*
X127612523Y-72993333D01*
X127564904Y-73040952D01*
X127517285Y-73136190D01*
X127517285Y-73421904D01*
X127564904Y-73517142D01*
X127612523Y-73564761D01*
X127707761Y-73612380D01*
X127850619Y-73612380D01*
X127088714Y-73612380D02*
X127088714Y-72945714D01*
X127088714Y-72612380D02*
X127136333Y-72660000D01*
X127088714Y-72707619D01*
X127041095Y-72660000D01*
X127088714Y-72612380D01*
X127088714Y-72707619D01*
X126612523Y-72945714D02*
X126612523Y-73612380D01*
X126612523Y-73040952D02*
X126564904Y-72993333D01*
X126469666Y-72945714D01*
X126326809Y-72945714D01*
X126231571Y-72993333D01*
X126183952Y-73088571D01*
X126183952Y-73612380D01*
X125850619Y-72945714D02*
X125469666Y-72945714D01*
X125707761Y-72612380D02*
X125707761Y-73469523D01*
X125660142Y-73564761D01*
X125564904Y-73612380D01*
X125469666Y-73612380D01*
X169342653Y-38368280D02*
X168771224Y-38368280D01*
X169056939Y-39368280D02*
X169056939Y-38368280D01*
X168056939Y-39320661D02*
X168152177Y-39368280D01*
X168342653Y-39368280D01*
X168437891Y-39320661D01*
X168485510Y-39225423D01*
X168485510Y-38844471D01*
X168437891Y-38749233D01*
X168342653Y-38701614D01*
X168152177Y-38701614D01*
X168056939Y-38749233D01*
X168009320Y-38844471D01*
X168009320Y-38939709D01*
X168485510Y-39034947D01*
X167628367Y-39320661D02*
X167533129Y-39368280D01*
X167342653Y-39368280D01*
X167247415Y-39320661D01*
X167199796Y-39225423D01*
X167199796Y-39177804D01*
X167247415Y-39082566D01*
X167342653Y-39034947D01*
X167485510Y-39034947D01*
X167580748Y-38987328D01*
X167628367Y-38892090D01*
X167628367Y-38844471D01*
X167580748Y-38749233D01*
X167485510Y-38701614D01*
X167342653Y-38701614D01*
X167247415Y-38749233D01*
X166914081Y-38701614D02*
X166533129Y-38701614D01*
X166771224Y-38368280D02*
X166771224Y-39225423D01*
X166723605Y-39320661D01*
X166628367Y-39368280D01*
X166533129Y-39368280D01*
X166199796Y-39368280D02*
X166199796Y-38368280D01*
X165818843Y-38368280D01*
X165723605Y-38415900D01*
X165675986Y-38463519D01*
X165628367Y-38558757D01*
X165628367Y-38701614D01*
X165675986Y-38796852D01*
X165723605Y-38844471D01*
X165818843Y-38892090D01*
X166199796Y-38892090D01*
X165056939Y-39368280D02*
X165152177Y-39320661D01*
X165199796Y-39273042D01*
X165247415Y-39177804D01*
X165247415Y-38892090D01*
X165199796Y-38796852D01*
X165152177Y-38749233D01*
X165056939Y-38701614D01*
X164914081Y-38701614D01*
X164818843Y-38749233D01*
X164771224Y-38796852D01*
X164723605Y-38892090D01*
X164723605Y-39177804D01*
X164771224Y-39273042D01*
X164818843Y-39320661D01*
X164914081Y-39368280D01*
X165056939Y-39368280D01*
X164295034Y-39368280D02*
X164295034Y-38701614D01*
X164295034Y-38368280D02*
X164342653Y-38415900D01*
X164295034Y-38463519D01*
X164247415Y-38415900D01*
X164295034Y-38368280D01*
X164295034Y-38463519D01*
X163818843Y-38701614D02*
X163818843Y-39368280D01*
X163818843Y-38796852D02*
X163771224Y-38749233D01*
X163675986Y-38701614D01*
X163533129Y-38701614D01*
X163437891Y-38749233D01*
X163390272Y-38844471D01*
X163390272Y-39368280D01*
X163056939Y-38701614D02*
X162675986Y-38701614D01*
X162914081Y-38368280D02*
X162914081Y-39225423D01*
X162866462Y-39320661D01*
X162771224Y-39368280D01*
X162675986Y-39368280D01*
X167271224Y-41768280D02*
X166699796Y-41768280D01*
X166985510Y-42768280D02*
X166985510Y-41768280D01*
X166366462Y-42768280D02*
X166366462Y-41768280D01*
X165985510Y-41768280D01*
X165890272Y-41815900D01*
X165842653Y-41863519D01*
X165795034Y-41958757D01*
X165795034Y-42101614D01*
X165842653Y-42196852D01*
X165890272Y-42244471D01*
X165985510Y-42292090D01*
X166366462Y-42292090D01*
X165461700Y-41768280D02*
X164842653Y-41768280D01*
X165175986Y-42149233D01*
X165033129Y-42149233D01*
X164937891Y-42196852D01*
X164890272Y-42244471D01*
X164842653Y-42339709D01*
X164842653Y-42577804D01*
X164890272Y-42673042D01*
X164937891Y-42720661D01*
X165033129Y-42768280D01*
X165318843Y-42768280D01*
X165414081Y-42720661D01*
X165461700Y-42673042D01*
X171211700Y-41332566D02*
X171211700Y-41903995D01*
X172211700Y-41618280D02*
X171211700Y-41618280D01*
X172164081Y-42618280D02*
X172211700Y-42523042D01*
X172211700Y-42332566D01*
X172164081Y-42237328D01*
X172068843Y-42189709D01*
X171687891Y-42189709D01*
X171592653Y-42237328D01*
X171545034Y-42332566D01*
X171545034Y-42523042D01*
X171592653Y-42618280D01*
X171687891Y-42665900D01*
X171783129Y-42665900D01*
X171878367Y-42189709D01*
X172164081Y-43046852D02*
X172211700Y-43142090D01*
X172211700Y-43332566D01*
X172164081Y-43427804D01*
X172068843Y-43475423D01*
X172021224Y-43475423D01*
X171925986Y-43427804D01*
X171878367Y-43332566D01*
X171878367Y-43189709D01*
X171830748Y-43094471D01*
X171735510Y-43046852D01*
X171687891Y-43046852D01*
X171592653Y-43094471D01*
X171545034Y-43189709D01*
X171545034Y-43332566D01*
X171592653Y-43427804D01*
X171545034Y-43761138D02*
X171545034Y-44142090D01*
X171211700Y-43903995D02*
X172068843Y-43903995D01*
X172164081Y-43951614D01*
X172211700Y-44046852D01*
X172211700Y-44142090D01*
X172211700Y-44475423D02*
X171211700Y-44475423D01*
X171211700Y-44856376D01*
X171259320Y-44951614D01*
X171306939Y-44999233D01*
X171402177Y-45046852D01*
X171545034Y-45046852D01*
X171640272Y-44999233D01*
X171687891Y-44951614D01*
X171735510Y-44856376D01*
X171735510Y-44475423D01*
X172211700Y-45618280D02*
X172164081Y-45523042D01*
X172116462Y-45475423D01*
X172021224Y-45427804D01*
X171735510Y-45427804D01*
X171640272Y-45475423D01*
X171592653Y-45523042D01*
X171545034Y-45618280D01*
X171545034Y-45761138D01*
X171592653Y-45856376D01*
X171640272Y-45903995D01*
X171735510Y-45951614D01*
X172021224Y-45951614D01*
X172116462Y-45903995D01*
X172164081Y-45856376D01*
X172211700Y-45761138D01*
X172211700Y-45618280D01*
X172211700Y-46380185D02*
X171545034Y-46380185D01*
X171211700Y-46380185D02*
X171259320Y-46332566D01*
X171306939Y-46380185D01*
X171259320Y-46427804D01*
X171211700Y-46380185D01*
X171306939Y-46380185D01*
X171545034Y-46856376D02*
X172211700Y-46856376D01*
X171640272Y-46856376D02*
X171592653Y-46903995D01*
X171545034Y-46999233D01*
X171545034Y-47142090D01*
X171592653Y-47237328D01*
X171687891Y-47284947D01*
X172211700Y-47284947D01*
X171545034Y-47618280D02*
X171545034Y-47999233D01*
X171211700Y-47761138D02*
X172068843Y-47761138D01*
X172164081Y-47808757D01*
X172211700Y-47903995D01*
X172211700Y-47999233D01*
X167811700Y-43403995D02*
X167811700Y-43975423D01*
X168811700Y-43689709D02*
X167811700Y-43689709D01*
X168811700Y-44308757D02*
X167811700Y-44308757D01*
X167811700Y-44689709D01*
X167859320Y-44784947D01*
X167906939Y-44832566D01*
X168002177Y-44880185D01*
X168145034Y-44880185D01*
X168240272Y-44832566D01*
X168287891Y-44784947D01*
X168335510Y-44689709D01*
X168335510Y-44308757D01*
X168811700Y-45832566D02*
X168811700Y-45261138D01*
X168811700Y-45546852D02*
X167811700Y-45546852D01*
X167954558Y-45451614D01*
X168049796Y-45356376D01*
X168097415Y-45261138D01*
X96107560Y-61878626D02*
X96107560Y-62450055D01*
X97107560Y-62164340D02*
X96107560Y-62164340D01*
X97059941Y-63164340D02*
X97107560Y-63069102D01*
X97107560Y-62878626D01*
X97059941Y-62783388D01*
X96964703Y-62735769D01*
X96583751Y-62735769D01*
X96488513Y-62783388D01*
X96440894Y-62878626D01*
X96440894Y-63069102D01*
X96488513Y-63164340D01*
X96583751Y-63211960D01*
X96678989Y-63211960D01*
X96774227Y-62735769D01*
X97059941Y-63592912D02*
X97107560Y-63688150D01*
X97107560Y-63878626D01*
X97059941Y-63973864D01*
X96964703Y-64021483D01*
X96917084Y-64021483D01*
X96821846Y-63973864D01*
X96774227Y-63878626D01*
X96774227Y-63735769D01*
X96726608Y-63640531D01*
X96631370Y-63592912D01*
X96583751Y-63592912D01*
X96488513Y-63640531D01*
X96440894Y-63735769D01*
X96440894Y-63878626D01*
X96488513Y-63973864D01*
X96440894Y-64307198D02*
X96440894Y-64688150D01*
X96107560Y-64450055D02*
X96964703Y-64450055D01*
X97059941Y-64497674D01*
X97107560Y-64592912D01*
X97107560Y-64688150D01*
X97107560Y-65021483D02*
X96107560Y-65021483D01*
X96107560Y-65402436D01*
X96155180Y-65497674D01*
X96202799Y-65545293D01*
X96298037Y-65592912D01*
X96440894Y-65592912D01*
X96536132Y-65545293D01*
X96583751Y-65497674D01*
X96631370Y-65402436D01*
X96631370Y-65021483D01*
X97107560Y-66164340D02*
X97059941Y-66069102D01*
X97012322Y-66021483D01*
X96917084Y-65973864D01*
X96631370Y-65973864D01*
X96536132Y-66021483D01*
X96488513Y-66069102D01*
X96440894Y-66164340D01*
X96440894Y-66307198D01*
X96488513Y-66402436D01*
X96536132Y-66450055D01*
X96631370Y-66497674D01*
X96917084Y-66497674D01*
X97012322Y-66450055D01*
X97059941Y-66402436D01*
X97107560Y-66307198D01*
X97107560Y-66164340D01*
X97107560Y-66926245D02*
X96440894Y-66926245D01*
X96107560Y-66926245D02*
X96155180Y-66878626D01*
X96202799Y-66926245D01*
X96155180Y-66973864D01*
X96107560Y-66926245D01*
X96202799Y-66926245D01*
X96440894Y-67402436D02*
X97107560Y-67402436D01*
X96536132Y-67402436D02*
X96488513Y-67450055D01*
X96440894Y-67545293D01*
X96440894Y-67688150D01*
X96488513Y-67783388D01*
X96583751Y-67831007D01*
X97107560Y-67831007D01*
X96440894Y-68164340D02*
X96440894Y-68545293D01*
X96107560Y-68307198D02*
X96964703Y-68307198D01*
X97059941Y-68354817D01*
X97107560Y-68450055D01*
X97107560Y-68545293D01*
X99507560Y-63473864D02*
X99507560Y-64045293D01*
X100507560Y-63759579D02*
X99507560Y-63759579D01*
X100507560Y-64378626D02*
X99507560Y-64378626D01*
X99507560Y-64759579D01*
X99555180Y-64854817D01*
X99602799Y-64902436D01*
X99698037Y-64950055D01*
X99840894Y-64950055D01*
X99936132Y-64902436D01*
X99983751Y-64854817D01*
X100031370Y-64759579D01*
X100031370Y-64378626D01*
X100507560Y-65902436D02*
X100507560Y-65331007D01*
X100507560Y-65616721D02*
X99507560Y-65616721D01*
X99650418Y-65521483D01*
X99745656Y-65426245D01*
X99793275Y-65331007D01*
X99602799Y-66283388D02*
X99555180Y-66331007D01*
X99507560Y-66426245D01*
X99507560Y-66664340D01*
X99555180Y-66759579D01*
X99602799Y-66807198D01*
X99698037Y-66854817D01*
X99793275Y-66854817D01*
X99936132Y-66807198D01*
X100507560Y-66235769D01*
X100507560Y-66854817D01*
X107607560Y-61878626D02*
X107607560Y-62450055D01*
X108607560Y-62164340D02*
X107607560Y-62164340D01*
X108559941Y-63164340D02*
X108607560Y-63069102D01*
X108607560Y-62878626D01*
X108559941Y-62783388D01*
X108464703Y-62735769D01*
X108083751Y-62735769D01*
X107988513Y-62783388D01*
X107940894Y-62878626D01*
X107940894Y-63069102D01*
X107988513Y-63164340D01*
X108083751Y-63211960D01*
X108178989Y-63211960D01*
X108274227Y-62735769D01*
X108559941Y-63592912D02*
X108607560Y-63688150D01*
X108607560Y-63878626D01*
X108559941Y-63973864D01*
X108464703Y-64021483D01*
X108417084Y-64021483D01*
X108321846Y-63973864D01*
X108274227Y-63878626D01*
X108274227Y-63735769D01*
X108226608Y-63640531D01*
X108131370Y-63592912D01*
X108083751Y-63592912D01*
X107988513Y-63640531D01*
X107940894Y-63735769D01*
X107940894Y-63878626D01*
X107988513Y-63973864D01*
X107940894Y-64307198D02*
X107940894Y-64688150D01*
X107607560Y-64450055D02*
X108464703Y-64450055D01*
X108559941Y-64497674D01*
X108607560Y-64592912D01*
X108607560Y-64688150D01*
X108607560Y-65021483D02*
X107607560Y-65021483D01*
X107607560Y-65402436D01*
X107655180Y-65497674D01*
X107702799Y-65545293D01*
X107798037Y-65592912D01*
X107940894Y-65592912D01*
X108036132Y-65545293D01*
X108083751Y-65497674D01*
X108131370Y-65402436D01*
X108131370Y-65021483D01*
X108607560Y-66164340D02*
X108559941Y-66069102D01*
X108512322Y-66021483D01*
X108417084Y-65973864D01*
X108131370Y-65973864D01*
X108036132Y-66021483D01*
X107988513Y-66069102D01*
X107940894Y-66164340D01*
X107940894Y-66307198D01*
X107988513Y-66402436D01*
X108036132Y-66450055D01*
X108131370Y-66497674D01*
X108417084Y-66497674D01*
X108512322Y-66450055D01*
X108559941Y-66402436D01*
X108607560Y-66307198D01*
X108607560Y-66164340D01*
X108607560Y-66926245D02*
X107940894Y-66926245D01*
X107607560Y-66926245D02*
X107655180Y-66878626D01*
X107702799Y-66926245D01*
X107655180Y-66973864D01*
X107607560Y-66926245D01*
X107702799Y-66926245D01*
X107940894Y-67402436D02*
X108607560Y-67402436D01*
X108036132Y-67402436D02*
X107988513Y-67450055D01*
X107940894Y-67545293D01*
X107940894Y-67688150D01*
X107988513Y-67783388D01*
X108083751Y-67831007D01*
X108607560Y-67831007D01*
X107940894Y-68164340D02*
X107940894Y-68545293D01*
X107607560Y-68307198D02*
X108464703Y-68307198D01*
X108559941Y-68354817D01*
X108607560Y-68450055D01*
X108607560Y-68545293D01*
X104207560Y-63473864D02*
X104207560Y-64045293D01*
X105207560Y-63759579D02*
X104207560Y-63759579D01*
X105207560Y-64378626D02*
X104207560Y-64378626D01*
X104207560Y-64759579D01*
X104255180Y-64854817D01*
X104302799Y-64902436D01*
X104398037Y-64950055D01*
X104540894Y-64950055D01*
X104636132Y-64902436D01*
X104683751Y-64854817D01*
X104731370Y-64759579D01*
X104731370Y-64378626D01*
X105207560Y-65902436D02*
X105207560Y-65331007D01*
X105207560Y-65616721D02*
X104207560Y-65616721D01*
X104350418Y-65521483D01*
X104445656Y-65426245D01*
X104493275Y-65331007D01*
X104207560Y-66235769D02*
X104207560Y-66854817D01*
X104588513Y-66521483D01*
X104588513Y-66664340D01*
X104636132Y-66759579D01*
X104683751Y-66807198D01*
X104778989Y-66854817D01*
X105017084Y-66854817D01*
X105112322Y-66807198D01*
X105159941Y-66759579D01*
X105207560Y-66664340D01*
X105207560Y-66378626D01*
X105159941Y-66283388D01*
X105112322Y-66235769D01*
X105738513Y-58914340D02*
X105167084Y-58914340D01*
X105452799Y-59914340D02*
X105452799Y-58914340D01*
X104452799Y-59866721D02*
X104548037Y-59914340D01*
X104738513Y-59914340D01*
X104833751Y-59866721D01*
X104881370Y-59771483D01*
X104881370Y-59390531D01*
X104833751Y-59295293D01*
X104738513Y-59247674D01*
X104548037Y-59247674D01*
X104452799Y-59295293D01*
X104405180Y-59390531D01*
X104405180Y-59485769D01*
X104881370Y-59581007D01*
X104024227Y-59866721D02*
X103928989Y-59914340D01*
X103738513Y-59914340D01*
X103643275Y-59866721D01*
X103595656Y-59771483D01*
X103595656Y-59723864D01*
X103643275Y-59628626D01*
X103738513Y-59581007D01*
X103881370Y-59581007D01*
X103976608Y-59533388D01*
X104024227Y-59438150D01*
X104024227Y-59390531D01*
X103976608Y-59295293D01*
X103881370Y-59247674D01*
X103738513Y-59247674D01*
X103643275Y-59295293D01*
X103309941Y-59247674D02*
X102928989Y-59247674D01*
X103167084Y-58914340D02*
X103167084Y-59771483D01*
X103119465Y-59866721D01*
X103024227Y-59914340D01*
X102928989Y-59914340D01*
X102595656Y-59914340D02*
X102595656Y-58914340D01*
X102214703Y-58914340D01*
X102119465Y-58961960D01*
X102071846Y-59009579D01*
X102024227Y-59104817D01*
X102024227Y-59247674D01*
X102071846Y-59342912D01*
X102119465Y-59390531D01*
X102214703Y-59438150D01*
X102595656Y-59438150D01*
X101452799Y-59914340D02*
X101548037Y-59866721D01*
X101595656Y-59819102D01*
X101643275Y-59723864D01*
X101643275Y-59438150D01*
X101595656Y-59342912D01*
X101548037Y-59295293D01*
X101452799Y-59247674D01*
X101309941Y-59247674D01*
X101214703Y-59295293D01*
X101167084Y-59342912D01*
X101119465Y-59438150D01*
X101119465Y-59723864D01*
X101167084Y-59819102D01*
X101214703Y-59866721D01*
X101309941Y-59914340D01*
X101452799Y-59914340D01*
X100690894Y-59914340D02*
X100690894Y-59247674D01*
X100690894Y-58914340D02*
X100738513Y-58961960D01*
X100690894Y-59009579D01*
X100643275Y-58961960D01*
X100690894Y-58914340D01*
X100690894Y-59009579D01*
X100214703Y-59247674D02*
X100214703Y-59914340D01*
X100214703Y-59342912D02*
X100167084Y-59295293D01*
X100071846Y-59247674D01*
X99928989Y-59247674D01*
X99833751Y-59295293D01*
X99786132Y-59390531D01*
X99786132Y-59914340D01*
X99452799Y-59247674D02*
X99071846Y-59247674D01*
X99309941Y-58914340D02*
X99309941Y-59771483D01*
X99262322Y-59866721D01*
X99167084Y-59914340D01*
X99071846Y-59914340D01*
X104143275Y-62314340D02*
X103571846Y-62314340D01*
X103857560Y-63314340D02*
X103857560Y-62314340D01*
X103238513Y-63314340D02*
X103238513Y-62314340D01*
X102857560Y-62314340D01*
X102762322Y-62361960D01*
X102714703Y-62409579D01*
X102667084Y-62504817D01*
X102667084Y-62647674D01*
X102714703Y-62742912D01*
X102762322Y-62790531D01*
X102857560Y-62838150D01*
X103238513Y-62838150D01*
X101714703Y-63314340D02*
X102286132Y-63314340D01*
X102000418Y-63314340D02*
X102000418Y-62314340D01*
X102095656Y-62457198D01*
X102190894Y-62552436D01*
X102286132Y-62600055D01*
X101095656Y-62314340D02*
X101000418Y-62314340D01*
X100905180Y-62361960D01*
X100857560Y-62409579D01*
X100809941Y-62504817D01*
X100762322Y-62695293D01*
X100762322Y-62933388D01*
X100809941Y-63123864D01*
X100857560Y-63219102D01*
X100905180Y-63266721D01*
X101000418Y-63314340D01*
X101095656Y-63314340D01*
X101190894Y-63266721D01*
X101238513Y-63219102D01*
X101286132Y-63123864D01*
X101333751Y-62933388D01*
X101333751Y-62695293D01*
X101286132Y-62504817D01*
X101238513Y-62409579D01*
X101190894Y-62361960D01*
X101095656Y-62314340D01*
X169342653Y-49868280D02*
X168771224Y-49868280D01*
X169056939Y-50868280D02*
X169056939Y-49868280D01*
X168056939Y-50820661D02*
X168152177Y-50868280D01*
X168342653Y-50868280D01*
X168437891Y-50820661D01*
X168485510Y-50725423D01*
X168485510Y-50344471D01*
X168437891Y-50249233D01*
X168342653Y-50201614D01*
X168152177Y-50201614D01*
X168056939Y-50249233D01*
X168009320Y-50344471D01*
X168009320Y-50439709D01*
X168485510Y-50534947D01*
X167628367Y-50820661D02*
X167533129Y-50868280D01*
X167342653Y-50868280D01*
X167247415Y-50820661D01*
X167199796Y-50725423D01*
X167199796Y-50677804D01*
X167247415Y-50582566D01*
X167342653Y-50534947D01*
X167485510Y-50534947D01*
X167580748Y-50487328D01*
X167628367Y-50392090D01*
X167628367Y-50344471D01*
X167580748Y-50249233D01*
X167485510Y-50201614D01*
X167342653Y-50201614D01*
X167247415Y-50249233D01*
X166914081Y-50201614D02*
X166533129Y-50201614D01*
X166771224Y-49868280D02*
X166771224Y-50725423D01*
X166723605Y-50820661D01*
X166628367Y-50868280D01*
X166533129Y-50868280D01*
X166199796Y-50868280D02*
X166199796Y-49868280D01*
X165818843Y-49868280D01*
X165723605Y-49915900D01*
X165675986Y-49963519D01*
X165628367Y-50058757D01*
X165628367Y-50201614D01*
X165675986Y-50296852D01*
X165723605Y-50344471D01*
X165818843Y-50392090D01*
X166199796Y-50392090D01*
X165056939Y-50868280D02*
X165152177Y-50820661D01*
X165199796Y-50773042D01*
X165247415Y-50677804D01*
X165247415Y-50392090D01*
X165199796Y-50296852D01*
X165152177Y-50249233D01*
X165056939Y-50201614D01*
X164914081Y-50201614D01*
X164818843Y-50249233D01*
X164771224Y-50296852D01*
X164723605Y-50392090D01*
X164723605Y-50677804D01*
X164771224Y-50773042D01*
X164818843Y-50820661D01*
X164914081Y-50868280D01*
X165056939Y-50868280D01*
X164295034Y-50868280D02*
X164295034Y-50201614D01*
X164295034Y-49868280D02*
X164342653Y-49915900D01*
X164295034Y-49963519D01*
X164247415Y-49915900D01*
X164295034Y-49868280D01*
X164295034Y-49963519D01*
X163818843Y-50201614D02*
X163818843Y-50868280D01*
X163818843Y-50296852D02*
X163771224Y-50249233D01*
X163675986Y-50201614D01*
X163533129Y-50201614D01*
X163437891Y-50249233D01*
X163390272Y-50344471D01*
X163390272Y-50868280D01*
X163056939Y-50201614D02*
X162675986Y-50201614D01*
X162914081Y-49868280D02*
X162914081Y-50725423D01*
X162866462Y-50820661D01*
X162771224Y-50868280D01*
X162675986Y-50868280D01*
X167271224Y-46468280D02*
X166699796Y-46468280D01*
X166985510Y-47468280D02*
X166985510Y-46468280D01*
X166366462Y-47468280D02*
X166366462Y-46468280D01*
X165985510Y-46468280D01*
X165890272Y-46515900D01*
X165842653Y-46563519D01*
X165795034Y-46658757D01*
X165795034Y-46801614D01*
X165842653Y-46896852D01*
X165890272Y-46944471D01*
X165985510Y-46992090D01*
X166366462Y-46992090D01*
X165414081Y-46563519D02*
X165366462Y-46515900D01*
X165271224Y-46468280D01*
X165033129Y-46468280D01*
X164937891Y-46515900D01*
X164890272Y-46563519D01*
X164842653Y-46658757D01*
X164842653Y-46753995D01*
X164890272Y-46896852D01*
X165461700Y-47468280D01*
X164842653Y-47468280D01*
X135272571Y-44396380D02*
X135272571Y-43396380D01*
X135272571Y-43777333D02*
X135177333Y-43729714D01*
X134986857Y-43729714D01*
X134891619Y-43777333D01*
X134844000Y-43824952D01*
X134796380Y-43920190D01*
X134796380Y-44205904D01*
X134844000Y-44301142D01*
X134891619Y-44348761D01*
X134986857Y-44396380D01*
X135177333Y-44396380D01*
X135272571Y-44348761D01*
X133939238Y-43729714D02*
X133939238Y-44396380D01*
X134367809Y-43729714D02*
X134367809Y-44253523D01*
X134320190Y-44348761D01*
X134224952Y-44396380D01*
X134082095Y-44396380D01*
X133986857Y-44348761D01*
X133939238Y-44301142D01*
X133463047Y-44396380D02*
X133463047Y-43729714D01*
X133463047Y-43824952D02*
X133415428Y-43777333D01*
X133320190Y-43729714D01*
X133177333Y-43729714D01*
X133082095Y-43777333D01*
X133034476Y-43872571D01*
X133034476Y-44396380D01*
X133034476Y-43872571D02*
X132986857Y-43777333D01*
X132891619Y-43729714D01*
X132748761Y-43729714D01*
X132653523Y-43777333D01*
X132605904Y-43872571D01*
X132605904Y-44396380D01*
X132129714Y-43729714D02*
X132129714Y-44729714D01*
X132129714Y-43777333D02*
X132034476Y-43729714D01*
X131844000Y-43729714D01*
X131748761Y-43777333D01*
X131701142Y-43824952D01*
X131653523Y-43920190D01*
X131653523Y-44205904D01*
X131701142Y-44301142D01*
X131748761Y-44348761D01*
X131844000Y-44396380D01*
X132034476Y-44396380D01*
X132129714Y-44348761D01*
X130844000Y-44348761D02*
X130939238Y-44396380D01*
X131129714Y-44396380D01*
X131224952Y-44348761D01*
X131272571Y-44253523D01*
X131272571Y-43872571D01*
X131224952Y-43777333D01*
X131129714Y-43729714D01*
X130939238Y-43729714D01*
X130844000Y-43777333D01*
X130796380Y-43872571D01*
X130796380Y-43967809D01*
X131272571Y-44063047D01*
X130367809Y-44396380D02*
X130367809Y-43729714D01*
X130367809Y-43920190D02*
X130320190Y-43824952D01*
X130272571Y-43777333D01*
X130177333Y-43729714D01*
X130082095Y-43729714D01*
X129796380Y-44348761D02*
X129701142Y-44396380D01*
X129510666Y-44396380D01*
X129415428Y-44348761D01*
X129367809Y-44253523D01*
X129367809Y-44205904D01*
X129415428Y-44110666D01*
X129510666Y-44063047D01*
X129653523Y-44063047D01*
X129748761Y-44015428D01*
X129796380Y-43920190D01*
X129796380Y-43872571D01*
X129748761Y-43777333D01*
X129653523Y-43729714D01*
X129510666Y-43729714D01*
X129415428Y-43777333D01*
X94573761Y-80322571D02*
X94430904Y-80370190D01*
X94383285Y-80417809D01*
X94335666Y-80513047D01*
X94335666Y-80655904D01*
X94383285Y-80751142D01*
X94430904Y-80798761D01*
X94526142Y-80846380D01*
X94907095Y-80846380D01*
X94907095Y-79846380D01*
X94573761Y-79846380D01*
X94478523Y-79894000D01*
X94430904Y-79941619D01*
X94383285Y-80036857D01*
X94383285Y-80132095D01*
X94430904Y-80227333D01*
X94478523Y-80274952D01*
X94573761Y-80322571D01*
X94907095Y-80322571D01*
X93478523Y-80179714D02*
X93478523Y-80846380D01*
X93907095Y-80179714D02*
X93907095Y-80703523D01*
X93859476Y-80798761D01*
X93764238Y-80846380D01*
X93621380Y-80846380D01*
X93526142Y-80798761D01*
X93478523Y-80751142D01*
X93145190Y-80179714D02*
X92764238Y-80179714D01*
X93002333Y-79846380D02*
X93002333Y-80703523D01*
X92954714Y-80798761D01*
X92859476Y-80846380D01*
X92764238Y-80846380D01*
X92573761Y-80179714D02*
X92192809Y-80179714D01*
X92430904Y-79846380D02*
X92430904Y-80703523D01*
X92383285Y-80798761D01*
X92288047Y-80846380D01*
X92192809Y-80846380D01*
X91716619Y-80846380D02*
X91811857Y-80798761D01*
X91859476Y-80751142D01*
X91907095Y-80655904D01*
X91907095Y-80370190D01*
X91859476Y-80274952D01*
X91811857Y-80227333D01*
X91716619Y-80179714D01*
X91573761Y-80179714D01*
X91478523Y-80227333D01*
X91430904Y-80274952D01*
X91383285Y-80370190D01*
X91383285Y-80655904D01*
X91430904Y-80751142D01*
X91478523Y-80798761D01*
X91573761Y-80846380D01*
X91716619Y-80846380D01*
X90954714Y-80179714D02*
X90954714Y-80846380D01*
X90954714Y-80274952D02*
X90907095Y-80227333D01*
X90811857Y-80179714D01*
X90669000Y-80179714D01*
X90573761Y-80227333D01*
X90526142Y-80322571D01*
X90526142Y-80846380D01*
X88954714Y-80322571D02*
X88811857Y-80370190D01*
X88764238Y-80417809D01*
X88716619Y-80513047D01*
X88716619Y-80655904D01*
X88764238Y-80751142D01*
X88811857Y-80798761D01*
X88907095Y-80846380D01*
X89288047Y-80846380D01*
X89288047Y-79846380D01*
X88954714Y-79846380D01*
X88859476Y-79894000D01*
X88811857Y-79941619D01*
X88764238Y-80036857D01*
X88764238Y-80132095D01*
X88811857Y-80227333D01*
X88859476Y-80274952D01*
X88954714Y-80322571D01*
X89288047Y-80322571D01*
X88145190Y-80846380D02*
X88240428Y-80798761D01*
X88288047Y-80751142D01*
X88335666Y-80655904D01*
X88335666Y-80370190D01*
X88288047Y-80274952D01*
X88240428Y-80227333D01*
X88145190Y-80179714D01*
X88002333Y-80179714D01*
X87907095Y-80227333D01*
X87859476Y-80274952D01*
X87811857Y-80370190D01*
X87811857Y-80655904D01*
X87859476Y-80751142D01*
X87907095Y-80798761D01*
X88002333Y-80846380D01*
X88145190Y-80846380D01*
X86954714Y-80846380D02*
X86954714Y-80322571D01*
X87002333Y-80227333D01*
X87097571Y-80179714D01*
X87288047Y-80179714D01*
X87383285Y-80227333D01*
X86954714Y-80798761D02*
X87049952Y-80846380D01*
X87288047Y-80846380D01*
X87383285Y-80798761D01*
X87430904Y-80703523D01*
X87430904Y-80608285D01*
X87383285Y-80513047D01*
X87288047Y-80465428D01*
X87049952Y-80465428D01*
X86954714Y-80417809D01*
X86478523Y-80846380D02*
X86478523Y-80179714D01*
X86478523Y-80370190D02*
X86430904Y-80274952D01*
X86383285Y-80227333D01*
X86288047Y-80179714D01*
X86192809Y-80179714D01*
X85430904Y-80846380D02*
X85430904Y-79846380D01*
X85430904Y-80798761D02*
X85526142Y-80846380D01*
X85716619Y-80846380D01*
X85811857Y-80798761D01*
X85859476Y-80751142D01*
X85907095Y-80655904D01*
X85907095Y-80370190D01*
X85859476Y-80274952D01*
X85811857Y-80227333D01*
X85716619Y-80179714D01*
X85526142Y-80179714D01*
X85430904Y-80227333D01*
X147859333Y-30468380D02*
X147287904Y-30468380D01*
X147573619Y-31468380D02*
X147573619Y-30468380D01*
X146573619Y-31420761D02*
X146668857Y-31468380D01*
X146859333Y-31468380D01*
X146954571Y-31420761D01*
X147002190Y-31325523D01*
X147002190Y-30944571D01*
X146954571Y-30849333D01*
X146859333Y-30801714D01*
X146668857Y-30801714D01*
X146573619Y-30849333D01*
X146526000Y-30944571D01*
X146526000Y-31039809D01*
X147002190Y-31135047D01*
X146145047Y-31420761D02*
X146049809Y-31468380D01*
X145859333Y-31468380D01*
X145764095Y-31420761D01*
X145716476Y-31325523D01*
X145716476Y-31277904D01*
X145764095Y-31182666D01*
X145859333Y-31135047D01*
X146002190Y-31135047D01*
X146097428Y-31087428D01*
X146145047Y-30992190D01*
X146145047Y-30944571D01*
X146097428Y-30849333D01*
X146002190Y-30801714D01*
X145859333Y-30801714D01*
X145764095Y-30849333D01*
X145430761Y-30801714D02*
X145049809Y-30801714D01*
X145287904Y-30468380D02*
X145287904Y-31325523D01*
X145240285Y-31420761D01*
X145145047Y-31468380D01*
X145049809Y-31468380D01*
X144716476Y-31468380D02*
X144716476Y-30468380D01*
X144335523Y-30468380D01*
X144240285Y-30516000D01*
X144192666Y-30563619D01*
X144145047Y-30658857D01*
X144145047Y-30801714D01*
X144192666Y-30896952D01*
X144240285Y-30944571D01*
X144335523Y-30992190D01*
X144716476Y-30992190D01*
X143573619Y-31468380D02*
X143668857Y-31420761D01*
X143716476Y-31373142D01*
X143764095Y-31277904D01*
X143764095Y-30992190D01*
X143716476Y-30896952D01*
X143668857Y-30849333D01*
X143573619Y-30801714D01*
X143430761Y-30801714D01*
X143335523Y-30849333D01*
X143287904Y-30896952D01*
X143240285Y-30992190D01*
X143240285Y-31277904D01*
X143287904Y-31373142D01*
X143335523Y-31420761D01*
X143430761Y-31468380D01*
X143573619Y-31468380D01*
X142811714Y-31468380D02*
X142811714Y-30801714D01*
X142811714Y-30468380D02*
X142859333Y-30516000D01*
X142811714Y-30563619D01*
X142764095Y-30516000D01*
X142811714Y-30468380D01*
X142811714Y-30563619D01*
X142335523Y-30801714D02*
X142335523Y-31468380D01*
X142335523Y-30896952D02*
X142287904Y-30849333D01*
X142192666Y-30801714D01*
X142049809Y-30801714D01*
X141954571Y-30849333D01*
X141906952Y-30944571D01*
X141906952Y-31468380D01*
X141573619Y-30801714D02*
X141192666Y-30801714D01*
X141430761Y-30468380D02*
X141430761Y-31325523D01*
X141383142Y-31420761D01*
X141287904Y-31468380D01*
X141192666Y-31468380D01*
X145787904Y-33868380D02*
X145216476Y-33868380D01*
X145502190Y-34868380D02*
X145502190Y-33868380D01*
X144883142Y-34868380D02*
X144883142Y-33868380D01*
X144502190Y-33868380D01*
X144406952Y-33916000D01*
X144359333Y-33963619D01*
X144311714Y-34058857D01*
X144311714Y-34201714D01*
X144359333Y-34296952D01*
X144406952Y-34344571D01*
X144502190Y-34392190D01*
X144883142Y-34392190D01*
X143406952Y-33868380D02*
X143883142Y-33868380D01*
X143930761Y-34344571D01*
X143883142Y-34296952D01*
X143787904Y-34249333D01*
X143549809Y-34249333D01*
X143454571Y-34296952D01*
X143406952Y-34344571D01*
X143359333Y-34439809D01*
X143359333Y-34677904D01*
X143406952Y-34773142D01*
X143454571Y-34820761D01*
X143549809Y-34868380D01*
X143787904Y-34868380D01*
X143883142Y-34820761D01*
X143930761Y-34773142D01*
X105738513Y-70414340D02*
X105167084Y-70414340D01*
X105452799Y-71414340D02*
X105452799Y-70414340D01*
X104452799Y-71366721D02*
X104548037Y-71414340D01*
X104738513Y-71414340D01*
X104833751Y-71366721D01*
X104881370Y-71271483D01*
X104881370Y-70890531D01*
X104833751Y-70795293D01*
X104738513Y-70747674D01*
X104548037Y-70747674D01*
X104452799Y-70795293D01*
X104405180Y-70890531D01*
X104405180Y-70985769D01*
X104881370Y-71081007D01*
X104024227Y-71366721D02*
X103928989Y-71414340D01*
X103738513Y-71414340D01*
X103643275Y-71366721D01*
X103595656Y-71271483D01*
X103595656Y-71223864D01*
X103643275Y-71128626D01*
X103738513Y-71081007D01*
X103881370Y-71081007D01*
X103976608Y-71033388D01*
X104024227Y-70938150D01*
X104024227Y-70890531D01*
X103976608Y-70795293D01*
X103881370Y-70747674D01*
X103738513Y-70747674D01*
X103643275Y-70795293D01*
X103309941Y-70747674D02*
X102928989Y-70747674D01*
X103167084Y-70414340D02*
X103167084Y-71271483D01*
X103119465Y-71366721D01*
X103024227Y-71414340D01*
X102928989Y-71414340D01*
X102595656Y-71414340D02*
X102595656Y-70414340D01*
X102214703Y-70414340D01*
X102119465Y-70461960D01*
X102071846Y-70509579D01*
X102024227Y-70604817D01*
X102024227Y-70747674D01*
X102071846Y-70842912D01*
X102119465Y-70890531D01*
X102214703Y-70938150D01*
X102595656Y-70938150D01*
X101452799Y-71414340D02*
X101548037Y-71366721D01*
X101595656Y-71319102D01*
X101643275Y-71223864D01*
X101643275Y-70938150D01*
X101595656Y-70842912D01*
X101548037Y-70795293D01*
X101452799Y-70747674D01*
X101309941Y-70747674D01*
X101214703Y-70795293D01*
X101167084Y-70842912D01*
X101119465Y-70938150D01*
X101119465Y-71223864D01*
X101167084Y-71319102D01*
X101214703Y-71366721D01*
X101309941Y-71414340D01*
X101452799Y-71414340D01*
X100690894Y-71414340D02*
X100690894Y-70747674D01*
X100690894Y-70414340D02*
X100738513Y-70461960D01*
X100690894Y-70509579D01*
X100643275Y-70461960D01*
X100690894Y-70414340D01*
X100690894Y-70509579D01*
X100214703Y-70747674D02*
X100214703Y-71414340D01*
X100214703Y-70842912D02*
X100167084Y-70795293D01*
X100071846Y-70747674D01*
X99928989Y-70747674D01*
X99833751Y-70795293D01*
X99786132Y-70890531D01*
X99786132Y-71414340D01*
X99452799Y-70747674D02*
X99071846Y-70747674D01*
X99309941Y-70414340D02*
X99309941Y-71271483D01*
X99262322Y-71366721D01*
X99167084Y-71414340D01*
X99071846Y-71414340D01*
X104143275Y-67014340D02*
X103571846Y-67014340D01*
X103857560Y-68014340D02*
X103857560Y-67014340D01*
X103238513Y-68014340D02*
X103238513Y-67014340D01*
X102857560Y-67014340D01*
X102762322Y-67061960D01*
X102714703Y-67109579D01*
X102667084Y-67204817D01*
X102667084Y-67347674D01*
X102714703Y-67442912D01*
X102762322Y-67490531D01*
X102857560Y-67538150D01*
X103238513Y-67538150D01*
X101714703Y-68014340D02*
X102286132Y-68014340D01*
X102000418Y-68014340D02*
X102000418Y-67014340D01*
X102095656Y-67157198D01*
X102190894Y-67252436D01*
X102286132Y-67300055D01*
X100762322Y-68014340D02*
X101333751Y-68014340D01*
X101048037Y-68014340D02*
X101048037Y-67014340D01*
X101143275Y-67157198D01*
X101238513Y-67252436D01*
X101333751Y-67300055D01*
X140157333Y-41286380D02*
X139585904Y-41286380D01*
X139871619Y-42286380D02*
X139871619Y-41286380D01*
X138871619Y-42238761D02*
X138966857Y-42286380D01*
X139157333Y-42286380D01*
X139252571Y-42238761D01*
X139300190Y-42143523D01*
X139300190Y-41762571D01*
X139252571Y-41667333D01*
X139157333Y-41619714D01*
X138966857Y-41619714D01*
X138871619Y-41667333D01*
X138824000Y-41762571D01*
X138824000Y-41857809D01*
X139300190Y-41953047D01*
X138443047Y-42238761D02*
X138347809Y-42286380D01*
X138157333Y-42286380D01*
X138062095Y-42238761D01*
X138014476Y-42143523D01*
X138014476Y-42095904D01*
X138062095Y-42000666D01*
X138157333Y-41953047D01*
X138300190Y-41953047D01*
X138395428Y-41905428D01*
X138443047Y-41810190D01*
X138443047Y-41762571D01*
X138395428Y-41667333D01*
X138300190Y-41619714D01*
X138157333Y-41619714D01*
X138062095Y-41667333D01*
X137728761Y-41619714D02*
X137347809Y-41619714D01*
X137585904Y-41286380D02*
X137585904Y-42143523D01*
X137538285Y-42238761D01*
X137443047Y-42286380D01*
X137347809Y-42286380D01*
X137014476Y-42286380D02*
X137014476Y-41286380D01*
X136633523Y-41286380D01*
X136538285Y-41334000D01*
X136490666Y-41381619D01*
X136443047Y-41476857D01*
X136443047Y-41619714D01*
X136490666Y-41714952D01*
X136538285Y-41762571D01*
X136633523Y-41810190D01*
X137014476Y-41810190D01*
X135871619Y-42286380D02*
X135966857Y-42238761D01*
X136014476Y-42191142D01*
X136062095Y-42095904D01*
X136062095Y-41810190D01*
X136014476Y-41714952D01*
X135966857Y-41667333D01*
X135871619Y-41619714D01*
X135728761Y-41619714D01*
X135633523Y-41667333D01*
X135585904Y-41714952D01*
X135538285Y-41810190D01*
X135538285Y-42095904D01*
X135585904Y-42191142D01*
X135633523Y-42238761D01*
X135728761Y-42286380D01*
X135871619Y-42286380D01*
X135109714Y-42286380D02*
X135109714Y-41619714D01*
X135109714Y-41286380D02*
X135157333Y-41334000D01*
X135109714Y-41381619D01*
X135062095Y-41334000D01*
X135109714Y-41286380D01*
X135109714Y-41381619D01*
X134633523Y-41619714D02*
X134633523Y-42286380D01*
X134633523Y-41714952D02*
X134585904Y-41667333D01*
X134490666Y-41619714D01*
X134347809Y-41619714D01*
X134252571Y-41667333D01*
X134204952Y-41762571D01*
X134204952Y-42286380D01*
X133871619Y-41619714D02*
X133490666Y-41619714D01*
X133728761Y-41286380D02*
X133728761Y-42143523D01*
X133681142Y-42238761D01*
X133585904Y-42286380D01*
X133490666Y-42286380D01*
X138085904Y-44686380D02*
X137514476Y-44686380D01*
X137800190Y-45686380D02*
X137800190Y-44686380D01*
X137181142Y-45686380D02*
X137181142Y-44686380D01*
X136800190Y-44686380D01*
X136704952Y-44734000D01*
X136657333Y-44781619D01*
X136609714Y-44876857D01*
X136609714Y-45019714D01*
X136657333Y-45114952D01*
X136704952Y-45162571D01*
X136800190Y-45210190D01*
X137181142Y-45210190D01*
X135704952Y-44686380D02*
X136181142Y-44686380D01*
X136228761Y-45162571D01*
X136181142Y-45114952D01*
X136085904Y-45067333D01*
X135847809Y-45067333D01*
X135752571Y-45114952D01*
X135704952Y-45162571D01*
X135657333Y-45257809D01*
X135657333Y-45495904D01*
X135704952Y-45591142D01*
X135752571Y-45638761D01*
X135847809Y-45686380D01*
X136085904Y-45686380D01*
X136181142Y-45638761D01*
X136228761Y-45591142D01*
X119417333Y-41436380D02*
X118845904Y-41436380D01*
X119131619Y-42436380D02*
X119131619Y-41436380D01*
X118131619Y-42388761D02*
X118226857Y-42436380D01*
X118417333Y-42436380D01*
X118512571Y-42388761D01*
X118560190Y-42293523D01*
X118560190Y-41912571D01*
X118512571Y-41817333D01*
X118417333Y-41769714D01*
X118226857Y-41769714D01*
X118131619Y-41817333D01*
X118084000Y-41912571D01*
X118084000Y-42007809D01*
X118560190Y-42103047D01*
X117703047Y-42388761D02*
X117607809Y-42436380D01*
X117417333Y-42436380D01*
X117322095Y-42388761D01*
X117274476Y-42293523D01*
X117274476Y-42245904D01*
X117322095Y-42150666D01*
X117417333Y-42103047D01*
X117560190Y-42103047D01*
X117655428Y-42055428D01*
X117703047Y-41960190D01*
X117703047Y-41912571D01*
X117655428Y-41817333D01*
X117560190Y-41769714D01*
X117417333Y-41769714D01*
X117322095Y-41817333D01*
X116988761Y-41769714D02*
X116607809Y-41769714D01*
X116845904Y-41436380D02*
X116845904Y-42293523D01*
X116798285Y-42388761D01*
X116703047Y-42436380D01*
X116607809Y-42436380D01*
X116274476Y-42436380D02*
X116274476Y-41436380D01*
X115893523Y-41436380D01*
X115798285Y-41484000D01*
X115750666Y-41531619D01*
X115703047Y-41626857D01*
X115703047Y-41769714D01*
X115750666Y-41864952D01*
X115798285Y-41912571D01*
X115893523Y-41960190D01*
X116274476Y-41960190D01*
X115131619Y-42436380D02*
X115226857Y-42388761D01*
X115274476Y-42341142D01*
X115322095Y-42245904D01*
X115322095Y-41960190D01*
X115274476Y-41864952D01*
X115226857Y-41817333D01*
X115131619Y-41769714D01*
X114988761Y-41769714D01*
X114893523Y-41817333D01*
X114845904Y-41864952D01*
X114798285Y-41960190D01*
X114798285Y-42245904D01*
X114845904Y-42341142D01*
X114893523Y-42388761D01*
X114988761Y-42436380D01*
X115131619Y-42436380D01*
X114369714Y-42436380D02*
X114369714Y-41769714D01*
X114369714Y-41436380D02*
X114417333Y-41484000D01*
X114369714Y-41531619D01*
X114322095Y-41484000D01*
X114369714Y-41436380D01*
X114369714Y-41531619D01*
X113893523Y-41769714D02*
X113893523Y-42436380D01*
X113893523Y-41864952D02*
X113845904Y-41817333D01*
X113750666Y-41769714D01*
X113607809Y-41769714D01*
X113512571Y-41817333D01*
X113464952Y-41912571D01*
X113464952Y-42436380D01*
X113131619Y-41769714D02*
X112750666Y-41769714D01*
X112988761Y-41436380D02*
X112988761Y-42293523D01*
X112941142Y-42388761D01*
X112845904Y-42436380D01*
X112750666Y-42436380D01*
X117345904Y-44836380D02*
X116774476Y-44836380D01*
X117060190Y-45836380D02*
X117060190Y-44836380D01*
X116441142Y-45836380D02*
X116441142Y-44836380D01*
X116060190Y-44836380D01*
X115964952Y-44884000D01*
X115917333Y-44931619D01*
X115869714Y-45026857D01*
X115869714Y-45169714D01*
X115917333Y-45264952D01*
X115964952Y-45312571D01*
X116060190Y-45360190D01*
X116441142Y-45360190D01*
X114964952Y-44836380D02*
X115441142Y-44836380D01*
X115488761Y-45312571D01*
X115441142Y-45264952D01*
X115345904Y-45217333D01*
X115107809Y-45217333D01*
X115012571Y-45264952D01*
X114964952Y-45312571D01*
X114917333Y-45407809D01*
X114917333Y-45645904D01*
X114964952Y-45741142D01*
X115012571Y-45788761D01*
X115107809Y-45836380D01*
X115345904Y-45836380D01*
X115441142Y-45788761D01*
X115488761Y-45741142D01*
X114372571Y-69915904D02*
X114420190Y-70058761D01*
X114467809Y-70106380D01*
X114563047Y-70154000D01*
X114705904Y-70154000D01*
X114801142Y-70106380D01*
X114848761Y-70058761D01*
X114896380Y-69963523D01*
X114896380Y-69582571D01*
X113896380Y-69582571D01*
X113896380Y-69915904D01*
X113944000Y-70011142D01*
X113991619Y-70058761D01*
X114086857Y-70106380D01*
X114182095Y-70106380D01*
X114277333Y-70058761D01*
X114324952Y-70011142D01*
X114372571Y-69915904D01*
X114372571Y-69582571D01*
X114610666Y-70534952D02*
X114610666Y-71011142D01*
X114896380Y-70439714D02*
X113896380Y-70773047D01*
X114896380Y-71106380D01*
X113896380Y-71296857D02*
X114896380Y-71630190D01*
X113896380Y-71963523D01*
X113896380Y-72201619D02*
X113896380Y-72868285D01*
X114896380Y-72439714D01*
X113896380Y-73439714D02*
X113896380Y-73534952D01*
X113944000Y-73630190D01*
X113991619Y-73677809D01*
X114086857Y-73725428D01*
X114277333Y-73773047D01*
X114515428Y-73773047D01*
X114705904Y-73725428D01*
X114801142Y-73677809D01*
X114848761Y-73630190D01*
X114896380Y-73534952D01*
X114896380Y-73439714D01*
X114848761Y-73344476D01*
X114801142Y-73296857D01*
X114705904Y-73249238D01*
X114515428Y-73201619D01*
X114277333Y-73201619D01*
X114086857Y-73249238D01*
X113991619Y-73296857D01*
X113944000Y-73344476D01*
X113896380Y-73439714D01*
D11*
X117313047Y-71880190D02*
X117313047Y-71380190D01*
X117194000Y-71380190D01*
X117122571Y-71404000D01*
X117074952Y-71451619D01*
X117051142Y-71499238D01*
X117027333Y-71594476D01*
X117027333Y-71665904D01*
X117051142Y-71761142D01*
X117074952Y-71808761D01*
X117122571Y-71856380D01*
X117194000Y-71880190D01*
X117313047Y-71880190D01*
X116551142Y-71880190D02*
X116836857Y-71880190D01*
X116694000Y-71880190D02*
X116694000Y-71380190D01*
X116741619Y-71451619D01*
X116789238Y-71499238D01*
X116836857Y-71523047D01*
D10*
X110312571Y-69965904D02*
X110360190Y-70108761D01*
X110407809Y-70156380D01*
X110503047Y-70204000D01*
X110645904Y-70204000D01*
X110741142Y-70156380D01*
X110788761Y-70108761D01*
X110836380Y-70013523D01*
X110836380Y-69632571D01*
X109836380Y-69632571D01*
X109836380Y-69965904D01*
X109884000Y-70061142D01*
X109931619Y-70108761D01*
X110026857Y-70156380D01*
X110122095Y-70156380D01*
X110217333Y-70108761D01*
X110264952Y-70061142D01*
X110312571Y-69965904D01*
X110312571Y-69632571D01*
X110550666Y-70584952D02*
X110550666Y-71061142D01*
X110836380Y-70489714D02*
X109836380Y-70823047D01*
X110836380Y-71156380D01*
X109836380Y-71346857D02*
X110836380Y-71680190D01*
X109836380Y-72013523D01*
X109836380Y-72251619D02*
X109836380Y-72918285D01*
X110836380Y-72489714D01*
X109836380Y-73489714D02*
X109836380Y-73584952D01*
X109884000Y-73680190D01*
X109931619Y-73727809D01*
X110026857Y-73775428D01*
X110217333Y-73823047D01*
X110455428Y-73823047D01*
X110645904Y-73775428D01*
X110741142Y-73727809D01*
X110788761Y-73680190D01*
X110836380Y-73584952D01*
X110836380Y-73489714D01*
X110788761Y-73394476D01*
X110741142Y-73346857D01*
X110645904Y-73299238D01*
X110455428Y-73251619D01*
X110217333Y-73251619D01*
X110026857Y-73299238D01*
X109931619Y-73346857D01*
X109884000Y-73394476D01*
X109836380Y-73489714D01*
D11*
X113253047Y-71930190D02*
X113253047Y-71430190D01*
X113134000Y-71430190D01*
X113062571Y-71454000D01*
X113014952Y-71501619D01*
X112991142Y-71549238D01*
X112967333Y-71644476D01*
X112967333Y-71715904D01*
X112991142Y-71811142D01*
X113014952Y-71858761D01*
X113062571Y-71906380D01*
X113134000Y-71930190D01*
X113253047Y-71930190D01*
X112776857Y-71477809D02*
X112753047Y-71454000D01*
X112705428Y-71430190D01*
X112586380Y-71430190D01*
X112538761Y-71454000D01*
X112514952Y-71477809D01*
X112491142Y-71525428D01*
X112491142Y-71573047D01*
X112514952Y-71644476D01*
X112800666Y-71930190D01*
X112491142Y-71930190D01*
D10*
X109837333Y-30436380D02*
X109265904Y-30436380D01*
X109551619Y-31436380D02*
X109551619Y-30436380D01*
X108551619Y-31388761D02*
X108646857Y-31436380D01*
X108837333Y-31436380D01*
X108932571Y-31388761D01*
X108980190Y-31293523D01*
X108980190Y-30912571D01*
X108932571Y-30817333D01*
X108837333Y-30769714D01*
X108646857Y-30769714D01*
X108551619Y-30817333D01*
X108504000Y-30912571D01*
X108504000Y-31007809D01*
X108980190Y-31103047D01*
X108123047Y-31388761D02*
X108027809Y-31436380D01*
X107837333Y-31436380D01*
X107742095Y-31388761D01*
X107694476Y-31293523D01*
X107694476Y-31245904D01*
X107742095Y-31150666D01*
X107837333Y-31103047D01*
X107980190Y-31103047D01*
X108075428Y-31055428D01*
X108123047Y-30960190D01*
X108123047Y-30912571D01*
X108075428Y-30817333D01*
X107980190Y-30769714D01*
X107837333Y-30769714D01*
X107742095Y-30817333D01*
X107408761Y-30769714D02*
X107027809Y-30769714D01*
X107265904Y-30436380D02*
X107265904Y-31293523D01*
X107218285Y-31388761D01*
X107123047Y-31436380D01*
X107027809Y-31436380D01*
X106694476Y-31436380D02*
X106694476Y-30436380D01*
X106313523Y-30436380D01*
X106218285Y-30484000D01*
X106170666Y-30531619D01*
X106123047Y-30626857D01*
X106123047Y-30769714D01*
X106170666Y-30864952D01*
X106218285Y-30912571D01*
X106313523Y-30960190D01*
X106694476Y-30960190D01*
X105551619Y-31436380D02*
X105646857Y-31388761D01*
X105694476Y-31341142D01*
X105742095Y-31245904D01*
X105742095Y-30960190D01*
X105694476Y-30864952D01*
X105646857Y-30817333D01*
X105551619Y-30769714D01*
X105408761Y-30769714D01*
X105313523Y-30817333D01*
X105265904Y-30864952D01*
X105218285Y-30960190D01*
X105218285Y-31245904D01*
X105265904Y-31341142D01*
X105313523Y-31388761D01*
X105408761Y-31436380D01*
X105551619Y-31436380D01*
X104789714Y-31436380D02*
X104789714Y-30769714D01*
X104789714Y-30436380D02*
X104837333Y-30484000D01*
X104789714Y-30531619D01*
X104742095Y-30484000D01*
X104789714Y-30436380D01*
X104789714Y-30531619D01*
X104313523Y-30769714D02*
X104313523Y-31436380D01*
X104313523Y-30864952D02*
X104265904Y-30817333D01*
X104170666Y-30769714D01*
X104027809Y-30769714D01*
X103932571Y-30817333D01*
X103884952Y-30912571D01*
X103884952Y-31436380D01*
X103551619Y-30769714D02*
X103170666Y-30769714D01*
X103408761Y-30436380D02*
X103408761Y-31293523D01*
X103361142Y-31388761D01*
X103265904Y-31436380D01*
X103170666Y-31436380D01*
X107765904Y-33836380D02*
X107194476Y-33836380D01*
X107480190Y-34836380D02*
X107480190Y-33836380D01*
X106861142Y-34836380D02*
X106861142Y-33836380D01*
X106480190Y-33836380D01*
X106384952Y-33884000D01*
X106337333Y-33931619D01*
X106289714Y-34026857D01*
X106289714Y-34169714D01*
X106337333Y-34264952D01*
X106384952Y-34312571D01*
X106480190Y-34360190D01*
X106861142Y-34360190D01*
X105384952Y-33836380D02*
X105861142Y-33836380D01*
X105908761Y-34312571D01*
X105861142Y-34264952D01*
X105765904Y-34217333D01*
X105527809Y-34217333D01*
X105432571Y-34264952D01*
X105384952Y-34312571D01*
X105337333Y-34407809D01*
X105337333Y-34645904D01*
X105384952Y-34741142D01*
X105432571Y-34788761D01*
X105527809Y-34836380D01*
X105765904Y-34836380D01*
X105861142Y-34788761D01*
X105908761Y-34741142D01*
D12*
X115424000Y-72354000D02*
X115424000Y-70954000D01*
X117894000Y-72354000D02*
X115444000Y-72354000D01*
X118464000Y-71804000D02*
X118464000Y-70954000D01*
X118464000Y-70954000D02*
X115424000Y-70954000D01*
X117894000Y-72354000D02*
X118464000Y-71804000D01*
X113834000Y-72404000D02*
X111384000Y-72404000D01*
X114404000Y-71854000D02*
X114404000Y-71004000D01*
X114404000Y-71004000D02*
X111364000Y-71004000D01*
X111364000Y-72404000D02*
X111364000Y-71004000D01*
X113834000Y-72404000D02*
X114404000Y-71854000D01*
M02*
