G04 #@! TF.GenerationSoftware,KiCad,Pcbnew,(6.0.7)*
G04 #@! TF.CreationDate,2022-12-20T19:45:57-08:00*
G04 #@! TF.ProjectId,procon_gcc_button_board,70726f63-6f6e-45f6-9763-635f62757474,rev?*
G04 #@! TF.SameCoordinates,Original*
G04 #@! TF.FileFunction,Copper,L2,Bot*
G04 #@! TF.FilePolarity,Positive*
%FSLAX46Y46*%
G04 Gerber Fmt 4.6, Leading zero omitted, Abs format (unit mm)*
G04 Created by KiCad (PCBNEW (6.0.7)) date 2022-12-20 19:45:57*
%MOMM*%
%LPD*%
G01*
G04 APERTURE LIST*
G04 #@! TA.AperFunction,SMDPad,CuDef*
%ADD10C,1.500000*%
G04 #@! TD*
G04 #@! TA.AperFunction,SMDPad,CuDef*
%ADD11R,1.500000X1.500000*%
G04 #@! TD*
G04 #@! TA.AperFunction,SMDPad,CuDef*
%ADD12R,2.100000X1.300000*%
G04 #@! TD*
G04 #@! TA.AperFunction,SMDPad,CuDef*
%ADD13R,0.300000X1.000000*%
G04 #@! TD*
G04 #@! TA.AperFunction,SMDPad,CuDef*
%ADD14R,2.000000X1.300000*%
G04 #@! TD*
G04 #@! TA.AperFunction,SMDPad,CuDef*
%ADD15R,0.800000X0.900000*%
G04 #@! TD*
G04 #@! TA.AperFunction,ViaPad*
%ADD16C,0.800000*%
G04 #@! TD*
G04 #@! TA.AperFunction,Conductor*
%ADD17C,0.250000*%
G04 #@! TD*
G04 APERTURE END LIST*
D10*
X162009320Y-44665900D03*
D11*
X123153000Y-74910000D03*
X117428000Y-74985000D03*
X120253000Y-74960000D03*
X125978000Y-74935000D03*
X128803000Y-74910000D03*
D10*
X166009320Y-40665900D03*
X170009320Y-44665900D03*
X98405180Y-65211960D03*
X106405180Y-65211960D03*
X102405180Y-61211960D03*
X166009320Y-48665900D03*
D12*
X128218900Y-48100000D03*
X123418900Y-48100000D03*
D13*
X124818900Y-50800000D03*
X125318900Y-50800000D03*
X125818900Y-50800000D03*
X126318900Y-50800000D03*
X126818900Y-50800000D03*
D14*
X83000000Y-75350000D03*
X94100000Y-75350000D03*
D13*
X85300000Y-78050000D03*
X85800000Y-78050000D03*
X86300000Y-78050000D03*
X86800000Y-78050000D03*
X87300000Y-78050000D03*
X87800000Y-78050000D03*
X88300000Y-78050000D03*
X88800000Y-78050000D03*
X89300000Y-78050000D03*
X89800000Y-78050000D03*
X90300000Y-78050000D03*
X90800000Y-78050000D03*
X91300000Y-78050000D03*
X91800000Y-78050000D03*
D10*
X144526000Y-32766000D03*
X102405180Y-69211960D03*
X136824000Y-43584000D03*
X116084000Y-43734000D03*
D15*
X117894000Y-72654000D03*
X115994000Y-72654000D03*
X116944000Y-70654000D03*
X113834000Y-72704000D03*
X111934000Y-72704000D03*
X112884000Y-70704000D03*
D10*
X106504000Y-32734000D03*
D16*
X103764000Y-58664000D03*
X125818900Y-47828900D03*
X96384000Y-63284000D03*
X118344000Y-40354000D03*
X123153000Y-74910000D03*
X108414000Y-76534000D03*
X108284000Y-64974000D03*
X111234000Y-31164000D03*
X106405180Y-65211960D03*
X98405180Y-65211960D03*
X101901223Y-70741223D03*
X102405180Y-69211960D03*
X102405180Y-61211960D03*
X128803000Y-74910000D03*
X117428000Y-74985000D03*
X117134000Y-77643999D03*
X125978000Y-74935000D03*
X117864000Y-72704000D03*
X125604000Y-78364000D03*
X119594000Y-79094000D03*
X115974000Y-72684000D03*
X120253000Y-74960000D03*
X136824000Y-43584000D03*
X145298417Y-47169583D03*
X106504000Y-32734000D03*
X140463417Y-42334583D03*
X144526000Y-32766000D03*
X162009320Y-44665900D03*
X149284000Y-45574000D03*
X166044000Y-40594000D03*
X166009320Y-48665900D03*
X159194000Y-55544000D03*
X102994000Y-49454000D03*
X170009320Y-44665900D03*
X106262222Y-51042222D03*
X116894000Y-70704000D03*
X116094000Y-43764000D03*
D17*
X108414000Y-76534000D02*
X108573800Y-76693800D01*
X102869000Y-77049000D02*
X102961820Y-76956180D01*
X108573800Y-76693800D02*
X108573800Y-76956180D01*
X100214000Y-59824000D02*
X101034000Y-59824000D01*
X107306180Y-76956180D02*
X108573800Y-76956180D01*
X101034000Y-59824000D02*
X101564000Y-59824000D01*
X102961820Y-76956180D02*
X107306180Y-76956180D01*
X111234000Y-33244000D02*
X111234000Y-31164000D01*
X103764000Y-58664000D02*
X103764000Y-59074000D01*
X108284000Y-64974000D02*
X108284000Y-63184000D01*
X103014000Y-59824000D02*
X101034000Y-59824000D01*
X125818900Y-50800000D02*
X125818900Y-47828900D01*
X101493009Y-78424991D02*
X102869000Y-77049000D01*
X127902980Y-70160020D02*
X127902980Y-54129390D01*
X127902980Y-54129390D02*
X125818900Y-52045310D01*
X114693476Y-75787836D02*
X115374628Y-76468988D01*
X118344000Y-40354000D02*
X111234000Y-33244000D01*
X115374628Y-76468988D02*
X122229012Y-76468988D01*
X92574991Y-78424991D02*
X101493009Y-78424991D01*
X109742149Y-75787835D02*
X114693476Y-75787836D01*
X108284000Y-63184000D02*
X103764000Y-58664000D01*
X96384000Y-63284000D02*
X99844000Y-59824000D01*
X91800000Y-78050000D02*
X92200000Y-78050000D01*
X108573800Y-76956180D02*
X109742149Y-75787835D01*
X123153000Y-75545000D02*
X123153000Y-74910000D01*
X103764000Y-59074000D02*
X103014000Y-59824000D01*
X122229012Y-76468988D02*
X123153000Y-75545000D01*
X109742149Y-66432149D02*
X108284000Y-64974000D01*
X123153000Y-74910000D02*
X127902980Y-70160020D01*
X92200000Y-78050000D02*
X92574991Y-78424991D01*
X99844000Y-59824000D02*
X100214000Y-59824000D01*
X109742149Y-75787835D02*
X109742149Y-66432149D01*
X125818900Y-52045310D02*
X125818900Y-50800000D01*
X107833990Y-69524010D02*
X107833990Y-66640770D01*
X91300000Y-75914998D02*
X95692499Y-71522499D01*
X91300000Y-78050000D02*
X91300000Y-75914998D01*
X105849091Y-71522499D02*
X107094000Y-70277590D01*
X95692499Y-71522499D02*
X105849091Y-71522499D01*
X107833990Y-66640770D02*
X106405180Y-65211960D01*
X107094000Y-70277590D02*
X107094000Y-70264000D01*
X107094000Y-70264000D02*
X107833990Y-69524010D01*
X90800000Y-75778588D02*
X95506099Y-71072489D01*
X101569957Y-71072489D02*
X101901223Y-70741223D01*
X100025511Y-71072489D02*
X101569957Y-71072489D01*
X95506099Y-71072489D02*
X100025511Y-71072489D01*
X90800000Y-78050000D02*
X90800000Y-75778588D01*
X90349991Y-75592187D02*
X95319699Y-70622479D01*
X100994661Y-70622479D02*
X102405180Y-69211960D01*
X90349990Y-75642178D02*
X90349991Y-75592187D01*
X90300000Y-75642178D02*
X90349990Y-75642178D01*
X90300000Y-78050000D02*
X90300000Y-75642178D01*
X95319699Y-70622479D02*
X100994661Y-70622479D01*
X89800000Y-78050000D02*
X89800000Y-75505768D01*
X89800000Y-75505768D02*
X95133299Y-70172469D01*
X99734000Y-63883140D02*
X102405180Y-61211960D01*
X98675531Y-70172469D02*
X99734000Y-69114000D01*
X99734000Y-69114000D02*
X99734000Y-63883140D01*
X95133299Y-70172469D02*
X98675531Y-70172469D01*
X126804000Y-50994000D02*
X126804000Y-51757590D01*
X114507075Y-76237845D02*
X115188228Y-76918998D01*
X128803000Y-53756590D02*
X128803000Y-53955000D01*
X115188228Y-76918998D02*
X128139002Y-76918998D01*
X128139002Y-76918998D02*
X128803000Y-76255000D01*
X126818900Y-50979100D02*
X126804000Y-50994000D01*
X89389999Y-78875001D02*
X101679409Y-78875001D01*
X89300000Y-78785002D02*
X89389999Y-78875001D01*
X126818900Y-50800000D02*
X126818900Y-50979100D01*
X89300000Y-78050000D02*
X89300000Y-78785002D01*
X109928548Y-76237844D02*
X114507075Y-76237845D01*
X101679409Y-78875001D02*
X103148220Y-77406190D01*
X126804000Y-51757590D02*
X128803000Y-53756590D01*
X128803000Y-74910000D02*
X128803000Y-53955000D01*
X128803000Y-76255000D02*
X128803000Y-74910000D01*
X108760199Y-77406190D02*
X109928548Y-76237844D01*
X103148220Y-77406190D02*
X108760199Y-77406190D01*
X114320674Y-76687854D02*
X115276819Y-77643999D01*
X122481500Y-54236500D02*
X124818900Y-51899100D01*
X124818900Y-51899100D02*
X124818900Y-50800000D01*
X101865810Y-79325010D02*
X103334620Y-77856200D01*
X103334620Y-77856200D02*
X108946598Y-77856200D01*
X115276819Y-77643999D02*
X117134000Y-77643999D01*
X89203599Y-79325011D02*
X101865810Y-79325010D01*
X88800000Y-78050000D02*
X88800000Y-78921412D01*
X88800000Y-78921412D02*
X89203599Y-79325011D01*
X122481500Y-69931500D02*
X122481500Y-54236500D01*
X108946598Y-77856200D02*
X110114947Y-76687853D01*
X117428000Y-74985000D02*
X122481500Y-69931500D01*
X110114947Y-76687853D02*
X114320674Y-76687854D01*
X127939000Y-72969000D02*
X128352990Y-72555010D01*
X126318900Y-51318900D02*
X126343899Y-51343899D01*
X110301346Y-77137862D02*
X114134273Y-77137863D01*
X126343899Y-51343899D02*
X126343899Y-51933899D01*
X126318900Y-50800000D02*
X126318900Y-51318900D01*
X88300000Y-78050000D02*
X88300000Y-79057822D01*
X125978000Y-74935000D02*
X127939000Y-72974000D01*
X98832979Y-79775021D02*
X99154000Y-79775021D01*
X128352990Y-72555010D02*
X128352990Y-53942990D01*
X109132998Y-78306210D02*
X110301346Y-77137862D01*
X114134273Y-77137863D02*
X115365409Y-78368999D01*
X124358999Y-78368999D02*
X124363998Y-78364000D01*
X117894000Y-72654000D02*
X117894000Y-72674000D01*
X115365409Y-78368999D02*
X124358999Y-78368999D01*
X117894000Y-72674000D02*
X117864000Y-72704000D01*
X103521020Y-78306210D02*
X109132998Y-78306210D01*
X88300000Y-79057822D02*
X89017199Y-79775021D01*
X126343899Y-51933899D02*
X128352990Y-53942990D01*
X127939000Y-72974000D02*
X127939000Y-72969000D01*
X124363998Y-78364000D02*
X125604000Y-78364000D01*
X98832979Y-79775021D02*
X102052209Y-79775021D01*
X103318615Y-78508615D02*
X103521020Y-78306210D01*
X102052209Y-79775021D02*
X103318615Y-78508615D01*
X89017199Y-79775021D02*
X98832979Y-79775021D01*
X88830799Y-80225031D02*
X97954000Y-80225031D01*
X119314000Y-79374000D02*
X119594000Y-79094000D01*
X125318900Y-52035510D02*
X125318900Y-50800000D01*
X120253000Y-74960000D02*
X122987205Y-72225795D01*
X87800000Y-79194232D02*
X88830799Y-80225031D01*
X109319398Y-78756220D02*
X110487746Y-77587872D01*
X87800000Y-78050000D02*
X87800000Y-79194232D01*
X110487746Y-77587872D02*
X113947872Y-77587872D01*
X115734000Y-79374000D02*
X119314000Y-79374000D01*
X115994000Y-72654000D02*
X115994000Y-72664000D01*
X122987205Y-54367205D02*
X125318900Y-52035510D01*
X115994000Y-72664000D02*
X115974000Y-72684000D01*
X122987205Y-72225795D02*
X122987205Y-54367205D01*
X107724000Y-78756220D02*
X109319398Y-78756220D01*
X103707420Y-78756220D02*
X107724000Y-78756220D01*
X102238610Y-80225030D02*
X103707420Y-78756220D01*
X113947872Y-77587872D02*
X115734000Y-79374000D01*
X97954000Y-80225031D02*
X102238610Y-80225030D01*
X140463417Y-36828583D02*
X144526000Y-32766000D01*
X109024000Y-65077590D02*
X110294000Y-66347590D01*
X144932834Y-46804000D02*
X145298417Y-47169583D01*
X111087826Y-75337826D02*
X112940174Y-75337826D01*
X104514000Y-58777590D02*
X109024000Y-63287590D01*
X102519569Y-53759569D02*
X104585138Y-51694000D01*
X112940174Y-75337826D02*
X113834000Y-74444000D01*
X113834000Y-72704000D02*
X113834000Y-74444000D01*
X87300000Y-68979138D02*
X102519569Y-53759569D01*
X104585138Y-51694000D02*
X109475138Y-46804000D01*
X102519569Y-53759569D02*
X104514000Y-55754000D01*
X110294000Y-66347590D02*
X110294000Y-74544000D01*
X128264000Y-46804000D02*
X144932834Y-46804000D01*
X140463417Y-42334583D02*
X140463417Y-36828583D01*
X109024000Y-63287590D02*
X109024000Y-65077590D01*
X87300000Y-78050000D02*
X87300000Y-68979138D01*
X110294000Y-74544000D02*
X111087826Y-75337826D01*
X104514000Y-55754000D02*
X104514000Y-58777590D01*
X109475138Y-46804000D02*
X128264000Y-46804000D01*
X86849991Y-68792737D02*
X103351364Y-52291364D01*
X86775001Y-68867727D02*
X86849991Y-68792737D01*
X86775001Y-78035001D02*
X86775001Y-68867727D01*
X86790000Y-78050000D02*
X86775001Y-78035001D01*
X148504010Y-46353990D02*
X149284000Y-45574000D01*
X103351364Y-52291364D02*
X109288738Y-46353990D01*
X127363990Y-46353990D02*
X148504010Y-46353990D01*
X109288738Y-46353990D02*
X127363990Y-46353990D01*
X127363990Y-46353990D02*
X127574000Y-46353990D01*
X86800000Y-78050000D02*
X86790000Y-78050000D01*
X166009320Y-40665900D02*
X165515900Y-40665900D01*
X164890909Y-40040909D02*
X153567091Y-40040909D01*
X86300000Y-68706318D02*
X86300000Y-78050000D01*
X166009320Y-40665900D02*
X166009320Y-40628680D01*
X109102338Y-45903980D02*
X86300000Y-68706318D01*
X147704020Y-45903980D02*
X109102338Y-45903980D01*
X165515900Y-40665900D02*
X164890909Y-40040909D01*
X166009320Y-40628680D02*
X166044000Y-40594000D01*
X153567091Y-40040909D02*
X147704020Y-45903980D01*
X167084321Y-40149899D02*
X167084321Y-47590899D01*
X85800000Y-78050000D02*
X85800000Y-68569908D01*
X85800000Y-68569908D02*
X108915938Y-45453970D01*
X147517620Y-45453970D02*
X153380691Y-39590899D01*
X108915938Y-45453970D02*
X147517620Y-45453970D01*
X153380691Y-39590899D02*
X166525321Y-39590899D01*
X167084321Y-47590899D02*
X166009320Y-48665900D01*
X159194000Y-55544000D02*
X159194000Y-55481220D01*
X166525321Y-39590899D02*
X167084321Y-40149899D01*
X159194000Y-55481220D02*
X166009320Y-48665900D01*
X104964010Y-52340434D02*
X104964010Y-58591190D01*
X104586749Y-49146749D02*
X108729538Y-45003960D01*
X110744010Y-70504010D02*
X110744010Y-70754010D01*
X167534331Y-39963499D02*
X167534331Y-42190911D01*
X110744010Y-72164010D02*
X110744010Y-70504010D01*
X166711722Y-39140890D02*
X167534331Y-39963499D01*
X85300000Y-78050000D02*
X85300000Y-77378000D01*
X153194291Y-39140889D02*
X166711722Y-39140890D01*
X85349984Y-68383514D02*
X104586749Y-49146749D01*
X106262222Y-51042222D02*
X104964010Y-52340434D01*
X111284000Y-72704000D02*
X110744010Y-72164010D01*
X104964010Y-58591190D02*
X109504000Y-63131180D01*
X167534331Y-42190911D02*
X170009320Y-44665900D01*
X111934000Y-72704000D02*
X111284000Y-72704000D01*
X147331220Y-45003960D02*
X153194291Y-39140889D01*
X103301251Y-49146749D02*
X102994000Y-49454000D01*
X109504000Y-63131180D02*
X109504000Y-64921180D01*
X85349984Y-77328016D02*
X85349984Y-68383514D01*
X85300000Y-77378000D02*
X85349984Y-77328016D01*
X108729538Y-45003960D02*
X147331220Y-45003960D01*
X104586749Y-49146749D02*
X103301251Y-49146749D01*
X110744010Y-66161190D02*
X110744010Y-70504010D01*
X109504000Y-64921180D02*
X110744010Y-66161190D01*
X116084000Y-43734000D02*
X116084000Y-43754000D01*
X112884000Y-70704000D02*
X116894000Y-70704000D01*
X116944000Y-70654000D02*
X116894000Y-70704000D01*
X116084000Y-43754000D02*
X116094000Y-43764000D01*
G04 #@! TA.AperFunction,NonConductor*
G36*
X104248542Y-53030667D02*
G01*
X104305378Y-53073214D01*
X104330189Y-53139734D01*
X104330510Y-53148723D01*
X104330510Y-54370415D01*
X104310508Y-54438536D01*
X104256852Y-54485029D01*
X104186578Y-54495133D01*
X104121998Y-54465639D01*
X104115415Y-54459510D01*
X103504569Y-53848664D01*
X103470543Y-53786352D01*
X103475608Y-53715537D01*
X103504569Y-53670474D01*
X104115415Y-53059628D01*
X104177727Y-53025602D01*
X104248542Y-53030667D01*
G37*
G04 #@! TD.AperFunction*
G04 #@! TA.AperFunction,NonConductor*
G36*
X125608032Y-52746448D02*
G01*
X125653095Y-52775409D01*
X127232575Y-54354889D01*
X127266601Y-54417201D01*
X127269480Y-54443984D01*
X127269480Y-62869764D01*
X127249478Y-62937885D01*
X127195822Y-62984378D01*
X127125548Y-62994482D01*
X127075381Y-62975776D01*
X126826883Y-62816144D01*
X126814545Y-62808218D01*
X126814540Y-62808215D01*
X126811512Y-62806270D01*
X126528482Y-62667169D01*
X126231445Y-62561226D01*
X125924271Y-62489822D01*
X125869119Y-62483496D01*
X125614547Y-62454296D01*
X125614540Y-62454296D01*
X125610960Y-62453885D01*
X125295596Y-62453885D01*
X125292016Y-62454296D01*
X125292009Y-62454296D01*
X125037437Y-62483496D01*
X124982285Y-62489822D01*
X124675111Y-62561226D01*
X124378074Y-62667169D01*
X124095044Y-62806270D01*
X124092016Y-62808215D01*
X124092011Y-62808218D01*
X123832741Y-62974769D01*
X123829709Y-62976717D01*
X123826441Y-62979388D01*
X123826298Y-62979448D01*
X123824011Y-62981109D01*
X123823625Y-62980577D01*
X123761040Y-63007009D01*
X123691086Y-62994887D01*
X123638790Y-62946869D01*
X123620705Y-62881827D01*
X123620705Y-54681799D01*
X123640707Y-54613678D01*
X123657610Y-54592704D01*
X125474905Y-52775409D01*
X125537217Y-52741383D01*
X125608032Y-52746448D01*
G37*
G04 #@! TD.AperFunction*
G04 #@! TA.AperFunction,NonConductor*
G36*
X104013032Y-59825038D02*
G01*
X104058095Y-59853999D01*
X107613595Y-63409499D01*
X107647621Y-63471811D01*
X107650500Y-63498594D01*
X107650500Y-64271476D01*
X107630498Y-64339597D01*
X107618142Y-64355779D01*
X107568705Y-64410685D01*
X107508260Y-64447923D01*
X107437276Y-64446571D01*
X107378553Y-64407369D01*
X107376080Y-64404422D01*
X107372929Y-64399922D01*
X107217218Y-64244211D01*
X107209417Y-64238748D01*
X107088621Y-64154166D01*
X107036834Y-64117904D01*
X106837256Y-64024840D01*
X106624551Y-63967845D01*
X106405180Y-63948653D01*
X106185809Y-63967845D01*
X105973104Y-64024840D01*
X105889110Y-64064007D01*
X105778514Y-64115578D01*
X105778509Y-64115581D01*
X105773527Y-64117904D01*
X105769020Y-64121060D01*
X105769018Y-64121061D01*
X105597653Y-64241052D01*
X105597650Y-64241054D01*
X105593142Y-64244211D01*
X105437431Y-64399922D01*
X105434274Y-64404430D01*
X105434272Y-64404433D01*
X105314743Y-64575138D01*
X105311124Y-64580307D01*
X105308801Y-64585289D01*
X105308798Y-64585294D01*
X105279310Y-64648533D01*
X105218060Y-64779884D01*
X105161065Y-64992589D01*
X105141873Y-65211960D01*
X105161065Y-65431331D01*
X105218060Y-65644036D01*
X105255386Y-65724083D01*
X105308798Y-65838626D01*
X105308801Y-65838631D01*
X105311124Y-65843613D01*
X105314280Y-65848120D01*
X105314281Y-65848122D01*
X105401419Y-65972567D01*
X105437431Y-66023998D01*
X105593142Y-66179709D01*
X105597651Y-66182866D01*
X105597653Y-66182868D01*
X105662207Y-66228069D01*
X105773526Y-66306016D01*
X105973104Y-66399080D01*
X106185809Y-66456075D01*
X106405180Y-66475267D01*
X106624551Y-66456075D01*
X106629861Y-66454652D01*
X106629868Y-66454651D01*
X106655899Y-66447676D01*
X106726876Y-66449366D01*
X106777604Y-66480288D01*
X107163585Y-66866269D01*
X107197611Y-66928581D01*
X107200490Y-66955364D01*
X107200490Y-69209415D01*
X107180488Y-69277536D01*
X107163585Y-69298511D01*
X106931514Y-69530581D01*
X106701742Y-69760353D01*
X106693463Y-69767887D01*
X106686982Y-69772000D01*
X106662743Y-69797812D01*
X106640357Y-69821651D01*
X106637602Y-69824493D01*
X106617865Y-69844230D01*
X106615385Y-69847427D01*
X106607682Y-69856447D01*
X106577414Y-69888679D01*
X106573597Y-69895622D01*
X106568934Y-69902040D01*
X106568657Y-69901839D01*
X106553019Y-69922666D01*
X105623591Y-70852094D01*
X105561279Y-70886120D01*
X105534496Y-70888999D01*
X102939133Y-70888999D01*
X102871012Y-70868997D01*
X102824519Y-70815341D01*
X102814568Y-70754394D01*
X102814037Y-70754394D01*
X102814037Y-70751145D01*
X102813823Y-70749834D01*
X102814037Y-70747797D01*
X102814037Y-70747788D01*
X102814727Y-70741223D01*
X102794765Y-70551295D01*
X102792722Y-70545007D01*
X102791853Y-70542331D01*
X102791806Y-70540697D01*
X102791351Y-70538555D01*
X102791743Y-70538472D01*
X102789827Y-70471363D01*
X102826492Y-70410566D01*
X102858438Y-70389203D01*
X103031843Y-70308344D01*
X103031849Y-70308340D01*
X103036834Y-70306016D01*
X103146882Y-70228959D01*
X103212707Y-70182868D01*
X103212709Y-70182866D01*
X103217218Y-70179709D01*
X103372929Y-70023998D01*
X103378523Y-70016010D01*
X103496079Y-69848122D01*
X103496080Y-69848120D01*
X103499236Y-69843613D01*
X103501559Y-69838631D01*
X103501562Y-69838626D01*
X103555472Y-69723015D01*
X103592300Y-69644036D01*
X103649295Y-69431331D01*
X103668487Y-69211960D01*
X103649295Y-68992589D01*
X103592300Y-68779884D01*
X103516143Y-68616564D01*
X103501562Y-68585294D01*
X103501559Y-68585289D01*
X103499236Y-68580307D01*
X103496079Y-68575798D01*
X103376088Y-68404433D01*
X103376086Y-68404430D01*
X103372929Y-68399922D01*
X103217218Y-68244211D01*
X103197199Y-68230193D01*
X103122202Y-68177680D01*
X103036834Y-68117904D01*
X102837256Y-68024840D01*
X102624551Y-67967845D01*
X102405180Y-67948653D01*
X102185809Y-67967845D01*
X101973104Y-68024840D01*
X101900978Y-68058473D01*
X101778514Y-68115578D01*
X101778509Y-68115581D01*
X101773527Y-68117904D01*
X101769020Y-68121060D01*
X101769018Y-68121061D01*
X101597653Y-68241052D01*
X101597650Y-68241054D01*
X101593142Y-68244211D01*
X101437431Y-68399922D01*
X101434274Y-68404430D01*
X101434272Y-68404433D01*
X101314281Y-68575798D01*
X101311124Y-68580307D01*
X101308801Y-68585289D01*
X101308798Y-68585294D01*
X101294217Y-68616564D01*
X101218060Y-68779884D01*
X101161065Y-68992589D01*
X101141873Y-69211960D01*
X101161065Y-69431331D01*
X101162488Y-69436641D01*
X101162489Y-69436645D01*
X101169464Y-69462677D01*
X101167774Y-69533654D01*
X101136852Y-69584383D01*
X100769161Y-69952074D01*
X100706849Y-69986100D01*
X100680066Y-69988979D01*
X100059115Y-69988979D01*
X99990994Y-69968977D01*
X99944501Y-69915321D01*
X99934397Y-69845047D01*
X99963891Y-69780467D01*
X99970020Y-69773884D01*
X100126247Y-69617657D01*
X100134537Y-69610113D01*
X100141018Y-69606000D01*
X100187659Y-69556332D01*
X100190413Y-69553491D01*
X100210134Y-69533770D01*
X100212612Y-69530575D01*
X100220318Y-69521553D01*
X100245158Y-69495101D01*
X100250586Y-69489321D01*
X100260346Y-69471568D01*
X100271199Y-69455045D01*
X100278753Y-69445306D01*
X100283613Y-69439041D01*
X100301176Y-69398457D01*
X100306383Y-69387827D01*
X100327695Y-69349060D01*
X100329666Y-69341383D01*
X100329668Y-69341378D01*
X100332732Y-69329442D01*
X100339138Y-69310730D01*
X100344033Y-69299419D01*
X100347181Y-69292145D01*
X100348421Y-69284317D01*
X100348423Y-69284310D01*
X100354099Y-69248476D01*
X100356505Y-69236856D01*
X100365528Y-69201711D01*
X100365528Y-69201710D01*
X100367500Y-69194030D01*
X100367500Y-69173776D01*
X100369051Y-69154065D01*
X100370980Y-69141886D01*
X100372220Y-69134057D01*
X100368059Y-69090038D01*
X100367500Y-69078181D01*
X100367500Y-64197734D01*
X100387502Y-64129613D01*
X100404405Y-64108639D01*
X102032757Y-62480288D01*
X102095069Y-62446262D01*
X102154463Y-62447676D01*
X102170624Y-62452006D01*
X102185809Y-62456075D01*
X102405180Y-62475267D01*
X102624551Y-62456075D01*
X102837256Y-62399080D01*
X103036834Y-62306016D01*
X103137939Y-62235221D01*
X103212707Y-62182868D01*
X103212709Y-62182866D01*
X103217218Y-62179709D01*
X103372929Y-62023998D01*
X103381893Y-62011197D01*
X103496079Y-61848122D01*
X103496080Y-61848120D01*
X103499236Y-61843613D01*
X103501559Y-61838631D01*
X103501562Y-61838626D01*
X103589975Y-61649021D01*
X103592300Y-61644036D01*
X103649295Y-61431331D01*
X103668487Y-61211960D01*
X103649295Y-60992589D01*
X103592300Y-60779884D01*
X103509087Y-60601432D01*
X103501562Y-60585294D01*
X103501559Y-60585289D01*
X103499236Y-60580307D01*
X103419050Y-60465789D01*
X103396362Y-60398516D01*
X103413647Y-60329656D01*
X103439957Y-60300664D01*
X103438917Y-60299556D01*
X103444693Y-60294132D01*
X103451107Y-60289472D01*
X103479298Y-60255395D01*
X103487288Y-60246616D01*
X103879905Y-59853999D01*
X103942217Y-59819973D01*
X104013032Y-59825038D01*
G37*
G04 #@! TD.AperFunction*
G04 #@! TA.AperFunction,NonConductor*
G36*
X117125180Y-71632502D02*
G01*
X117171673Y-71686158D01*
X117181777Y-71756432D01*
X117152283Y-71821012D01*
X117143995Y-71828734D01*
X117144269Y-71829008D01*
X117137919Y-71835358D01*
X117130739Y-71840739D01*
X117125358Y-71847919D01*
X117125357Y-71847920D01*
X117044826Y-71955372D01*
X116987967Y-71997887D01*
X116917148Y-72002913D01*
X116854855Y-71968853D01*
X116843174Y-71955372D01*
X116762643Y-71847920D01*
X116762642Y-71847919D01*
X116757261Y-71840739D01*
X116750081Y-71835358D01*
X116743731Y-71829008D01*
X116745978Y-71826761D01*
X116712857Y-71782456D01*
X116707838Y-71711637D01*
X116741903Y-71649347D01*
X116804238Y-71615362D01*
X116830941Y-71612500D01*
X117057059Y-71612500D01*
X117125180Y-71632502D01*
G37*
G04 #@! TD.AperFunction*
G04 #@! TA.AperFunction,NonConductor*
G36*
X113065180Y-71682502D02*
G01*
X113111673Y-71736158D01*
X113121777Y-71806432D01*
X113092283Y-71871012D01*
X113083995Y-71878734D01*
X113084269Y-71879008D01*
X113077919Y-71885358D01*
X113070739Y-71890739D01*
X113065358Y-71897919D01*
X113065357Y-71897920D01*
X112984826Y-72005372D01*
X112927967Y-72047887D01*
X112857148Y-72052913D01*
X112794855Y-72018853D01*
X112783174Y-72005372D01*
X112702643Y-71897920D01*
X112702642Y-71897919D01*
X112697261Y-71890739D01*
X112690081Y-71885358D01*
X112683731Y-71879008D01*
X112685978Y-71876761D01*
X112652857Y-71832456D01*
X112647838Y-71761637D01*
X112681903Y-71699347D01*
X112744238Y-71665362D01*
X112770941Y-71662500D01*
X112997059Y-71662500D01*
X113065180Y-71682502D01*
G37*
G04 #@! TD.AperFunction*
G04 #@! TA.AperFunction,NonConductor*
G36*
X121802521Y-47457502D02*
G01*
X121849014Y-47511158D01*
X121860400Y-47563500D01*
X121860400Y-48798134D01*
X121867155Y-48860316D01*
X121918285Y-48996705D01*
X122005639Y-49113261D01*
X122122195Y-49200615D01*
X122258584Y-49251745D01*
X122320766Y-49258500D01*
X124517034Y-49258500D01*
X124579216Y-49251745D01*
X124715605Y-49200615D01*
X124832161Y-49113261D01*
X124919515Y-48996705D01*
X124941418Y-48938279D01*
X124984060Y-48881515D01*
X125050621Y-48856815D01*
X125119970Y-48872022D01*
X125170088Y-48922308D01*
X125185400Y-48982509D01*
X125185400Y-49669361D01*
X125165398Y-49737482D01*
X125111742Y-49783975D01*
X125045793Y-49794624D01*
X125020433Y-49791869D01*
X125020429Y-49791869D01*
X125017034Y-49791500D01*
X124620766Y-49791500D01*
X124558584Y-49798255D01*
X124422195Y-49849385D01*
X124305639Y-49936739D01*
X124218285Y-50053295D01*
X124167155Y-50189684D01*
X124160400Y-50251866D01*
X124160400Y-51348134D01*
X124167155Y-51410316D01*
X124172809Y-51425398D01*
X124177382Y-51437596D01*
X124185400Y-51481826D01*
X124185400Y-51584506D01*
X124165398Y-51652627D01*
X124148495Y-51673601D01*
X122089247Y-53732848D01*
X122080961Y-53740388D01*
X122074482Y-53744500D01*
X122069057Y-53750277D01*
X122027857Y-53794151D01*
X122025102Y-53796993D01*
X122005365Y-53816730D01*
X122002885Y-53819927D01*
X121995182Y-53828947D01*
X121964914Y-53861179D01*
X121961095Y-53868125D01*
X121961093Y-53868128D01*
X121955152Y-53878934D01*
X121944301Y-53895453D01*
X121931886Y-53911459D01*
X121928741Y-53918728D01*
X121928738Y-53918732D01*
X121914326Y-53952037D01*
X121909109Y-53962687D01*
X121887805Y-54001440D01*
X121885834Y-54009115D01*
X121885834Y-54009116D01*
X121882767Y-54021062D01*
X121876363Y-54039766D01*
X121868319Y-54058355D01*
X121867080Y-54066178D01*
X121867077Y-54066188D01*
X121861401Y-54102024D01*
X121858995Y-54113644D01*
X121848000Y-54156470D01*
X121848000Y-54176724D01*
X121846449Y-54196434D01*
X121843280Y-54216443D01*
X121844026Y-54224335D01*
X121847441Y-54260461D01*
X121848000Y-54272319D01*
X121848000Y-63865522D01*
X121827998Y-63933643D01*
X121774342Y-63980136D01*
X121704068Y-63990240D01*
X121635667Y-63957297D01*
X121627711Y-63949812D01*
X121513043Y-63841944D01*
X121315633Y-63704995D01*
X121302131Y-63695628D01*
X121302128Y-63695626D01*
X121298289Y-63692963D01*
X121266540Y-63677306D01*
X121068061Y-63579427D01*
X121068058Y-63579426D01*
X121063873Y-63577362D01*
X121042112Y-63570396D01*
X120819403Y-63499107D01*
X120814945Y-63497680D01*
X120556973Y-63455666D01*
X120443222Y-63454177D01*
X120300302Y-63452306D01*
X120300299Y-63452306D01*
X120295625Y-63452245D01*
X120036642Y-63487491D01*
X120032156Y-63488799D01*
X120032154Y-63488799D01*
X119966900Y-63507819D01*
X119785713Y-63560630D01*
X119781460Y-63562590D01*
X119781459Y-63562591D01*
X119744939Y-63579427D01*
X119548352Y-63670055D01*
X119509347Y-63695628D01*
X119333684Y-63810797D01*
X119333679Y-63810801D01*
X119329771Y-63813363D01*
X119134774Y-63987405D01*
X118967643Y-64188357D01*
X118945635Y-64224625D01*
X118890129Y-64316097D01*
X118832051Y-64411806D01*
X118730977Y-64652842D01*
X118666639Y-64906170D01*
X118640453Y-65166226D01*
X118642173Y-65202034D01*
X118652993Y-65427295D01*
X118703984Y-65683643D01*
X118792306Y-65929639D01*
X118794522Y-65933763D01*
X118897438Y-66125300D01*
X118916017Y-66159878D01*
X118918812Y-66163621D01*
X118918814Y-66163624D01*
X119069610Y-66365564D01*
X119069615Y-66365570D01*
X119072402Y-66369302D01*
X119075711Y-66372582D01*
X119075716Y-66372588D01*
X119254706Y-66550022D01*
X119258023Y-66553310D01*
X119261785Y-66556068D01*
X119261788Y-66556071D01*
X119450841Y-66694690D01*
X119468804Y-66707861D01*
X119472947Y-66710041D01*
X119472949Y-66710042D01*
X119695964Y-66827376D01*
X119695969Y-66827378D01*
X119700114Y-66829559D01*
X119805234Y-66866269D01*
X119910913Y-66903174D01*
X119946870Y-66915731D01*
X119951463Y-66916603D01*
X120199065Y-66963611D01*
X120199068Y-66963611D01*
X120203654Y-66964482D01*
X120334239Y-66969613D01*
X120460155Y-66974561D01*
X120460161Y-66974561D01*
X120464823Y-66974744D01*
X120544257Y-66966044D01*
X120719987Y-66946799D01*
X120719992Y-66946798D01*
X120724640Y-66946289D01*
X120729164Y-66945098D01*
X120972874Y-66880935D01*
X120972876Y-66880934D01*
X120977397Y-66879744D01*
X120986077Y-66876015D01*
X121170912Y-66796603D01*
X121217542Y-66776569D01*
X121309019Y-66719962D01*
X121435827Y-66641491D01*
X121435828Y-66641491D01*
X121439799Y-66639033D01*
X121443362Y-66636016D01*
X121443367Y-66636013D01*
X121639285Y-66470155D01*
X121640461Y-66471544D01*
X121696314Y-66441688D01*
X121767082Y-66447383D01*
X121823537Y-66490434D01*
X121847754Y-66557173D01*
X121848000Y-66565042D01*
X121848000Y-69616905D01*
X121827998Y-69685026D01*
X121811095Y-69706000D01*
X119017595Y-72499500D01*
X118955283Y-72533526D01*
X118884468Y-72528461D01*
X118827632Y-72485914D01*
X118802821Y-72419394D01*
X118802500Y-72410405D01*
X118802500Y-72155866D01*
X118795745Y-72093684D01*
X118744615Y-71957295D01*
X118657261Y-71840739D01*
X118540705Y-71753385D01*
X118404316Y-71702255D01*
X118342134Y-71695500D01*
X117780941Y-71695500D01*
X117712820Y-71675498D01*
X117666327Y-71621842D01*
X117656223Y-71551568D01*
X117685717Y-71486988D01*
X117694005Y-71479266D01*
X117693731Y-71478992D01*
X117700081Y-71472642D01*
X117707261Y-71467261D01*
X117794615Y-71350705D01*
X117845745Y-71214316D01*
X117852500Y-71152134D01*
X117852500Y-70155866D01*
X117845745Y-70093684D01*
X117794615Y-69957295D01*
X117707261Y-69840739D01*
X117590705Y-69753385D01*
X117454316Y-69702255D01*
X117392134Y-69695500D01*
X116495866Y-69695500D01*
X116433684Y-69702255D01*
X116297295Y-69753385D01*
X116180739Y-69840739D01*
X116093385Y-69957295D01*
X116090233Y-69965703D01*
X116090231Y-69965707D01*
X116081599Y-69988731D01*
X116038957Y-70045495D01*
X115972395Y-70070194D01*
X115963618Y-70070500D01*
X113842433Y-70070500D01*
X113774312Y-70050498D01*
X113735000Y-70008322D01*
X113734615Y-70007295D01*
X113647261Y-69890739D01*
X113530705Y-69803385D01*
X113394316Y-69752255D01*
X113332134Y-69745500D01*
X112435866Y-69745500D01*
X112373684Y-69752255D01*
X112237295Y-69803385D01*
X112120739Y-69890739D01*
X112033385Y-70007295D01*
X111982255Y-70143684D01*
X111975500Y-70205866D01*
X111975500Y-71202134D01*
X111982255Y-71264316D01*
X112033385Y-71400705D01*
X112120739Y-71517261D01*
X112127919Y-71522642D01*
X112134269Y-71528992D01*
X112132022Y-71531239D01*
X112165143Y-71575544D01*
X112170162Y-71646363D01*
X112136097Y-71708653D01*
X112073762Y-71742638D01*
X112047059Y-71745500D01*
X111503510Y-71745500D01*
X111435389Y-71725498D01*
X111388896Y-71671842D01*
X111377510Y-71619500D01*
X111377510Y-66239957D01*
X111378037Y-66228774D01*
X111379712Y-66221281D01*
X111377572Y-66153190D01*
X111377510Y-66149233D01*
X111377510Y-66121334D01*
X111377006Y-66117343D01*
X111376073Y-66105501D01*
X111376023Y-66103887D01*
X111374684Y-66061301D01*
X111372472Y-66053687D01*
X111372471Y-66053682D01*
X111369033Y-66041849D01*
X111365022Y-66022485D01*
X111363477Y-66010254D01*
X111362484Y-66002393D01*
X111359567Y-65995026D01*
X111359566Y-65995021D01*
X111346208Y-65961282D01*
X111342364Y-65950055D01*
X111336432Y-65929639D01*
X111330028Y-65907597D01*
X111319717Y-65890162D01*
X111311022Y-65872414D01*
X111303562Y-65853573D01*
X111277574Y-65817803D01*
X111271058Y-65807883D01*
X111252590Y-65776655D01*
X111252588Y-65776652D01*
X111248552Y-65769828D01*
X111234231Y-65755507D01*
X111221390Y-65740473D01*
X111214141Y-65730496D01*
X111209482Y-65724083D01*
X111175405Y-65695892D01*
X111166626Y-65687902D01*
X110174405Y-64695680D01*
X110140379Y-64633368D01*
X110137500Y-64606585D01*
X110137500Y-63209943D01*
X110138027Y-63198759D01*
X110139701Y-63191271D01*
X110137562Y-63123212D01*
X110137500Y-63119255D01*
X110137500Y-63091324D01*
X110136994Y-63087318D01*
X110136061Y-63075472D01*
X110134922Y-63039217D01*
X110134673Y-63031290D01*
X110129022Y-63011838D01*
X110125014Y-62992486D01*
X110123468Y-62980248D01*
X110123467Y-62980246D01*
X110122474Y-62972383D01*
X110106194Y-62931266D01*
X110102359Y-62920065D01*
X110090018Y-62877586D01*
X110085985Y-62870767D01*
X110085983Y-62870762D01*
X110079707Y-62860151D01*
X110071010Y-62842401D01*
X110063552Y-62823563D01*
X110037571Y-62787803D01*
X110031053Y-62777881D01*
X110012578Y-62746640D01*
X110012574Y-62746635D01*
X110008542Y-62739817D01*
X109994218Y-62725493D01*
X109981376Y-62710458D01*
X109969472Y-62694073D01*
X109935406Y-62665891D01*
X109926627Y-62657902D01*
X105634415Y-58365690D01*
X105600389Y-58303378D01*
X105597510Y-58276595D01*
X105597510Y-52655029D01*
X105617512Y-52586908D01*
X105634415Y-52565933D01*
X106212723Y-51987626D01*
X106275035Y-51953601D01*
X106301818Y-51950722D01*
X106357709Y-51950722D01*
X106364161Y-51949350D01*
X106364166Y-51949350D01*
X106471245Y-51926589D01*
X106544510Y-51911016D01*
X106550541Y-51908331D01*
X106712944Y-51836025D01*
X106712946Y-51836024D01*
X106718974Y-51833340D01*
X106873475Y-51721088D01*
X106907893Y-51682863D01*
X106996843Y-51584074D01*
X106996844Y-51584073D01*
X107001262Y-51579166D01*
X107096749Y-51413778D01*
X107155764Y-51232150D01*
X107164351Y-51150455D01*
X107175036Y-51048787D01*
X107175726Y-51042222D01*
X107165708Y-50946905D01*
X107156454Y-50858857D01*
X107156454Y-50858855D01*
X107155764Y-50852294D01*
X107096749Y-50670666D01*
X107001262Y-50505278D01*
X106924206Y-50419698D01*
X106893489Y-50355691D01*
X106902254Y-50285238D01*
X106928748Y-50246294D01*
X109700637Y-47474405D01*
X109762949Y-47440379D01*
X109789732Y-47437500D01*
X121734400Y-47437500D01*
X121802521Y-47457502D01*
G37*
G04 #@! TD.AperFunction*
G04 #@! TA.AperFunction,NonConductor*
G36*
X123823677Y-67444137D02*
G01*
X123824032Y-67443648D01*
X123826282Y-67445282D01*
X123826441Y-67445352D01*
X123829726Y-67448037D01*
X123832748Y-67449979D01*
X123832749Y-67449979D01*
X123977418Y-67542913D01*
X124095059Y-67618485D01*
X124234315Y-67686927D01*
X124374862Y-67756003D01*
X124374870Y-67756006D01*
X124378086Y-67757587D01*
X124675121Y-67863532D01*
X124678615Y-67864344D01*
X124678621Y-67864346D01*
X124978787Y-67934124D01*
X124982293Y-67934939D01*
X124985870Y-67935349D01*
X124985874Y-67935350D01*
X125292017Y-67970466D01*
X125292021Y-67970466D01*
X125295602Y-67970877D01*
X125453262Y-67970878D01*
X125607357Y-67970879D01*
X125610965Y-67970879D01*
X125924274Y-67934944D01*
X125927780Y-67934129D01*
X125927786Y-67934128D01*
X126227943Y-67864356D01*
X126227951Y-67864354D01*
X126231447Y-67863541D01*
X126234827Y-67862335D01*
X126234832Y-67862334D01*
X126364607Y-67816048D01*
X126528483Y-67757600D01*
X126811512Y-67618501D01*
X127075380Y-67448999D01*
X127143506Y-67429011D01*
X127211622Y-67449027D01*
X127258104Y-67502692D01*
X127269480Y-67555011D01*
X127269480Y-69845426D01*
X127249478Y-69913547D01*
X127232575Y-69934521D01*
X123552500Y-73614595D01*
X123490188Y-73648621D01*
X123463405Y-73651500D01*
X122761595Y-73651500D01*
X122693474Y-73631498D01*
X122646981Y-73577842D01*
X122636877Y-73507568D01*
X122666371Y-73442988D01*
X122672500Y-73436405D01*
X123379458Y-72729447D01*
X123387744Y-72721907D01*
X123394223Y-72717795D01*
X123440849Y-72668143D01*
X123443603Y-72665302D01*
X123463340Y-72645565D01*
X123465820Y-72642368D01*
X123473525Y-72633346D01*
X123498364Y-72606895D01*
X123503791Y-72601116D01*
X123507610Y-72594170D01*
X123507612Y-72594167D01*
X123513553Y-72583361D01*
X123524404Y-72566842D01*
X123528587Y-72561449D01*
X123536819Y-72550836D01*
X123539964Y-72543567D01*
X123539967Y-72543563D01*
X123554379Y-72510258D01*
X123559596Y-72499608D01*
X123580900Y-72460855D01*
X123585938Y-72441232D01*
X123592342Y-72422529D01*
X123597238Y-72411215D01*
X123597238Y-72411214D01*
X123600386Y-72403940D01*
X123601625Y-72396117D01*
X123601628Y-72396107D01*
X123607304Y-72360271D01*
X123609710Y-72348651D01*
X123618733Y-72313506D01*
X123618733Y-72313505D01*
X123620705Y-72305825D01*
X123620705Y-72285571D01*
X123622256Y-72265860D01*
X123624185Y-72253681D01*
X123625425Y-72245852D01*
X123621264Y-72201833D01*
X123620705Y-72189976D01*
X123620705Y-67542913D01*
X123640707Y-67474792D01*
X123694363Y-67428299D01*
X123764637Y-67418195D01*
X123823677Y-67444137D01*
G37*
G04 #@! TD.AperFunction*
G04 #@! TA.AperFunction,NonConductor*
G36*
X127637522Y-71425548D02*
G01*
X127694358Y-71468095D01*
X127719169Y-71534615D01*
X127719490Y-71543604D01*
X127719490Y-72240415D01*
X127699488Y-72308536D01*
X127682585Y-72329510D01*
X127546747Y-72465348D01*
X127538461Y-72472888D01*
X127531982Y-72477000D01*
X127526557Y-72482777D01*
X127485357Y-72526651D01*
X127482602Y-72529493D01*
X127462865Y-72549230D01*
X127460385Y-72552427D01*
X127452682Y-72561447D01*
X127422414Y-72593679D01*
X127422233Y-72594007D01*
X127417224Y-72599872D01*
X126377500Y-73639595D01*
X126315188Y-73673621D01*
X126288405Y-73676500D01*
X125586594Y-73676500D01*
X125518473Y-73656498D01*
X125471980Y-73602842D01*
X125461876Y-73532568D01*
X125491370Y-73467988D01*
X125497499Y-73461405D01*
X127504395Y-71454509D01*
X127566707Y-71420483D01*
X127637522Y-71425548D01*
G37*
G04 #@! TD.AperFunction*
G04 #@! TA.AperFunction,NonConductor*
G36*
X122271737Y-71141333D02*
G01*
X122328573Y-71183880D01*
X122353384Y-71250400D01*
X122353705Y-71259389D01*
X122353705Y-71911201D01*
X122333703Y-71979322D01*
X122316800Y-72000296D01*
X120652500Y-73664595D01*
X120590188Y-73698621D01*
X120563405Y-73701500D01*
X119911594Y-73701500D01*
X119843473Y-73681498D01*
X119796980Y-73627842D01*
X119786876Y-73557568D01*
X119816370Y-73492988D01*
X119822499Y-73486405D01*
X122138610Y-71170294D01*
X122200922Y-71136268D01*
X122271737Y-71141333D01*
G37*
G04 #@! TD.AperFunction*
G04 #@! TA.AperFunction,NonConductor*
G36*
X117033145Y-73339147D02*
G01*
X117044826Y-73352628D01*
X117122533Y-73456312D01*
X117130739Y-73467261D01*
X117173990Y-73499676D01*
X117216503Y-73556533D01*
X117221529Y-73627351D01*
X117187469Y-73689645D01*
X117125138Y-73723635D01*
X117098423Y-73726500D01*
X116789577Y-73726500D01*
X116721456Y-73706498D01*
X116674963Y-73652842D01*
X116664859Y-73582568D01*
X116694353Y-73517988D01*
X116714004Y-73499680D01*
X116757261Y-73467261D01*
X116765467Y-73456312D01*
X116843174Y-73352628D01*
X116900033Y-73310113D01*
X116970852Y-73305087D01*
X117033145Y-73339147D01*
G37*
G04 #@! TD.AperFunction*
G04 #@! TA.AperFunction,NonConductor*
G36*
X112973145Y-73389147D02*
G01*
X112984826Y-73402628D01*
X113059905Y-73502805D01*
X113070739Y-73517261D01*
X113077919Y-73522642D01*
X113077920Y-73522643D01*
X113150065Y-73576713D01*
X113192580Y-73633573D01*
X113200500Y-73677539D01*
X113200500Y-74129405D01*
X113180498Y-74197526D01*
X113163595Y-74218501D01*
X112714673Y-74667422D01*
X112652361Y-74701447D01*
X112625578Y-74704326D01*
X111402421Y-74704326D01*
X111334300Y-74684324D01*
X111313326Y-74667421D01*
X110964405Y-74318500D01*
X110930379Y-74256188D01*
X110927500Y-74229405D01*
X110927500Y-73570926D01*
X110947502Y-73502805D01*
X111001158Y-73456312D01*
X111071432Y-73446208D01*
X111136012Y-73475702D01*
X111154321Y-73495355D01*
X111170739Y-73517261D01*
X111287295Y-73604615D01*
X111423684Y-73655745D01*
X111485866Y-73662500D01*
X112382134Y-73662500D01*
X112444316Y-73655745D01*
X112580705Y-73604615D01*
X112697261Y-73517261D01*
X112708095Y-73502805D01*
X112783174Y-73402628D01*
X112840033Y-73360113D01*
X112910852Y-73355087D01*
X112973145Y-73389147D01*
G37*
G04 #@! TD.AperFunction*
G04 #@! TA.AperFunction,NonConductor*
G36*
X116088582Y-71357502D02*
G01*
X116121287Y-71387935D01*
X116145681Y-71420483D01*
X116180739Y-71467261D01*
X116187919Y-71472642D01*
X116194269Y-71478992D01*
X116192022Y-71481239D01*
X116225143Y-71525544D01*
X116230162Y-71596363D01*
X116196097Y-71658653D01*
X116133762Y-71692638D01*
X116107059Y-71695500D01*
X115545866Y-71695500D01*
X115483684Y-71702255D01*
X115347295Y-71753385D01*
X115230739Y-71840739D01*
X115143385Y-71957295D01*
X115092255Y-72093684D01*
X115085500Y-72155866D01*
X115085500Y-72460429D01*
X115082746Y-72486628D01*
X115082499Y-72487791D01*
X115080458Y-72494072D01*
X115060496Y-72684000D01*
X115080458Y-72873928D01*
X115082499Y-72880209D01*
X115082746Y-72881372D01*
X115085500Y-72907571D01*
X115085500Y-73152134D01*
X115092255Y-73214316D01*
X115143385Y-73350705D01*
X115230739Y-73467261D01*
X115347295Y-73554615D01*
X115483684Y-73605745D01*
X115545866Y-73612500D01*
X116282423Y-73612500D01*
X116350544Y-73632502D01*
X116397037Y-73686158D01*
X116407141Y-73756432D01*
X116377647Y-73821012D01*
X116357996Y-73839320D01*
X116314739Y-73871739D01*
X116227385Y-73988295D01*
X116176255Y-74124684D01*
X116169500Y-74186866D01*
X116169500Y-75709488D01*
X116149498Y-75777609D01*
X116095842Y-75824102D01*
X116043500Y-75835488D01*
X115689223Y-75835488D01*
X115621102Y-75815486D01*
X115600128Y-75798583D01*
X115197128Y-75395583D01*
X115189588Y-75387297D01*
X115185476Y-75380818D01*
X115135824Y-75334192D01*
X115132983Y-75331438D01*
X115113246Y-75311701D01*
X115110049Y-75309221D01*
X115101027Y-75301516D01*
X115068797Y-75271250D01*
X115061851Y-75267431D01*
X115061848Y-75267429D01*
X115051042Y-75261488D01*
X115034523Y-75250637D01*
X115033011Y-75249464D01*
X115018517Y-75238222D01*
X115011248Y-75235077D01*
X115011244Y-75235074D01*
X114977939Y-75220662D01*
X114967289Y-75215445D01*
X114928536Y-75194141D01*
X114908913Y-75189103D01*
X114890210Y-75182699D01*
X114878896Y-75177803D01*
X114878895Y-75177803D01*
X114871621Y-75174655D01*
X114863798Y-75173416D01*
X114863788Y-75173413D01*
X114827952Y-75167737D01*
X114816332Y-75165331D01*
X114781187Y-75156308D01*
X114781186Y-75156308D01*
X114773506Y-75154336D01*
X114753252Y-75154336D01*
X114733541Y-75152785D01*
X114721362Y-75150856D01*
X114713533Y-75149616D01*
X114705641Y-75150362D01*
X114669515Y-75153777D01*
X114657657Y-75154336D01*
X114325515Y-75154336D01*
X114257394Y-75134334D01*
X114210901Y-75080678D01*
X114200797Y-75010404D01*
X114230291Y-74945824D01*
X114239089Y-74937224D01*
X114241018Y-74936000D01*
X114287644Y-74886348D01*
X114290398Y-74883507D01*
X114310135Y-74863770D01*
X114312615Y-74860573D01*
X114320320Y-74851551D01*
X114345159Y-74825100D01*
X114350586Y-74819321D01*
X114354405Y-74812375D01*
X114354407Y-74812372D01*
X114360348Y-74801566D01*
X114371199Y-74785047D01*
X114378758Y-74775301D01*
X114383614Y-74769041D01*
X114386759Y-74761772D01*
X114386762Y-74761768D01*
X114401174Y-74728463D01*
X114406391Y-74717813D01*
X114427695Y-74679060D01*
X114432733Y-74659437D01*
X114439137Y-74640734D01*
X114444033Y-74629420D01*
X114444033Y-74629419D01*
X114447181Y-74622145D01*
X114448420Y-74614322D01*
X114448423Y-74614312D01*
X114454099Y-74578476D01*
X114456505Y-74566856D01*
X114465528Y-74531711D01*
X114465528Y-74531710D01*
X114467500Y-74524030D01*
X114467500Y-74503776D01*
X114469051Y-74484065D01*
X114470980Y-74471886D01*
X114472220Y-74464057D01*
X114471317Y-74454499D01*
X114468059Y-74420039D01*
X114467500Y-74408181D01*
X114467500Y-73677539D01*
X114487502Y-73609418D01*
X114517935Y-73576713D01*
X114590080Y-73522643D01*
X114590081Y-73522642D01*
X114597261Y-73517261D01*
X114684615Y-73400705D01*
X114735745Y-73264316D01*
X114742500Y-73202134D01*
X114742500Y-72205866D01*
X114735745Y-72143684D01*
X114684615Y-72007295D01*
X114597261Y-71890739D01*
X114480705Y-71803385D01*
X114344316Y-71752255D01*
X114282134Y-71745500D01*
X113720941Y-71745500D01*
X113652820Y-71725498D01*
X113606327Y-71671842D01*
X113596223Y-71601568D01*
X113625717Y-71536988D01*
X113634005Y-71529266D01*
X113633731Y-71528992D01*
X113640081Y-71522642D01*
X113647261Y-71517261D01*
X113734615Y-71400705D01*
X113734861Y-71400049D01*
X113782175Y-71352843D01*
X113842433Y-71337500D01*
X116020461Y-71337500D01*
X116088582Y-71357502D01*
G37*
G04 #@! TD.AperFunction*
G04 #@! TA.AperFunction,NonConductor*
G36*
X121812532Y-74400538D02*
G01*
X121869368Y-74443085D01*
X121894179Y-74509605D01*
X121894500Y-74518594D01*
X121894500Y-75708134D01*
X121893109Y-75708134D01*
X121878085Y-75771803D01*
X121827010Y-75821118D01*
X121768573Y-75835488D01*
X121637500Y-75835488D01*
X121569379Y-75815486D01*
X121522886Y-75761830D01*
X121511500Y-75709488D01*
X121511500Y-74649594D01*
X121531502Y-74581473D01*
X121548405Y-74560499D01*
X121679405Y-74429499D01*
X121741717Y-74395473D01*
X121812532Y-74400538D01*
G37*
G04 #@! TD.AperFunction*
G04 #@! TA.AperFunction,NonConductor*
G36*
X118912532Y-74500538D02*
G01*
X118969368Y-74543085D01*
X118994179Y-74609605D01*
X118994500Y-74618594D01*
X118994500Y-75709488D01*
X118974498Y-75777609D01*
X118920842Y-75824102D01*
X118868500Y-75835488D01*
X118812500Y-75835488D01*
X118744379Y-75815486D01*
X118697886Y-75761830D01*
X118686500Y-75709488D01*
X118686500Y-74674594D01*
X118706502Y-74606473D01*
X118723405Y-74585499D01*
X118779405Y-74529499D01*
X118841717Y-74495473D01*
X118912532Y-74500538D01*
G37*
G04 #@! TD.AperFunction*
G04 #@! TA.AperFunction,NonConductor*
G36*
X124637532Y-74425538D02*
G01*
X124694368Y-74468085D01*
X124719179Y-74534605D01*
X124719500Y-74543594D01*
X124719500Y-75733134D01*
X124726255Y-75795316D01*
X124777385Y-75931705D01*
X124864739Y-76048261D01*
X124871919Y-76053642D01*
X124871921Y-76053644D01*
X124878631Y-76058673D01*
X124921146Y-76115533D01*
X124926170Y-76186351D01*
X124892110Y-76248644D01*
X124829778Y-76282634D01*
X124803065Y-76285498D01*
X124294577Y-76285498D01*
X124226456Y-76265496D01*
X124179963Y-76211840D01*
X124169859Y-76141566D01*
X124199353Y-76076986D01*
X124219012Y-76058672D01*
X124232904Y-76048261D01*
X124266261Y-76023261D01*
X124353615Y-75906705D01*
X124404745Y-75770316D01*
X124411500Y-75708134D01*
X124411500Y-74599594D01*
X124431502Y-74531473D01*
X124448405Y-74510499D01*
X124504405Y-74454499D01*
X124566717Y-74420473D01*
X124637532Y-74425538D01*
G37*
G04 #@! TD.AperFunction*
G04 #@! TA.AperFunction,NonConductor*
G36*
X127462532Y-74450539D02*
G01*
X127519368Y-74493086D01*
X127544179Y-74559606D01*
X127544500Y-74568595D01*
X127544500Y-75708134D01*
X127551255Y-75770316D01*
X127602385Y-75906705D01*
X127689739Y-76023261D01*
X127723097Y-76048261D01*
X127736988Y-76058672D01*
X127779503Y-76115531D01*
X127784529Y-76186349D01*
X127750469Y-76248643D01*
X127688138Y-76282633D01*
X127661423Y-76285498D01*
X127152935Y-76285498D01*
X127084814Y-76265496D01*
X127038321Y-76211840D01*
X127028217Y-76141566D01*
X127057711Y-76076986D01*
X127077369Y-76058673D01*
X127084079Y-76053644D01*
X127084081Y-76053642D01*
X127091261Y-76048261D01*
X127178615Y-75931705D01*
X127229745Y-75795316D01*
X127236500Y-75733134D01*
X127236500Y-74624595D01*
X127256502Y-74556474D01*
X127273405Y-74535500D01*
X127329405Y-74479500D01*
X127391717Y-74445474D01*
X127462532Y-74450539D01*
G37*
G04 #@! TD.AperFunction*
G04 #@! TA.AperFunction,NonConductor*
G36*
X102563601Y-54715607D02*
G01*
X102608664Y-54744568D01*
X103843595Y-55979499D01*
X103877621Y-56041811D01*
X103880500Y-56068594D01*
X103880500Y-57629500D01*
X103860498Y-57697621D01*
X103806842Y-57744114D01*
X103754500Y-57755500D01*
X103668513Y-57755500D01*
X103662061Y-57756872D01*
X103662056Y-57756872D01*
X103575113Y-57775353D01*
X103481712Y-57795206D01*
X103475682Y-57797891D01*
X103475681Y-57797891D01*
X103313278Y-57870197D01*
X103313276Y-57870198D01*
X103307248Y-57872882D01*
X103152747Y-57985134D01*
X103148326Y-57990044D01*
X103148325Y-57990045D01*
X103054716Y-58094009D01*
X103024960Y-58127056D01*
X102929473Y-58292444D01*
X102870458Y-58474072D01*
X102850496Y-58664000D01*
X102851186Y-58670565D01*
X102865552Y-58807247D01*
X102870458Y-58853928D01*
X102872498Y-58860207D01*
X102872499Y-58860211D01*
X102885872Y-58901366D01*
X102899989Y-58944814D01*
X102902017Y-59015779D01*
X102869251Y-59072844D01*
X102788500Y-59153595D01*
X102726188Y-59187621D01*
X102699405Y-59190500D01*
X99922767Y-59190500D01*
X99911584Y-59189973D01*
X99904091Y-59188298D01*
X99896165Y-59188547D01*
X99896164Y-59188547D01*
X99836001Y-59190438D01*
X99832043Y-59190500D01*
X99804144Y-59190500D01*
X99800154Y-59191004D01*
X99788320Y-59191936D01*
X99744111Y-59193326D01*
X99736497Y-59195538D01*
X99736492Y-59195539D01*
X99724659Y-59198977D01*
X99705296Y-59202988D01*
X99685203Y-59205526D01*
X99677836Y-59208443D01*
X99677831Y-59208444D01*
X99644092Y-59221802D01*
X99632865Y-59225646D01*
X99590407Y-59237982D01*
X99583581Y-59242019D01*
X99572972Y-59248293D01*
X99555224Y-59256988D01*
X99536383Y-59264448D01*
X99529967Y-59269110D01*
X99529966Y-59269110D01*
X99500613Y-59290436D01*
X99490693Y-59296952D01*
X99459465Y-59315420D01*
X99459462Y-59315422D01*
X99452638Y-59319458D01*
X99438317Y-59333779D01*
X99423284Y-59346619D01*
X99406893Y-59358528D01*
X99401842Y-59364634D01*
X99378702Y-59392605D01*
X99370712Y-59401384D01*
X96433500Y-62338595D01*
X96371188Y-62372621D01*
X96344405Y-62375500D01*
X96288513Y-62375500D01*
X96282061Y-62376872D01*
X96282056Y-62376872D01*
X96195113Y-62395353D01*
X96101712Y-62415206D01*
X96095682Y-62417891D01*
X96095681Y-62417891D01*
X95933278Y-62490197D01*
X95933276Y-62490198D01*
X95927248Y-62492882D01*
X95772747Y-62605134D01*
X95768326Y-62610044D01*
X95768325Y-62610045D01*
X95725235Y-62657902D01*
X95644960Y-62747056D01*
X95549473Y-62912444D01*
X95490458Y-63094072D01*
X95489768Y-63100633D01*
X95489768Y-63100635D01*
X95487395Y-63123213D01*
X95470496Y-63284000D01*
X95471186Y-63290565D01*
X95489054Y-63460566D01*
X95490458Y-63473928D01*
X95549473Y-63655556D01*
X95552776Y-63661278D01*
X95552777Y-63661279D01*
X95556714Y-63668098D01*
X95644960Y-63820944D01*
X95649378Y-63825851D01*
X95649379Y-63825852D01*
X95760381Y-63949132D01*
X95772747Y-63962866D01*
X95927248Y-64075118D01*
X95933276Y-64077802D01*
X95933278Y-64077803D01*
X96018123Y-64115578D01*
X96101712Y-64152794D01*
X96195112Y-64172647D01*
X96282056Y-64191128D01*
X96282061Y-64191128D01*
X96288513Y-64192500D01*
X96479487Y-64192500D01*
X96485939Y-64191128D01*
X96485944Y-64191128D01*
X96572888Y-64172647D01*
X96666288Y-64152794D01*
X96749877Y-64115578D01*
X96834722Y-64077803D01*
X96834724Y-64077802D01*
X96840752Y-64075118D01*
X96995253Y-63962866D01*
X97007619Y-63949132D01*
X97118621Y-63825852D01*
X97118622Y-63825851D01*
X97123040Y-63820944D01*
X97211286Y-63668098D01*
X97215223Y-63661279D01*
X97215224Y-63661278D01*
X97218527Y-63655556D01*
X97277542Y-63473928D01*
X97278947Y-63460566D01*
X97294907Y-63308707D01*
X97321920Y-63243050D01*
X97331122Y-63232782D01*
X100069500Y-60494405D01*
X100131812Y-60460379D01*
X100158595Y-60457500D01*
X101170609Y-60457500D01*
X101238730Y-60477502D01*
X101285223Y-60531158D01*
X101295327Y-60601432D01*
X101284804Y-60636750D01*
X101218060Y-60779884D01*
X101161065Y-60992589D01*
X101141873Y-61211960D01*
X101161065Y-61431331D01*
X101162488Y-61436641D01*
X101162489Y-61436645D01*
X101169464Y-61462677D01*
X101167774Y-61533654D01*
X101136852Y-61584383D01*
X99341747Y-63379488D01*
X99333461Y-63387028D01*
X99326982Y-63391140D01*
X99321557Y-63396917D01*
X99280357Y-63440791D01*
X99277602Y-63443633D01*
X99257865Y-63463370D01*
X99255385Y-63466567D01*
X99247682Y-63475587D01*
X99217414Y-63507819D01*
X99213595Y-63514765D01*
X99213593Y-63514768D01*
X99207652Y-63525574D01*
X99196801Y-63542093D01*
X99184386Y-63558099D01*
X99181241Y-63565368D01*
X99181238Y-63565372D01*
X99166826Y-63598677D01*
X99161609Y-63609327D01*
X99140305Y-63648080D01*
X99138334Y-63655755D01*
X99138334Y-63655756D01*
X99135267Y-63667702D01*
X99128863Y-63686406D01*
X99126921Y-63690895D01*
X99120819Y-63704995D01*
X99119580Y-63712818D01*
X99119577Y-63712828D01*
X99113901Y-63748664D01*
X99111495Y-63760284D01*
X99100500Y-63803110D01*
X99100500Y-63823364D01*
X99098949Y-63843074D01*
X99095780Y-63863083D01*
X99096526Y-63870975D01*
X99099941Y-63907101D01*
X99100500Y-63918959D01*
X99100500Y-63949812D01*
X99080498Y-64017933D01*
X99026842Y-64064426D01*
X98956568Y-64074530D01*
X98921252Y-64064007D01*
X98837256Y-64024840D01*
X98624551Y-63967845D01*
X98405180Y-63948653D01*
X98185809Y-63967845D01*
X97973104Y-64024840D01*
X97889110Y-64064007D01*
X97778514Y-64115578D01*
X97778509Y-64115581D01*
X97773527Y-64117904D01*
X97769020Y-64121060D01*
X97769018Y-64121061D01*
X97597653Y-64241052D01*
X97597650Y-64241054D01*
X97593142Y-64244211D01*
X97437431Y-64399922D01*
X97434274Y-64404430D01*
X97434272Y-64404433D01*
X97314743Y-64575138D01*
X97311124Y-64580307D01*
X97308801Y-64585289D01*
X97308798Y-64585294D01*
X97279310Y-64648533D01*
X97218060Y-64779884D01*
X97161065Y-64992589D01*
X97141873Y-65211960D01*
X97161065Y-65431331D01*
X97218060Y-65644036D01*
X97255386Y-65724083D01*
X97308798Y-65838626D01*
X97308801Y-65838631D01*
X97311124Y-65843613D01*
X97314280Y-65848120D01*
X97314281Y-65848122D01*
X97401419Y-65972567D01*
X97437431Y-66023998D01*
X97593142Y-66179709D01*
X97597651Y-66182866D01*
X97597653Y-66182868D01*
X97662207Y-66228069D01*
X97773526Y-66306016D01*
X97973104Y-66399080D01*
X98185809Y-66456075D01*
X98405180Y-66475267D01*
X98624551Y-66456075D01*
X98837256Y-66399080D01*
X98921251Y-66359913D01*
X98991442Y-66349252D01*
X99056254Y-66378232D01*
X99095111Y-66437652D01*
X99100500Y-66474108D01*
X99100500Y-68799405D01*
X99080498Y-68867526D01*
X99063595Y-68888500D01*
X98450031Y-69502064D01*
X98387719Y-69536090D01*
X98360936Y-69538969D01*
X95212067Y-69538969D01*
X95200884Y-69538442D01*
X95193391Y-69536767D01*
X95185465Y-69537016D01*
X95185464Y-69537016D01*
X95125301Y-69538907D01*
X95121343Y-69538969D01*
X95093443Y-69538969D01*
X95089453Y-69539473D01*
X95077619Y-69540405D01*
X95033410Y-69541795D01*
X95025796Y-69544007D01*
X95025791Y-69544008D01*
X95013958Y-69547446D01*
X94994595Y-69551457D01*
X94974502Y-69553995D01*
X94967135Y-69556912D01*
X94967130Y-69556913D01*
X94933391Y-69570271D01*
X94922164Y-69574115D01*
X94879706Y-69586451D01*
X94872880Y-69590488D01*
X94862271Y-69596762D01*
X94844523Y-69605457D01*
X94825682Y-69612917D01*
X94819266Y-69617579D01*
X94819265Y-69617579D01*
X94789912Y-69638905D01*
X94779992Y-69645421D01*
X94748764Y-69663889D01*
X94748761Y-69663891D01*
X94741937Y-69667927D01*
X94727616Y-69682248D01*
X94712583Y-69695088D01*
X94696192Y-69706997D01*
X94682941Y-69723015D01*
X94668001Y-69741074D01*
X94660011Y-69749853D01*
X89407747Y-75002116D01*
X89399461Y-75009656D01*
X89392982Y-75013768D01*
X89387557Y-75019545D01*
X89346357Y-75063419D01*
X89343602Y-75066261D01*
X89323865Y-75085998D01*
X89321385Y-75089195D01*
X89313682Y-75098215D01*
X89283414Y-75130447D01*
X89279595Y-75137393D01*
X89279593Y-75137396D01*
X89273652Y-75148202D01*
X89262801Y-75164721D01*
X89250386Y-75180727D01*
X89247241Y-75187996D01*
X89247238Y-75188000D01*
X89232826Y-75221305D01*
X89227609Y-75231955D01*
X89206305Y-75270708D01*
X89204334Y-75278383D01*
X89204334Y-75278384D01*
X89201267Y-75290330D01*
X89194863Y-75309034D01*
X89192496Y-75314505D01*
X89186819Y-75327623D01*
X89185580Y-75335446D01*
X89185577Y-75335456D01*
X89179901Y-75371292D01*
X89177495Y-75382912D01*
X89174242Y-75395583D01*
X89166500Y-75425738D01*
X89166500Y-75445992D01*
X89164949Y-75465702D01*
X89161780Y-75485711D01*
X89162526Y-75493603D01*
X89165941Y-75529729D01*
X89166500Y-75541587D01*
X89166500Y-76919361D01*
X89146498Y-76987482D01*
X89092842Y-77033975D01*
X89026893Y-77044624D01*
X89001533Y-77041869D01*
X89001529Y-77041869D01*
X88998134Y-77041500D01*
X88601866Y-77041500D01*
X88598471Y-77041869D01*
X88598467Y-77041869D01*
X88573107Y-77044624D01*
X88563606Y-77045656D01*
X88536394Y-77045656D01*
X88526893Y-77044624D01*
X88501533Y-77041869D01*
X88501529Y-77041869D01*
X88498134Y-77041500D01*
X88101866Y-77041500D01*
X88098471Y-77041869D01*
X88098467Y-77041869D01*
X88073107Y-77044624D01*
X88003225Y-77032096D01*
X87951209Y-76983774D01*
X87933500Y-76919361D01*
X87933500Y-69293732D01*
X87953502Y-69225611D01*
X87970405Y-69204637D01*
X102430474Y-54744568D01*
X102492786Y-54710542D01*
X102563601Y-54715607D01*
G37*
G04 #@! TD.AperFunction*
G04 #@! TA.AperFunction,NonConductor*
G36*
X108585161Y-66171066D02*
G01*
X109071745Y-66657650D01*
X109105770Y-66719962D01*
X109108649Y-66746745D01*
X109108649Y-75473239D01*
X109088647Y-75541360D01*
X109071744Y-75562335D01*
X108946131Y-75687947D01*
X108883819Y-75721972D01*
X108813003Y-75716906D01*
X108805787Y-75713958D01*
X108785032Y-75704717D01*
X108696288Y-75665206D01*
X108602887Y-75645353D01*
X108515944Y-75626872D01*
X108515939Y-75626872D01*
X108509487Y-75625500D01*
X108318513Y-75625500D01*
X108312061Y-75626872D01*
X108312056Y-75626872D01*
X108225113Y-75645353D01*
X108131712Y-75665206D01*
X108125682Y-75667891D01*
X108125681Y-75667891D01*
X107963278Y-75740197D01*
X107963276Y-75740198D01*
X107957248Y-75742882D01*
X107951907Y-75746762D01*
X107951906Y-75746763D01*
X107931168Y-75761830D01*
X107802747Y-75855134D01*
X107674960Y-75997056D01*
X107579473Y-76162444D01*
X107555698Y-76235616D01*
X107515625Y-76294222D01*
X107450228Y-76321859D01*
X107435865Y-76322680D01*
X103040587Y-76322680D01*
X103029404Y-76322153D01*
X103021911Y-76320478D01*
X103013985Y-76320727D01*
X103013984Y-76320727D01*
X102953834Y-76322618D01*
X102949875Y-76322680D01*
X102921964Y-76322680D01*
X102918030Y-76323177D01*
X102918029Y-76323177D01*
X102917964Y-76323185D01*
X102906127Y-76324118D01*
X102874310Y-76325118D01*
X102869849Y-76325258D01*
X102861930Y-76325507D01*
X102844274Y-76330636D01*
X102842478Y-76331158D01*
X102823126Y-76335166D01*
X102816055Y-76336060D01*
X102803023Y-76337706D01*
X102795654Y-76340623D01*
X102795652Y-76340624D01*
X102761917Y-76353980D01*
X102750689Y-76357825D01*
X102708227Y-76370162D01*
X102701405Y-76374196D01*
X102701399Y-76374199D01*
X102690788Y-76380474D01*
X102673038Y-76389170D01*
X102661576Y-76393708D01*
X102661571Y-76393711D01*
X102654203Y-76396628D01*
X102647788Y-76401289D01*
X102618445Y-76422607D01*
X102608527Y-76429123D01*
X102589839Y-76440175D01*
X102570457Y-76451638D01*
X102556133Y-76465962D01*
X102541101Y-76478801D01*
X102524713Y-76490708D01*
X102496532Y-76524773D01*
X102488542Y-76533553D01*
X102392865Y-76629230D01*
X102392862Y-76629234D01*
X101267509Y-77754586D01*
X101205197Y-77788612D01*
X101178414Y-77791491D01*
X92889586Y-77791491D01*
X92821465Y-77771489D01*
X92800491Y-77754586D01*
X92703652Y-77657747D01*
X92696112Y-77649461D01*
X92692000Y-77642982D01*
X92642348Y-77596356D01*
X92639507Y-77593602D01*
X92619770Y-77573865D01*
X92616573Y-77571385D01*
X92607551Y-77563680D01*
X92596239Y-77553057D01*
X92575321Y-77533414D01*
X92568375Y-77529595D01*
X92568372Y-77529593D01*
X92557566Y-77523652D01*
X92541047Y-77512801D01*
X92540583Y-77512441D01*
X92525041Y-77500386D01*
X92513857Y-77495546D01*
X92511278Y-77493400D01*
X92510943Y-77493202D01*
X92510975Y-77493148D01*
X92459284Y-77450135D01*
X92445918Y-77424140D01*
X92403767Y-77311703D01*
X92400615Y-77303295D01*
X92313261Y-77186739D01*
X92196705Y-77099385D01*
X92060316Y-77048255D01*
X92046963Y-77046804D01*
X92045892Y-77046688D01*
X91980330Y-77019446D01*
X91939904Y-76961083D01*
X91933500Y-76921425D01*
X91933500Y-76229592D01*
X91953502Y-76161471D01*
X91970405Y-76140497D01*
X92376405Y-75734497D01*
X92438717Y-75700471D01*
X92509532Y-75705536D01*
X92566368Y-75748083D01*
X92591179Y-75814603D01*
X92591500Y-75823592D01*
X92591500Y-76048134D01*
X92598255Y-76110316D01*
X92649385Y-76246705D01*
X92736739Y-76363261D01*
X92853295Y-76450615D01*
X92989684Y-76501745D01*
X93051866Y-76508500D01*
X95148134Y-76508500D01*
X95210316Y-76501745D01*
X95346705Y-76450615D01*
X95463261Y-76363261D01*
X95550615Y-76246705D01*
X95601745Y-76110316D01*
X95608500Y-76048134D01*
X95608500Y-74651866D01*
X95601745Y-74589684D01*
X95550615Y-74453295D01*
X95463261Y-74336739D01*
X95346705Y-74249385D01*
X95210316Y-74198255D01*
X95148134Y-74191500D01*
X94223592Y-74191500D01*
X94155471Y-74171498D01*
X94108978Y-74117842D01*
X94098874Y-74047568D01*
X94128368Y-73982988D01*
X94134497Y-73976405D01*
X95917998Y-72192904D01*
X95980310Y-72158878D01*
X96007093Y-72155999D01*
X105770324Y-72155999D01*
X105781507Y-72156526D01*
X105789000Y-72158201D01*
X105796926Y-72157952D01*
X105796927Y-72157952D01*
X105857077Y-72156061D01*
X105861036Y-72155999D01*
X105888947Y-72155999D01*
X105892882Y-72155502D01*
X105892947Y-72155494D01*
X105904784Y-72154561D01*
X105937042Y-72153547D01*
X105941061Y-72153421D01*
X105948980Y-72153172D01*
X105968434Y-72147520D01*
X105987791Y-72143512D01*
X106000021Y-72141967D01*
X106000022Y-72141967D01*
X106007888Y-72140973D01*
X106015259Y-72138054D01*
X106015261Y-72138054D01*
X106049003Y-72124695D01*
X106060233Y-72120850D01*
X106095074Y-72110728D01*
X106095075Y-72110728D01*
X106102684Y-72108517D01*
X106109503Y-72104484D01*
X106109508Y-72104482D01*
X106120119Y-72098206D01*
X106137867Y-72089511D01*
X106156708Y-72082051D01*
X106192478Y-72056063D01*
X106202398Y-72049547D01*
X106233626Y-72031079D01*
X106233629Y-72031077D01*
X106240453Y-72027041D01*
X106254774Y-72012720D01*
X106269808Y-71999879D01*
X106279785Y-71992630D01*
X106286198Y-71987971D01*
X106314389Y-71953894D01*
X106322379Y-71945115D01*
X107486247Y-70781247D01*
X107494537Y-70773703D01*
X107501018Y-70769590D01*
X107547659Y-70719922D01*
X107550413Y-70717081D01*
X107570134Y-70697360D01*
X107572612Y-70694165D01*
X107580318Y-70685143D01*
X107605162Y-70658687D01*
X107610586Y-70652911D01*
X107614403Y-70645968D01*
X107619066Y-70639550D01*
X107619343Y-70639751D01*
X107634980Y-70618924D01*
X108226248Y-70027657D01*
X108234527Y-70020123D01*
X108241008Y-70016010D01*
X108287634Y-69966358D01*
X108290388Y-69963517D01*
X108310125Y-69943780D01*
X108312605Y-69940583D01*
X108320310Y-69931561D01*
X108345149Y-69905110D01*
X108350576Y-69899331D01*
X108354395Y-69892385D01*
X108354397Y-69892382D01*
X108360338Y-69881576D01*
X108371189Y-69865057D01*
X108371549Y-69864593D01*
X108383604Y-69849051D01*
X108386749Y-69841782D01*
X108386752Y-69841778D01*
X108401164Y-69808473D01*
X108406381Y-69797823D01*
X108427685Y-69759070D01*
X108432723Y-69739447D01*
X108439127Y-69720744D01*
X108444023Y-69709430D01*
X108444023Y-69709429D01*
X108447171Y-69702155D01*
X108448410Y-69694332D01*
X108448413Y-69694322D01*
X108454089Y-69658486D01*
X108456495Y-69646866D01*
X108465518Y-69611721D01*
X108465518Y-69611720D01*
X108467490Y-69604040D01*
X108467490Y-69583786D01*
X108469041Y-69564075D01*
X108470970Y-69551896D01*
X108472210Y-69544067D01*
X108468049Y-69500048D01*
X108467490Y-69488191D01*
X108467490Y-66719533D01*
X108468017Y-66708349D01*
X108469691Y-66700861D01*
X108467552Y-66632802D01*
X108467490Y-66628845D01*
X108467490Y-66600914D01*
X108466984Y-66596908D01*
X108466051Y-66585062D01*
X108465054Y-66553310D01*
X108464663Y-66540880D01*
X108459012Y-66521428D01*
X108455004Y-66502076D01*
X108453458Y-66489838D01*
X108453457Y-66489836D01*
X108452464Y-66481973D01*
X108436184Y-66440856D01*
X108432349Y-66429655D01*
X108420008Y-66387176D01*
X108415975Y-66380357D01*
X108415973Y-66380352D01*
X108409697Y-66369741D01*
X108401000Y-66351991D01*
X108393542Y-66333153D01*
X108388883Y-66326741D01*
X108385651Y-66320861D01*
X108370362Y-66251530D01*
X108394983Y-66184939D01*
X108451698Y-66142231D01*
X108522499Y-66136965D01*
X108585161Y-66171066D01*
G37*
G04 #@! TD.AperFunction*
G04 #@! TA.AperFunction,NonConductor*
G36*
X108796551Y-79409722D02*
G01*
X108843044Y-79463378D01*
X108853148Y-79533652D01*
X108849507Y-79550598D01*
X108765590Y-79841876D01*
X108708987Y-80175011D01*
X108708789Y-80178540D01*
X108691657Y-80483580D01*
X108690919Y-80490179D01*
X108690946Y-80490181D01*
X108690510Y-80495039D01*
X108689703Y-80499836D01*
X108689644Y-80504699D01*
X108689613Y-80507251D01*
X108689550Y-80512388D01*
X108691347Y-80524938D01*
X108693507Y-80540021D01*
X108694779Y-80557882D01*
X108694780Y-80826230D01*
X108694780Y-80977888D01*
X108674778Y-81046008D01*
X108621123Y-81092502D01*
X108568780Y-81103888D01*
X102366151Y-81103888D01*
X102298030Y-81083886D01*
X102251537Y-81030230D01*
X102241433Y-80959956D01*
X102270927Y-80895376D01*
X102330653Y-80856992D01*
X102336037Y-80855780D01*
X102338499Y-80855703D01*
X102357953Y-80850051D01*
X102377310Y-80846043D01*
X102389540Y-80844498D01*
X102389541Y-80844498D01*
X102397407Y-80843504D01*
X102404778Y-80840585D01*
X102404780Y-80840585D01*
X102438522Y-80827226D01*
X102449752Y-80823381D01*
X102484593Y-80813259D01*
X102484594Y-80813259D01*
X102492203Y-80811048D01*
X102499022Y-80807015D01*
X102499027Y-80807013D01*
X102509638Y-80800737D01*
X102527386Y-80792042D01*
X102546227Y-80784582D01*
X102555572Y-80777793D01*
X102581997Y-80758594D01*
X102591917Y-80752078D01*
X102623145Y-80733610D01*
X102623148Y-80733608D01*
X102629972Y-80729572D01*
X102644293Y-80715251D01*
X102659327Y-80702410D01*
X102661039Y-80701166D01*
X102675717Y-80690502D01*
X102703908Y-80656425D01*
X102711898Y-80647646D01*
X103932920Y-79426625D01*
X103995232Y-79392599D01*
X104022015Y-79389720D01*
X108728430Y-79389720D01*
X108796551Y-79409722D01*
G37*
G04 #@! TD.AperFunction*
G04 #@! TA.AperFunction,NonConductor*
G36*
X111165772Y-27820889D02*
G01*
X111233893Y-27840891D01*
X111254867Y-27857794D01*
X112893457Y-29496385D01*
X112901080Y-29505925D01*
X112901448Y-29505611D01*
X112907266Y-29512447D01*
X112912056Y-29520039D01*
X112918784Y-29525981D01*
X112952405Y-29555674D01*
X112958092Y-29561020D01*
X112969535Y-29572463D01*
X112977060Y-29578103D01*
X112977910Y-29578740D01*
X112985739Y-29585114D01*
X113021231Y-29616459D01*
X113029354Y-29620273D01*
X113031842Y-29621907D01*
X113046803Y-29630895D01*
X113049389Y-29632311D01*
X113056575Y-29637697D01*
X113100930Y-29654325D01*
X113110228Y-29658243D01*
X113153080Y-29678362D01*
X113161946Y-29679743D01*
X113164747Y-29680599D01*
X113181684Y-29685043D01*
X113184564Y-29685676D01*
X113192964Y-29688825D01*
X113201909Y-29689490D01*
X113201910Y-29689490D01*
X113240169Y-29692333D01*
X113250217Y-29693487D01*
X113254868Y-29694211D01*
X113263666Y-29695581D01*
X113279203Y-29695581D01*
X113288541Y-29695928D01*
X113329270Y-29698955D01*
X113329271Y-29698955D01*
X113338221Y-29699620D01*
X113346997Y-29697747D01*
X113355252Y-29697184D01*
X113370441Y-29695581D01*
X124961811Y-29695581D01*
X137232207Y-29695580D01*
X137244337Y-29696935D01*
X137244376Y-29696453D01*
X137253323Y-29697173D01*
X137262079Y-29699154D01*
X137315787Y-29695822D01*
X137323589Y-29695580D01*
X137339792Y-29695580D01*
X137348708Y-29694303D01*
X137350157Y-29694096D01*
X137360207Y-29693067D01*
X137398495Y-29690691D01*
X137407456Y-29690135D01*
X137415902Y-29687086D01*
X137418793Y-29686487D01*
X137435759Y-29682258D01*
X137438584Y-29681432D01*
X137447466Y-29680160D01*
X137490577Y-29660558D01*
X137499928Y-29656752D01*
X137504358Y-29655153D01*
X137544460Y-29640676D01*
X137551708Y-29635381D01*
X137554306Y-29634000D01*
X137569424Y-29625165D01*
X137571893Y-29623586D01*
X137580061Y-29619872D01*
X137615932Y-29588964D01*
X137623848Y-29582679D01*
X137630894Y-29577532D01*
X137630899Y-29577527D01*
X137634831Y-29574655D01*
X137645806Y-29563680D01*
X137652654Y-29557322D01*
X137683602Y-29530656D01*
X137683603Y-29530655D01*
X137690406Y-29524793D01*
X137695290Y-29517258D01*
X137700737Y-29511014D01*
X137710337Y-29499149D01*
X139351693Y-27857793D01*
X139414005Y-27823767D01*
X139440788Y-27820888D01*
X148493978Y-27820888D01*
X148562099Y-27840890D01*
X148593235Y-27869273D01*
X149451412Y-28966734D01*
X149875098Y-29508555D01*
X149922469Y-29569135D01*
X149928661Y-29579203D01*
X149929138Y-29578889D01*
X149934066Y-29586389D01*
X149937883Y-29594514D01*
X149943825Y-29601240D01*
X149943826Y-29601241D01*
X149973947Y-29635334D01*
X149978773Y-29641138D01*
X149989131Y-29654384D01*
X149992364Y-29657487D01*
X149992372Y-29657496D01*
X149996225Y-29661194D01*
X150003400Y-29668671D01*
X150028381Y-29696947D01*
X150028383Y-29696949D01*
X150034323Y-29703672D01*
X150041913Y-29708459D01*
X150042897Y-29709296D01*
X150060070Y-29722729D01*
X150061127Y-29723488D01*
X150067605Y-29729706D01*
X150109048Y-29751303D01*
X150118002Y-29756448D01*
X150157524Y-29781375D01*
X150166160Y-29783841D01*
X150167327Y-29784363D01*
X150187596Y-29792442D01*
X150188810Y-29792869D01*
X150196775Y-29797020D01*
X150219481Y-29801526D01*
X150242589Y-29806113D01*
X150252654Y-29808544D01*
X150297582Y-29821376D01*
X150306564Y-29821319D01*
X150307841Y-29821494D01*
X150329570Y-29823560D01*
X150330840Y-29823628D01*
X150339645Y-29825376D01*
X150386177Y-29821244D01*
X150396505Y-29820754D01*
X150443236Y-29820460D01*
X150451839Y-29817886D01*
X150453126Y-29817693D01*
X150474544Y-29813581D01*
X150475792Y-29813288D01*
X150484732Y-29812494D01*
X150528245Y-29795465D01*
X150538021Y-29792095D01*
X150582779Y-29778701D01*
X150590310Y-29773818D01*
X150591488Y-29773273D01*
X150610878Y-29763322D01*
X150612012Y-29762680D01*
X150620372Y-29759408D01*
X150657362Y-29730845D01*
X150665778Y-29724883D01*
X150676684Y-29717811D01*
X150688712Y-29707053D01*
X150695702Y-29701241D01*
X150728554Y-29675873D01*
X150735660Y-29670386D01*
X150740940Y-29663125D01*
X150747194Y-29656689D01*
X150747233Y-29656727D01*
X150756742Y-29646205D01*
X150762401Y-29641144D01*
X152710478Y-27898731D01*
X152761637Y-27852973D01*
X152825746Y-27822468D01*
X152845637Y-27820888D01*
X170940461Y-27820888D01*
X171008582Y-27840890D01*
X171029557Y-27857793D01*
X171793462Y-28621699D01*
X171801079Y-28631233D01*
X171801448Y-28630919D01*
X171807263Y-28637752D01*
X171812055Y-28645346D01*
X171849687Y-28678581D01*
X171852395Y-28680973D01*
X171858082Y-28686319D01*
X171869534Y-28697771D01*
X171873125Y-28700462D01*
X171873127Y-28700464D01*
X171877909Y-28704048D01*
X171885752Y-28710433D01*
X171921230Y-28741766D01*
X171929357Y-28745582D01*
X171931813Y-28747195D01*
X171946816Y-28756211D01*
X171949394Y-28757622D01*
X171956575Y-28763004D01*
X171989119Y-28775204D01*
X172000912Y-28779625D01*
X172010227Y-28783550D01*
X172053079Y-28803669D01*
X172061954Y-28805051D01*
X172064781Y-28805915D01*
X172081658Y-28810343D01*
X172084551Y-28810979D01*
X172092964Y-28814133D01*
X172140204Y-28817644D01*
X172150223Y-28818795D01*
X172158859Y-28820140D01*
X172158863Y-28820140D01*
X172163665Y-28820888D01*
X172179189Y-28820888D01*
X172188527Y-28821235D01*
X172229269Y-28824263D01*
X172229270Y-28824263D01*
X172238220Y-28824928D01*
X172246997Y-28823054D01*
X172255248Y-28822492D01*
X172270445Y-28820888D01*
X175749228Y-28820888D01*
X175817349Y-28840890D01*
X175863842Y-28894546D01*
X175868488Y-28906231D01*
X176764849Y-31535556D01*
X178676539Y-37143177D01*
X178699263Y-37209835D01*
X178701994Y-37222147D01*
X178702375Y-37222050D01*
X178704599Y-37230748D01*
X178705568Y-37239670D01*
X178725896Y-37288757D01*
X178728738Y-37296296D01*
X178733760Y-37311027D01*
X178735791Y-37315017D01*
X178738811Y-37320952D01*
X178742932Y-37329897D01*
X178761297Y-37374245D01*
X178766920Y-37381241D01*
X178769379Y-37385391D01*
X178776254Y-37396023D01*
X178779025Y-37399963D01*
X178783099Y-37407966D01*
X178789251Y-37414500D01*
X178789253Y-37414503D01*
X178816014Y-37442926D01*
X178822472Y-37450346D01*
X178852556Y-37487769D01*
X178859922Y-37492908D01*
X178863451Y-37496206D01*
X178873037Y-37504484D01*
X178876796Y-37507482D01*
X178882947Y-37514015D01*
X178890685Y-37518560D01*
X178890687Y-37518561D01*
X178924341Y-37538326D01*
X178932628Y-37543639D01*
X178972011Y-37571117D01*
X178980517Y-37573981D01*
X178984818Y-37576149D01*
X178996325Y-37581397D01*
X179000805Y-37583232D01*
X179008546Y-37587778D01*
X179017252Y-37589969D01*
X179055096Y-37599493D01*
X179064543Y-37602267D01*
X179110057Y-37617588D01*
X179119021Y-37617949D01*
X179123774Y-37618826D01*
X179136286Y-37620632D01*
X179141095Y-37621135D01*
X179149800Y-37623326D01*
X179158768Y-37622985D01*
X179160522Y-37623169D01*
X179172960Y-37625103D01*
X179589712Y-37711426D01*
X179598034Y-37713447D01*
X180058759Y-37842061D01*
X180066925Y-37844643D01*
X180517842Y-38004253D01*
X180525813Y-38007383D01*
X180753507Y-38105854D01*
X180964859Y-38197258D01*
X180972581Y-38200914D01*
X181185158Y-38310549D01*
X181397727Y-38420181D01*
X181405200Y-38424363D01*
X181814450Y-38671990D01*
X181821622Y-38676670D01*
X182213101Y-38951520D01*
X182219939Y-38956676D01*
X182591871Y-39257504D01*
X182598312Y-39263086D01*
X182938691Y-39578964D01*
X182948942Y-39588477D01*
X182955017Y-39594512D01*
X183282726Y-39942959D01*
X183288378Y-39949393D01*
X183591667Y-40319303D01*
X183596868Y-40326106D01*
X183874317Y-40715746D01*
X183879045Y-40722887D01*
X184129395Y-41130489D01*
X184133626Y-41137934D01*
X184355708Y-41561592D01*
X184359420Y-41569300D01*
X184457821Y-41792736D01*
X184552214Y-42007073D01*
X184555397Y-42015023D01*
X184704359Y-42427118D01*
X184710286Y-42450078D01*
X184712594Y-42464526D01*
X184721390Y-42483070D01*
X184728694Y-42502438D01*
X184734330Y-42522159D01*
X184739119Y-42529749D01*
X184752852Y-42551515D01*
X184760133Y-42564751D01*
X184775017Y-42596130D01*
X184780985Y-42602834D01*
X184780986Y-42602835D01*
X184788659Y-42611454D01*
X184801109Y-42627998D01*
X184807179Y-42637618D01*
X184812055Y-42645346D01*
X184818782Y-42651287D01*
X184838079Y-42668330D01*
X184848781Y-42678990D01*
X184865897Y-42698217D01*
X184865901Y-42698221D01*
X184871868Y-42704923D01*
X184889266Y-42715804D01*
X184905852Y-42728184D01*
X184921230Y-42741766D01*
X184929353Y-42745580D01*
X184929355Y-42745581D01*
X184952657Y-42756521D01*
X184965922Y-42763750D01*
X184987749Y-42777402D01*
X184987754Y-42777404D01*
X184995361Y-42782162D01*
X185014506Y-42787552D01*
X185015110Y-42787722D01*
X185034511Y-42794952D01*
X185044952Y-42799854D01*
X185044956Y-42799855D01*
X185053079Y-42803669D01*
X185061946Y-42805050D01*
X185061947Y-42805050D01*
X185087387Y-42809011D01*
X185102144Y-42812225D01*
X185113619Y-42815456D01*
X185126925Y-42819202D01*
X185126927Y-42819202D01*
X185135568Y-42821635D01*
X185144543Y-42821545D01*
X185144545Y-42821545D01*
X185209288Y-42820894D01*
X185210554Y-42820888D01*
X188568779Y-42820888D01*
X188636900Y-42840890D01*
X188683393Y-42894546D01*
X188694779Y-42946888D01*
X188694779Y-46513912D01*
X188672319Y-46585714D01*
X175180125Y-66041849D01*
X175174688Y-66049689D01*
X175119433Y-66094268D01*
X175071148Y-66103887D01*
X161519898Y-66103887D01*
X161451777Y-66083885D01*
X161405284Y-66030229D01*
X161394010Y-65972567D01*
X161394218Y-65967658D01*
X161398367Y-65869461D01*
X161395258Y-65477449D01*
X161392208Y-65092913D01*
X161392207Y-65092895D01*
X161392195Y-65091331D01*
X161390777Y-65066941D01*
X161376593Y-64823077D01*
X161347012Y-64314490D01*
X161262931Y-63540892D01*
X161258758Y-63514768D01*
X161210056Y-63209943D01*
X161140165Y-62772483D01*
X161133251Y-62739817D01*
X161015359Y-62182868D01*
X160979021Y-62011197D01*
X160916925Y-61776599D01*
X160780316Y-61260499D01*
X160779906Y-61258949D01*
X160779424Y-61257440D01*
X160779418Y-61257418D01*
X160543810Y-60519164D01*
X160543809Y-60519161D01*
X160543321Y-60517632D01*
X160269860Y-59789111D01*
X159960212Y-59075219D01*
X159937613Y-59029538D01*
X159615856Y-58379167D01*
X159615156Y-58377752D01*
X159235561Y-57698465D01*
X159234729Y-57697137D01*
X159234720Y-57697122D01*
X158960112Y-57258875D01*
X158868323Y-57112388D01*
X175539651Y-57112388D01*
X175560133Y-57372637D01*
X175561287Y-57377444D01*
X175561288Y-57377450D01*
X175567572Y-57403623D01*
X175621075Y-57626477D01*
X175622968Y-57631048D01*
X175622969Y-57631050D01*
X175690397Y-57793834D01*
X175720976Y-57867659D01*
X175857376Y-58090244D01*
X176026916Y-58288751D01*
X176225423Y-58458291D01*
X176448008Y-58594691D01*
X176452578Y-58596584D01*
X176452582Y-58596586D01*
X176684617Y-58692698D01*
X176689190Y-58694592D01*
X176778210Y-58715964D01*
X176938217Y-58754379D01*
X176938223Y-58754380D01*
X176943030Y-58755534D01*
X177203279Y-58776016D01*
X177463528Y-58755534D01*
X177468335Y-58754380D01*
X177468341Y-58754379D01*
X177628348Y-58715964D01*
X177717368Y-58694592D01*
X177721941Y-58692698D01*
X177953976Y-58596586D01*
X177953980Y-58596584D01*
X177958550Y-58594691D01*
X178181135Y-58458291D01*
X178379642Y-58288751D01*
X178549182Y-58090244D01*
X178685582Y-57867659D01*
X178716162Y-57793834D01*
X178783589Y-57631050D01*
X178783590Y-57631048D01*
X178785483Y-57626477D01*
X178838986Y-57403623D01*
X178845270Y-57377450D01*
X178845271Y-57377444D01*
X178846425Y-57372637D01*
X178866907Y-57112388D01*
X178846425Y-56852139D01*
X178845271Y-56847332D01*
X178845270Y-56847326D01*
X178787137Y-56605188D01*
X178785483Y-56598299D01*
X178778656Y-56581816D01*
X178687477Y-56361691D01*
X178687475Y-56361687D01*
X178685582Y-56357117D01*
X178549182Y-56134532D01*
X178379642Y-55936025D01*
X178181135Y-55766485D01*
X177958550Y-55630085D01*
X177953980Y-55628192D01*
X177953976Y-55628190D01*
X177721941Y-55532078D01*
X177721939Y-55532077D01*
X177717368Y-55530184D01*
X177628348Y-55508812D01*
X177468341Y-55470397D01*
X177468335Y-55470396D01*
X177463528Y-55469242D01*
X177203279Y-55448760D01*
X176943030Y-55469242D01*
X176938223Y-55470396D01*
X176938217Y-55470397D01*
X176778210Y-55508812D01*
X176689190Y-55530184D01*
X176684619Y-55532077D01*
X176684617Y-55532078D01*
X176452582Y-55628190D01*
X176452578Y-55628192D01*
X176448008Y-55630085D01*
X176225423Y-55766485D01*
X176026916Y-55936025D01*
X175857376Y-56134532D01*
X175720976Y-56357117D01*
X175719083Y-56361687D01*
X175719081Y-56361691D01*
X175627902Y-56581816D01*
X175621075Y-56598299D01*
X175619421Y-56605188D01*
X175561288Y-56847326D01*
X175561287Y-56847332D01*
X175560133Y-56852139D01*
X175559745Y-56857073D01*
X175540180Y-57105670D01*
X175540178Y-57105670D01*
X175540179Y-57105678D01*
X175539651Y-57112388D01*
X158868323Y-57112388D01*
X158822380Y-57039067D01*
X158502855Y-56581816D01*
X158377553Y-56402504D01*
X158377546Y-56402495D01*
X158376654Y-56401218D01*
X158339146Y-56352897D01*
X157900458Y-55787750D01*
X157899504Y-55786521D01*
X157898485Y-55785336D01*
X157393161Y-55197722D01*
X157393148Y-55197708D01*
X157392131Y-55196525D01*
X157391061Y-55195400D01*
X157391050Y-55195388D01*
X156856894Y-54633850D01*
X156856884Y-54633840D01*
X156855811Y-54632712D01*
X156854671Y-54631628D01*
X156854661Y-54631618D01*
X156293050Y-54097601D01*
X156293046Y-54097597D01*
X156291894Y-54096502D01*
X156026225Y-53868128D01*
X155702992Y-53590270D01*
X155702983Y-53590263D01*
X155701798Y-53589244D01*
X155700587Y-53588305D01*
X155700567Y-53588288D01*
X155088241Y-53113170D01*
X155087009Y-53112214D01*
X154449073Y-52666612D01*
X153789595Y-52253560D01*
X153110234Y-51874096D01*
X152412700Y-51529176D01*
X152411253Y-51528549D01*
X152411245Y-51528545D01*
X151700191Y-51220294D01*
X151698747Y-51219668D01*
X150970173Y-50946349D01*
X150228810Y-50709908D01*
X149476523Y-50510939D01*
X149474994Y-50510616D01*
X149474987Y-50510614D01*
X149045065Y-50419699D01*
X148715206Y-50349944D01*
X147946773Y-50227327D01*
X147668630Y-50197151D01*
X147174721Y-50143566D01*
X147174703Y-50143564D01*
X147173159Y-50143397D01*
X147171605Y-50143307D01*
X147171594Y-50143306D01*
X146397868Y-50098455D01*
X146397853Y-50098455D01*
X146396309Y-50098365D01*
X146046173Y-50095656D01*
X145619751Y-50092357D01*
X145619744Y-50092357D01*
X145618178Y-50092345D01*
X145616626Y-50092411D01*
X145616619Y-50092411D01*
X145371219Y-50102829D01*
X144840724Y-50125350D01*
X144717990Y-50136747D01*
X144067494Y-50197151D01*
X144067480Y-50197153D01*
X144065904Y-50197299D01*
X143855256Y-50227577D01*
X143297257Y-50307782D01*
X143297245Y-50307784D01*
X143295666Y-50308011D01*
X143294086Y-50308320D01*
X143294084Y-50308320D01*
X143197459Y-50327196D01*
X142531948Y-50457206D01*
X141776673Y-50644510D01*
X141031739Y-50869450D01*
X140570076Y-51034536D01*
X140300499Y-51130934D01*
X140300492Y-51130937D01*
X140299023Y-51131462D01*
X140297582Y-51132060D01*
X140297570Y-51132065D01*
X140021987Y-51246502D01*
X139580367Y-51429886D01*
X138877579Y-51763971D01*
X138192428Y-52132877D01*
X138191104Y-52133678D01*
X138191097Y-52133682D01*
X137992949Y-52253560D01*
X137526637Y-52535675D01*
X137525333Y-52536556D01*
X137525316Y-52536567D01*
X137069562Y-52844532D01*
X136881882Y-52971352D01*
X136880635Y-52972289D01*
X136880621Y-52972299D01*
X136694422Y-53112214D01*
X136259784Y-53438812D01*
X136258601Y-53439797D01*
X136258589Y-53439807D01*
X136059508Y-53605654D01*
X135661910Y-53936878D01*
X135660762Y-53937936D01*
X135660760Y-53937938D01*
X135550297Y-54039766D01*
X135089763Y-54464298D01*
X134544783Y-55019744D01*
X134028341Y-55601819D01*
X133541737Y-56209058D01*
X133540808Y-56210344D01*
X133540797Y-56210359D01*
X133321908Y-56513496D01*
X133086194Y-56839934D01*
X132662859Y-57492859D01*
X132662064Y-57494232D01*
X132662063Y-57494233D01*
X132292156Y-58132774D01*
X132272797Y-58166191D01*
X132272068Y-58167609D01*
X131917707Y-58856839D01*
X131917696Y-58856862D01*
X131916990Y-58858235D01*
X131596333Y-59567250D01*
X131311631Y-60291452D01*
X131195515Y-60636750D01*
X131077640Y-60987279D01*
X131063603Y-61029020D01*
X131063181Y-61030519D01*
X131063181Y-61030520D01*
X130889184Y-61649021D01*
X130852872Y-61778097D01*
X130852528Y-61779605D01*
X130852524Y-61779622D01*
X130799396Y-62012747D01*
X130679968Y-62536798D01*
X130679699Y-62538329D01*
X130679696Y-62538344D01*
X130623162Y-62860151D01*
X130545325Y-63303215D01*
X130545134Y-63304753D01*
X130545131Y-63304771D01*
X130497108Y-63690895D01*
X130449284Y-64075419D01*
X130410134Y-64606585D01*
X130396752Y-64788155D01*
X130392085Y-64851468D01*
X130392048Y-64853053D01*
X130376401Y-65521432D01*
X130373873Y-65629409D01*
X130373915Y-65630977D01*
X130373915Y-65630997D01*
X130388602Y-66179709D01*
X130394693Y-66407285D01*
X130432250Y-66894563D01*
X130448506Y-67105467D01*
X130454492Y-67183137D01*
X130553121Y-67955016D01*
X130690332Y-68720977D01*
X130705194Y-68785195D01*
X130865033Y-69475875D01*
X130865778Y-69479095D01*
X130982486Y-69888679D01*
X131066313Y-70182868D01*
X131079019Y-70227461D01*
X131079524Y-70228947D01*
X131079528Y-70228959D01*
X131219135Y-70639550D01*
X131329518Y-70964193D01*
X131616645Y-71687437D01*
X131617308Y-71688890D01*
X131920984Y-72354406D01*
X131939677Y-72395373D01*
X132297802Y-73086221D01*
X132298586Y-73087565D01*
X132298591Y-73087573D01*
X132502235Y-73436405D01*
X132690118Y-73758241D01*
X133115639Y-74409744D01*
X133116559Y-74411009D01*
X133116572Y-74411028D01*
X133572367Y-75037815D01*
X133572378Y-75037829D01*
X133573294Y-75039089D01*
X133909610Y-75455910D01*
X133916839Y-75464870D01*
X133944048Y-75530446D01*
X133944778Y-75543991D01*
X133944778Y-80977888D01*
X133924776Y-81046009D01*
X133871120Y-81092502D01*
X133818778Y-81103888D01*
X114837779Y-81103888D01*
X114769658Y-81083886D01*
X114723165Y-81030230D01*
X114711779Y-80977888D01*
X114711779Y-80565636D01*
X114713525Y-80544732D01*
X114713889Y-80542566D01*
X114716855Y-80524938D01*
X114717008Y-80512386D01*
X114716320Y-80507580D01*
X114716153Y-80505012D01*
X114716085Y-80503897D01*
X114697811Y-80178534D01*
X114697613Y-80175008D01*
X114641009Y-79841874D01*
X114640031Y-79838478D01*
X114640030Y-79838474D01*
X114548444Y-79520577D01*
X114547463Y-79517172D01*
X114483124Y-79361845D01*
X114475535Y-79291256D01*
X114507314Y-79227769D01*
X114568372Y-79191541D01*
X114639323Y-79194075D01*
X114688628Y-79224532D01*
X115230343Y-79766247D01*
X115237887Y-79774537D01*
X115242000Y-79781018D01*
X115247777Y-79786443D01*
X115291667Y-79827658D01*
X115294509Y-79830413D01*
X115314230Y-79850134D01*
X115317425Y-79852612D01*
X115326447Y-79860318D01*
X115358679Y-79890586D01*
X115365628Y-79894406D01*
X115376432Y-79900346D01*
X115392956Y-79911199D01*
X115408959Y-79923613D01*
X115449543Y-79941176D01*
X115460173Y-79946383D01*
X115498940Y-79967695D01*
X115506617Y-79969666D01*
X115506622Y-79969668D01*
X115518558Y-79972732D01*
X115537266Y-79979137D01*
X115555855Y-79987181D01*
X115563680Y-79988420D01*
X115563682Y-79988421D01*
X115599519Y-79994097D01*
X115611140Y-79996504D01*
X115642959Y-80004673D01*
X115653970Y-80007500D01*
X115674231Y-80007500D01*
X115693940Y-80009051D01*
X115713943Y-80012219D01*
X115721835Y-80011473D01*
X115727062Y-80010979D01*
X115757954Y-80008059D01*
X115769811Y-80007500D01*
X119235233Y-80007500D01*
X119246416Y-80008027D01*
X119253909Y-80009702D01*
X119261835Y-80009453D01*
X119261836Y-80009453D01*
X119321986Y-80007562D01*
X119325945Y-80007500D01*
X119353856Y-80007500D01*
X119357791Y-80007003D01*
X119357856Y-80006995D01*
X119369693Y-80006062D01*
X119401951Y-80005048D01*
X119405970Y-80004922D01*
X119413889Y-80004673D01*
X119423569Y-80001861D01*
X119425815Y-80001778D01*
X119429328Y-80001222D01*
X119429395Y-80001647D01*
X119484921Y-79999611D01*
X119489159Y-80000512D01*
X119492057Y-80001128D01*
X119492059Y-80001128D01*
X119498513Y-80002500D01*
X119689487Y-80002500D01*
X119695939Y-80001128D01*
X119695944Y-80001128D01*
X119799396Y-79979138D01*
X119876288Y-79962794D01*
X119882319Y-79960109D01*
X120044722Y-79887803D01*
X120044724Y-79887802D01*
X120050752Y-79885118D01*
X120205253Y-79772866D01*
X120211213Y-79766247D01*
X120328621Y-79635852D01*
X120328622Y-79635851D01*
X120333040Y-79630944D01*
X120428527Y-79465556D01*
X120487542Y-79283928D01*
X120488640Y-79273487D01*
X120505262Y-79115329D01*
X120532275Y-79049672D01*
X120590497Y-79009042D01*
X120630572Y-79002499D01*
X124280232Y-79002499D01*
X124291415Y-79003026D01*
X124298908Y-79004701D01*
X124306834Y-79004452D01*
X124306835Y-79004452D01*
X124366985Y-79002561D01*
X124370944Y-79002499D01*
X124398855Y-79002499D01*
X124402790Y-79002002D01*
X124402855Y-79001994D01*
X124414692Y-79001061D01*
X124444064Y-79000138D01*
X124450970Y-78999921D01*
X124450971Y-78999921D01*
X124458888Y-78999672D01*
X124462719Y-78998559D01*
X124476168Y-78997500D01*
X124895800Y-78997500D01*
X124963921Y-79017502D01*
X124983147Y-79033843D01*
X124983420Y-79033540D01*
X124988332Y-79037963D01*
X124992747Y-79042866D01*
X125001150Y-79048971D01*
X125134748Y-79146036D01*
X125147248Y-79155118D01*
X125153276Y-79157802D01*
X125153278Y-79157803D01*
X125315681Y-79230109D01*
X125321712Y-79232794D01*
X125402335Y-79249931D01*
X125502056Y-79271128D01*
X125502061Y-79271128D01*
X125508513Y-79272500D01*
X125699487Y-79272500D01*
X125705939Y-79271128D01*
X125705944Y-79271128D01*
X125805665Y-79249931D01*
X125886288Y-79232794D01*
X125892319Y-79230109D01*
X126054722Y-79157803D01*
X126054724Y-79157802D01*
X126060752Y-79155118D01*
X126076793Y-79143464D01*
X126131264Y-79103888D01*
X126215253Y-79042866D01*
X126223650Y-79033540D01*
X126338621Y-78905852D01*
X126338622Y-78905851D01*
X126343040Y-78900944D01*
X126438527Y-78735556D01*
X126497542Y-78553928D01*
X126517504Y-78364000D01*
X126516814Y-78357435D01*
X126498232Y-78180635D01*
X126498232Y-78180633D01*
X126497542Y-78174072D01*
X126438527Y-77992444D01*
X126343040Y-77827056D01*
X126285191Y-77762808D01*
X126254473Y-77698801D01*
X126263238Y-77628347D01*
X126308701Y-77573816D01*
X126378827Y-77552498D01*
X128060235Y-77552498D01*
X128071418Y-77553025D01*
X128078911Y-77554700D01*
X128086837Y-77554451D01*
X128086838Y-77554451D01*
X128146988Y-77552560D01*
X128150947Y-77552498D01*
X128178858Y-77552498D01*
X128182793Y-77552001D01*
X128182858Y-77551993D01*
X128194695Y-77551060D01*
X128226953Y-77550046D01*
X128230972Y-77549920D01*
X128238891Y-77549671D01*
X128258345Y-77544019D01*
X128277702Y-77540011D01*
X128289932Y-77538466D01*
X128289933Y-77538466D01*
X128297799Y-77537472D01*
X128305170Y-77534553D01*
X128305172Y-77534553D01*
X128338914Y-77521194D01*
X128350144Y-77517349D01*
X128384985Y-77507227D01*
X128384986Y-77507227D01*
X128392595Y-77505016D01*
X128399414Y-77500983D01*
X128399419Y-77500981D01*
X128410030Y-77494705D01*
X128427778Y-77486010D01*
X128446619Y-77478550D01*
X128482389Y-77452562D01*
X128492309Y-77446046D01*
X128523537Y-77427578D01*
X128523540Y-77427576D01*
X128530364Y-77423540D01*
X128544685Y-77409219D01*
X128559719Y-77396378D01*
X128569695Y-77389130D01*
X128576109Y-77384470D01*
X128604290Y-77350405D01*
X128612280Y-77341624D01*
X129195258Y-76758647D01*
X129203537Y-76751113D01*
X129210018Y-76747000D01*
X129256644Y-76697348D01*
X129259398Y-76694507D01*
X129279135Y-76674770D01*
X129281615Y-76671573D01*
X129289320Y-76662551D01*
X129314159Y-76636100D01*
X129319586Y-76630321D01*
X129323405Y-76623375D01*
X129323407Y-76623372D01*
X129329348Y-76612566D01*
X129340199Y-76596047D01*
X129347758Y-76586301D01*
X129352614Y-76580041D01*
X129355759Y-76572772D01*
X129355762Y-76572768D01*
X129370174Y-76539463D01*
X129375391Y-76528813D01*
X129396695Y-76490060D01*
X129401733Y-76470437D01*
X129408137Y-76451734D01*
X129413033Y-76440420D01*
X129413033Y-76440419D01*
X129416181Y-76433145D01*
X129417420Y-76425322D01*
X129417423Y-76425312D01*
X129423099Y-76389476D01*
X129425505Y-76377856D01*
X129434528Y-76342711D01*
X129434528Y-76342710D01*
X129436500Y-76335030D01*
X129436500Y-76314776D01*
X129438051Y-76295065D01*
X129441220Y-76275057D01*
X129444673Y-76275604D01*
X129461759Y-76223247D01*
X129516778Y-76178376D01*
X129565677Y-76168500D01*
X129601134Y-76168500D01*
X129663316Y-76161745D01*
X129799705Y-76110615D01*
X129916261Y-76023261D01*
X130003615Y-75906705D01*
X130054745Y-75770316D01*
X130061500Y-75708134D01*
X130061500Y-74111866D01*
X130054745Y-74049684D01*
X130003615Y-73913295D01*
X129916261Y-73796739D01*
X129799705Y-73709385D01*
X129663316Y-73658255D01*
X129601134Y-73651500D01*
X129562500Y-73651500D01*
X129494379Y-73631498D01*
X129447886Y-73577842D01*
X129436500Y-73525500D01*
X129436500Y-53835357D01*
X129437027Y-53824174D01*
X129438702Y-53816681D01*
X129436562Y-53748590D01*
X129436500Y-53744633D01*
X129436500Y-53716734D01*
X129435996Y-53712743D01*
X129435063Y-53700901D01*
X129433923Y-53664626D01*
X129433674Y-53656701D01*
X129431462Y-53649087D01*
X129431461Y-53649082D01*
X129428023Y-53637249D01*
X129424012Y-53617885D01*
X129422467Y-53605654D01*
X129421474Y-53597793D01*
X129418557Y-53590426D01*
X129418556Y-53590421D01*
X129405198Y-53556682D01*
X129401354Y-53545455D01*
X129391230Y-53510612D01*
X129389018Y-53502997D01*
X129378707Y-53485562D01*
X129370012Y-53467814D01*
X129362552Y-53448973D01*
X129336564Y-53413203D01*
X129330048Y-53403283D01*
X129311580Y-53372055D01*
X129311578Y-53372052D01*
X129307542Y-53365228D01*
X129293221Y-53350907D01*
X129280380Y-53335873D01*
X129273131Y-53325896D01*
X129268472Y-53319483D01*
X129234395Y-53291292D01*
X129225616Y-53283302D01*
X127495830Y-51553515D01*
X127461804Y-51491203D01*
X127466557Y-51425520D01*
X127466045Y-51425398D01*
X127466794Y-51422248D01*
X127466943Y-51420190D01*
X127467202Y-51419501D01*
X127470645Y-51410316D01*
X127471499Y-51402460D01*
X127477031Y-51351531D01*
X127477400Y-51348134D01*
X127477400Y-50251866D01*
X127470645Y-50189684D01*
X127419515Y-50053295D01*
X127332161Y-49936739D01*
X127215605Y-49849385D01*
X127079216Y-49798255D01*
X127017034Y-49791500D01*
X126620766Y-49791500D01*
X126617371Y-49791869D01*
X126617367Y-49791869D01*
X126592007Y-49794624D01*
X126522125Y-49782096D01*
X126470109Y-49733774D01*
X126452400Y-49669361D01*
X126452400Y-48982509D01*
X126472402Y-48914388D01*
X126526058Y-48867895D01*
X126596332Y-48857791D01*
X126660912Y-48887285D01*
X126696382Y-48938279D01*
X126718285Y-48996705D01*
X126805639Y-49113261D01*
X126922195Y-49200615D01*
X127058584Y-49251745D01*
X127120766Y-49258500D01*
X129317034Y-49258500D01*
X129379216Y-49251745D01*
X129515605Y-49200615D01*
X129632161Y-49113261D01*
X129719515Y-48996705D01*
X129770645Y-48860316D01*
X129777400Y-48798134D01*
X129777400Y-47563500D01*
X129797402Y-47495379D01*
X129851058Y-47448886D01*
X129903400Y-47437500D01*
X144338671Y-47437500D01*
X144406792Y-47457502D01*
X144453285Y-47511158D01*
X144458504Y-47524563D01*
X144463890Y-47541139D01*
X144559377Y-47706527D01*
X144563795Y-47711434D01*
X144563796Y-47711435D01*
X144610789Y-47763626D01*
X144687164Y-47848449D01*
X144770047Y-47908667D01*
X144824824Y-47948465D01*
X144841665Y-47960701D01*
X144847693Y-47963385D01*
X144847695Y-47963386D01*
X145010098Y-48035692D01*
X145016129Y-48038377D01*
X145109529Y-48058230D01*
X145196473Y-48076711D01*
X145196478Y-48076711D01*
X145202930Y-48078083D01*
X145393904Y-48078083D01*
X145400356Y-48076711D01*
X145400361Y-48076711D01*
X145487304Y-48058230D01*
X145580705Y-48038377D01*
X145586736Y-48035692D01*
X145749139Y-47963386D01*
X145749141Y-47963385D01*
X145755169Y-47960701D01*
X145772011Y-47948465D01*
X145826787Y-47908667D01*
X145909670Y-47848449D01*
X145986045Y-47763626D01*
X146033038Y-47711435D01*
X146033039Y-47711434D01*
X146037457Y-47706527D01*
X146113394Y-47575001D01*
X146129640Y-47546862D01*
X146129641Y-47546860D01*
X146132944Y-47541139D01*
X146191959Y-47359511D01*
X146211921Y-47169583D01*
X146207410Y-47126660D01*
X146220183Y-47056821D01*
X146268685Y-47004975D01*
X146332720Y-46987490D01*
X148425243Y-46987490D01*
X148436426Y-46988017D01*
X148443919Y-46989692D01*
X148451845Y-46989443D01*
X148451846Y-46989443D01*
X148511996Y-46987552D01*
X148515955Y-46987490D01*
X148543866Y-46987490D01*
X148547801Y-46986993D01*
X148547866Y-46986985D01*
X148559703Y-46986052D01*
X148591961Y-46985038D01*
X148595980Y-46984912D01*
X148603899Y-46984663D01*
X148623353Y-46979011D01*
X148642710Y-46975003D01*
X148654940Y-46973458D01*
X148654941Y-46973458D01*
X148662807Y-46972464D01*
X148670178Y-46969545D01*
X148670180Y-46969545D01*
X148703922Y-46956186D01*
X148715152Y-46952341D01*
X148749993Y-46942219D01*
X148749994Y-46942219D01*
X148757603Y-46940008D01*
X148764422Y-46935975D01*
X148764427Y-46935973D01*
X148775038Y-46929697D01*
X148792786Y-46921002D01*
X148811627Y-46913542D01*
X148847397Y-46887554D01*
X148857317Y-46881038D01*
X148888545Y-46862570D01*
X148888548Y-46862568D01*
X148895372Y-46858532D01*
X148909693Y-46844211D01*
X148924727Y-46831370D01*
X148934704Y-46824121D01*
X148941117Y-46819462D01*
X148969308Y-46785385D01*
X148977298Y-46776606D01*
X149234499Y-46519405D01*
X149296811Y-46485379D01*
X149323594Y-46482500D01*
X149379487Y-46482500D01*
X149385939Y-46481128D01*
X149385944Y-46481128D01*
X149472887Y-46462647D01*
X149566288Y-46442794D01*
X149572319Y-46440109D01*
X149734722Y-46367803D01*
X149734724Y-46367802D01*
X149740752Y-46365118D01*
X149895253Y-46252866D01*
X150023040Y-46110944D01*
X150118527Y-45945556D01*
X150177542Y-45763928D01*
X150197504Y-45574000D01*
X150187408Y-45477938D01*
X150178232Y-45390635D01*
X150178232Y-45390633D01*
X150177542Y-45384072D01*
X150118527Y-45202444D01*
X150103226Y-45175941D01*
X150058212Y-45097976D01*
X150023040Y-45037056D01*
X149895253Y-44895134D01*
X149889906Y-44891249D01*
X149848675Y-44861292D01*
X149805322Y-44805069D01*
X149799247Y-44734333D01*
X149833642Y-44670262D01*
X149838004Y-44665900D01*
X160746013Y-44665900D01*
X160765205Y-44885271D01*
X160822200Y-45097976D01*
X160824525Y-45102961D01*
X160912938Y-45292566D01*
X160912941Y-45292571D01*
X160915264Y-45297553D01*
X160918420Y-45302060D01*
X160918421Y-45302062D01*
X160994560Y-45410799D01*
X161041571Y-45477938D01*
X161197282Y-45633649D01*
X161377666Y-45759956D01*
X161577244Y-45853020D01*
X161789949Y-45910015D01*
X162009320Y-45929207D01*
X162228691Y-45910015D01*
X162441396Y-45853020D01*
X162640974Y-45759956D01*
X162821358Y-45633649D01*
X162977069Y-45477938D01*
X163024081Y-45410799D01*
X163100219Y-45302062D01*
X163100220Y-45302060D01*
X163103376Y-45297553D01*
X163105699Y-45292571D01*
X163105702Y-45292566D01*
X163194115Y-45102961D01*
X163196440Y-45097976D01*
X163253435Y-44885271D01*
X163272627Y-44665900D01*
X163253435Y-44446529D01*
X163196440Y-44233824D01*
X163152905Y-44140462D01*
X163105702Y-44039234D01*
X163105699Y-44039229D01*
X163103376Y-44034247D01*
X162977069Y-43853862D01*
X162821358Y-43698151D01*
X162640974Y-43571844D01*
X162441396Y-43478780D01*
X162228691Y-43421785D01*
X162009320Y-43402593D01*
X161789949Y-43421785D01*
X161577244Y-43478780D01*
X161488620Y-43520106D01*
X161382654Y-43569518D01*
X161382649Y-43569521D01*
X161377667Y-43571844D01*
X161373160Y-43575000D01*
X161373158Y-43575001D01*
X161201793Y-43694992D01*
X161201790Y-43694994D01*
X161197282Y-43698151D01*
X161041571Y-43853862D01*
X160915264Y-44034247D01*
X160912941Y-44039229D01*
X160912938Y-44039234D01*
X160865735Y-44140462D01*
X160822200Y-44233824D01*
X160765205Y-44446529D01*
X160746013Y-44665900D01*
X149838004Y-44665900D01*
X153792590Y-40711314D01*
X153854902Y-40677288D01*
X153881685Y-40674409D01*
X164576315Y-40674409D01*
X164644436Y-40694411D01*
X164665410Y-40711314D01*
X164725666Y-40771570D01*
X164759692Y-40833882D01*
X164762092Y-40849682D01*
X164765205Y-40885271D01*
X164822200Y-41097976D01*
X164824525Y-41102961D01*
X164912938Y-41292566D01*
X164912941Y-41292571D01*
X164915264Y-41297553D01*
X165041571Y-41477938D01*
X165197282Y-41633649D01*
X165201791Y-41636806D01*
X165201793Y-41636808D01*
X165237500Y-41661810D01*
X165377666Y-41759956D01*
X165577244Y-41853020D01*
X165789949Y-41910015D01*
X166009320Y-41929207D01*
X166228691Y-41910015D01*
X166234003Y-41908591D01*
X166234012Y-41908590D01*
X166292209Y-41892996D01*
X166363186Y-41894685D01*
X166421982Y-41934478D01*
X166449930Y-41999743D01*
X166450821Y-42014702D01*
X166450821Y-47276304D01*
X166430819Y-47344425D01*
X166413915Y-47365401D01*
X166381741Y-47397574D01*
X166319428Y-47431598D01*
X166260036Y-47430184D01*
X166228691Y-47421785D01*
X166009320Y-47402593D01*
X165789949Y-47421785D01*
X165577244Y-47478780D01*
X165507809Y-47511158D01*
X165382654Y-47569518D01*
X165382649Y-47569521D01*
X165377667Y-47571844D01*
X165373160Y-47575000D01*
X165373158Y-47575001D01*
X165201793Y-47694992D01*
X165201790Y-47694994D01*
X165197282Y-47698151D01*
X165041571Y-47853862D01*
X165038414Y-47858370D01*
X165038412Y-47858373D01*
X164929810Y-48013473D01*
X164915264Y-48034247D01*
X164912941Y-48039229D01*
X164912938Y-48039234D01*
X164895271Y-48077122D01*
X164822200Y-48233824D01*
X164765205Y-48446529D01*
X164746013Y-48665900D01*
X164765205Y-48885271D01*
X164766628Y-48890581D01*
X164766629Y-48890585D01*
X164773604Y-48916617D01*
X164771914Y-48987594D01*
X164740992Y-49038323D01*
X159179911Y-54599404D01*
X159117599Y-54633430D01*
X159104724Y-54635500D01*
X159098513Y-54635500D01*
X159092060Y-54636872D01*
X159092057Y-54636872D01*
X159029487Y-54650172D01*
X158911712Y-54675206D01*
X158905682Y-54677891D01*
X158905681Y-54677891D01*
X158743278Y-54750197D01*
X158743276Y-54750198D01*
X158737248Y-54752882D01*
X158582747Y-54865134D01*
X158454960Y-55007056D01*
X158359473Y-55172444D01*
X158300458Y-55354072D01*
X158280496Y-55544000D01*
X158281186Y-55550565D01*
X158289816Y-55632671D01*
X158300458Y-55733928D01*
X158359473Y-55915556D01*
X158454960Y-56080944D01*
X158459378Y-56085851D01*
X158459379Y-56085852D01*
X158478323Y-56106891D01*
X158582747Y-56222866D01*
X158737248Y-56335118D01*
X158743276Y-56337802D01*
X158743278Y-56337803D01*
X158888600Y-56402504D01*
X158911712Y-56412794D01*
X159005113Y-56432647D01*
X159092056Y-56451128D01*
X159092061Y-56451128D01*
X159098513Y-56452500D01*
X159289487Y-56452500D01*
X159295939Y-56451128D01*
X159295944Y-56451128D01*
X159382888Y-56432647D01*
X159476288Y-56412794D01*
X159499400Y-56402504D01*
X159644722Y-56337803D01*
X159644724Y-56337802D01*
X159650752Y-56335118D01*
X159805253Y-56222866D01*
X159909677Y-56106891D01*
X159928621Y-56085852D01*
X159928622Y-56085851D01*
X159933040Y-56080944D01*
X160028527Y-55915556D01*
X160087542Y-55733928D01*
X160098185Y-55632671D01*
X160106814Y-55550565D01*
X160107504Y-55544000D01*
X160106141Y-55531035D01*
X160118912Y-55461197D01*
X160142356Y-55428768D01*
X165636897Y-49934228D01*
X165699209Y-49900202D01*
X165758603Y-49901616D01*
X165774764Y-49905946D01*
X165789949Y-49910015D01*
X166009320Y-49929207D01*
X166228691Y-49910015D01*
X166441396Y-49853020D01*
X166640974Y-49759956D01*
X166770356Y-49669361D01*
X166816847Y-49636808D01*
X166816849Y-49636806D01*
X166821358Y-49633649D01*
X166977069Y-49477938D01*
X166998428Y-49447435D01*
X167100219Y-49302062D01*
X167100220Y-49302060D01*
X167103376Y-49297553D01*
X167105699Y-49292571D01*
X167105702Y-49292566D01*
X167187527Y-49117089D01*
X167196440Y-49097976D01*
X167253435Y-48885271D01*
X167272627Y-48665900D01*
X167253435Y-48446529D01*
X167245036Y-48415183D01*
X167246726Y-48344206D01*
X167277648Y-48293477D01*
X167476574Y-48094551D01*
X167484860Y-48087011D01*
X167491339Y-48082899D01*
X167537965Y-48033247D01*
X167540719Y-48030406D01*
X167560456Y-48010669D01*
X167562936Y-48007472D01*
X167570641Y-47998450D01*
X167595480Y-47971999D01*
X167600907Y-47966220D01*
X167604726Y-47959274D01*
X167604728Y-47959271D01*
X167610669Y-47948465D01*
X167621520Y-47931946D01*
X167629079Y-47922200D01*
X167633935Y-47915940D01*
X167637080Y-47908671D01*
X167637083Y-47908667D01*
X167651495Y-47875362D01*
X167656712Y-47864712D01*
X167678016Y-47825959D01*
X167683054Y-47806336D01*
X167689458Y-47787633D01*
X167694354Y-47776319D01*
X167694354Y-47776318D01*
X167697502Y-47769044D01*
X167698741Y-47761221D01*
X167698744Y-47761211D01*
X167704420Y-47725375D01*
X167706826Y-47713755D01*
X167715849Y-47678610D01*
X167715849Y-47678609D01*
X167717821Y-47670929D01*
X167717821Y-47650675D01*
X167719372Y-47630964D01*
X167721301Y-47618785D01*
X167722541Y-47610956D01*
X167718380Y-47566937D01*
X167717821Y-47555080D01*
X167717821Y-43574495D01*
X167737823Y-43506374D01*
X167791479Y-43459881D01*
X167861753Y-43449777D01*
X167926333Y-43479271D01*
X167932900Y-43485384D01*
X168740994Y-44293479D01*
X168775018Y-44355789D01*
X168773604Y-44415183D01*
X168765205Y-44446529D01*
X168746013Y-44665900D01*
X168765205Y-44885271D01*
X168822200Y-45097976D01*
X168824525Y-45102961D01*
X168912938Y-45292566D01*
X168912941Y-45292571D01*
X168915264Y-45297553D01*
X168918420Y-45302060D01*
X168918421Y-45302062D01*
X168994560Y-45410799D01*
X169041571Y-45477938D01*
X169197282Y-45633649D01*
X169377666Y-45759956D01*
X169577244Y-45853020D01*
X169789949Y-45910015D01*
X170009320Y-45929207D01*
X170228691Y-45910015D01*
X170441396Y-45853020D01*
X170640974Y-45759956D01*
X170821358Y-45633649D01*
X170977069Y-45477938D01*
X171024081Y-45410799D01*
X171100219Y-45302062D01*
X171100220Y-45302060D01*
X171103376Y-45297553D01*
X171105699Y-45292571D01*
X171105702Y-45292566D01*
X171194115Y-45102961D01*
X171196440Y-45097976D01*
X171253435Y-44885271D01*
X171272627Y-44665900D01*
X171253435Y-44446529D01*
X171196440Y-44233824D01*
X171152905Y-44140462D01*
X171105702Y-44039234D01*
X171105699Y-44039229D01*
X171103376Y-44034247D01*
X170977069Y-43853862D01*
X170821358Y-43698151D01*
X170640974Y-43571844D01*
X170441396Y-43478780D01*
X170228691Y-43421785D01*
X170009320Y-43402593D01*
X169789949Y-43421785D01*
X169784634Y-43423209D01*
X169784635Y-43423209D01*
X169758603Y-43430184D01*
X169687626Y-43428494D01*
X169636897Y-43397572D01*
X168204736Y-41965411D01*
X168170710Y-41903099D01*
X168167831Y-41876316D01*
X168167831Y-40042266D01*
X168168358Y-40031083D01*
X168170033Y-40023590D01*
X168167893Y-39955499D01*
X168167831Y-39951542D01*
X168167831Y-39923643D01*
X168167327Y-39919652D01*
X168166394Y-39907810D01*
X168165254Y-39871535D01*
X168165005Y-39863610D01*
X168162793Y-39855996D01*
X168162792Y-39855991D01*
X168159354Y-39844158D01*
X168155343Y-39824794D01*
X168153798Y-39812563D01*
X168152805Y-39804702D01*
X168149888Y-39797335D01*
X168149887Y-39797330D01*
X168136529Y-39763591D01*
X168132685Y-39752364D01*
X168122561Y-39717521D01*
X168120349Y-39709906D01*
X168110038Y-39692471D01*
X168101343Y-39674723D01*
X168093883Y-39655882D01*
X168067895Y-39620112D01*
X168061379Y-39610192D01*
X168042911Y-39578964D01*
X168042909Y-39578961D01*
X168038873Y-39572137D01*
X168024552Y-39557816D01*
X168011711Y-39542782D01*
X168004462Y-39532805D01*
X167999803Y-39526392D01*
X167993698Y-39521341D01*
X167993693Y-39521336D01*
X167965727Y-39498200D01*
X167956949Y-39490212D01*
X167215374Y-38748637D01*
X167207834Y-38740351D01*
X167203722Y-38733872D01*
X167154070Y-38687246D01*
X167151229Y-38684492D01*
X167131492Y-38664755D01*
X167128295Y-38662275D01*
X167119273Y-38654570D01*
X167115118Y-38650668D01*
X167087043Y-38624304D01*
X167080097Y-38620485D01*
X167080094Y-38620483D01*
X167069288Y-38614542D01*
X167052769Y-38603691D01*
X167052305Y-38603331D01*
X167036763Y-38591276D01*
X167029494Y-38588131D01*
X167029490Y-38588128D01*
X166996185Y-38573716D01*
X166985535Y-38568499D01*
X166946782Y-38547195D01*
X166927159Y-38542157D01*
X166908456Y-38535753D01*
X166897142Y-38530857D01*
X166897141Y-38530857D01*
X166889867Y-38527709D01*
X166882044Y-38526470D01*
X166882034Y-38526467D01*
X166846198Y-38520791D01*
X166834578Y-38518385D01*
X166799433Y-38509362D01*
X166799432Y-38509362D01*
X166791752Y-38507390D01*
X166771498Y-38507390D01*
X166751787Y-38505839D01*
X166739608Y-38503910D01*
X166731779Y-38502670D01*
X166687772Y-38506830D01*
X166687761Y-38506831D01*
X166675903Y-38507390D01*
X161281733Y-38507390D01*
X153273059Y-38507389D01*
X153261876Y-38506862D01*
X153254383Y-38505187D01*
X153246457Y-38505436D01*
X153246456Y-38505436D01*
X153186293Y-38507327D01*
X153182335Y-38507389D01*
X153154435Y-38507389D01*
X153150445Y-38507893D01*
X153138611Y-38508825D01*
X153094402Y-38510215D01*
X153086786Y-38512428D01*
X153086784Y-38512428D01*
X153074943Y-38515868D01*
X153055584Y-38519877D01*
X153054274Y-38520043D01*
X153035494Y-38522415D01*
X153028128Y-38525331D01*
X153028122Y-38525333D01*
X152994389Y-38538689D01*
X152983159Y-38542534D01*
X152953981Y-38551011D01*
X152940698Y-38554870D01*
X152933875Y-38558905D01*
X152923257Y-38565184D01*
X152905504Y-38573881D01*
X152897859Y-38576908D01*
X152886674Y-38581337D01*
X152880259Y-38585998D01*
X152850903Y-38607326D01*
X152840986Y-38613840D01*
X152802929Y-38636347D01*
X152788608Y-38650668D01*
X152773575Y-38663508D01*
X152757184Y-38675417D01*
X152728993Y-38709494D01*
X152721003Y-38718273D01*
X147105720Y-44333555D01*
X147043408Y-44367581D01*
X147016625Y-44370460D01*
X138043649Y-44370460D01*
X137975528Y-44350458D01*
X137929035Y-44296802D01*
X137918931Y-44226528D01*
X137929454Y-44191210D01*
X138000321Y-44039234D01*
X138011120Y-44016076D01*
X138068115Y-43803371D01*
X138087307Y-43584000D01*
X138068115Y-43364629D01*
X138011120Y-43151924D01*
X137944258Y-43008538D01*
X137920382Y-42957334D01*
X137920379Y-42957329D01*
X137918056Y-42952347D01*
X137896780Y-42921962D01*
X137794908Y-42776473D01*
X137794906Y-42776470D01*
X137791749Y-42771962D01*
X137636038Y-42616251D01*
X137629188Y-42611454D01*
X137540287Y-42549205D01*
X137455654Y-42489944D01*
X137256076Y-42396880D01*
X137043371Y-42339885D01*
X136982767Y-42334583D01*
X139549913Y-42334583D01*
X139550603Y-42341148D01*
X139565998Y-42487619D01*
X139569875Y-42524511D01*
X139628890Y-42706139D01*
X139724377Y-42871527D01*
X139728795Y-42876434D01*
X139728796Y-42876435D01*
X139801638Y-42957334D01*
X139852164Y-43013449D01*
X140006665Y-43125701D01*
X140012693Y-43128385D01*
X140012695Y-43128386D01*
X140175098Y-43200692D01*
X140181129Y-43203377D01*
X140274530Y-43223230D01*
X140361473Y-43241711D01*
X140361478Y-43241711D01*
X140367930Y-43243083D01*
X140558904Y-43243083D01*
X140565356Y-43241711D01*
X140565361Y-43241711D01*
X140652304Y-43223230D01*
X140745705Y-43203377D01*
X140751736Y-43200692D01*
X140914139Y-43128386D01*
X140914141Y-43128385D01*
X140920169Y-43125701D01*
X141074670Y-43013449D01*
X141125196Y-42957334D01*
X141198038Y-42876435D01*
X141198039Y-42876434D01*
X141202457Y-42871527D01*
X141297944Y-42706139D01*
X141356959Y-42524511D01*
X141360837Y-42487619D01*
X141376231Y-42341148D01*
X141376921Y-42334583D01*
X141356959Y-42144655D01*
X141297944Y-41963027D01*
X141292831Y-41954170D01*
X141258487Y-41894685D01*
X141202457Y-41797639D01*
X141129280Y-41716368D01*
X141098564Y-41652362D01*
X141096917Y-41632059D01*
X141096917Y-37143177D01*
X141116919Y-37075056D01*
X141133822Y-37054082D01*
X144153577Y-34034328D01*
X144215889Y-34000302D01*
X144275283Y-34001716D01*
X144291444Y-34006046D01*
X144306629Y-34010115D01*
X144526000Y-34029307D01*
X144745371Y-34010115D01*
X144958076Y-33953120D01*
X145157654Y-33860056D01*
X145338038Y-33733749D01*
X145493749Y-33578038D01*
X145512250Y-33551617D01*
X145616899Y-33402162D01*
X145616900Y-33402160D01*
X145620056Y-33397653D01*
X145622379Y-33392671D01*
X145622382Y-33392666D01*
X145710795Y-33203061D01*
X145713120Y-33198076D01*
X145770115Y-32985371D01*
X145789307Y-32766000D01*
X145770115Y-32546629D01*
X145713120Y-32333924D01*
X145669585Y-32240562D01*
X145622382Y-32139334D01*
X145622379Y-32139329D01*
X145620056Y-32134347D01*
X145616899Y-32129838D01*
X145496908Y-31958473D01*
X145496906Y-31958470D01*
X145493749Y-31953962D01*
X145338038Y-31798251D01*
X145157654Y-31671944D01*
X144958076Y-31578880D01*
X144745371Y-31521885D01*
X144526000Y-31502693D01*
X144306629Y-31521885D01*
X144093924Y-31578880D01*
X144000562Y-31622415D01*
X143899334Y-31669618D01*
X143899329Y-31669621D01*
X143894347Y-31671944D01*
X143889840Y-31675100D01*
X143889838Y-31675101D01*
X143718473Y-31795092D01*
X143718470Y-31795094D01*
X143713962Y-31798251D01*
X143558251Y-31953962D01*
X143555094Y-31958470D01*
X143555092Y-31958473D01*
X143435101Y-32129838D01*
X143431944Y-32134347D01*
X143429621Y-32139329D01*
X143429618Y-32139334D01*
X143382415Y-32240562D01*
X143338880Y-32333924D01*
X143281885Y-32546629D01*
X143262693Y-32766000D01*
X143281885Y-32985371D01*
X143283308Y-32990681D01*
X143283309Y-32990685D01*
X143290284Y-33016717D01*
X143288594Y-33087694D01*
X143257672Y-33138423D01*
X140071164Y-36324931D01*
X140062878Y-36332471D01*
X140056399Y-36336583D01*
X140050974Y-36342360D01*
X140009774Y-36386234D01*
X140007019Y-36389076D01*
X139987282Y-36408813D01*
X139984802Y-36412010D01*
X139977099Y-36421030D01*
X139946831Y-36453262D01*
X139943012Y-36460208D01*
X139943010Y-36460211D01*
X139937069Y-36471017D01*
X139926218Y-36487536D01*
X139913803Y-36503542D01*
X139910658Y-36510811D01*
X139910655Y-36510815D01*
X139896243Y-36544120D01*
X139891026Y-36554770D01*
X139869722Y-36593523D01*
X139867751Y-36601198D01*
X139867751Y-36601199D01*
X139864684Y-36613145D01*
X139858280Y-36631849D01*
X139850236Y-36650438D01*
X139848997Y-36658261D01*
X139848994Y-36658271D01*
X139843318Y-36694107D01*
X139840912Y-36705727D01*
X139831889Y-36740872D01*
X139829917Y-36748553D01*
X139829917Y-36768807D01*
X139828366Y-36788517D01*
X139825197Y-36808526D01*
X139825943Y-36816418D01*
X139829358Y-36852544D01*
X139829917Y-36864402D01*
X139829917Y-41632059D01*
X139809915Y-41700180D01*
X139797559Y-41716362D01*
X139724377Y-41797639D01*
X139668347Y-41894685D01*
X139634004Y-41954170D01*
X139628890Y-41963027D01*
X139569875Y-42144655D01*
X139549913Y-42334583D01*
X136982767Y-42334583D01*
X136824000Y-42320693D01*
X136604629Y-42339885D01*
X136391924Y-42396880D01*
X136303055Y-42438320D01*
X136197334Y-42487618D01*
X136197329Y-42487621D01*
X136192347Y-42489944D01*
X136187840Y-42493100D01*
X136187838Y-42493101D01*
X136016473Y-42613092D01*
X136016470Y-42613094D01*
X136011962Y-42616251D01*
X135856251Y-42771962D01*
X135853094Y-42776470D01*
X135853092Y-42776473D01*
X135751220Y-42921962D01*
X135729944Y-42952347D01*
X135727621Y-42957329D01*
X135727618Y-42957334D01*
X135703742Y-43008538D01*
X135636880Y-43151924D01*
X135579885Y-43364629D01*
X135560693Y-43584000D01*
X135579885Y-43803371D01*
X135636880Y-44016076D01*
X135647679Y-44039234D01*
X135718546Y-44191210D01*
X135729207Y-44261402D01*
X135700227Y-44326215D01*
X135640807Y-44365071D01*
X135604351Y-44370460D01*
X117373595Y-44370460D01*
X117305474Y-44350458D01*
X117258981Y-44296802D01*
X117248877Y-44226528D01*
X117259400Y-44191211D01*
X117268794Y-44171066D01*
X117268797Y-44171058D01*
X117271120Y-44166076D01*
X117328115Y-43953371D01*
X117347307Y-43734000D01*
X117328115Y-43514629D01*
X117271120Y-43301924D01*
X117198850Y-43146939D01*
X117180382Y-43107334D01*
X117180379Y-43107329D01*
X117178056Y-43102347D01*
X117115809Y-43013449D01*
X117054908Y-42926473D01*
X117054906Y-42926470D01*
X117051749Y-42921962D01*
X116896038Y-42766251D01*
X116886736Y-42759737D01*
X116731853Y-42651287D01*
X116715654Y-42639944D01*
X116516076Y-42546880D01*
X116303371Y-42489885D01*
X116084000Y-42470693D01*
X115864629Y-42489885D01*
X115651924Y-42546880D01*
X115563694Y-42588022D01*
X115457334Y-42637618D01*
X115457329Y-42637621D01*
X115452347Y-42639944D01*
X115447840Y-42643100D01*
X115447838Y-42643101D01*
X115276473Y-42763092D01*
X115276470Y-42763094D01*
X115271962Y-42766251D01*
X115116251Y-42921962D01*
X115113094Y-42926470D01*
X115113092Y-42926473D01*
X115052191Y-43013449D01*
X114989944Y-43102347D01*
X114987621Y-43107329D01*
X114987618Y-43107334D01*
X114969150Y-43146939D01*
X114896880Y-43301924D01*
X114839885Y-43514629D01*
X114820693Y-43734000D01*
X114839885Y-43953371D01*
X114896880Y-44166076D01*
X114899203Y-44171058D01*
X114899206Y-44171066D01*
X114908600Y-44191211D01*
X114919261Y-44261402D01*
X114890281Y-44326215D01*
X114830861Y-44365071D01*
X114794405Y-44370460D01*
X108808301Y-44370460D01*
X108797117Y-44369933D01*
X108789629Y-44368259D01*
X108781706Y-44368508D01*
X108721571Y-44370398D01*
X108717613Y-44370460D01*
X108689682Y-44370460D01*
X108685767Y-44370955D01*
X108685763Y-44370955D01*
X108685705Y-44370963D01*
X108685676Y-44370966D01*
X108673834Y-44371899D01*
X108629648Y-44373287D01*
X108612282Y-44378332D01*
X108610196Y-44378938D01*
X108590844Y-44382946D01*
X108578606Y-44384492D01*
X108578604Y-44384493D01*
X108570741Y-44385486D01*
X108529624Y-44401766D01*
X108518423Y-44405601D01*
X108475944Y-44417942D01*
X108469125Y-44421975D01*
X108469120Y-44421977D01*
X108458509Y-44428253D01*
X108440759Y-44436950D01*
X108421921Y-44444408D01*
X108415505Y-44449069D01*
X108415504Y-44449070D01*
X108386163Y-44470388D01*
X108376239Y-44476907D01*
X108344998Y-44495382D01*
X108344993Y-44495386D01*
X108338175Y-44499418D01*
X108323851Y-44513742D01*
X108308819Y-44526581D01*
X108292431Y-44538488D01*
X108268919Y-44566909D01*
X108264250Y-44572553D01*
X108256260Y-44581333D01*
X105771162Y-47066431D01*
X105708850Y-47100457D01*
X105638035Y-47095392D01*
X105581199Y-47052845D01*
X105556388Y-46986325D01*
X105557074Y-46961435D01*
X105563896Y-46907810D01*
X105563896Y-46907806D01*
X105564294Y-46904680D01*
X105564675Y-46890159D01*
X105566628Y-46815549D01*
X105566711Y-46812389D01*
X105547341Y-46551737D01*
X105536005Y-46501637D01*
X105490688Y-46301369D01*
X105489657Y-46296812D01*
X105474319Y-46257369D01*
X105396620Y-46057565D01*
X105396619Y-46057562D01*
X105394927Y-46053212D01*
X105265231Y-45826291D01*
X105103418Y-45621032D01*
X104913043Y-45441946D01*
X104760717Y-45336273D01*
X104702131Y-45295630D01*
X104702128Y-45295628D01*
X104698289Y-45292965D01*
X104694096Y-45290897D01*
X104468061Y-45179429D01*
X104468058Y-45179428D01*
X104463873Y-45177364D01*
X104417729Y-45162593D01*
X104219403Y-45099109D01*
X104214945Y-45097682D01*
X103956973Y-45055668D01*
X103843222Y-45054179D01*
X103700302Y-45052308D01*
X103700299Y-45052308D01*
X103695625Y-45052247D01*
X103436642Y-45087493D01*
X103432156Y-45088801D01*
X103432154Y-45088801D01*
X103364616Y-45108487D01*
X103185713Y-45160632D01*
X103181460Y-45162592D01*
X103181459Y-45162593D01*
X103144939Y-45179429D01*
X102948352Y-45270057D01*
X102909347Y-45295630D01*
X102733684Y-45410799D01*
X102733679Y-45410803D01*
X102729771Y-45413365D01*
X102534774Y-45587407D01*
X102367643Y-45788359D01*
X102365214Y-45792362D01*
X102272254Y-45945556D01*
X102232051Y-46011808D01*
X102130977Y-46252844D01*
X102066639Y-46506172D01*
X102066171Y-46510823D01*
X102066170Y-46510827D01*
X102062509Y-46547183D01*
X102040453Y-46766228D01*
X102042173Y-46802036D01*
X102052993Y-47027297D01*
X102103984Y-47283645D01*
X102192306Y-47529641D01*
X102194522Y-47533765D01*
X102294326Y-47719510D01*
X102316017Y-47759880D01*
X102318812Y-47763623D01*
X102318814Y-47763626D01*
X102469610Y-47965566D01*
X102469615Y-47965572D01*
X102472402Y-47969304D01*
X102475711Y-47972584D01*
X102475716Y-47972590D01*
X102592447Y-48088306D01*
X102658023Y-48153312D01*
X102661785Y-48156070D01*
X102661788Y-48156073D01*
X102849184Y-48293477D01*
X102868804Y-48307863D01*
X102890599Y-48319330D01*
X102941570Y-48368747D01*
X102957734Y-48437879D01*
X102933956Y-48504775D01*
X102877786Y-48548197D01*
X102858128Y-48554084D01*
X102825990Y-48560915D01*
X102711712Y-48585206D01*
X102705682Y-48587891D01*
X102705681Y-48587891D01*
X102543278Y-48660197D01*
X102543276Y-48660198D01*
X102537248Y-48662882D01*
X102382747Y-48775134D01*
X102378326Y-48780044D01*
X102378325Y-48780045D01*
X102278795Y-48890585D01*
X102254960Y-48917056D01*
X102159473Y-49082444D01*
X102100458Y-49264072D01*
X102080496Y-49454000D01*
X102081186Y-49460565D01*
X102099710Y-49636808D01*
X102100458Y-49643928D01*
X102159473Y-49825556D01*
X102254960Y-49990944D01*
X102259378Y-49995851D01*
X102259379Y-49995852D01*
X102376111Y-50125496D01*
X102382747Y-50132866D01*
X102449886Y-50181645D01*
X102493239Y-50237866D01*
X102499315Y-50308602D01*
X102464919Y-50372675D01*
X93696594Y-59140999D01*
X84957731Y-67879862D01*
X84949445Y-67887402D01*
X84942966Y-67891514D01*
X84937541Y-67897291D01*
X84896341Y-67941165D01*
X84893586Y-67944007D01*
X84873849Y-67963744D01*
X84871369Y-67966941D01*
X84863666Y-67975961D01*
X84833398Y-68008193D01*
X84829579Y-68015139D01*
X84829577Y-68015142D01*
X84823636Y-68025948D01*
X84812785Y-68042467D01*
X84800370Y-68058473D01*
X84797225Y-68065742D01*
X84797222Y-68065746D01*
X84782810Y-68099051D01*
X84777593Y-68109701D01*
X84756289Y-68148454D01*
X84754318Y-68156129D01*
X84754318Y-68156130D01*
X84751251Y-68168076D01*
X84744847Y-68186780D01*
X84736803Y-68205369D01*
X84735564Y-68213192D01*
X84735561Y-68213202D01*
X84729885Y-68249038D01*
X84727479Y-68260658D01*
X84716484Y-68303484D01*
X84716484Y-68323738D01*
X84714933Y-68343448D01*
X84711764Y-68363457D01*
X84712510Y-68371349D01*
X84715925Y-68407475D01*
X84716484Y-68419333D01*
X84716484Y-74467448D01*
X84696482Y-74535569D01*
X84642826Y-74582062D01*
X84572552Y-74592166D01*
X84507972Y-74562672D01*
X84472502Y-74511678D01*
X84453767Y-74461703D01*
X84450615Y-74453295D01*
X84363261Y-74336739D01*
X84246705Y-74249385D01*
X84110316Y-74198255D01*
X84048134Y-74191500D01*
X81951866Y-74191500D01*
X81889684Y-74198255D01*
X81753295Y-74249385D01*
X81636739Y-74336739D01*
X81549385Y-74453295D01*
X81498255Y-74589684D01*
X81491500Y-74651866D01*
X81491500Y-76048134D01*
X81498255Y-76110316D01*
X81549385Y-76246705D01*
X81636739Y-76363261D01*
X81753295Y-76450615D01*
X81889684Y-76501745D01*
X81951866Y-76508500D01*
X84048134Y-76508500D01*
X84110316Y-76501745D01*
X84246705Y-76450615D01*
X84363261Y-76363261D01*
X84450615Y-76246705D01*
X84472502Y-76188322D01*
X84515144Y-76131558D01*
X84581705Y-76106858D01*
X84651054Y-76122066D01*
X84701172Y-76172352D01*
X84716484Y-76232552D01*
X84716484Y-77095894D01*
X84708150Y-77139583D01*
X84706305Y-77142940D01*
X84704334Y-77150616D01*
X84704333Y-77150619D01*
X84701267Y-77162562D01*
X84694863Y-77181266D01*
X84686819Y-77199855D01*
X84685580Y-77207678D01*
X84685577Y-77207688D01*
X84679901Y-77243524D01*
X84677495Y-77255144D01*
X84666500Y-77297970D01*
X84666500Y-77318224D01*
X84664949Y-77337934D01*
X84661780Y-77357943D01*
X84662526Y-77365835D01*
X84662277Y-77373757D01*
X84661402Y-77373730D01*
X84655037Y-77421592D01*
X84648255Y-77439684D01*
X84647402Y-77447532D01*
X84647402Y-77447534D01*
X84646856Y-77452562D01*
X84641500Y-77501866D01*
X84641500Y-78598134D01*
X84648255Y-78660316D01*
X84699385Y-78796705D01*
X84786739Y-78913261D01*
X84903295Y-79000615D01*
X85039684Y-79051745D01*
X85101866Y-79058500D01*
X85498134Y-79058500D01*
X85501529Y-79058131D01*
X85501533Y-79058131D01*
X85527531Y-79055307D01*
X85536394Y-79054344D01*
X85563606Y-79054344D01*
X85572469Y-79055307D01*
X85598467Y-79058131D01*
X85598471Y-79058131D01*
X85601866Y-79058500D01*
X85998134Y-79058500D01*
X86001529Y-79058131D01*
X86001533Y-79058131D01*
X86027531Y-79055307D01*
X86036394Y-79054344D01*
X86063606Y-79054344D01*
X86072469Y-79055307D01*
X86098467Y-79058131D01*
X86098471Y-79058131D01*
X86101866Y-79058500D01*
X86498134Y-79058500D01*
X86501529Y-79058131D01*
X86501533Y-79058131D01*
X86527531Y-79055307D01*
X86536394Y-79054344D01*
X86563606Y-79054344D01*
X86572469Y-79055307D01*
X86598467Y-79058131D01*
X86598471Y-79058131D01*
X86601866Y-79058500D01*
X86998134Y-79058500D01*
X87001529Y-79058131D01*
X87001533Y-79058131D01*
X87026093Y-79055463D01*
X87095976Y-79067992D01*
X87147991Y-79116313D01*
X87165638Y-79176767D01*
X87166438Y-79202218D01*
X87166500Y-79206177D01*
X87166500Y-79234088D01*
X87166997Y-79238022D01*
X87166997Y-79238023D01*
X87167005Y-79238088D01*
X87167938Y-79249925D01*
X87169327Y-79294121D01*
X87173668Y-79309062D01*
X87174978Y-79313571D01*
X87178987Y-79332932D01*
X87181526Y-79353029D01*
X87184445Y-79360400D01*
X87184445Y-79360402D01*
X87197804Y-79394144D01*
X87201649Y-79405374D01*
X87211771Y-79440215D01*
X87213982Y-79447825D01*
X87218015Y-79454644D01*
X87218017Y-79454649D01*
X87224293Y-79465260D01*
X87232988Y-79483008D01*
X87240448Y-79501849D01*
X87245110Y-79508265D01*
X87245110Y-79508266D01*
X87266436Y-79537619D01*
X87272952Y-79547539D01*
X87275379Y-79551642D01*
X87295458Y-79585594D01*
X87309779Y-79599915D01*
X87322619Y-79614948D01*
X87334528Y-79631339D01*
X87340632Y-79636389D01*
X87340637Y-79636394D01*
X87368598Y-79659525D01*
X87377379Y-79667515D01*
X88327152Y-80617289D01*
X88334686Y-80625568D01*
X88338799Y-80632049D01*
X88359893Y-80651857D01*
X88388450Y-80678674D01*
X88391292Y-80681429D01*
X88411029Y-80701166D01*
X88414226Y-80703646D01*
X88423246Y-80711349D01*
X88455478Y-80741617D01*
X88462424Y-80745436D01*
X88462427Y-80745438D01*
X88473233Y-80751379D01*
X88489752Y-80762230D01*
X88505758Y-80774645D01*
X88513027Y-80777790D01*
X88513031Y-80777793D01*
X88546336Y-80792205D01*
X88556986Y-80797422D01*
X88595739Y-80818726D01*
X88603414Y-80820697D01*
X88603415Y-80820697D01*
X88615361Y-80823764D01*
X88634066Y-80830168D01*
X88652654Y-80838212D01*
X88660477Y-80839451D01*
X88660487Y-80839454D01*
X88696323Y-80845130D01*
X88707943Y-80847536D01*
X88740310Y-80855846D01*
X88801317Y-80892160D01*
X88833007Y-80955692D01*
X88825317Y-81026271D01*
X88780691Y-81081489D01*
X88708977Y-81103888D01*
X84837780Y-81103888D01*
X84769659Y-81083886D01*
X84723166Y-81030230D01*
X84711780Y-80977888D01*
X84711780Y-79621011D01*
X84711782Y-79620241D01*
X84712201Y-79551642D01*
X84712256Y-79542667D01*
X84704130Y-79514235D01*
X84700552Y-79497473D01*
X84698482Y-79483019D01*
X84696360Y-79468201D01*
X84685731Y-79444824D01*
X84679284Y-79427301D01*
X84674696Y-79411250D01*
X84672229Y-79402617D01*
X84665908Y-79392599D01*
X84656450Y-79377608D01*
X84648310Y-79362523D01*
X84647346Y-79360402D01*
X84636072Y-79335606D01*
X84619310Y-79316153D01*
X84608207Y-79301149D01*
X84594504Y-79279430D01*
X84587779Y-79273491D01*
X84587776Y-79273487D01*
X84572342Y-79259856D01*
X84560298Y-79247664D01*
X84546853Y-79232061D01*
X84546850Y-79232059D01*
X84540993Y-79225261D01*
X84519445Y-79211294D01*
X84504571Y-79200003D01*
X84492063Y-79188957D01*
X84492062Y-79188956D01*
X84485329Y-79183010D01*
X84458567Y-79170445D01*
X84443589Y-79162125D01*
X84426297Y-79150917D01*
X84426292Y-79150915D01*
X84418765Y-79146036D01*
X84410172Y-79143466D01*
X84410167Y-79143464D01*
X84394160Y-79138677D01*
X84376716Y-79132016D01*
X84361604Y-79124921D01*
X84361602Y-79124920D01*
X84353480Y-79121107D01*
X84344613Y-79119726D01*
X84344612Y-79119726D01*
X84334970Y-79118225D01*
X84324263Y-79116558D01*
X84307548Y-79112775D01*
X84287814Y-79106873D01*
X84287808Y-79106872D01*
X84279214Y-79104302D01*
X84270243Y-79104247D01*
X84270242Y-79104247D01*
X84260183Y-79104186D01*
X84244774Y-79104092D01*
X84243991Y-79104059D01*
X84242894Y-79103888D01*
X84211903Y-79103888D01*
X84211133Y-79103886D01*
X84137495Y-79103436D01*
X84137494Y-79103436D01*
X84133559Y-79103412D01*
X84132215Y-79103796D01*
X84130870Y-79103888D01*
X80837780Y-79103888D01*
X80769659Y-79083886D01*
X80723166Y-79030230D01*
X80711780Y-78977888D01*
X80711781Y-74331358D01*
X80711781Y-69583460D01*
X80713136Y-69571330D01*
X80712654Y-69571291D01*
X80713374Y-69562344D01*
X80715355Y-69553588D01*
X80712023Y-69499880D01*
X80711781Y-69492078D01*
X80711781Y-69475875D01*
X80710297Y-69465510D01*
X80709268Y-69455460D01*
X80706892Y-69417172D01*
X80706336Y-69408211D01*
X80703287Y-69399765D01*
X80702688Y-69396874D01*
X80698459Y-69379908D01*
X80697633Y-69377083D01*
X80696361Y-69368201D01*
X80676759Y-69325090D01*
X80672953Y-69315739D01*
X80659926Y-69279653D01*
X80656877Y-69271207D01*
X80651582Y-69263959D01*
X80650201Y-69261361D01*
X80641366Y-69246243D01*
X80639787Y-69243774D01*
X80636073Y-69235606D01*
X80605165Y-69199735D01*
X80598880Y-69191819D01*
X80593733Y-69184773D01*
X80593728Y-69184768D01*
X80590856Y-69180836D01*
X80579881Y-69169861D01*
X80573523Y-69163013D01*
X80546857Y-69132065D01*
X80546856Y-69132064D01*
X80540994Y-69125261D01*
X80533459Y-69120377D01*
X80527215Y-69114930D01*
X80515350Y-69105330D01*
X79748685Y-68338665D01*
X79714659Y-68276353D01*
X79711780Y-68249570D01*
X79711780Y-65212387D01*
X81539652Y-65212387D01*
X81560134Y-65472636D01*
X81561288Y-65477443D01*
X81561289Y-65477449D01*
X81597388Y-65627809D01*
X81621076Y-65726476D01*
X81622969Y-65731047D01*
X81622970Y-65731049D01*
X81716050Y-65955762D01*
X81720977Y-65967658D01*
X81857377Y-66190243D01*
X82026917Y-66388750D01*
X82225424Y-66558290D01*
X82448009Y-66694690D01*
X82452579Y-66696583D01*
X82452583Y-66696585D01*
X82645682Y-66776569D01*
X82689191Y-66794591D01*
X82778211Y-66815963D01*
X82938218Y-66854378D01*
X82938224Y-66854379D01*
X82943031Y-66855533D01*
X83203280Y-66876015D01*
X83463529Y-66855533D01*
X83468336Y-66854379D01*
X83468342Y-66854378D01*
X83628349Y-66815963D01*
X83717369Y-66794591D01*
X83760878Y-66776569D01*
X83953977Y-66696585D01*
X83953981Y-66696583D01*
X83958551Y-66694690D01*
X84181136Y-66558290D01*
X84379643Y-66388750D01*
X84549183Y-66190243D01*
X84685583Y-65967658D01*
X84690511Y-65955762D01*
X84783590Y-65731049D01*
X84783591Y-65731047D01*
X84785484Y-65726476D01*
X84809172Y-65627809D01*
X84845271Y-65477449D01*
X84845272Y-65477443D01*
X84846426Y-65472636D01*
X84866908Y-65212387D01*
X84846426Y-64952138D01*
X84845272Y-64947331D01*
X84845271Y-64947325D01*
X84786639Y-64703110D01*
X84785484Y-64698298D01*
X84768530Y-64657367D01*
X84687478Y-64461690D01*
X84687476Y-64461686D01*
X84685583Y-64457116D01*
X84549183Y-64234531D01*
X84379643Y-64036024D01*
X84181136Y-63866484D01*
X83958551Y-63730084D01*
X83953981Y-63728191D01*
X83953977Y-63728189D01*
X83721942Y-63632077D01*
X83721940Y-63632076D01*
X83717369Y-63630183D01*
X83608847Y-63604129D01*
X83468342Y-63570396D01*
X83468336Y-63570395D01*
X83463529Y-63569241D01*
X83203280Y-63548759D01*
X82943031Y-63569241D01*
X82938224Y-63570395D01*
X82938218Y-63570396D01*
X82797713Y-63604129D01*
X82689191Y-63630183D01*
X82684620Y-63632076D01*
X82684618Y-63632077D01*
X82452583Y-63728189D01*
X82452579Y-63728191D01*
X82448009Y-63730084D01*
X82225424Y-63866484D01*
X82026917Y-64036024D01*
X81857377Y-64234531D01*
X81720977Y-64457116D01*
X81719084Y-64461686D01*
X81719082Y-64461690D01*
X81638030Y-64657367D01*
X81621076Y-64698298D01*
X81619921Y-64703110D01*
X81561289Y-64947325D01*
X81561288Y-64947331D01*
X81560134Y-64952138D01*
X81543285Y-65166226D01*
X81540181Y-65205669D01*
X81540179Y-65205669D01*
X81540180Y-65205677D01*
X81539652Y-65212387D01*
X79711780Y-65212387D01*
X79711779Y-60875206D01*
X79731781Y-60807085D01*
X79748684Y-60786110D01*
X80377004Y-60157791D01*
X80439316Y-60123766D01*
X80466099Y-60120887D01*
X83750029Y-60120887D01*
X83770934Y-60122633D01*
X83785935Y-60125157D01*
X83785938Y-60125157D01*
X83790727Y-60125963D01*
X83796750Y-60126036D01*
X83798412Y-60126057D01*
X83798416Y-60126057D01*
X83803279Y-60126116D01*
X83807485Y-60125513D01*
X83810244Y-60125390D01*
X84154534Y-60116938D01*
X84564474Y-60106875D01*
X85323836Y-60050861D01*
X86079534Y-59957654D01*
X86081042Y-59957392D01*
X86081051Y-59957391D01*
X86676915Y-59853999D01*
X86829749Y-59827480D01*
X87572673Y-59660651D01*
X87915427Y-59565798D01*
X88305024Y-59457982D01*
X88305038Y-59457978D01*
X88306515Y-59457569D01*
X89029510Y-59218724D01*
X89739913Y-58944691D01*
X89741366Y-58944047D01*
X90434599Y-58636759D01*
X90434610Y-58636754D01*
X90436015Y-58636131D01*
X91116138Y-58293785D01*
X91118506Y-58292444D01*
X91543089Y-58051921D01*
X91778644Y-57918481D01*
X91850653Y-57872882D01*
X92420637Y-57511943D01*
X92420649Y-57511935D01*
X92421936Y-57511120D01*
X93044465Y-57072686D01*
X93644732Y-56604233D01*
X94221289Y-56106891D01*
X94772749Y-55581858D01*
X95297782Y-55030398D01*
X95795124Y-54453841D01*
X96263576Y-53853575D01*
X96702011Y-53231045D01*
X97046958Y-52686314D01*
X97108548Y-52589053D01*
X97108552Y-52589047D01*
X97109371Y-52587753D01*
X97484676Y-51925247D01*
X97827021Y-51245124D01*
X97838028Y-51220294D01*
X98134938Y-50550475D01*
X98134939Y-50550473D01*
X98135582Y-50549022D01*
X98170851Y-50457592D01*
X98298954Y-50125496D01*
X98409615Y-49838619D01*
X98648459Y-49115624D01*
X98651964Y-49102961D01*
X98795246Y-48585206D01*
X98851541Y-48381782D01*
X99018370Y-47638858D01*
X99148545Y-46888643D01*
X99241751Y-46132945D01*
X99297765Y-45373583D01*
X99315916Y-44634174D01*
X99316231Y-44628645D01*
X99316855Y-44624940D01*
X99317008Y-44612388D01*
X99313053Y-44584771D01*
X99311780Y-44566909D01*
X99311780Y-32734000D01*
X105240693Y-32734000D01*
X105259885Y-32953371D01*
X105316880Y-33166076D01*
X105356940Y-33251986D01*
X105407618Y-33360666D01*
X105407621Y-33360671D01*
X105409944Y-33365653D01*
X105413100Y-33370160D01*
X105413101Y-33370162D01*
X105526973Y-33532787D01*
X105536251Y-33546038D01*
X105691962Y-33701749D01*
X105696471Y-33704906D01*
X105696473Y-33704908D01*
X105732097Y-33729852D01*
X105872346Y-33828056D01*
X106071924Y-33921120D01*
X106284629Y-33978115D01*
X106504000Y-33997307D01*
X106723371Y-33978115D01*
X106936076Y-33921120D01*
X107135654Y-33828056D01*
X107275903Y-33729852D01*
X107311527Y-33704908D01*
X107311529Y-33704906D01*
X107316038Y-33701749D01*
X107471749Y-33546038D01*
X107481028Y-33532787D01*
X107594899Y-33370162D01*
X107594900Y-33370160D01*
X107598056Y-33365653D01*
X107600379Y-33360671D01*
X107600382Y-33360666D01*
X107651060Y-33251986D01*
X107691120Y-33166076D01*
X107748115Y-32953371D01*
X107767307Y-32734000D01*
X107748115Y-32514629D01*
X107691120Y-32301924D01*
X107647585Y-32208562D01*
X107600382Y-32107334D01*
X107600379Y-32107329D01*
X107598056Y-32102347D01*
X107594899Y-32097838D01*
X107474908Y-31926473D01*
X107474906Y-31926470D01*
X107471749Y-31921962D01*
X107316038Y-31766251D01*
X107135654Y-31639944D01*
X106936076Y-31546880D01*
X106723371Y-31489885D01*
X106504000Y-31470693D01*
X106284629Y-31489885D01*
X106071924Y-31546880D01*
X106003300Y-31578880D01*
X105877334Y-31637618D01*
X105877329Y-31637621D01*
X105872347Y-31639944D01*
X105867840Y-31643100D01*
X105867838Y-31643101D01*
X105696473Y-31763092D01*
X105696470Y-31763094D01*
X105691962Y-31766251D01*
X105536251Y-31921962D01*
X105533094Y-31926470D01*
X105533092Y-31926473D01*
X105413101Y-32097838D01*
X105409944Y-32102347D01*
X105407621Y-32107329D01*
X105407618Y-32107334D01*
X105360415Y-32208562D01*
X105316880Y-32301924D01*
X105259885Y-32514629D01*
X105240693Y-32734000D01*
X99311780Y-32734000D01*
X99311780Y-31164000D01*
X110320496Y-31164000D01*
X110340458Y-31353928D01*
X110399473Y-31535556D01*
X110402776Y-31541278D01*
X110402777Y-31541279D01*
X110436686Y-31600010D01*
X110494960Y-31700944D01*
X110568137Y-31782215D01*
X110598853Y-31846221D01*
X110600500Y-31866524D01*
X110600500Y-33165233D01*
X110599973Y-33176416D01*
X110598298Y-33183909D01*
X110598547Y-33191835D01*
X110598547Y-33191836D01*
X110600438Y-33251986D01*
X110600500Y-33255945D01*
X110600500Y-33283856D01*
X110600997Y-33287790D01*
X110600997Y-33287791D01*
X110601005Y-33287856D01*
X110601938Y-33299693D01*
X110603327Y-33343889D01*
X110608978Y-33363339D01*
X110612987Y-33382700D01*
X110615526Y-33402797D01*
X110618445Y-33410168D01*
X110618445Y-33410170D01*
X110631804Y-33443912D01*
X110635649Y-33455142D01*
X110647982Y-33497593D01*
X110652015Y-33504412D01*
X110652017Y-33504417D01*
X110658293Y-33515028D01*
X110666988Y-33532776D01*
X110674448Y-33551617D01*
X110679110Y-33558033D01*
X110679110Y-33558034D01*
X110700436Y-33587387D01*
X110706952Y-33597307D01*
X110729458Y-33635362D01*
X110743779Y-33649683D01*
X110756619Y-33664716D01*
X110768528Y-33681107D01*
X110774634Y-33686158D01*
X110802605Y-33709298D01*
X110811384Y-33717288D01*
X117396878Y-40302782D01*
X117430904Y-40365094D01*
X117433092Y-40378703D01*
X117450458Y-40543928D01*
X117509473Y-40725556D01*
X117604960Y-40890944D01*
X117732747Y-41032866D01*
X117887248Y-41145118D01*
X117893276Y-41147802D01*
X117893278Y-41147803D01*
X118055681Y-41220109D01*
X118061712Y-41222794D01*
X118155112Y-41242647D01*
X118242056Y-41261128D01*
X118242061Y-41261128D01*
X118248513Y-41262500D01*
X118439487Y-41262500D01*
X118445939Y-41261128D01*
X118445944Y-41261128D01*
X118532888Y-41242647D01*
X118626288Y-41222794D01*
X118632319Y-41220109D01*
X118794722Y-41147803D01*
X118794724Y-41147802D01*
X118800752Y-41145118D01*
X118955253Y-41032866D01*
X119083040Y-40890944D01*
X119178527Y-40725556D01*
X119237542Y-40543928D01*
X119257504Y-40354000D01*
X119237542Y-40164072D01*
X119178527Y-39982444D01*
X119083040Y-39817056D01*
X119071917Y-39804702D01*
X118959675Y-39680045D01*
X118959674Y-39680044D01*
X118955253Y-39675134D01*
X118822887Y-39578964D01*
X118806094Y-39566763D01*
X118806093Y-39566762D01*
X118800752Y-39562882D01*
X118794724Y-39560198D01*
X118794722Y-39560197D01*
X118632319Y-39487891D01*
X118632318Y-39487891D01*
X118626288Y-39485206D01*
X118532887Y-39465353D01*
X118445944Y-39446872D01*
X118445939Y-39446872D01*
X118439487Y-39445500D01*
X118383595Y-39445500D01*
X118315474Y-39425498D01*
X118294500Y-39408595D01*
X117072986Y-38187081D01*
X123539933Y-38187081D01*
X123540203Y-38191200D01*
X123555340Y-38422142D01*
X123559296Y-38482507D01*
X123560098Y-38486540D01*
X123560099Y-38486546D01*
X123612233Y-38748637D01*
X123617055Y-38772878D01*
X123618382Y-38776787D01*
X123618383Y-38776791D01*
X123678532Y-38953985D01*
X123712220Y-39053226D01*
X123843164Y-39318754D01*
X123845458Y-39322187D01*
X124004491Y-39560197D01*
X124007646Y-39564919D01*
X124010360Y-39568013D01*
X124010364Y-39568019D01*
X124141475Y-39717521D01*
X124202852Y-39787508D01*
X124205941Y-39790217D01*
X124422341Y-39979996D01*
X124422347Y-39980000D01*
X124425441Y-39982714D01*
X124428867Y-39985003D01*
X124428872Y-39985007D01*
X124486616Y-40023590D01*
X124671606Y-40147196D01*
X124675305Y-40149020D01*
X124675310Y-40149023D01*
X124811592Y-40216229D01*
X124937134Y-40278140D01*
X124941039Y-40279465D01*
X124941040Y-40279466D01*
X125213569Y-40371977D01*
X125213573Y-40371978D01*
X125217482Y-40373305D01*
X125221526Y-40374109D01*
X125221532Y-40374111D01*
X125503814Y-40430261D01*
X125503820Y-40430262D01*
X125507853Y-40431064D01*
X125511958Y-40431333D01*
X125511965Y-40431334D01*
X125799160Y-40450157D01*
X125803279Y-40450427D01*
X125807398Y-40450157D01*
X126094593Y-40431334D01*
X126094600Y-40431333D01*
X126098705Y-40431064D01*
X126102738Y-40430262D01*
X126102744Y-40430261D01*
X126385026Y-40374111D01*
X126385032Y-40374109D01*
X126389076Y-40373305D01*
X126392985Y-40371978D01*
X126392989Y-40371977D01*
X126665518Y-40279466D01*
X126665519Y-40279465D01*
X126669424Y-40278140D01*
X126794966Y-40216229D01*
X126931248Y-40149023D01*
X126931253Y-40149020D01*
X126934952Y-40147196D01*
X127119942Y-40023590D01*
X127177686Y-39985007D01*
X127177691Y-39985003D01*
X127181117Y-39982714D01*
X127184211Y-39980000D01*
X127184217Y-39979996D01*
X127400617Y-39790217D01*
X127403706Y-39787508D01*
X127465083Y-39717521D01*
X127596194Y-39568019D01*
X127596198Y-39568013D01*
X127598912Y-39564919D01*
X127602068Y-39560197D01*
X127761100Y-39322187D01*
X127763394Y-39318754D01*
X127894338Y-39053226D01*
X127928026Y-38953985D01*
X127988175Y-38776791D01*
X127988176Y-38776787D01*
X127989503Y-38772878D01*
X127994325Y-38748637D01*
X128046459Y-38486546D01*
X128046460Y-38486540D01*
X128047262Y-38482507D01*
X128051219Y-38422142D01*
X128066355Y-38191200D01*
X128066625Y-38187081D01*
X128054642Y-38004253D01*
X128047532Y-37895767D01*
X128047531Y-37895760D01*
X128047262Y-37891655D01*
X127993888Y-37623326D01*
X127990309Y-37605334D01*
X127990307Y-37605328D01*
X127989503Y-37601284D01*
X127984919Y-37587778D01*
X127895664Y-37324842D01*
X127895663Y-37324841D01*
X127894338Y-37320936D01*
X127780940Y-37090987D01*
X127765221Y-37059112D01*
X127765218Y-37059107D01*
X127763394Y-37055408D01*
X127635768Y-36864402D01*
X127601205Y-36812674D01*
X127601201Y-36812669D01*
X127598912Y-36809243D01*
X127596198Y-36806149D01*
X127596194Y-36806143D01*
X127406415Y-36589743D01*
X127403706Y-36586654D01*
X127361422Y-36549572D01*
X127184217Y-36394166D01*
X127184211Y-36394162D01*
X127181117Y-36391448D01*
X127177691Y-36389159D01*
X127177686Y-36389155D01*
X126938385Y-36229260D01*
X126934952Y-36226966D01*
X126931253Y-36225142D01*
X126931248Y-36225139D01*
X126794966Y-36157933D01*
X126669424Y-36096022D01*
X126665518Y-36094696D01*
X126392989Y-36002185D01*
X126392985Y-36002184D01*
X126389076Y-36000857D01*
X126385032Y-36000053D01*
X126385026Y-36000051D01*
X126102744Y-35943901D01*
X126102738Y-35943900D01*
X126098705Y-35943098D01*
X126094600Y-35942829D01*
X126094593Y-35942828D01*
X125807398Y-35924005D01*
X125803279Y-35923735D01*
X125799160Y-35924005D01*
X125511965Y-35942828D01*
X125511958Y-35942829D01*
X125507853Y-35943098D01*
X125503820Y-35943900D01*
X125503814Y-35943901D01*
X125221532Y-36000051D01*
X125221526Y-36000053D01*
X125217482Y-36000857D01*
X125213573Y-36002184D01*
X125213569Y-36002185D01*
X124941040Y-36094696D01*
X124937134Y-36096022D01*
X124811592Y-36157933D01*
X124675310Y-36225139D01*
X124675305Y-36225142D01*
X124671606Y-36226966D01*
X124668173Y-36229260D01*
X124428872Y-36389155D01*
X124428867Y-36389159D01*
X124425441Y-36391448D01*
X124422347Y-36394162D01*
X124422341Y-36394166D01*
X124245136Y-36549572D01*
X124202852Y-36586654D01*
X124200143Y-36589743D01*
X124010364Y-36806143D01*
X124010360Y-36806149D01*
X124007646Y-36809243D01*
X124005357Y-36812669D01*
X124005353Y-36812674D01*
X123970790Y-36864402D01*
X123843164Y-37055408D01*
X123841340Y-37059107D01*
X123841337Y-37059112D01*
X123825618Y-37090987D01*
X123712220Y-37320936D01*
X123710895Y-37324841D01*
X123710894Y-37324842D01*
X123621640Y-37587778D01*
X123617055Y-37601284D01*
X123616251Y-37605328D01*
X123616249Y-37605334D01*
X123612671Y-37623326D01*
X123559296Y-37891655D01*
X123559027Y-37895760D01*
X123559026Y-37895767D01*
X123551916Y-38004253D01*
X123539933Y-38187081D01*
X117072986Y-38187081D01*
X111904405Y-33018500D01*
X111870379Y-32956188D01*
X111867500Y-32929405D01*
X111867500Y-31866524D01*
X111887502Y-31798403D01*
X111899858Y-31782221D01*
X111973040Y-31700944D01*
X112031314Y-31600010D01*
X112065223Y-31541279D01*
X112065224Y-31541278D01*
X112068527Y-31535556D01*
X112127542Y-31353928D01*
X112147504Y-31164000D01*
X112127542Y-30974072D01*
X112068527Y-30792444D01*
X111973040Y-30627056D01*
X111845253Y-30485134D01*
X111690752Y-30372882D01*
X111684724Y-30370198D01*
X111684722Y-30370197D01*
X111522319Y-30297891D01*
X111522318Y-30297891D01*
X111516288Y-30295206D01*
X111422888Y-30275353D01*
X111335944Y-30256872D01*
X111335939Y-30256872D01*
X111329487Y-30255500D01*
X111138513Y-30255500D01*
X111132061Y-30256872D01*
X111132056Y-30256872D01*
X111045112Y-30275353D01*
X110951712Y-30295206D01*
X110945682Y-30297891D01*
X110945681Y-30297891D01*
X110783278Y-30370197D01*
X110783276Y-30370198D01*
X110777248Y-30372882D01*
X110622747Y-30485134D01*
X110494960Y-30627056D01*
X110399473Y-30792444D01*
X110340458Y-30974072D01*
X110320496Y-31164000D01*
X99311780Y-31164000D01*
X99311780Y-29538783D01*
X99331782Y-29470662D01*
X99371008Y-29431930D01*
X101918456Y-27840035D01*
X101985228Y-27820888D01*
X105740933Y-27820888D01*
X111165772Y-27820889D01*
G37*
G04 #@! TD.AperFunction*
M02*
