G04 #@! TF.GenerationSoftware,KiCad,Pcbnew,(6.0.7)*
G04 #@! TF.CreationDate,2023-02-04T20:53:32-08:00*
G04 #@! TF.ProjectId,procon_gcc_button_board,70726f63-6f6e-45f6-9763-635f62757474,rev?*
G04 #@! TF.SameCoordinates,Original*
G04 #@! TF.FileFunction,AssemblyDrawing,Top*
%FSLAX46Y46*%
G04 Gerber Fmt 4.6, Leading zero omitted, Abs format (unit mm)*
G04 Created by KiCad (PCBNEW (6.0.7)) date 2023-02-04 20:53:32*
%MOMM*%
%LPD*%
G01*
G04 APERTURE LIST*
%ADD10C,0.150000*%
%ADD11C,0.100000*%
G04 APERTURE END LIST*
D10*
X139555952Y-36627380D02*
X140127380Y-36627380D01*
X139841666Y-37627380D02*
X139841666Y-36627380D01*
X140936904Y-37627380D02*
X140460714Y-37627380D01*
X140460714Y-36627380D01*
X141175000Y-36627380D02*
X141794047Y-36627380D01*
X141460714Y-37008333D01*
X141603571Y-37008333D01*
X141698809Y-37055952D01*
X141746428Y-37103571D01*
X141794047Y-37198809D01*
X141794047Y-37436904D01*
X141746428Y-37532142D01*
X141698809Y-37579761D01*
X141603571Y-37627380D01*
X141317857Y-37627380D01*
X141222619Y-37579761D01*
X141175000Y-37532142D01*
X142127380Y-36627380D02*
X142746428Y-36627380D01*
X142413095Y-37008333D01*
X142555952Y-37008333D01*
X142651190Y-37055952D01*
X142698809Y-37103571D01*
X142746428Y-37198809D01*
X142746428Y-37436904D01*
X142698809Y-37532142D01*
X142651190Y-37579761D01*
X142555952Y-37627380D01*
X142270238Y-37627380D01*
X142175000Y-37579761D01*
X142127380Y-37532142D01*
X143698809Y-37627380D02*
X143127380Y-37627380D01*
X143413095Y-37627380D02*
X143413095Y-36627380D01*
X143317857Y-36770238D01*
X143222619Y-36865476D01*
X143127380Y-36913095D01*
X144603571Y-36627380D02*
X144127380Y-36627380D01*
X144079761Y-37103571D01*
X144127380Y-37055952D01*
X144222619Y-37008333D01*
X144460714Y-37008333D01*
X144555952Y-37055952D01*
X144603571Y-37103571D01*
X144651190Y-37198809D01*
X144651190Y-37436904D01*
X144603571Y-37532142D01*
X144555952Y-37579761D01*
X144460714Y-37627380D01*
X144222619Y-37627380D01*
X144127380Y-37579761D01*
X144079761Y-37532142D01*
X145079761Y-37627380D02*
X145079761Y-36627380D01*
X145651190Y-37627380D01*
X145651190Y-36627380D01*
X146460714Y-37103571D02*
X146127380Y-37103571D01*
X146127380Y-37627380D02*
X146127380Y-36627380D01*
X146603571Y-36627380D01*
X147508333Y-37627380D02*
X146936904Y-37627380D01*
X147222619Y-37627380D02*
X147222619Y-36627380D01*
X147127380Y-36770238D01*
X147032142Y-36865476D01*
X146936904Y-36913095D01*
X148127380Y-36627380D02*
X148222619Y-36627380D01*
X148317857Y-36675000D01*
X148365476Y-36722619D01*
X148413095Y-36817857D01*
X148460714Y-37008333D01*
X148460714Y-37246428D01*
X148413095Y-37436904D01*
X148365476Y-37532142D01*
X148317857Y-37579761D01*
X148222619Y-37627380D01*
X148127380Y-37627380D01*
X148032142Y-37579761D01*
X147984523Y-37532142D01*
X147936904Y-37436904D01*
X147889285Y-37246428D01*
X147889285Y-37008333D01*
X147936904Y-36817857D01*
X147984523Y-36722619D01*
X148032142Y-36675000D01*
X148127380Y-36627380D01*
X149079761Y-36627380D02*
X149175000Y-36627380D01*
X149270238Y-36675000D01*
X149317857Y-36722619D01*
X149365476Y-36817857D01*
X149413095Y-37008333D01*
X149413095Y-37246428D01*
X149365476Y-37436904D01*
X149317857Y-37532142D01*
X149270238Y-37579761D01*
X149175000Y-37627380D01*
X149079761Y-37627380D01*
X148984523Y-37579761D01*
X148936904Y-37532142D01*
X148889285Y-37436904D01*
X148841666Y-37246428D01*
X148841666Y-37008333D01*
X148889285Y-36817857D01*
X148936904Y-36722619D01*
X148984523Y-36675000D01*
X149079761Y-36627380D01*
X150508333Y-37722619D02*
X150413095Y-37675000D01*
X150317857Y-37579761D01*
X150175000Y-37436904D01*
X150079761Y-37389285D01*
X149984523Y-37389285D01*
X150032142Y-37627380D02*
X149936904Y-37579761D01*
X149841666Y-37484523D01*
X149794047Y-37294047D01*
X149794047Y-36960714D01*
X149841666Y-36770238D01*
X149936904Y-36675000D01*
X150032142Y-36627380D01*
X150222619Y-36627380D01*
X150317857Y-36675000D01*
X150413095Y-36770238D01*
X150460714Y-36960714D01*
X150460714Y-37294047D01*
X150413095Y-37484523D01*
X150317857Y-37579761D01*
X150222619Y-37627380D01*
X150032142Y-37627380D01*
X108094952Y-36016380D02*
X108666380Y-36016380D01*
X108380666Y-37016380D02*
X108380666Y-36016380D01*
X109475904Y-37016380D02*
X108999714Y-37016380D01*
X108999714Y-36016380D01*
X109714000Y-36016380D02*
X110333047Y-36016380D01*
X109999714Y-36397333D01*
X110142571Y-36397333D01*
X110237809Y-36444952D01*
X110285428Y-36492571D01*
X110333047Y-36587809D01*
X110333047Y-36825904D01*
X110285428Y-36921142D01*
X110237809Y-36968761D01*
X110142571Y-37016380D01*
X109856857Y-37016380D01*
X109761619Y-36968761D01*
X109714000Y-36921142D01*
X110666380Y-36016380D02*
X111285428Y-36016380D01*
X110952095Y-36397333D01*
X111094952Y-36397333D01*
X111190190Y-36444952D01*
X111237809Y-36492571D01*
X111285428Y-36587809D01*
X111285428Y-36825904D01*
X111237809Y-36921142D01*
X111190190Y-36968761D01*
X111094952Y-37016380D01*
X110809238Y-37016380D01*
X110714000Y-36968761D01*
X110666380Y-36921142D01*
X112237809Y-37016380D02*
X111666380Y-37016380D01*
X111952095Y-37016380D02*
X111952095Y-36016380D01*
X111856857Y-36159238D01*
X111761619Y-36254476D01*
X111666380Y-36302095D01*
X113142571Y-36016380D02*
X112666380Y-36016380D01*
X112618761Y-36492571D01*
X112666380Y-36444952D01*
X112761619Y-36397333D01*
X112999714Y-36397333D01*
X113094952Y-36444952D01*
X113142571Y-36492571D01*
X113190190Y-36587809D01*
X113190190Y-36825904D01*
X113142571Y-36921142D01*
X113094952Y-36968761D01*
X112999714Y-37016380D01*
X112761619Y-37016380D01*
X112666380Y-36968761D01*
X112618761Y-36921142D01*
X113618761Y-37016380D02*
X113618761Y-36016380D01*
X114190190Y-37016380D01*
X114190190Y-36016380D01*
X114999714Y-36492571D02*
X114666380Y-36492571D01*
X114666380Y-37016380D02*
X114666380Y-36016380D01*
X115142571Y-36016380D01*
X116047333Y-37016380D02*
X115475904Y-37016380D01*
X115761619Y-37016380D02*
X115761619Y-36016380D01*
X115666380Y-36159238D01*
X115571142Y-36254476D01*
X115475904Y-36302095D01*
X116666380Y-36016380D02*
X116761619Y-36016380D01*
X116856857Y-36064000D01*
X116904476Y-36111619D01*
X116952095Y-36206857D01*
X116999714Y-36397333D01*
X116999714Y-36635428D01*
X116952095Y-36825904D01*
X116904476Y-36921142D01*
X116856857Y-36968761D01*
X116761619Y-37016380D01*
X116666380Y-37016380D01*
X116571142Y-36968761D01*
X116523523Y-36921142D01*
X116475904Y-36825904D01*
X116428285Y-36635428D01*
X116428285Y-36397333D01*
X116475904Y-36206857D01*
X116523523Y-36111619D01*
X116571142Y-36064000D01*
X116666380Y-36016380D01*
X117618761Y-36016380D02*
X117714000Y-36016380D01*
X117809238Y-36064000D01*
X117856857Y-36111619D01*
X117904476Y-36206857D01*
X117952095Y-36397333D01*
X117952095Y-36635428D01*
X117904476Y-36825904D01*
X117856857Y-36921142D01*
X117809238Y-36968761D01*
X117714000Y-37016380D01*
X117618761Y-37016380D01*
X117523523Y-36968761D01*
X117475904Y-36921142D01*
X117428285Y-36825904D01*
X117380666Y-36635428D01*
X117380666Y-36397333D01*
X117428285Y-36206857D01*
X117475904Y-36111619D01*
X117523523Y-36064000D01*
X117618761Y-36016380D01*
X119047333Y-37111619D02*
X118952095Y-37064000D01*
X118856857Y-36968761D01*
X118714000Y-36825904D01*
X118618761Y-36778285D01*
X118523523Y-36778285D01*
X118571142Y-37016380D02*
X118475904Y-36968761D01*
X118380666Y-36873523D01*
X118333047Y-36683047D01*
X118333047Y-36349714D01*
X118380666Y-36159238D01*
X118475904Y-36064000D01*
X118571142Y-36016380D01*
X118761619Y-36016380D01*
X118856857Y-36064000D01*
X118952095Y-36159238D01*
X118999714Y-36349714D01*
X118999714Y-36683047D01*
X118952095Y-36873523D01*
X118856857Y-36968761D01*
X118761619Y-37016380D01*
X118571142Y-37016380D01*
X100364952Y-24336380D02*
X100936380Y-24336380D01*
X100650666Y-25336380D02*
X100650666Y-24336380D01*
X101745904Y-25336380D02*
X101269714Y-25336380D01*
X101269714Y-24336380D01*
X101984000Y-24336380D02*
X102603047Y-24336380D01*
X102269714Y-24717333D01*
X102412571Y-24717333D01*
X102507809Y-24764952D01*
X102555428Y-24812571D01*
X102603047Y-24907809D01*
X102603047Y-25145904D01*
X102555428Y-25241142D01*
X102507809Y-25288761D01*
X102412571Y-25336380D01*
X102126857Y-25336380D01*
X102031619Y-25288761D01*
X101984000Y-25241142D01*
X102936380Y-24336380D02*
X103555428Y-24336380D01*
X103222095Y-24717333D01*
X103364952Y-24717333D01*
X103460190Y-24764952D01*
X103507809Y-24812571D01*
X103555428Y-24907809D01*
X103555428Y-25145904D01*
X103507809Y-25241142D01*
X103460190Y-25288761D01*
X103364952Y-25336380D01*
X103079238Y-25336380D01*
X102984000Y-25288761D01*
X102936380Y-25241142D01*
X104507809Y-25336380D02*
X103936380Y-25336380D01*
X104222095Y-25336380D02*
X104222095Y-24336380D01*
X104126857Y-24479238D01*
X104031619Y-24574476D01*
X103936380Y-24622095D01*
X105412571Y-24336380D02*
X104936380Y-24336380D01*
X104888761Y-24812571D01*
X104936380Y-24764952D01*
X105031619Y-24717333D01*
X105269714Y-24717333D01*
X105364952Y-24764952D01*
X105412571Y-24812571D01*
X105460190Y-24907809D01*
X105460190Y-25145904D01*
X105412571Y-25241142D01*
X105364952Y-25288761D01*
X105269714Y-25336380D01*
X105031619Y-25336380D01*
X104936380Y-25288761D01*
X104888761Y-25241142D01*
X105888761Y-25336380D02*
X105888761Y-24336380D01*
X106460190Y-25336380D01*
X106460190Y-24336380D01*
X107269714Y-24812571D02*
X106936380Y-24812571D01*
X106936380Y-25336380D02*
X106936380Y-24336380D01*
X107412571Y-24336380D01*
X108317333Y-25336380D02*
X107745904Y-25336380D01*
X108031619Y-25336380D02*
X108031619Y-24336380D01*
X107936380Y-24479238D01*
X107841142Y-24574476D01*
X107745904Y-24622095D01*
X108936380Y-24336380D02*
X109031619Y-24336380D01*
X109126857Y-24384000D01*
X109174476Y-24431619D01*
X109222095Y-24526857D01*
X109269714Y-24717333D01*
X109269714Y-24955428D01*
X109222095Y-25145904D01*
X109174476Y-25241142D01*
X109126857Y-25288761D01*
X109031619Y-25336380D01*
X108936380Y-25336380D01*
X108841142Y-25288761D01*
X108793523Y-25241142D01*
X108745904Y-25145904D01*
X108698285Y-24955428D01*
X108698285Y-24717333D01*
X108745904Y-24526857D01*
X108793523Y-24431619D01*
X108841142Y-24384000D01*
X108936380Y-24336380D01*
X109888761Y-24336380D02*
X109984000Y-24336380D01*
X110079238Y-24384000D01*
X110126857Y-24431619D01*
X110174476Y-24526857D01*
X110222095Y-24717333D01*
X110222095Y-24955428D01*
X110174476Y-25145904D01*
X110126857Y-25241142D01*
X110079238Y-25288761D01*
X109984000Y-25336380D01*
X109888761Y-25336380D01*
X109793523Y-25288761D01*
X109745904Y-25241142D01*
X109698285Y-25145904D01*
X109650666Y-24955428D01*
X109650666Y-24717333D01*
X109698285Y-24526857D01*
X109745904Y-24431619D01*
X109793523Y-24384000D01*
X109888761Y-24336380D01*
X111317333Y-25431619D02*
X111222095Y-25384000D01*
X111126857Y-25288761D01*
X110984000Y-25145904D01*
X110888761Y-25098285D01*
X110793523Y-25098285D01*
X110841142Y-25336380D02*
X110745904Y-25288761D01*
X110650666Y-25193523D01*
X110603047Y-25003047D01*
X110603047Y-24669714D01*
X110650666Y-24479238D01*
X110745904Y-24384000D01*
X110841142Y-24336380D01*
X111031619Y-24336380D01*
X111126857Y-24384000D01*
X111222095Y-24479238D01*
X111269714Y-24669714D01*
X111269714Y-25003047D01*
X111222095Y-25193523D01*
X111126857Y-25288761D01*
X111031619Y-25336380D01*
X110841142Y-25336380D01*
X130354952Y-35206380D02*
X130926380Y-35206380D01*
X130640666Y-36206380D02*
X130640666Y-35206380D01*
X131735904Y-36206380D02*
X131259714Y-36206380D01*
X131259714Y-35206380D01*
X131974000Y-35206380D02*
X132593047Y-35206380D01*
X132259714Y-35587333D01*
X132402571Y-35587333D01*
X132497809Y-35634952D01*
X132545428Y-35682571D01*
X132593047Y-35777809D01*
X132593047Y-36015904D01*
X132545428Y-36111142D01*
X132497809Y-36158761D01*
X132402571Y-36206380D01*
X132116857Y-36206380D01*
X132021619Y-36158761D01*
X131974000Y-36111142D01*
X132926380Y-35206380D02*
X133545428Y-35206380D01*
X133212095Y-35587333D01*
X133354952Y-35587333D01*
X133450190Y-35634952D01*
X133497809Y-35682571D01*
X133545428Y-35777809D01*
X133545428Y-36015904D01*
X133497809Y-36111142D01*
X133450190Y-36158761D01*
X133354952Y-36206380D01*
X133069238Y-36206380D01*
X132974000Y-36158761D01*
X132926380Y-36111142D01*
X134497809Y-36206380D02*
X133926380Y-36206380D01*
X134212095Y-36206380D02*
X134212095Y-35206380D01*
X134116857Y-35349238D01*
X134021619Y-35444476D01*
X133926380Y-35492095D01*
X135402571Y-35206380D02*
X134926380Y-35206380D01*
X134878761Y-35682571D01*
X134926380Y-35634952D01*
X135021619Y-35587333D01*
X135259714Y-35587333D01*
X135354952Y-35634952D01*
X135402571Y-35682571D01*
X135450190Y-35777809D01*
X135450190Y-36015904D01*
X135402571Y-36111142D01*
X135354952Y-36158761D01*
X135259714Y-36206380D01*
X135021619Y-36206380D01*
X134926380Y-36158761D01*
X134878761Y-36111142D01*
X135878761Y-36206380D02*
X135878761Y-35206380D01*
X136450190Y-36206380D01*
X136450190Y-35206380D01*
X137259714Y-35682571D02*
X136926380Y-35682571D01*
X136926380Y-36206380D02*
X136926380Y-35206380D01*
X137402571Y-35206380D01*
X138307333Y-36206380D02*
X137735904Y-36206380D01*
X138021619Y-36206380D02*
X138021619Y-35206380D01*
X137926380Y-35349238D01*
X137831142Y-35444476D01*
X137735904Y-35492095D01*
X138926380Y-35206380D02*
X139021619Y-35206380D01*
X139116857Y-35254000D01*
X139164476Y-35301619D01*
X139212095Y-35396857D01*
X139259714Y-35587333D01*
X139259714Y-35825428D01*
X139212095Y-36015904D01*
X139164476Y-36111142D01*
X139116857Y-36158761D01*
X139021619Y-36206380D01*
X138926380Y-36206380D01*
X138831142Y-36158761D01*
X138783523Y-36111142D01*
X138735904Y-36015904D01*
X138688285Y-35825428D01*
X138688285Y-35587333D01*
X138735904Y-35396857D01*
X138783523Y-35301619D01*
X138831142Y-35254000D01*
X138926380Y-35206380D01*
X139878761Y-35206380D02*
X139974000Y-35206380D01*
X140069238Y-35254000D01*
X140116857Y-35301619D01*
X140164476Y-35396857D01*
X140212095Y-35587333D01*
X140212095Y-35825428D01*
X140164476Y-36015904D01*
X140116857Y-36111142D01*
X140069238Y-36158761D01*
X139974000Y-36206380D01*
X139878761Y-36206380D01*
X139783523Y-36158761D01*
X139735904Y-36111142D01*
X139688285Y-36015904D01*
X139640666Y-35825428D01*
X139640666Y-35587333D01*
X139688285Y-35396857D01*
X139735904Y-35301619D01*
X139783523Y-35254000D01*
X139878761Y-35206380D01*
X141307333Y-36301619D02*
X141212095Y-36254000D01*
X141116857Y-36158761D01*
X140974000Y-36015904D01*
X140878761Y-35968285D01*
X140783523Y-35968285D01*
X140831142Y-36206380D02*
X140735904Y-36158761D01*
X140640666Y-36063523D01*
X140593047Y-35873047D01*
X140593047Y-35539714D01*
X140640666Y-35349238D01*
X140735904Y-35254000D01*
X140831142Y-35206380D01*
X141021619Y-35206380D01*
X141116857Y-35254000D01*
X141212095Y-35349238D01*
X141259714Y-35539714D01*
X141259714Y-35873047D01*
X141212095Y-36063523D01*
X141116857Y-36158761D01*
X141021619Y-36206380D01*
X140831142Y-36206380D01*
D11*
X166154000Y-55074000D02*
X165954000Y-55074000D01*
X166054000Y-55074000D02*
X166154000Y-55074000D01*
X166054000Y-55174000D02*
X166054000Y-54974000D01*
X166054000Y-55074000D02*
X166054000Y-55174000D01*
X166054000Y-34304000D02*
X166124711Y-34233289D01*
X166054000Y-34304000D02*
X165983289Y-34233289D01*
X165983289Y-34233289D02*
X166124711Y-34374711D01*
X166124711Y-34233289D02*
X165983289Y-34374711D01*
X154234000Y-44684000D02*
X154034000Y-44684000D01*
X154134000Y-44684000D02*
X154134000Y-44584000D01*
X154134000Y-44584000D02*
X154134000Y-44784000D01*
X154134000Y-44684000D02*
X154234000Y-44684000D01*
X177953289Y-44764711D02*
X178094711Y-44623289D01*
X177953289Y-44623289D02*
X178094711Y-44764711D01*
X178024000Y-44694000D02*
X177953289Y-44764711D01*
X178024000Y-44694000D02*
X177953289Y-44623289D01*
M02*
