G04 #@! TF.GenerationSoftware,KiCad,Pcbnew,(6.0.7)*
G04 #@! TF.CreationDate,2022-12-20T19:45:57-08:00*
G04 #@! TF.ProjectId,procon_gcc_button_board,70726f63-6f6e-45f6-9763-635f62757474,rev?*
G04 #@! TF.SameCoordinates,Original*
G04 #@! TF.FileFunction,Profile,NP*
%FSLAX46Y46*%
G04 Gerber Fmt 4.6, Leading zero omitted, Abs format (unit mm)*
G04 Created by KiCad (PCBNEW (6.0.7)) date 2022-12-20 19:45:57*
%MOMM*%
%LPD*%
G01*
G04 APERTURE LIST*
G04 #@! TA.AperFunction,Profile*
%ADD10C,0.200000*%
G04 #@! TD*
G04 APERTURE END LIST*
D10*
X101803280Y-27312388D02*
X98803280Y-29187081D01*
X148803279Y-27312388D02*
X139177971Y-27312388D01*
X134453278Y-81612388D02*
X134453278Y-75312388D01*
X189203279Y-42312388D02*
X189203279Y-46712388D01*
X111428589Y-27312389D02*
X101803280Y-27312388D01*
X123753279Y-66686329D02*
X123753279Y-63738448D01*
X109203280Y-81612388D02*
X84203280Y-81612388D01*
X178353279Y-57112388D02*
G75*
G03*
X178353279Y-57112388I-1150000J0D01*
G01*
X80203280Y-79612388D02*
X80203281Y-69512388D01*
X114203279Y-80512388D02*
X114203279Y-81612388D01*
X109203279Y-80512391D02*
X109203280Y-81612388D01*
X175403279Y-66612387D02*
X160853279Y-66612387D01*
X114203321Y-80512388D02*
G75*
G03*
X109203279Y-80512390I-2500021J-12D01*
G01*
X80203281Y-59612387D02*
X83803279Y-59612387D01*
X189203279Y-46712388D02*
X175403279Y-66612387D01*
X127153278Y-63738448D02*
X127153277Y-66686329D01*
X185203278Y-42312388D02*
G75*
G03*
X179203279Y-37112388I-7299978J-2361512D01*
G01*
X123753304Y-66686307D02*
G75*
G03*
X127153278Y-66686328I1699996J1473907D01*
G01*
X98803280Y-29187081D02*
X98803280Y-44612388D01*
X79203280Y-68512387D02*
X79203279Y-60612388D01*
X185203279Y-42312388D02*
X189203279Y-42312388D01*
X121653280Y-65212387D02*
G75*
G03*
X121653280Y-65212387I-1250000J0D01*
G01*
X148803279Y-27312388D02*
X150367211Y-29312388D01*
X105053280Y-46812389D02*
G75*
G03*
X105053280Y-46812389I-1250000J0D01*
G01*
X150367211Y-29312388D02*
X152603279Y-27312388D01*
X79203279Y-60612388D02*
X80203281Y-59612387D01*
X139177971Y-27312388D02*
X137303279Y-29187080D01*
X127153278Y-63738448D02*
G75*
G03*
X123753278Y-63738448I-1700000J-1473939D01*
G01*
X176203279Y-28312388D02*
X179203279Y-37112388D01*
X84203280Y-79612388D02*
X84203280Y-81612388D01*
X134453278Y-81612388D02*
X114203279Y-81612388D01*
X83803279Y-59612389D02*
G75*
G03*
X98803279Y-44612388I1J14999999D01*
G01*
X113303280Y-29187081D02*
X111428589Y-27312389D01*
X84203280Y-79612388D02*
X80203280Y-79612388D01*
X171203279Y-27312388D02*
X172203279Y-28312388D01*
X137303279Y-29187080D02*
X113303280Y-29187081D01*
X172203279Y-28312388D02*
X176203279Y-28312388D01*
X84353280Y-65212387D02*
G75*
G03*
X84353280Y-65212387I-1150000J0D01*
G01*
X171203279Y-27312388D02*
X152603279Y-27312388D01*
X80203281Y-69512388D02*
X79203280Y-68512387D01*
X127553279Y-38187081D02*
G75*
G03*
X127553279Y-38187081I-1750000J0D01*
G01*
X160853277Y-66612387D02*
G75*
G03*
X134453277Y-75312389I-14966027J1008977D01*
G01*
M02*
