G04 #@! TF.GenerationSoftware,KiCad,Pcbnew,(6.0.7)*
G04 #@! TF.CreationDate,2022-12-20T19:45:57-08:00*
G04 #@! TF.ProjectId,procon_gcc_button_board,70726f63-6f6e-45f6-9763-635f62757474,rev?*
G04 #@! TF.SameCoordinates,Original*
G04 #@! TF.FileFunction,Legend,Bot*
G04 #@! TF.FilePolarity,Positive*
%FSLAX46Y46*%
G04 Gerber Fmt 4.6, Leading zero omitted, Abs format (unit mm)*
G04 Created by KiCad (PCBNEW (6.0.7)) date 2022-12-20 19:45:57*
%MOMM*%
%LPD*%
G01*
G04 APERTURE LIST*
%ADD10C,0.300000*%
%ADD11C,0.150000*%
%ADD12C,0.120000*%
G04 APERTURE END LIST*
D10*
X121059428Y-80681142D02*
X121059428Y-79681142D01*
X119559428Y-80681142D01*
X119559428Y-79681142D01*
X119559428Y-78395428D02*
X119559428Y-79109714D01*
X121059428Y-79109714D01*
X123834000Y-79596857D02*
X123905428Y-79739714D01*
X123905428Y-79954000D01*
X123834000Y-80168285D01*
X123691142Y-80311142D01*
X123548285Y-80382571D01*
X123262571Y-80454000D01*
X123048285Y-80454000D01*
X122762571Y-80382571D01*
X122619714Y-80311142D01*
X122476857Y-80168285D01*
X122405428Y-79954000D01*
X122405428Y-79811142D01*
X122476857Y-79596857D01*
X122548285Y-79525428D01*
X123048285Y-79525428D01*
X123048285Y-79811142D01*
X122405428Y-78882571D02*
X123905428Y-78882571D01*
X122405428Y-78025428D01*
X123905428Y-78025428D01*
X122405428Y-77311142D02*
X123905428Y-77311142D01*
X123905428Y-76954000D01*
X123834000Y-76739714D01*
X123691142Y-76596857D01*
X123548285Y-76525428D01*
X123262571Y-76454000D01*
X123048285Y-76454000D01*
X122762571Y-76525428D01*
X122619714Y-76596857D01*
X122476857Y-76739714D01*
X122405428Y-76954000D01*
X122405428Y-77311142D01*
X126647428Y-80824000D02*
X126647428Y-79824000D01*
X125147428Y-80824000D01*
X125147428Y-79824000D01*
X125147428Y-78395428D02*
X125861714Y-78895428D01*
X125147428Y-79252571D02*
X126647428Y-79252571D01*
X126647428Y-78681142D01*
X126576000Y-78538285D01*
X126504571Y-78466857D01*
X126361714Y-78395428D01*
X126147428Y-78395428D01*
X126004571Y-78466857D01*
X125933142Y-78538285D01*
X125861714Y-78681142D01*
X125861714Y-79252571D01*
X128195428Y-79681142D02*
X128909714Y-80181142D01*
X128195428Y-80538285D02*
X129695428Y-80538285D01*
X129695428Y-79966857D01*
X129624000Y-79824000D01*
X129552571Y-79752571D01*
X129409714Y-79681142D01*
X129195428Y-79681142D01*
X129052571Y-79752571D01*
X128981142Y-79824000D01*
X128909714Y-79966857D01*
X128909714Y-80538285D01*
X129695428Y-79252571D02*
X129695428Y-78395428D01*
X128195428Y-78824000D02*
X129695428Y-78824000D01*
X116511428Y-79681142D02*
X116511428Y-80395428D01*
X118011428Y-80395428D01*
X118011428Y-79395428D02*
X118011428Y-78538285D01*
X116511428Y-78966857D02*
X118011428Y-78966857D01*
X104869465Y-72174491D02*
X104869465Y-70674491D01*
X104512322Y-70674491D01*
X104298037Y-70745920D01*
X104155180Y-70888777D01*
X104083751Y-71031634D01*
X104012322Y-71317348D01*
X104012322Y-71531634D01*
X104083751Y-71817348D01*
X104155180Y-71960205D01*
X104298037Y-72103062D01*
X104512322Y-72174491D01*
X104869465Y-72174491D01*
X103369465Y-72174491D02*
X103369465Y-70674491D01*
X102798037Y-70674491D01*
X102655180Y-70745920D01*
X102583751Y-70817348D01*
X102512322Y-70960205D01*
X102512322Y-71174491D01*
X102583751Y-71317348D01*
X102655180Y-71388777D01*
X102798037Y-71460205D01*
X103369465Y-71460205D01*
X102226608Y-72317348D02*
X101083751Y-72317348D01*
X100726608Y-72174491D02*
X100726608Y-70674491D01*
X100369465Y-70674491D01*
X100155180Y-70745920D01*
X100012322Y-70888777D01*
X99940894Y-71031634D01*
X99869465Y-71317348D01*
X99869465Y-71531634D01*
X99940894Y-71817348D01*
X100012322Y-71960205D01*
X100155180Y-72103062D01*
X100369465Y-72174491D01*
X100726608Y-72174491D01*
X96799791Y-63464571D02*
X95299791Y-63464571D01*
X95299791Y-63821714D01*
X95371220Y-64036000D01*
X95514077Y-64178857D01*
X95656934Y-64250285D01*
X95942648Y-64321714D01*
X96156934Y-64321714D01*
X96442648Y-64250285D01*
X96585505Y-64178857D01*
X96728362Y-64036000D01*
X96799791Y-63821714D01*
X96799791Y-63464571D01*
X96799791Y-64964571D02*
X95299791Y-64964571D01*
X95299791Y-65536000D01*
X95371220Y-65678857D01*
X95442648Y-65750285D01*
X95585505Y-65821714D01*
X95799791Y-65821714D01*
X95942648Y-65750285D01*
X96014077Y-65678857D01*
X96085505Y-65536000D01*
X96085505Y-64964571D01*
X96942648Y-66107428D02*
X96942648Y-67250285D01*
X96799791Y-68321714D02*
X96799791Y-67607428D01*
X95299791Y-67607428D01*
X109367711Y-62747674D02*
X107867711Y-62747674D01*
X107867711Y-63104817D01*
X107939140Y-63319102D01*
X108081997Y-63461960D01*
X108224854Y-63533388D01*
X108510568Y-63604817D01*
X108724854Y-63604817D01*
X109010568Y-63533388D01*
X109153425Y-63461960D01*
X109296282Y-63319102D01*
X109367711Y-63104817D01*
X109367711Y-62747674D01*
X109367711Y-64247674D02*
X107867711Y-64247674D01*
X107867711Y-64819102D01*
X107939140Y-64961960D01*
X108010568Y-65033388D01*
X108153425Y-65104817D01*
X108367711Y-65104817D01*
X108510568Y-65033388D01*
X108581997Y-64961960D01*
X108653425Y-64819102D01*
X108653425Y-64247674D01*
X109510568Y-65390531D02*
X109510568Y-66533388D01*
X109367711Y-67747674D02*
X108653425Y-67247674D01*
X109367711Y-66890531D02*
X107867711Y-66890531D01*
X107867711Y-67461960D01*
X107939140Y-67604817D01*
X108010568Y-67676245D01*
X108153425Y-67747674D01*
X108367711Y-67747674D01*
X108510568Y-67676245D01*
X108581997Y-67604817D01*
X108653425Y-67461960D01*
X108653425Y-66890531D01*
X145526000Y-31341142D02*
X145311714Y-31412571D01*
X144954571Y-31412571D01*
X144811714Y-31341142D01*
X144740285Y-31269714D01*
X144668857Y-31126857D01*
X144668857Y-30984000D01*
X144740285Y-30841142D01*
X144811714Y-30769714D01*
X144954571Y-30698285D01*
X145240285Y-30626857D01*
X145383142Y-30555428D01*
X145454571Y-30484000D01*
X145526000Y-30341142D01*
X145526000Y-30198285D01*
X145454571Y-30055428D01*
X145383142Y-29984000D01*
X145240285Y-29912571D01*
X144883142Y-29912571D01*
X144668857Y-29984000D01*
X144240285Y-29912571D02*
X143383142Y-29912571D01*
X143811714Y-31412571D02*
X143811714Y-29912571D01*
X159725360Y-44630185D02*
X159725360Y-45344471D01*
X160225360Y-43844471D02*
X159725360Y-44630185D01*
X159225360Y-43844471D01*
X166509320Y-37560511D02*
X165509320Y-39060511D01*
X165509320Y-37560511D02*
X166509320Y-39060511D01*
X172650422Y-44915900D02*
X171936137Y-44915900D01*
X172793280Y-45344471D02*
X172293280Y-43844471D01*
X171793280Y-45344471D01*
X165902177Y-50842717D02*
X165687891Y-50914145D01*
X165616462Y-50985574D01*
X165545034Y-51128431D01*
X165545034Y-51342717D01*
X165616462Y-51485574D01*
X165687891Y-51557002D01*
X165830748Y-51628431D01*
X166402177Y-51628431D01*
X166402177Y-50128431D01*
X165902177Y-50128431D01*
X165759320Y-50199860D01*
X165687891Y-50271288D01*
X165616462Y-50414145D01*
X165616462Y-50557002D01*
X165687891Y-50699860D01*
X165759320Y-50771288D01*
X165902177Y-50842717D01*
X166402177Y-50842717D01*
X104905180Y-59606571D02*
X104905180Y-58106571D01*
X104548037Y-58106571D01*
X104333751Y-58178000D01*
X104190894Y-58320857D01*
X104119465Y-58463714D01*
X104048037Y-58749428D01*
X104048037Y-58963714D01*
X104119465Y-59249428D01*
X104190894Y-59392285D01*
X104333751Y-59535142D01*
X104548037Y-59606571D01*
X104905180Y-59606571D01*
X103405180Y-59606571D02*
X103405180Y-58106571D01*
X102833751Y-58106571D01*
X102690894Y-58178000D01*
X102619465Y-58249428D01*
X102548037Y-58392285D01*
X102548037Y-58606571D01*
X102619465Y-58749428D01*
X102690894Y-58820857D01*
X102833751Y-58892285D01*
X103405180Y-58892285D01*
X102262322Y-59749428D02*
X101119465Y-59749428D01*
X100762322Y-58106571D02*
X100762322Y-59320857D01*
X100690894Y-59463714D01*
X100619465Y-59535142D01*
X100476608Y-59606571D01*
X100190894Y-59606571D01*
X100048037Y-59535142D01*
X99976608Y-59463714D01*
X99905180Y-59320857D01*
X99905180Y-58106571D01*
X107504000Y-31001142D02*
X107289714Y-31072571D01*
X106932571Y-31072571D01*
X106789714Y-31001142D01*
X106718285Y-30929714D01*
X106646857Y-30786857D01*
X106646857Y-30644000D01*
X106718285Y-30501142D01*
X106789714Y-30429714D01*
X106932571Y-30358285D01*
X107218285Y-30286857D01*
X107361142Y-30215428D01*
X107432571Y-30144000D01*
X107504000Y-30001142D01*
X107504000Y-29858285D01*
X107432571Y-29715428D01*
X107361142Y-29644000D01*
X107218285Y-29572571D01*
X106861142Y-29572571D01*
X106646857Y-29644000D01*
X106218285Y-29572571D02*
X105361142Y-29572571D01*
X105789714Y-31072571D02*
X105789714Y-29572571D01*
X137754000Y-41161142D02*
X137539714Y-41232571D01*
X137182571Y-41232571D01*
X137039714Y-41161142D01*
X136968285Y-41089714D01*
X136896857Y-40946857D01*
X136896857Y-40804000D01*
X136968285Y-40661142D01*
X137039714Y-40589714D01*
X137182571Y-40518285D01*
X137468285Y-40446857D01*
X137611142Y-40375428D01*
X137682571Y-40304000D01*
X137754000Y-40161142D01*
X137754000Y-40018285D01*
X137682571Y-39875428D01*
X137611142Y-39804000D01*
X137468285Y-39732571D01*
X137111142Y-39732571D01*
X136896857Y-39804000D01*
X136468285Y-39732571D02*
X135611142Y-39732571D01*
X136039714Y-41232571D02*
X136039714Y-39732571D01*
X120634000Y-40802571D02*
X121348285Y-40802571D01*
X121348285Y-39302571D01*
X120134000Y-40231142D02*
X118991142Y-40231142D01*
X119562571Y-40802571D02*
X119562571Y-39659714D01*
X117419714Y-40802571D02*
X117919714Y-40088285D01*
X118276857Y-40802571D02*
X118276857Y-39302571D01*
X117705428Y-39302571D01*
X117562571Y-39374000D01*
X117491142Y-39445428D01*
X117419714Y-39588285D01*
X117419714Y-39802571D01*
X117491142Y-39945428D01*
X117562571Y-40016857D01*
X117705428Y-40088285D01*
X118276857Y-40088285D01*
X116776857Y-40231142D02*
X115634000Y-40231142D01*
X116205428Y-40802571D02*
X116205428Y-39659714D01*
X114991142Y-40374000D02*
X114276857Y-40374000D01*
X115134000Y-40802571D02*
X114634000Y-39302571D01*
X114134000Y-40802571D01*
X113634000Y-40231142D02*
X112491142Y-40231142D01*
X113062571Y-40802571D02*
X113062571Y-39659714D01*
X111848285Y-40731142D02*
X111634000Y-40802571D01*
X111276857Y-40802571D01*
X111134000Y-40731142D01*
X111062571Y-40659714D01*
X110991142Y-40516857D01*
X110991142Y-40374000D01*
X111062571Y-40231142D01*
X111134000Y-40159714D01*
X111276857Y-40088285D01*
X111562571Y-40016857D01*
X111705428Y-39945428D01*
X111776857Y-39874000D01*
X111848285Y-39731142D01*
X111848285Y-39588285D01*
X111776857Y-39445428D01*
X111705428Y-39374000D01*
X111562571Y-39302571D01*
X111205428Y-39302571D01*
X110991142Y-39374000D01*
X110562571Y-39302571D02*
X109705428Y-39302571D01*
X110134000Y-40802571D02*
X110134000Y-39302571D01*
D11*
X163106380Y-20762095D02*
X163106380Y-21333523D01*
X164106380Y-21047809D02*
X163106380Y-21047809D01*
X164106380Y-21666857D02*
X163106380Y-21666857D01*
X163106380Y-22047809D01*
X163154000Y-22143047D01*
X163201619Y-22190666D01*
X163296857Y-22238285D01*
X163439714Y-22238285D01*
X163534952Y-22190666D01*
X163582571Y-22143047D01*
X163630190Y-22047809D01*
X163630190Y-21666857D01*
X163439714Y-23095428D02*
X164106380Y-23095428D01*
X163058761Y-22857333D02*
X163773047Y-22619238D01*
X163773047Y-23238285D01*
X122446380Y-83985904D02*
X122446380Y-84557333D01*
X123446380Y-84271619D02*
X122446380Y-84271619D01*
X123446380Y-84890666D02*
X122446380Y-84890666D01*
X122446380Y-85271619D01*
X122494000Y-85366857D01*
X122541619Y-85414476D01*
X122636857Y-85462095D01*
X122779714Y-85462095D01*
X122874952Y-85414476D01*
X122922571Y-85366857D01*
X122970190Y-85271619D01*
X122970190Y-84890666D01*
X123446380Y-86414476D02*
X123446380Y-85843047D01*
X123446380Y-86128761D02*
X122446380Y-86128761D01*
X122589238Y-86033523D01*
X122684476Y-85938285D01*
X122732095Y-85843047D01*
X122779714Y-87271619D02*
X123446380Y-87271619D01*
X122398761Y-87033523D02*
X123113047Y-86795428D01*
X123113047Y-87414476D01*
X115596380Y-84342095D02*
X115596380Y-84913523D01*
X116596380Y-84627809D02*
X115596380Y-84627809D01*
X116596380Y-85246857D02*
X115596380Y-85246857D01*
X115596380Y-85627809D01*
X115644000Y-85723047D01*
X115691619Y-85770666D01*
X115786857Y-85818285D01*
X115929714Y-85818285D01*
X116024952Y-85770666D01*
X116072571Y-85723047D01*
X116120190Y-85627809D01*
X116120190Y-85246857D01*
X116024952Y-86389714D02*
X115977333Y-86294476D01*
X115929714Y-86246857D01*
X115834476Y-86199238D01*
X115786857Y-86199238D01*
X115691619Y-86246857D01*
X115644000Y-86294476D01*
X115596380Y-86389714D01*
X115596380Y-86580190D01*
X115644000Y-86675428D01*
X115691619Y-86723047D01*
X115786857Y-86770666D01*
X115834476Y-86770666D01*
X115929714Y-86723047D01*
X115977333Y-86675428D01*
X116024952Y-86580190D01*
X116024952Y-86389714D01*
X116072571Y-86294476D01*
X116120190Y-86246857D01*
X116215428Y-86199238D01*
X116405904Y-86199238D01*
X116501142Y-86246857D01*
X116548761Y-86294476D01*
X116596380Y-86389714D01*
X116596380Y-86580190D01*
X116548761Y-86675428D01*
X116501142Y-86723047D01*
X116405904Y-86770666D01*
X116215428Y-86770666D01*
X116120190Y-86723047D01*
X116072571Y-86675428D01*
X116024952Y-86580190D01*
X119896380Y-83922095D02*
X119896380Y-84493523D01*
X120896380Y-84207809D02*
X119896380Y-84207809D01*
X120896380Y-84826857D02*
X119896380Y-84826857D01*
X119896380Y-85207809D01*
X119944000Y-85303047D01*
X119991619Y-85350666D01*
X120086857Y-85398285D01*
X120229714Y-85398285D01*
X120324952Y-85350666D01*
X120372571Y-85303047D01*
X120420190Y-85207809D01*
X120420190Y-84826857D01*
X119896380Y-86255428D02*
X119896380Y-86064952D01*
X119944000Y-85969714D01*
X119991619Y-85922095D01*
X120134476Y-85826857D01*
X120324952Y-85779238D01*
X120705904Y-85779238D01*
X120801142Y-85826857D01*
X120848761Y-85874476D01*
X120896380Y-85969714D01*
X120896380Y-86160190D01*
X120848761Y-86255428D01*
X120801142Y-86303047D01*
X120705904Y-86350666D01*
X120467809Y-86350666D01*
X120372571Y-86303047D01*
X120324952Y-86255428D01*
X120277333Y-86160190D01*
X120277333Y-85969714D01*
X120324952Y-85874476D01*
X120372571Y-85826857D01*
X120467809Y-85779238D01*
X125396380Y-84002095D02*
X125396380Y-84573523D01*
X126396380Y-84287809D02*
X125396380Y-84287809D01*
X126396380Y-84906857D02*
X125396380Y-84906857D01*
X125396380Y-85287809D01*
X125444000Y-85383047D01*
X125491619Y-85430666D01*
X125586857Y-85478285D01*
X125729714Y-85478285D01*
X125824952Y-85430666D01*
X125872571Y-85383047D01*
X125920190Y-85287809D01*
X125920190Y-84906857D01*
X125396380Y-85811619D02*
X125396380Y-86478285D01*
X126396380Y-86049714D01*
X127906380Y-84182095D02*
X127906380Y-84753523D01*
X128906380Y-84467809D02*
X127906380Y-84467809D01*
X128906380Y-85086857D02*
X127906380Y-85086857D01*
X127906380Y-85467809D01*
X127954000Y-85563047D01*
X128001619Y-85610666D01*
X128096857Y-85658285D01*
X128239714Y-85658285D01*
X128334952Y-85610666D01*
X128382571Y-85563047D01*
X128430190Y-85467809D01*
X128430190Y-85086857D01*
X128906380Y-86134476D02*
X128906380Y-86324952D01*
X128858761Y-86420190D01*
X128811142Y-86467809D01*
X128668285Y-86563047D01*
X128477809Y-86610666D01*
X128096857Y-86610666D01*
X128001619Y-86563047D01*
X127954000Y-86515428D01*
X127906380Y-86420190D01*
X127906380Y-86229714D01*
X127954000Y-86134476D01*
X128001619Y-86086857D01*
X128096857Y-86039238D01*
X128334952Y-86039238D01*
X128430190Y-86086857D01*
X128477809Y-86134476D01*
X128525428Y-86229714D01*
X128525428Y-86420190D01*
X128477809Y-86515428D01*
X128430190Y-86563047D01*
X128334952Y-86610666D01*
X167235904Y-21626380D02*
X166664476Y-21626380D01*
X166950190Y-22626380D02*
X166950190Y-21626380D01*
X166331142Y-22626380D02*
X166331142Y-21626380D01*
X165950190Y-21626380D01*
X165854952Y-21674000D01*
X165807333Y-21721619D01*
X165759714Y-21816857D01*
X165759714Y-21959714D01*
X165807333Y-22054952D01*
X165854952Y-22102571D01*
X165950190Y-22150190D01*
X166331142Y-22150190D01*
X165426380Y-21626380D02*
X164807333Y-21626380D01*
X165140666Y-22007333D01*
X164997809Y-22007333D01*
X164902571Y-22054952D01*
X164854952Y-22102571D01*
X164807333Y-22197809D01*
X164807333Y-22435904D01*
X164854952Y-22531142D01*
X164902571Y-22578761D01*
X164997809Y-22626380D01*
X165283523Y-22626380D01*
X165378761Y-22578761D01*
X165426380Y-22531142D01*
X167786380Y-20922095D02*
X167786380Y-21493523D01*
X168786380Y-21207809D02*
X167786380Y-21207809D01*
X168786380Y-21826857D02*
X167786380Y-21826857D01*
X167786380Y-22207809D01*
X167834000Y-22303047D01*
X167881619Y-22350666D01*
X167976857Y-22398285D01*
X168119714Y-22398285D01*
X168214952Y-22350666D01*
X168262571Y-22303047D01*
X168310190Y-22207809D01*
X168310190Y-21826857D01*
X168786380Y-23350666D02*
X168786380Y-22779238D01*
X168786380Y-23064952D02*
X167786380Y-23064952D01*
X167929238Y-22969714D01*
X168024476Y-22874476D01*
X168072095Y-22779238D01*
X99466380Y-84565904D02*
X99466380Y-85137333D01*
X100466380Y-84851619D02*
X99466380Y-84851619D01*
X100466380Y-85470666D02*
X99466380Y-85470666D01*
X99466380Y-85851619D01*
X99514000Y-85946857D01*
X99561619Y-85994476D01*
X99656857Y-86042095D01*
X99799714Y-86042095D01*
X99894952Y-85994476D01*
X99942571Y-85946857D01*
X99990190Y-85851619D01*
X99990190Y-85470666D01*
X100466380Y-86994476D02*
X100466380Y-86423047D01*
X100466380Y-86708761D02*
X99466380Y-86708761D01*
X99609238Y-86613523D01*
X99704476Y-86518285D01*
X99752095Y-86423047D01*
X99561619Y-87375428D02*
X99514000Y-87423047D01*
X99466380Y-87518285D01*
X99466380Y-87756380D01*
X99514000Y-87851619D01*
X99561619Y-87899238D01*
X99656857Y-87946857D01*
X99752095Y-87946857D01*
X99894952Y-87899238D01*
X100466380Y-87327809D01*
X100466380Y-87946857D01*
X104196380Y-84735904D02*
X104196380Y-85307333D01*
X105196380Y-85021619D02*
X104196380Y-85021619D01*
X105196380Y-85640666D02*
X104196380Y-85640666D01*
X104196380Y-86021619D01*
X104244000Y-86116857D01*
X104291619Y-86164476D01*
X104386857Y-86212095D01*
X104529714Y-86212095D01*
X104624952Y-86164476D01*
X104672571Y-86116857D01*
X104720190Y-86021619D01*
X104720190Y-85640666D01*
X105196380Y-87164476D02*
X105196380Y-86593047D01*
X105196380Y-86878761D02*
X104196380Y-86878761D01*
X104339238Y-86783523D01*
X104434476Y-86688285D01*
X104482095Y-86593047D01*
X104196380Y-87497809D02*
X104196380Y-88116857D01*
X104577333Y-87783523D01*
X104577333Y-87926380D01*
X104624952Y-88021619D01*
X104672571Y-88069238D01*
X104767809Y-88116857D01*
X105005904Y-88116857D01*
X105101142Y-88069238D01*
X105148761Y-88021619D01*
X105196380Y-87926380D01*
X105196380Y-87640666D01*
X105148761Y-87545428D01*
X105101142Y-87497809D01*
X104002095Y-85726380D02*
X103430666Y-85726380D01*
X103716380Y-86726380D02*
X103716380Y-85726380D01*
X103097333Y-86726380D02*
X103097333Y-85726380D01*
X102716380Y-85726380D01*
X102621142Y-85774000D01*
X102573523Y-85821619D01*
X102525904Y-85916857D01*
X102525904Y-86059714D01*
X102573523Y-86154952D01*
X102621142Y-86202571D01*
X102716380Y-86250190D01*
X103097333Y-86250190D01*
X101573523Y-86726380D02*
X102144952Y-86726380D01*
X101859238Y-86726380D02*
X101859238Y-85726380D01*
X101954476Y-85869238D01*
X102049714Y-85964476D01*
X102144952Y-86012095D01*
X100954476Y-85726380D02*
X100859238Y-85726380D01*
X100764000Y-85774000D01*
X100716380Y-85821619D01*
X100668761Y-85916857D01*
X100621142Y-86107333D01*
X100621142Y-86345428D01*
X100668761Y-86535904D01*
X100716380Y-86631142D01*
X100764000Y-86678761D01*
X100859238Y-86726380D01*
X100954476Y-86726380D01*
X101049714Y-86678761D01*
X101097333Y-86631142D01*
X101144952Y-86535904D01*
X101192571Y-86345428D01*
X101192571Y-86107333D01*
X101144952Y-85916857D01*
X101097333Y-85821619D01*
X101049714Y-85774000D01*
X100954476Y-85726380D01*
X167235904Y-23056380D02*
X166664476Y-23056380D01*
X166950190Y-24056380D02*
X166950190Y-23056380D01*
X166331142Y-24056380D02*
X166331142Y-23056380D01*
X165950190Y-23056380D01*
X165854952Y-23104000D01*
X165807333Y-23151619D01*
X165759714Y-23246857D01*
X165759714Y-23389714D01*
X165807333Y-23484952D01*
X165854952Y-23532571D01*
X165950190Y-23580190D01*
X166331142Y-23580190D01*
X165378761Y-23151619D02*
X165331142Y-23104000D01*
X165235904Y-23056380D01*
X164997809Y-23056380D01*
X164902571Y-23104000D01*
X164854952Y-23151619D01*
X164807333Y-23246857D01*
X164807333Y-23342095D01*
X164854952Y-23484952D01*
X165426380Y-24056380D01*
X164807333Y-24056380D01*
X130877333Y-20916380D02*
X130877333Y-21630666D01*
X130924952Y-21773523D01*
X131020190Y-21868761D01*
X131163047Y-21916380D01*
X131258285Y-21916380D01*
X130448761Y-21011619D02*
X130401142Y-20964000D01*
X130305904Y-20916380D01*
X130067809Y-20916380D01*
X129972571Y-20964000D01*
X129924952Y-21011619D01*
X129877333Y-21106857D01*
X129877333Y-21202095D01*
X129924952Y-21344952D01*
X130496380Y-21916380D01*
X129877333Y-21916380D01*
X82629333Y-71588380D02*
X82629333Y-72302666D01*
X82676952Y-72445523D01*
X82772190Y-72540761D01*
X82915047Y-72588380D01*
X83010285Y-72588380D01*
X81629333Y-72588380D02*
X82200761Y-72588380D01*
X81915047Y-72588380D02*
X81915047Y-71588380D01*
X82010285Y-71731238D01*
X82105523Y-71826476D01*
X82200761Y-71874095D01*
X145765904Y-22616380D02*
X145194476Y-22616380D01*
X145480190Y-23616380D02*
X145480190Y-22616380D01*
X144861142Y-23616380D02*
X144861142Y-22616380D01*
X144480190Y-22616380D01*
X144384952Y-22664000D01*
X144337333Y-22711619D01*
X144289714Y-22806857D01*
X144289714Y-22949714D01*
X144337333Y-23044952D01*
X144384952Y-23092571D01*
X144480190Y-23140190D01*
X144861142Y-23140190D01*
X143384952Y-22616380D02*
X143861142Y-22616380D01*
X143908761Y-23092571D01*
X143861142Y-23044952D01*
X143765904Y-22997333D01*
X143527809Y-22997333D01*
X143432571Y-23044952D01*
X143384952Y-23092571D01*
X143337333Y-23187809D01*
X143337333Y-23425904D01*
X143384952Y-23521142D01*
X143432571Y-23568761D01*
X143527809Y-23616380D01*
X143765904Y-23616380D01*
X143861142Y-23568761D01*
X143908761Y-23521142D01*
X104122095Y-87026380D02*
X103550666Y-87026380D01*
X103836380Y-88026380D02*
X103836380Y-87026380D01*
X103217333Y-88026380D02*
X103217333Y-87026380D01*
X102836380Y-87026380D01*
X102741142Y-87074000D01*
X102693523Y-87121619D01*
X102645904Y-87216857D01*
X102645904Y-87359714D01*
X102693523Y-87454952D01*
X102741142Y-87502571D01*
X102836380Y-87550190D01*
X103217333Y-87550190D01*
X101693523Y-88026380D02*
X102264952Y-88026380D01*
X101979238Y-88026380D02*
X101979238Y-87026380D01*
X102074476Y-87169238D01*
X102169714Y-87264476D01*
X102264952Y-87312095D01*
X100741142Y-88026380D02*
X101312571Y-88026380D01*
X101026857Y-88026380D02*
X101026857Y-87026380D01*
X101122095Y-87169238D01*
X101217333Y-87264476D01*
X101312571Y-87312095D01*
X138065904Y-22286380D02*
X137494476Y-22286380D01*
X137780190Y-23286380D02*
X137780190Y-22286380D01*
X137161142Y-23286380D02*
X137161142Y-22286380D01*
X136780190Y-22286380D01*
X136684952Y-22334000D01*
X136637333Y-22381619D01*
X136589714Y-22476857D01*
X136589714Y-22619714D01*
X136637333Y-22714952D01*
X136684952Y-22762571D01*
X136780190Y-22810190D01*
X137161142Y-22810190D01*
X135684952Y-22286380D02*
X136161142Y-22286380D01*
X136208761Y-22762571D01*
X136161142Y-22714952D01*
X136065904Y-22667333D01*
X135827809Y-22667333D01*
X135732571Y-22714952D01*
X135684952Y-22762571D01*
X135637333Y-22857809D01*
X135637333Y-23095904D01*
X135684952Y-23191142D01*
X135732571Y-23238761D01*
X135827809Y-23286380D01*
X136065904Y-23286380D01*
X136161142Y-23238761D01*
X136208761Y-23191142D01*
X117345904Y-23776380D02*
X116774476Y-23776380D01*
X117060190Y-24776380D02*
X117060190Y-23776380D01*
X116441142Y-24776380D02*
X116441142Y-23776380D01*
X116060190Y-23776380D01*
X115964952Y-23824000D01*
X115917333Y-23871619D01*
X115869714Y-23966857D01*
X115869714Y-24109714D01*
X115917333Y-24204952D01*
X115964952Y-24252571D01*
X116060190Y-24300190D01*
X116441142Y-24300190D01*
X114964952Y-23776380D02*
X115441142Y-23776380D01*
X115488761Y-24252571D01*
X115441142Y-24204952D01*
X115345904Y-24157333D01*
X115107809Y-24157333D01*
X115012571Y-24204952D01*
X114964952Y-24252571D01*
X114917333Y-24347809D01*
X114917333Y-24585904D01*
X114964952Y-24681142D01*
X115012571Y-24728761D01*
X115107809Y-24776380D01*
X115345904Y-24776380D01*
X115441142Y-24728761D01*
X115488761Y-24681142D01*
X119896380Y-70915904D02*
X118896380Y-70915904D01*
X118896380Y-71154000D01*
X118944000Y-71296857D01*
X119039238Y-71392095D01*
X119134476Y-71439714D01*
X119324952Y-71487333D01*
X119467809Y-71487333D01*
X119658285Y-71439714D01*
X119753523Y-71392095D01*
X119848761Y-71296857D01*
X119896380Y-71154000D01*
X119896380Y-70915904D01*
X119896380Y-72439714D02*
X119896380Y-71868285D01*
X119896380Y-72154000D02*
X118896380Y-72154000D01*
X119039238Y-72058761D01*
X119134476Y-71963523D01*
X119182095Y-71868285D01*
X115836380Y-70965904D02*
X114836380Y-70965904D01*
X114836380Y-71204000D01*
X114884000Y-71346857D01*
X114979238Y-71442095D01*
X115074476Y-71489714D01*
X115264952Y-71537333D01*
X115407809Y-71537333D01*
X115598285Y-71489714D01*
X115693523Y-71442095D01*
X115788761Y-71346857D01*
X115836380Y-71204000D01*
X115836380Y-70965904D01*
X114931619Y-71918285D02*
X114884000Y-71965904D01*
X114836380Y-72061142D01*
X114836380Y-72299238D01*
X114884000Y-72394476D01*
X114931619Y-72442095D01*
X115026857Y-72489714D01*
X115122095Y-72489714D01*
X115264952Y-72442095D01*
X115836380Y-71870666D01*
X115836380Y-72489714D01*
X107765904Y-24456380D02*
X107194476Y-24456380D01*
X107480190Y-25456380D02*
X107480190Y-24456380D01*
X106861142Y-25456380D02*
X106861142Y-24456380D01*
X106480190Y-24456380D01*
X106384952Y-24504000D01*
X106337333Y-24551619D01*
X106289714Y-24646857D01*
X106289714Y-24789714D01*
X106337333Y-24884952D01*
X106384952Y-24932571D01*
X106480190Y-24980190D01*
X106861142Y-24980190D01*
X105384952Y-24456380D02*
X105861142Y-24456380D01*
X105908761Y-24932571D01*
X105861142Y-24884952D01*
X105765904Y-24837333D01*
X105527809Y-24837333D01*
X105432571Y-24884952D01*
X105384952Y-24932571D01*
X105337333Y-25027809D01*
X105337333Y-25265904D01*
X105384952Y-25361142D01*
X105432571Y-25408761D01*
X105527809Y-25456380D01*
X105765904Y-25456380D01*
X105861142Y-25408761D01*
X105908761Y-25361142D01*
D12*
X162959320Y-44665900D02*
G75*
G03*
X162959320Y-44665900I-950000J0D01*
G01*
X124103000Y-74910000D02*
G75*
G03*
X124103000Y-74910000I-950000J0D01*
G01*
X118378000Y-74985000D02*
G75*
G03*
X118378000Y-74985000I-950000J0D01*
G01*
X121203000Y-74960000D02*
G75*
G03*
X121203000Y-74960000I-950000J0D01*
G01*
X126928000Y-74935000D02*
G75*
G03*
X126928000Y-74935000I-950000J0D01*
G01*
X129753000Y-74910000D02*
G75*
G03*
X129753000Y-74910000I-950000J0D01*
G01*
X166959320Y-40665900D02*
G75*
G03*
X166959320Y-40665900I-950000J0D01*
G01*
X170959320Y-44665900D02*
G75*
G03*
X170959320Y-44665900I-950000J0D01*
G01*
X99355180Y-65211960D02*
G75*
G03*
X99355180Y-65211960I-950000J0D01*
G01*
X107355180Y-65211960D02*
G75*
G03*
X107355180Y-65211960I-950000J0D01*
G01*
X103355180Y-61211960D02*
G75*
G03*
X103355180Y-61211960I-950000J0D01*
G01*
X166959320Y-48665900D02*
G75*
G03*
X166959320Y-48665900I-950000J0D01*
G01*
X145476000Y-32766000D02*
G75*
G03*
X145476000Y-32766000I-950000J0D01*
G01*
X103355180Y-69211960D02*
G75*
G03*
X103355180Y-69211960I-950000J0D01*
G01*
X137774000Y-43584000D02*
G75*
G03*
X137774000Y-43584000I-950000J0D01*
G01*
X117034000Y-43734000D02*
G75*
G03*
X117034000Y-43734000I-950000J0D01*
G01*
X118524000Y-70894000D02*
X118524000Y-73054000D01*
X118524000Y-70894000D02*
X117594000Y-70894000D01*
X115364000Y-70894000D02*
X115364000Y-72354000D01*
X115364000Y-70894000D02*
X116294000Y-70894000D01*
X111304000Y-70944000D02*
X111304000Y-72404000D01*
X114464000Y-70944000D02*
X114464000Y-73104000D01*
X114464000Y-70944000D02*
X113534000Y-70944000D01*
X111304000Y-70944000D02*
X112234000Y-70944000D01*
X107454000Y-32734000D02*
G75*
G03*
X107454000Y-32734000I-950000J0D01*
G01*
M02*
